DBRep_DrawableShape

CASCADE Topology V1, (c) Matra-Datavision
Locations 1
1
              1               0               0               0 
              0               1               0               0 
              0               0               1              12 
Curve2ds 6
1 0 0 1 0 
2 0 0 1 0 -0 1 1.5
1 0 6 1 0 
2 0 0 1 0 -0 1 1.5
1 6.2831853071795862 -0 0 1 
1 0 -0 0 1 
Curves 15
1 -64.824573519457061 135 -12 0 0 1 
1 -66.412286759728531 137.75 -12 0 0 1 
1 -64.824573519457061 135 -12 -0.49999999999999967 0.86602540378443893 0 
1 -66.412286759728531 132.25 -12 0 0 1 
1 -66.412286759728531 132.25 -12 0.49999999999999967 0.86602540378443893 0 
1 -69.587713240271469 137.75 -12 0 0 1 
1 -66.412286759728531 137.75 -12 -1 0 0 
1 -69.587713240271469 137.75 -12 -0.49999999999999967 -0.86602540378443893 0 
1 -71.175426480542939 135 -12 0.49999999999999967 -0.86602540378443893 0 
1 -69.587713240271469 132.25 -12 1 0 0 
2 -68 135 0 0 0 1 1 0 -0 -0 1 0 1.5
1 -69.587713240271469 132.25 -12 0 0 1 
1 -71.175426480542939 135 -12 0 0 1 
2 -68 135 6 0 0 1 1 0 -0 -0 1 0 1.5
1 -66.5 135 0 0 0 1 
Polygon3D 0
PolygonOnTriangulations 0
Surfaces 10
1 -64.824573519457061 135 -12 -0.86602540378443893 -0.49999999999999967 0 -0.49999999999999967 0.86602540378443893 0 -0 0 -1 
1 -66.412286759728531 132.25 -12 -0.86602540378443893 0.49999999999999967 0 0.49999999999999967 0.86602540378443893 0 0 0 -1 
1 -66.412286759728531 137.75 -12 0 -1 0 -1 0 0 -0 -0 -1 
1 -68 135.00000000000003 -11.999999999999998 0 0 1 1 0 -0 -0 1 0 
2 -68 135 0 0 0 1 1 0 -0 -0 1 0 1.5
1 -68 135 0 0 0 1 1 0 -0 -0 1 0 
1 -69.587713240271469 132.25 -12 0 1 0 1 0 0 0 0 -1 
1 -69.587713240271469 137.75 -12 0.86602540378443893 -0.49999999999999967 0 -0.49999999999999967 -0.86602540378443893 0 0 -0 -1 
1 -71.175426480542939 135 -12 0.86602540378443893 0.49999999999999967 -0 0.49999999999999967 -0.86602540378443893 0 0 -0 -1 
1 -68 135 6 0 0 1 1 0 -0 -0 1 0 
Triangulations 0

TShapes 47
Ve
1e-07
-64.8245735194571 135 -12
0 0

0101101
*
Ed
 1e-07 1 1 0
1  1 0 0 12
0

0101000
+47 0 -47 1 *
Ve
1e-07
-66.4122867597285 137.75 -12
0 0

0101101
*
Ed
 1e-07 1 1 0
1  2 0 0 12
0

0101000
+45 0 -45 1 *
Ed
 1e-07 1 1 0
1  3 0 0 3.17542648054294
0

0101000
+47 0 -45 0 *
Wi

0101100
+46 0 -44 0 -43 0 +43 1 *
Fa
0  1e-07 1 0

0101000
+42 0 *
Ve
1e-07
-66.4122867597285 132.25 -12
0 0

0101101
*
Ed
 1e-07 1 1 0
1  4 0 0 12
0

0101000
+40 0 -40 1 *
Ed
 1e-07 1 1 0
1  5 0 0 3.17542648054294
0

0101000
+40 0 -47 0 *
Wi

0101100
+39 0 -46 0 -38 0 +38 1 *
Fa
0  1e-07 2 0

0101000
+37 0 *
Ve
1e-07
-69.5877132402715 137.75 -12
0 0

0101101
*
Ed
 1e-07 1 1 0
1  6 0 0 12
0

0101000
+35 0 -35 1 *
Ed
 1e-07 1 1 0
1  7 0 0 3.17542648054294
0

0101000
+45 0 -35 0 *
Wi

0101100
+44 0 -34 0 -33 0 +33 1 *
Fa
0  1e-07 3 0

0101000
+32 0 *
Ve
1e-07
-71.1754264805429 135 -12
0 0

0101101
*
Ed
 1e-07 1 1 0
1  8 0 0 3.17542648054294
0

0101000
+35 0 -30 0 *
Ve
1e-07
-69.5877132402715 132.25 -12
0 0

0101101
*
Ed
 1e-07 1 1 0
1  9 0 0 3.17542648054294
0

0101000
+30 0 -28 0 *
Ed
 1e-07 1 1 0
1  10 0 0 3.17542648054294
0

0101000
+28 0 -40 0 *
Wi

0101100
+43 0 +33 0 +29 0 +27 0 +26 0 +38 0 *
Fa
0  1e-07 4 0

0101000
+25 0 *
Wi

0101100
+43 1 +38 1 +33 1 +26 1 +29 1 +27 1 *
Ve
1.00000001776357e-07
-66.5 135 0
0 0

0101101
*
Ed
 1.00000001776357e-07 1 1 0
1  11 0 0 6.28318530717959
2  1 5 0 0 6.28318530717959
2  2 6 0 0 6.28318530717959
0

0101000
+22 0 -22 0 *
Wi

0101100
-21 0 *
Fa
0  1e-07 4 1

0101000
+23 0 +20 0 *
Ed
 1e-07 1 1 0
1  12 0 0 12
0

0101000
+28 0 -28 1 *
Wi

0101100
+18 0 -39 0 -26 0 +26 1 *
Fa
0  1e-07 7 0

0101000
+17 0 *
Ed
 1e-07 1 1 0
1  13 0 0 12
0

0101000
+30 0 -30 1 *
Wi

0101100
+34 0 -15 0 -29 0 +29 1 *
Fa
0  1e-07 8 0

0101000
+14 0 *
Wi

0101100
+15 0 -18 0 -27 0 +27 1 *
Fa
0  1e-07 9 0

0101000
+12 0 *
Ve
1e-07
-66.5 135 6
0 0

0101101
*
Ed
 1e-07 1 1 0
1  14 0 0 6.28318530717959
2  3 5 0 0 6.28318530717959
2  4 10 0 0 6.28318530717959
0

0101000
+10 0 -10 0 *
Ed
 1e-07 1 1 0
1  15 0 0 6
3  5 6CN 5 0 0 6
0

0101000
+22 0 -10 0 *
Wi

0101100
-9 0 +8 0 +21 0 -8 0 *
Fa
0  1e-07 5 0

0101000
+7 0 *
Wi

0101100
+9 0 *
Fa
0  1e-07 10 0

0101000
+5 0 *
Sh

0101100
-41 0 -36 0 -31 0 -24 0 +19 0 -16 0 -13 0 -11 0 +6 0 +4 0 
*
So

0100000
+3 0 *
Co

0100000
+2 0 *

+1 0 