DBRep_DrawableShape

CASCADE Topology V1, (c) Matra-Datavision
Locations 0
Curve2ds 62
2 0 0 1 0 -0 1 2
1 -6.2831853071795862 0 1 0 
8 -6.0000000701165845e-07 2.4000000000000057
1 0 -1.8330302779823313 -1 0 
8 -6.0000000701165845e-07 2.4000000000000057
1 1.1592794807274089 0 0 1 
2 0 0 1 0 -0 1 1.8330302779823373
7 0 0  8 107 16  3.1415926535897931 1.1592794807274089  3.1978293181905451 1.1592794807274089  3.2540657242101143 1.1577022636331531  3.3097099356077608 1.1545467798902855  3.3641634336458077 1.14984877033282  3.416916545075968 1.1436754635992332  3.4675989494214279 1.1361176261269896  3.5159852653546912 1.1272789647254935  3.6510234646281381 1.0978567209188153  3.7310240919596254 1.0740315032642229  3.8010836875509995 1.046545988683647  3.8619412834850664 1.0161980083885283  3.9149663953812706 0.98357901469216813  3.9612398745912287 0.94913940154640386  4.001792343260008 0.9132232233691332  4.0708819777838432 0.84128940623230852  4.100011906096217 0.80541850199208032  4.1255329347105523 0.7687020033585692  4.1480002787754238 0.73129929792498927  4.1678547691467198 0.69332984755668403  4.1854447177732172 0.65488703996018771  4.2010476076014047 0.6160465810068545  4.2408491058711268 0.50341226556893237  4.2606220275005029 0.42877184710913063  4.2757013170901246 0.3533514726639444  4.2869273942446853 0.27738994988783361  4.2948162543962383 0.20106258301372293  4.2996816139501899 0.124515088865467  4.301653278308617 0.047872777158579759  4.299850716343701 -0.09576243153627309  4.2967637947318202 -0.16276410219985837  4.2914026847898015 -0.2296496736817879  4.2836379935624791 -0.29633011541622523  4.2732269754318395 -0.36270251470973136  4.2597948681085054 -0.42864290704557162  4.2427673800547714 -0.49398704840854235  4.2023505226452373 -0.61491392763712982  4.1800229552345627 -0.67069587979540302  4.1535983517023851 -0.72565639143294902  4.1222607607123791 -0.77957483577483799  4.0848197485902347 -0.83213963110756595  4.0398129172444897 -0.88292839175414883  3.9848331996487332 -0.93126824960359467  3.8877307707327673 -0.99568609275443454  3.8557720023993349 -1.0146164988425126  3.8211906217546034 -1.0327810610861179  3.7837645272816109 -1.0500759928220404  3.7432788330617903 -1.0663794993581155  3.699559364749049 -1.0815517170558158  3.6525270915287593 -1.0954396322695537  3.5551607464362682 -1.1195563687737728  3.5052162285030106 -1.1299597676041742  3.4525157640571535 -1.138968798995279  3.3972557347105976 -1.1464544965515415  3.3398135305073566 -1.1522948901336107  3.2807611395574607 -1.1563939538118064  3.2208134040404275 -1.1586985322117951  3.1043290942003732 -1.1596698561660501  3.0478142656813794 -1.158555173921167  2.99174223273678 -1.1558475137831121  2.936729794830681 -1.1515755689514535  2.883314702425793 -1.1458011325315365  2.831899195064187 -1.138611787901419  2.7827386776299377 -1.1301101829260864  2.6482946419756801 -1.1021930850680424  2.5690410698227879 -1.0797378386773744  2.4991607106030642 -1.0537230955301311  2.438122702509645 -1.0248897346591548  2.3846998982535297 -0.99380594413560175  2.3378929846135179 -0.96090615112098021  2.2967296194126248 -0.9265268974926455  2.196867703998131 -0.82863336982747948  2.1481711192961939 -0.76260619081477898  2.1100210989516199 -0.69424914472529053  2.0795370779542282 -0.62426144629671398  2.0551310475184437 -0.55309482364418727  2.0355725923041064 -0.48105830131862604  2.0201045776404265 -0.40837800088738296  1.9903153486728384 -0.22551286758122246  1.9804368167187931 -0.11474606096949458  1.9767629268189921 -0.0035294541631287757  1.9788185556590179 0.10777302001758926  1.9866192445297202 0.2188281124168725  2.0009724318654207 0.32922750148017599  2.0233315365632496 0.43849907935817017  2.0749334559866135 0.59906456989287094  2.0951444099976015 0.65202937622689205  2.1188730814928931 0.70429898818747461  2.1467760817613453 0.75569638388606108  2.1797715961129143 0.80598048790670873  2.2190203775144255 0.8548238781273767  2.2662992152362191 0.90173208237569613  2.3524145146961737 0.96801889305585787  2.383652076093028 0.9894354464211722  2.4176858498578278 1.0100744058668658  2.4547939267004768 1.0298217841760429  2.4952675498539785 1.0485405475888634  2.5393764418635572 1.0660686826656305  2.5873006455606276 1.0822229330638924  2.690757112882602 1.1113934793952289  2.746289189941308 1.1244099975883728  2.8056151622313337 1.1356635822489807  2.8685289294571703 1.1449516880174997  2.9345635549761937 1.1520765614541233  3.002830584584899 1.1568784487192261  3.0722115634937932 1.1592794807274089  3.1415926535897931 1.1592794807274089 
 0 9 0.19634954084935258 7 0.57677677624497747 7 0.93342730942838159 7 1.6021470591472591 7 2.1872768401512772 7 2.6992653985297954 7 2.9232603928204015 7 3.1332556999678438 7 3.3301263004185779 7 3.6992586762637036 7 4.3452403339926704 7 5.3142128205861212 7 5.7986990638828475 7 6.0409421855312173 7 6.2831853071795862 9
8 -6.0000000701165845e-07 2.4000000000000057
1 0 1.8330302779823313 -1 0 
8 -6.0000000701165845e-07 2.4000000000000057
1 5.1239058264521775 0 0 1 
1 0 0 1 0 
1 0 57.749999999999993 1 0 
2 0 0 1 0 -0 1 2
1 3.1415926535897931 8.8817841970012523e-16 -1 0 
7 0 0  8 16 3  3.1415925035897878 57.750000299999996  3.33794205381415 57.357301199551273  3.5342916040381382 56.964601992724056  3.7306411542715736 56.594973684608703  3.9269907044774968 56.271482659038156  4.1233402547225282 56.014364018948982  4.3196898049352725 55.838121619352023  4.5160393551603253 55.75000002945243  4.9087384556090488 55.74999997054757  5.1050880058335437 55.838121501510614  5.301437556059021 56.014363845693879  5.4977871062854078 56.271482437092345  5.6941366565095208 56.594973424420459  5.8904862067305643 56.964601705891255  6.0868357569552245 57.357300899551269  6.2831853071795862 57.749999999999993 
 1.5707961767948944 9 3.1415925785897922 7 4.7123889803846897 9
7 0 0  8 16 3  1.5707961767948948 -3.0000001061125658e-07  1.767145727019257 0.39269880044870947  1.9634952772405541 0.78539800735438803  2.1598448274698967 1.1550263150193132  2.3561943776840053 1.4785173411564756  2.5525439279190323 1.7356359808054549  2.7488934781385979 1.9118783807066393  2.9452430283654283 1.9999999705475671  3.3379421288141526 2.0000000294524329  3.5342916790286836 1.9118784985161028  3.7306412292873574 1.7356361540655598  3.9269907794441679 1.4785175629331206  4.1233403297319455 1.155026575368538  4.3196898799278642 0.78539829413512052  4.5160394301603262 0.39269910044872436  4.7123889803846888 0 
 1.5707961767948944 9 3.1415925785897922 7 4.7123889803846897 9
1 6.2831853071795862 -0 0 1 
1 0 -0 0 1 
1 0 0 1 0 
2 0 0 1 0 -0 1 2
1 9.4247779607693793 0 -1 0 
7 0 0  5 6 2  1.5707961767948913 0.80000030000000777  1.6530996414738981 0.63539337064199597  1.7354031061529156 0.47078638522327676  1.8177065708319162 0.30850264088158674  1.9000100355109208 0.15086412118605083  1.9823135001899277 -6.0000125756687339e-07 
 1.5707961767948948 6 1.982313500189929 6
7 0 0  5 6 2  4.7123888303846844 -3.0000001061125658e-07  4.7946922950636912 0.16460662935800122  4.8769957597427265 0.32921361477672129  4.9592992244216987 0.49149735911841219  5.0416026891007135 0.6491358788139463  5.1239061537797204 0.80000060000125472 
 1.5707961767948948 6 1.982313500189929 6
1 9.4247779607693793 0 -1 0 
1 3.1415926535897931 0 -1 0 
7 0 0  5 6 2  1.1592791533998656 0.80000060000125472  1.2415826180788725 0.6491358788139463  1.323886082757868 0.49149735911845038  1.4061895474369006 0.32921361477667688  1.4884930121158879 0.16460662935801543  1.5707964767948948 -2.9999999640040187e-07 
 4.3008718069896572 6 4.7123891303846914 6
7 0 0  5 6 2  -1.9823135001899281 -6.0000125756687339e-07  -1.9000100355109213 0.15086412118605083  -1.8177065708319375 0.30850264088154677  -1.7354031061528659 0.47078638522332206  -1.6530996414739052 0.63539337064198176  -1.5707961767948984 0.80000029999999356 
 4.3008718069896572 6 4.7123891303846914 6
1 3.1415926535897931 0 -1 0 
2 0 0 1 0 -0 1 2
1 1.5707963267948966 -4.7123889803846897 -0 1 
1 -6.2831853071795862 0.79999999999999716 1 0 
1 6.2831853071795862 -6.2831853071795862 0 1 
1 0 -6.2831853071795862 0 1 
1 0 1.5707963267948966 1 0 
1 0 0.79999999999999716 1 0 
1 4.7123889803846897 1.5707963267948966 0 -1 
1 0 0 1 0 
2 0 0 1 0 -0 1 2
1 3.1415926535897931 4.7123889803846897 0 -1 
1 0 -1.5707963267948966 1 0 
1 6.2831853071795862 -6.2831853071795862 0 1 
1 0 -6.2831853071795862 0 1 
8 4.7123889803846897 6.2831853071795871
1 -4.7123889803846897 0 1 0 
1 0 44.995000000000005 1 0 
2 0 0 1 0 -0 1 2
8 0 3.1415926535897931
1 6.2831853071795862 -1.5707963267948966 0 1 
8 0 3.1415926535897931
1 0 -1.5707963267948966 0 1 
7 0 0  8 16 3  3.1415925035897878 44.995000300000008  3.3379420327407257 44.602301241698136  3.5342915618916777 44.209602076938609  3.7306410910459817 43.83997380384244  3.9269906201770937 43.516482797684148  4.1233401493518613 43.259364156896481  4.3196896784943419 43.083121732779546  4.5160392076463562 42.9950000956566  4.9087382659482319 42.994999904343523  5.1050877951010989 43.083121350180591  5.3014373242331203 43.259363594348542  5.49778685340425 43.516482077393448  5.694136382528086 43.839972958288854  5.8904859117055821 44.209601145565102  6.086835440853859 44.602300267348575  6.2831849700047968 44.994999325650426 
 1.5707961767948948 9 3.1415924100023975 7 4.7123886432099003 9
7 0 0  8 16 3  3.1415925035897914 -3.0000001061125658e-07  3.3379420327407292 0.39269875830186068  3.5342915618948609 0.78539792305969058  3.7306410910332488 1.155026196012841  3.9269906202243874 1.4785172022702682  4.1233401493318524 1.7356358428323801  4.3196896784993442 1.9118782672135239  4.5160392076463562 1.9999999043434022  4.9087382659482319 2.0000000956564841  5.1050877951010989 1.9118786498406735  5.3014373242331203 1.7356364055240192  5.49778685340425 1.478517922582796  5.694136382528086 1.1550270415600608  5.8904859117055821 0.78539885447935376  6.086835440853859 0.39269973265143221  6.2831849700047968 6.743495788441578e-07 
 1.5707961767948948 9 3.1415924100023975 7 4.7123886432099003 9
1 6.2831853071795862 -0 0 1 
1 0 -0 0 1 
1 0 -1.5707963267948966 1 0 
1 0 0 1 0 
2 0 0 1 0 -0 1 2
1 4.7123889803846897 -1.5707963267948966 0 1 
1 0 1.5707963267948966 1 0 
1 6.2831853071795862 -0 0 1 
1 0 -0 0 1 
1 0 36.200000000000003 1 0 
2 0 0 1 0 -0 1 2
1 4.7123889803846897 -1.5707963267948966 0 1 
1 1.5707963267948966 4.7123889803846897 0 -1 
1 0 -1.5707963267948966 1 0 
1 0 1.5707963267948966 1 0 
Curves 20
2 74.400000000000006 77.995000000000005 72.599999999999994 1 0 0 -0 0 1 0 -1 0 2
1 74.400000000000006 79.828030277982336 72.599999999999994 0 0 -1 
2 74.400000000000006 77.995000000000005 72.599999999999994 1 0 0 -0 0 1 0 -1 0 1.8330302779823373
1 74.400000000000006 76.161969722017673 72.599999999999994 0 0 -1 
2 75.200000000000003 77.995000000000005 14.850000000000001 0 0 -1 -1 0 -0 0 1 0 2
3 75.200000000000003 77.995000000000005 14.850000000000001 0 -0.70710678118654757 -0.70710678118654757 0 0.70710678118654746 -0.70710678118654746 1 0 0 2.8284271247461903 2
1 73.200000000000003 77.995000000000005 72.599999999999994 0 0 -1 
2 75.200000000000003 77.995000000000005 72.599999999999994 0 0 -1 -1 0 -0 0 1 0 2
3 75.200000000000003 77.995000000000005 72.599999999999994 0.70710678118654757 0 -0.70710678118654757 0.70710678118654746 0 0.70710678118654746 0 -1 0 2.8284271247461903 2
3 75.200000000000003 77.995000000000005 72.599999999999994 0.70710678118654757 0 -0.70710678118654757 0.70710678118654746 0 0.70710678118654746 0 -1 0 2.8284271247461903 2
2 75.200000000000003 77.995000000000005 72.599999999999994 1 0 0 -0 0 1 0 -1 0 2
2 75.200000000000003 77.995000000000005 72.599999999999994 -2.4492935982947064e-16 -1 0 1 -2.4492935982947064e-16 0 0 0 1 2
2 75.200000000000003 77.995000000000005 14.85 0 -1 0 0 -0 -1 1 0 0 2
2 75.200000000000003 77.995000000000005 14.85 -2.4492935982947064e-16 -1 0 1 -2.4492935982947064e-16 0 0 0 1 2
2 75.200000000000003 33 14.85 0 -1 0 0 -0 -1 1 0 0 2
3 75.200000000000003 33 14.85 -0.70710678118654757 -0.70710678118654757 0 0.70710678118654746 -0.70710678118654746 0 0 0 1 2.8284271247461903 2
1 75.200000000000003 77.995000000000005 12.85 0 -1 0 
2 75.200000000000003 33 14.85 -1 0 0 0 0 -1 -0 -1 -0 2
1 75.200000000000003 33.000000000000007 12.85 -1 0 0 
2 39 33 14.85 -1 0 0 0 0 -1 -0 -1 -0 2
Polygon3D 0
PolygonOnTriangulations 0
Surfaces 16
1 74.400000000000006 77.995000000000005 72.599999999999994 1 0 0 -0 0 1 0 -1 0 
2 74.400000000000006 77.995000000000005 72.599999999999994 1 0 0 -0 0 1 0 -1 0 2
2 75.200000000000003 77.995000000000005 72.599999999999994 0 0 -1 -1 0 -0 0 1 0 2
4 75.200000000000003 77.995000000000005 72.599999999999994 0 0 1 1 0 -0 -0 1 0 2
1 75.200000000000003 77.995000000000005 14.850000000000001 0 0 -1 -1 0 -0 0 1 0 
4 75.200000000000003 77.995000000000005 14.85 0 0 1 1 0 -0 -0 1 0 2
2 75.200000000000003 77.995000000000005 14.85 0 -1 0 0 -0 -1 1 0 0 2
1 75.200000000000003 77.995000000000005 72.599999999999994 0 0 -1 -1 0 -0 0 1 0 
1 75.200000000000003 77.995000000000005 72.599999999999994 1 0 0 -0 0 1 0 -1 0 
1 75.200000000000003 77.995000000000005 14.85 0 -1 0 0 -0 -1 1 0 0 
1 75.200000000000003 33 14.85 0 -1 0 0 -0 -1 1 0 0 
4 75.200000000000003 33 14.85 0 0 1 1 0 -0 -0 1 0 2
2 75.200000000000003 33 14.85 -1 0 0 0 0 -1 -0 -1 -0 2
1 75.200000000000003 33 14.85 -1 0 0 0 0 -1 -0 -1 -0 
1 39 33 14.85 -1 0 0 0 0 -1 -0 -1 -0 
4 39 33 14.85 0 0 1 1 0 -0 -0 1 0 2
Triangulations 0

TShapes 77
Ve
1.00001410315465e-07
74.4 79.8280302779815 71.7999999999981
0 0

0101101
*
Ve
1e-07
74.4 77.995 74.6
0 0

0101101
*
Ed
 1e-07 1 1 0
1  1 0 4.30087213431616 6.28318530717959
2  1 1 0 4.30087213431616 6.28318530717959
2  2 2 0 4.30087213431616 6.28318530717959
0

0101000
+77 0 -76 0 *
Ve
1.5e-07
74.4 79.8280302779823 72.6
0 0

0101101
*
Ed
 1e-07 1 1 0
1  2 0 0 0.800000000001916
2  3 1 0 0 0.800000000001916
2  4 3 0 0 0.800000000001916
0

0101000
+74 0 -77 0 *
Ve
1.14743149183672e-07
74.4 77.995 74.4330302779823
0 0

0101101
*
Ed
 1.14743149183672e-07 1 1 0
1  3 0 4.71238898038469 6.28318530717959
2  5 1 0 4.71238898038469 6.28318530717959
2  6 4 0 4.71238898038469 6.28318530717959
0

0101000
+74 0 -72 0 *
Ve
1.5e-07
74.4 76.1619697220177 72.6
0 0

0101101
*
Ed
 1.14743149183672e-07 1 1 0
1  3 0 0 1.5707963267949
2  5 1 0 0 1.5707963267949
2  6 4 0 0 1.5707963267949
0

0101000
+72 0 -70 0 *
Ve
1.00001410315465e-07
74.4 76.1619697220185 71.7999999999981
0 0

0101101
*
Ed
 1e-07 1 1 0
1  4 0 0 0.800000000001916
2  7 1 0 0 0.800000000001916
2  8 3 0 0 0.800000000001916
0

0101000
+70 0 -68 0 *
Ed
 1e-07 1 1 0
1  1 0 0 1.98231317286343
2  9 2 0 0 1.98231317286343
2  1 1 0 0 1.98231317286343
0

0101000
+76 0 -68 0 *
Wi

0101100
+75 0 +73 0 -71 0 -69 0 -67 0 +66 0 *
Fa
0  1e-07 1 0

0101000
+65 0 *
Ve
1.5e-07
73.2 77.995 14.85
0 0

0101101
*
Ve
1.90734863103636e-06
77.2 77.9950000000001 14.85
0 0

0101101
*
Ed
 1e-07 1 1 0
1  5 0 0 3.14159265358979
2  10 3 0 0 3.14159265358979
2  11 5 0 0 3.14159265358979
2  12 6 0 0 3.14159265358979
0

0101000
+63 0 -62 0 *
Ed
 1e-07 1 1 0
1  6 0 1.57079617679489 4.71238898038469
2  13 3 0 1.57079617679489 4.71238898038469
2  14 7 0 1.57079617679489 4.71238898038469
0

0101000
+62 0 -63 0 *
Ve
1.00000014210855e-07
73.2 77.995 72.6
0 0

0101101
*
Ed
 1e-07 1 1 0
1  7 0 0 57.75
3  15 16CN 3 0 0 57.75
0

0101000
+59 0 -63 0 *
Ed
 1.00000014210855e-07 1 1 0
1  8 0 5.12390582645218 6.28318530717959
2  17 3 0 5.12390582645218 6.28318530717959
2  18 8 0 5.12390582645218 6.28318530717959
2  19 4 0 5.12390582645218 6.28318530717959
0

0101000
+70 0 -59 0 *
Ve
5.24264083718512e-07
75.2 75.995 72.6
0 0

0101101
*
Ed
 1e-07 1 1 0
1  9 0 1.57079617679489 1.98231317286295
2  20 2 0 1.57079617679489 1.98231317286295
2  21 3 0 1.57079617679489 1.98231317286295
0

0101000
+56 0 -68 0 *
Ve
1.90734863281272e-06
77.2 77.9950000000001 72.6
0 0

0101101
*
Ed
 1e-07 1 1 0
1  8 0 3.14159265358979 4.71238898038469
2  17 3 0 3.14159265358979 4.71238898038469
2  18 8 0 3.14159265358979 4.71238898038469
2  22 4 0 3.14159265358979 4.71238898038469
0

0101000
+54 0 -56 0 *
Ve
5.24264063621329e-07
75.2 79.995 72.6
0 0

0101101
*
Ed
 1e-07 1 1 0
1  8 0 1.5707963267949 3.14159265358979
2  17 3 0 1.5707963267949 3.14159265358979
2  18 8 0 1.5707963267949 3.14159265358979
2  23 4 0 1.5707963267949 3.14159265358979
0

0101000
+52 0 -54 0 *
Ed
 1e-07 1 1 0
1  10 0 4.30087213431664 4.71238913038469
2  24 3 0 4.30087213431664 4.71238913038469
2  25 2 0 4.30087213431664 4.71238913038469
0

0101000
+77 0 -52 0 *
Ed
 1e-07 1 1 0
1  8 0 0 1.15927948072741
2  17 3 0 0 1.15927948072741
2  18 8 0 0 1.15927948072741
2  26 4 0 0 1.15927948072741
0

0101000
+59 0 -74 0 *
Wi

0101100
-61 0 -60 0 +58 0 +57 0 -67 0 +55 0 +53 0 +51 0 +50 0 +73 0 
+49 0 -58 0 *
Fa
0  1e-07 3 0

0101000
+48 0 *
Ve
7.5995922088623e-07
75.2 77.995 74.6
0 0

0101101
*
Ed
 1e-07 1 1 0
1  11 0 4.71238898038469 6.28318530717959
2  27 9 0 4.71238898038469 6.28318530717959
2  28 4 0 4.71238898038469 6.28318530717959
2  29 2 0 4.71238898038469 6.28318530717959
0

0101000
+52 0 -46 0 *
Ed
 1e-07 1 1 0
1  12 0 6.28318530717959 7.85398163397448
3  30 31CN 4 0 6.28318530717959 7.85398163397448
0

0101000
+54 0 -46 0 *
Ed
 1e-07 1 1 1
2  32 4 0 0 1.5707963267949
0

0101000
+46 0 -46 0 *
Wi

0101100
+45 0 -51 0 -44 0 -43 0 *
Fa
0  1e-07 4 0

0101000
+42 0 *
Ed
 1e-07 1 1 0
1  11 0 0 1.5707963267949
2  33 2 0 0 1.5707963267949
2  27 9 0 0 1.5707963267949
2  34 4 0 0 1.5707963267949
0

0101000
+46 0 -56 0 *
Ed
 1e-07 1 1 1
2  32 4 0 4.71238898038469 6.28318530717959
0

0101000
+46 0 -46 0 *
Wi

0101100
+44 0 -53 0 +40 0 -39 0 *
Fa
0  1e-07 4 0

0101000
+38 0 *
Wi

0101100
-57 0 -49 0 -71 0 -69 0 *
Fa
0  1e-07 4 0

0101000
+36 0 *
Ve
1.00000003552714e-07
75.2 77.995 12.85
0 0

0101101
*
Ed
 1.00000001776357e-07 1 1 0
1  13 0 4.71238898038469 6.28318530717959
2  35 7 0 4.71238898038469 6.28318530717959
2  36 10 0 4.71238898038469 6.28318530717959
2  37 6 0 4.71238898038469 6.28318530717959
0

0101000
+63 0 -34 0 *
Ed
 1e-07 1 1 1
2  38 6 0 0 3.14159265358979
0

0101000
+34 0 -34 0 *
Ed
 1.00000003552714e-07 1 1 0
1  14 0 4.71238898038469 6.28318530717959
3  39 40CN 6 0 4.71238898038469 6.28318530717959
2  41 7 0 4.71238898038469 6.28318530717959
0

0101000
+34 0 -62 0 *
Wi

0101100
+61 0 -33 0 +32 0 -31 0 *
Fa
0  1e-07 6 0

0101000
+30 0 *
Ve
1.34869915768832e-06
75.2 33 12.85
0 0

0101101
*
Ve
2.12133034355964e-07
75.2 33 16.85
0 0

0101101
*
Ed
 1.00000003552714e-07 1 1 0
1  15 0 0 3.14159265358979
2  42 7 0 0 3.14159265358979
2  43 11 0 0 3.14159265358979
3  44 45C0 12 0 0 3.14159265358979
0

0101000
+28 0 -27 0 *
Ed
 1e-07 1 1 0
1  16 0 1.5707963267949 4.7123886432099
2  46 7 0 1.5707963267949 4.7123886432099
2  47 13 0 1.5707963267949 4.7123886432099
0

0101000
+27 0 -28 0 *
Ed
 1e-07 1 1 0
1  17 0 0 44.995
3  48 49CN 7 0 0 44.995
0

0101000
+34 0 -28 0 *
Wi

0101100
-26 0 -25 0 +24 0 +33 0 +60 0 +31 0 -24 0 *
Fa
0  1e-07 7 0

0101000
+23 0 *
Ed
 1e-07 1 1 1
2  50 12 0 4.71238898038469 6.28318530717959
0

0101000
+28 0 -28 0 *
Ed
 1.00000001776357e-07 1 1 0
1  18 0 0 3.14159265358979
2  51 13 0 0 3.14159265358979
2  52 14 0 0 3.14159265358979
2  53 12 0 0 3.14159265358979
0

0101000
+28 0 -27 0 *
Ed
 1e-07 1 1 1
2  54 12 0 4.71238898038469 6.28318530717959
0

0101000
+27 0 -27 0 *
Wi

0101100
+26 0 +21 0 -20 0 -19 0 *
Fa
0  1e-07 12 0

0101000
+18 0 *
Ve
1.00000003552714e-07
39 33 12.85
0 0

0101101
*
Ed
 1e-07 1 1 0
1  19 0 0 36.2
3  55 56CN 13 0 0 36.2
0

0101000
+28 0 -16 0 *
Ve
1.00000003552714e-07
39 33 16.85
0 0

0101101
*
Ed
 1.00000001776357e-07 1 1 0
1  20 0 0 3.14159265358979
2  57 13 0 0 3.14159265358979
2  58 15 0 0 3.14159265358979
2  59 16 0 0 3.14159265358979
0

0101000
+16 0 -14 0 *
Ed
 1.00000003552714e-07 1 1 0
1  20 0 3.14159265358979 6.28318530717959
2  57 13 0 3.14159265358979 6.28318530717959
2  58 15 0 3.14159265358979 6.28318530717959
2  60 16 0 3.14159265358979 6.28318530717959
0

0101000
+14 0 -16 0 *
Wi

0101100
+15 0 +25 0 +20 0 -15 0 -13 0 -12 0 *
Fa
0  1e-07 13 0

0101000
+11 0 *
Ed
 1e-07 1 1 1
2  61 16 0 1.5707963267949 4.71238898038469
0

0101000
+16 0 -16 0 *
Ed
 1e-07 1 1 1
2  62 16 0 1.5707963267949 4.71238898038469
0

0101000
+14 0 -14 0 *
Wi

0101100
+13 0 +9 0 +12 0 -8 0 *
Fa
0  1e-07 16 0

0101000
+7 0 *
Wi

0101100
+66 0 -55 0 -40 0 -45 0 -50 0 +75 0 *
Fa
0  1e-07 2 0

0101000
+5 0 *
Sh

0101000
-64 0 +47 0 +41 0 +37 0 +35 0 +29 0 +22 0 +17 0 +10 0 +6 0 
+4 0 *
So

0100000
+3 0 *
Co

0100000
+2 0 *

+1 0 