DBRep_DrawableShape

CASCADE Topology V1, (c) Matra-Datavision
Locations 0
Curve2ds 12
1 0 5.7000000000000002 1 0 
2 0 0 1 0 -0 1 2.2999999999999998
1 6.2831853071795862 -0 0 1 
1 0 -0 0 1 
1 0 0 1 0 
2 0 0 1 0 -0 1 2.2999999999999998
2 0 0 1 0 -0 1 1.5
1 0 6.7000000000000028 1 0 
2 0 0 1 0 -0 1 1.5
1 0 1 1 0 
1 6.2831853071795862 -0 0 1 
1 0 -0 0 1 
Curves 6
2 4.300000000000006 136.19999999999999 55.799999999999997 0 0 -1 -1 0 -0 0 1 0 2.2999999999999998
1 2.0000000000000067 136.19999999999999 61.5 0 0 -1 
2 4.300000000000006 136.19999999999999 61.5 0 0 -1 -1 0 -0 0 1 0 2.2999999999999998
2 4.300000000000006 136.19999999999999 55.799999999999997 0 0 -1 -1 0 -0 0 1 0 1.5
2 4.300000000000006 136.19999999999999 61.5 0 0 -1 -1 0 -0 0 1 0 1.5
1 2.8000000000000065 136.19999999999999 62.5 0 0 -1 
Polygon3D 0
PolygonOnTriangulations 0
Surfaces 4
2 4.300000000000006 136.19999999999999 61.5 0 0 -1 -1 0 -0 0 1 0 2.2999999999999998
1 4.300000000000006 136.19999999999999 55.799999999999997 0 0 -1 -1 0 -0 0 1 0 
1 4.300000000000006 136.19999999999999 61.5 0 0 -1 -1 0 -0 0 1 0 
2 4.300000000000006 136.19999999999999 62.5 0 0 -1 -1 0 -0 0 1 0 1.5
Triangulations 0

TShapes 23
Ve
1e-07
2.00000000000001 136.2 55.8
0 0

0101101
*
Ed
 1e-07 1 1 0
1  1 0 0 6.28318530717959
2  1 1 0 0 6.28318530717959
2  2 2 0 0 6.28318530717959
0

0101000
+23 0 -23 0 *
Ve
1e-07
2.00000000000001 136.2 61.5
0 0

0101101
*
Ed
 1e-07 1 1 0
1  2 0 0 5.7
3  3 4CN 1 0 0 5.7
0

0101000
-23 0 +21 0 *
Ed
 1e-07 1 1 0
1  3 0 0 6.28318530717959
2  5 1 0 0 6.28318530717959
2  6 3 0 0 6.28318530717959
0

0101000
+21 0 -21 0 *
Wi

0101100
-22 0 +20 0 +19 0 -20 0 *
Fa
0  1e-07 1 0

0101000
+18 0 *
Wi

0101100
+22 0 *
Ve
1.00000000444089e-07
2.80000000000001 136.2 55.8
0 0

0101101
*
Ed
 1e-07 1 1 0
1  4 0 0 6.28318530717959
2  7 2 0 0 6.28318530717959
2  8 4 0 0 6.28318530717959
0

0101000
+15 0 -15 0 *
Wi

0101100
-14 0 *
Fa
0  1e-07 2 0

0101000
+16 0 +13 0 *
Wi

0101100
+19 0 *
Ve
1.00000000444089e-07
2.80000000000001 136.2 61.5
0 0

0101101
*
Ed
 1e-07 1 1 0
1  5 0 0 6.28318530717959
2  9 3 0 0 6.28318530717959
2  10 4 0 0 6.28318530717959
0

0101000
+10 0 -10 0 *
Wi

0101100
-9 0 *
Fa
0  1e-07 3 0

0101000
+11 0 +8 0 *
Ed
 1e-07 1 1 0
1  6 0 1 6.7
3  11 12CN 4 0 1 6.7
0

0101000
+10 0 -15 0 *
Wi

0101100
-14 0 +6 0 +9 0 -6 0 *
Fa
0  1e-07 4 0

0101000
+5 0 *
Sh

0101100
+17 0 +12 0 -7 0 -4 0 *
So

0100000
+3 0 *
Co

0100000
+2 0 *

+1 0 