DBRep_DrawableShape

CASCADE Topology V1, (c) Matra-Datavision
Locations 0
Curve2ds 12
1 0 5.7000000000000002 1 0 
2 0 0 1 0 -0 1 2.2999999999999998
1 6.2831853071795862 -0 0 1 
1 0 -0 0 1 
1 0 0 1 0 
2 0 0 1 0 -0 1 2.2999999999999998
2 0 0 1 0 -0 1 1.5
1 0 6.6999999999999886 1 0 
2 0 0 1 0 -0 1 1.5
1 0 1 1 0 
1 6.2831853071795862 -0 0 1 
1 0 -0 0 1 
Curves 6
2 0 171.30000000000001 92.5 0 -1 0 0 -0 -1 1 0 0 2.2999999999999998
1 -5.6333752760778231e-16 177 90.200000000000003 0 -1 0 
2 0 177 92.5 0 -1 0 0 -0 -1 1 0 0 2.2999999999999998
2 0 171.30000000000001 92.5 0 -1 0 0 -0 -1 1 0 0 1.5
2 0 177 92.5 0 -1 0 0 -0 -1 1 0 0 1.5
1 -3.6739403974420544e-16 178 91 0 -1 0 
Polygon3D 0
PolygonOnTriangulations 0
Surfaces 4
2 0 177 92.5 0 -1 0 0 -0 -1 1 0 0 2.2999999999999998
1 0 171.30000000000001 92.5 0 -1 0 0 -0 -1 1 0 0 
1 0 177 92.5 0 -1 0 0 -0 -1 1 0 0 
2 0 178 92.5 0 -1 0 0 -0 -1 1 0 0 1.5
Triangulations 0

TShapes 23
Ve
1e-07
-5.63337527607782e-16 171.3 90.2
0 0

0101101
*
Ed
 1e-07 1 1 0
1  1 0 0 6.28318530717959
2  1 1 0 0 6.28318530717959
2  2 2 0 0 6.28318530717959
0

0101000
+23 0 -23 0 *
Ve
1e-07
-5.63337527607782e-16 177 90.2
0 0

0101101
*
Ed
 1e-07 1 1 0
1  2 0 0 5.7
3  3 4CN 1 0 0 5.7
0

0101000
-23 0 +21 0 *
Ed
 1e-07 1 1 0
1  3 0 0 6.28318530717959
2  5 1 0 0 6.28318530717959
2  6 3 0 0 6.28318530717959
0

0101000
+21 0 -21 0 *
Wi

0101100
-22 0 +20 0 +19 0 -20 0 *
Fa
0  1e-07 1 0

0101000
+18 0 *
Wi

0101100
+22 0 *
Ve
1.00000000367394e-07
-3.67394039744205e-16 171.3 91
0 0

0101101
*
Ed
 1e-07 1 1 0
1  4 0 0 6.28318530717959
2  7 2 0 0 6.28318530717959
2  8 4 0 0 6.28318530717959
0

0101000
+15 0 -15 0 *
Wi

0101100
-14 0 *
Fa
0  1e-07 2 0

0101000
+16 0 +13 0 *
Wi

0101100
+19 0 *
Ve
1.00000000367394e-07
-3.67394039744205e-16 177 91
0 0

0101101
*
Ed
 1e-07 1 1 0
1  5 0 0 6.28318530717959
2  9 3 0 0 6.28318530717959
2  10 4 0 0 6.28318530717959
0

0101000
+10 0 -10 0 *
Wi

0101100
-9 0 *
Fa
0  1e-07 3 0

0101000
+11 0 +8 0 *
Ed
 1e-07 1 1 0
1  6 0 1 6.69999999999999
3  11 12CN 4 0 1 6.69999999999999
0

0101000
+10 0 -15 0 *
Wi

0101100
-14 0 +6 0 +9 0 -6 0 *
Fa
0  1e-07 4 0

0101000
+5 0 *
Sh

0101100
+17 0 +12 0 -7 0 -4 0 *
So

0100000
+3 0 *
Co

0100000
+2 0 *

+1 0 