DBRep_DrawableShape

CASCADE Topology V1, (c) Matra-Datavision
Locations 0
Curve2ds 114
1 0 0 1 0 
1 0 0 1 0 
1 100 0 0 -1 
1 0 0 0 1 
1 0 -3 1 0 
1 0 0 1 0 
1 0 0 0 -1 
1 0 0 0 1 
1 0 0 0 1 
1 0 0 1 0 
1 0 0 1 0 
1 0 163 1 0 
1 100 0 0 1 
1 0 0 1 0 
2 7.5 7.5 1 0 -0 1 1.7
1 0 1 1 0 
2 7.5 31.5 1 0 -0 1 1.7
1 0 1 1 0 
2 92.5 7.5 1 0 -0 1 1.7
1 0 1 1 0 
8 29.199999999999996 39.399999999999999
1 71.824717660087714 29.200000000000003 0 1 
8 29.199999999999996 39.399999999999999
1 -29.199999999999996 1 1 0 
8 -38.412358830043857 -33.412358830043857
1 33.412358830043857 68.599999999999994 -1 0 
8 -38.412358830043857 -33.412358830043857
1 -33.412358830043857 -1 -1 -0 
8 29.199999999999996 39.399999999999999
1 66.824717660087714 29.200000000000003 0 1 
8 29.199999999999996 39.399999999999999
1 -29.199999999999996 1 1 0 
8 -38.412358830043857 -33.412358830043857
1 33.412358830043857 58.399999999999999 -1 0 
8 -38.412358830043857 -33.412358830043857
1 -33.412358830043857 -1 -1 -0 
2 70.599999999999994 79.5 1 0 -0 1 4.2000000000000002
1 0 1 1 0 
2 92.5 81.5 1 0 -0 1 1.7
1 0 1 1 0 
2 7.5 131.5 1 0 -0 1 1.7
1 0 1 1 0 
2 7.5 155.5 1 0 -0 1 1.7
1 0 1 1 0 
2 70.599999999999994 95.5 1 0 -0 1 4.2000000000000002
1 0 1 1 0 
2 69.849999999999994 111.5 1 0 -0 1 2.5
1 0 1 1 0 
2 75 147.5 1 0 -0 1 10.1
1 0 1 1 0 
2 92.5 155.5 1 0 -0 1 1.7
1 0 1 1 0 
1 100 0 0 1 
1 0 3 1 0 
1 100 0 0 -1 
1 163 0 0 1 
1 0 0 0 1 
1 0 3 1 0 
1 0 -3 1 0 
1 0 163 1 0 
2 7.5 7.5 1 0 -0 1 1.7
1 0 4 1 0 
2 7.5 31.5 1 0 -0 1 1.7
1 0 4 1 0 
2 92.5 7.5 1 0 -0 1 1.7
1 0 4 1 0 
8 29.199999999999996 39.399999999999999
1 71.824717660087714 29.200000000000003 0 1 
8 29.199999999999996 39.399999999999999
1 -29.199999999999996 4 1 0 
8 -38.412358830043857 -33.412358830043857
1 33.412358830043857 68.599999999999994 -1 0 
8 -38.412358830043857 -33.412358830043857
1 -33.412358830043857 -4 -1 -0 
8 29.199999999999996 39.399999999999999
1 66.824717660087714 29.200000000000003 0 1 
8 29.199999999999996 39.399999999999999
1 -29.199999999999996 4 1 0 
8 -38.412358830043857 -33.412358830043857
1 33.412358830043857 58.399999999999999 -1 0 
8 -38.412358830043857 -33.412358830043857
1 -33.412358830043857 -4 -1 -0 
2 70.599999999999994 79.5 1 0 -0 1 4.2000000000000002
1 0 4 1 0 
2 92.5 81.5 1 0 -0 1 1.7
1 0 4 1 0 
2 7.5 131.5 1 0 -0 1 1.7
1 0 4 1 0 
2 7.5 155.5 1 0 -0 1 1.7
1 0 4 1 0 
2 70.599999999999994 95.5 1 0 -0 1 4.2000000000000002
1 0 4 1 0 
2 69.849999999999994 111.5 1 0 -0 1 2.5
1 0 4 1 0 
2 75 147.5 1 0 -0 1 10.1
1 0 4 1 0 
2 92.5 155.5 1 0 -0 1 1.7
1 0 4 1 0 
1 0 0 0 -1 
1 163 0 0 1 
1 6.2831853071795862 -0 0 1 
1 0 -0 0 1 
1 6.2831853071795862 -0 0 1 
1 0 -0 0 1 
1 6.2831853071795862 -0 0 1 
1 0 -0 0 1 
1 5 0 0 -1 
1 0 0 0 1 
1 5 0 0 -1 
1 10.200000000000001 0 0 1 
1 0 0 0 -1 
1 10.200000000000001 0 0 1 
1 0 0 0 -1 
1 0 0 0 1 
1 6.2831853071795862 -0 0 1 
1 0 -0 0 1 
1 6.2831853071795862 -0 0 1 
1 0 -0 0 1 
1 6.2831853071795862 -0 0 1 
1 0 -0 0 1 
1 6.2831853071795862 -0 0 1 
1 0 -0 0 1 
1 6.2831853071795862 -0 0 1 
1 0 -0 0 1 
1 6.2831853071795862 -0 0 1 
1 0 -0 0 1 
1 6.2831853071795862 -0 0 1 
1 0 -0 0 1 
1 6.2831853071795862 -0 0 1 
1 0 -0 0 1 
Curves 57
1 -81.5 157 0 0 0 1 
1 -81.5 157 100 -0 1 0 
1 -81.5 160 0 0 0 1 
1 -81.5 157 0 -0 1 0 
1 -81.5 157 0 1 0 -0 
1 81.5 157 0 0 0 1 
1 -81.5 157 100 1 0 -0 
2 -74 157 7.5 0 1 0 0 -0 1 1 0 -0 1.7
2 -50 157 7.5 0 1 0 0 -0 1 1 0 -0 1.7
2 -74 157 92.5 0 1 0 0 -0 1 1 0 -0 1.7
1 -52.299999999999997 157 71.824717660087714 1 0 -0 
1 -12.900000000000002 157 33.412358830043857 -0 0 -1 
1 -52.299999999999997 157 66.824717660087714 1 0 -0 
1 -23.100000000000001 157 33.412358830043857 -0 0 -1 
2 -1.9999999999999996 157 70.599999999999994 0 1 0 0 -0 1 1 0 -0 4.2000000000000002
2 0 157 92.5 0 1 0 0 -0 1 1 0 -0 1.7
2 50 157 7.5 0 1 0 0 -0 1 1 0 -0 1.7
2 74 157 7.5 0 1 0 0 -0 1 1 0 -0 1.7
2 14 157 70.599999999999994 0 1 0 0 -0 1 1 0 -0 4.2000000000000002
2 30 157 69.849999999999994 0 1 0 0 -0 1 1 0 -0 2.5
2 66 157 75 0 1 0 0 -0 1 1 0 -0 10.1
2 74 157 92.5 0 1 0 0 -0 1 1 0 -0 1.7
1 -81.5 160 100 1 0 -0 
1 81.5 157 100 -0 1 0 
1 -81.5 160 0 1 0 -0 
1 81.5 160 0 0 0 1 
2 -74 160 7.5 0 1 0 0 -0 1 1 0 -0 1.7
2 -50 160 7.5 0 1 0 0 -0 1 1 0 -0 1.7
2 -74 160 92.5 0 1 0 0 -0 1 1 0 -0 1.7
1 -52.299999999999997 160 71.824717660087714 1 0 -0 
1 -12.900000000000002 160 33.412358830043857 -0 0 -1 
1 -52.299999999999997 160 66.824717660087714 1 0 -0 
1 -23.100000000000001 160 33.412358830043857 -0 0 -1 
2 -1.9999999999999996 160 70.599999999999994 0 1 0 0 -0 1 1 0 -0 4.2000000000000002
2 0 160 92.5 0 1 0 0 -0 1 1 0 -0 1.7
2 50 160 7.5 0 1 0 0 -0 1 1 0 -0 1.7
2 74 160 7.5 0 1 0 0 -0 1 1 0 -0 1.7
2 14 160 70.599999999999994 0 1 0 0 -0 1 1 0 -0 4.2000000000000002
2 30 160 69.849999999999994 0 1 0 0 -0 1 1 0 -0 2.5
2 66 160 75 0 1 0 0 -0 1 1 0 -0 10.1
2 74 160 92.5 0 1 0 0 -0 1 1 0 -0 1.7
1 81.5 157 0 -0 1 0 
1 -74 156 9.1999999999999993 0 1 0 
1 -50 156 9.1999999999999993 0 1 0 
1 -74 156 94.200000000000003 0 1 0 
1 -23.100000000000001 156 71.824717660087714 -0 1 0 
1 -12.9 156 71.824717660087714 -0 1 0 
1 -12.9 156 66.824717660087714 -0 1 0 
1 -23.100000000000001 156 66.824717660087714 -0 1 0 
1 -2.0000000000000004 156 74.799999999999997 0 1 0 
1 -4.1637991171010203e-16 156 94.200000000000003 0 1 0 
1 50 156 9.1999999999999993 0 1 0 
1 74 156 9.1999999999999993 0 1 0 
1 14 156 74.799999999999997 0 1 0 
1 30 156 72.349999999999994 0 1 0 
1 66 156 85.099999999999994 0 1 0 
1 74 156 94.200000000000003 0 1 0 
Polygon3D 0
PolygonOnTriangulations 0
Surfaces 21
1 -81.5 157 0 1 0 -0 0 0 1 0 -1 0 
1 -81.5 157 0 -0 1 0 0 0 1 1 0 -0 
1 -81.5 157 100 0 0 1 1 0 -0 -0 1 0 
1 -81.5 160 0 -0 1 0 0 0 1 1 0 -0 
1 -81.5 157 0 0 0 1 1 0 -0 -0 1 0 
1 81.5 157 0 1 0 -0 0 0 1 0 -1 0 
2 -74 156 7.5 0 1 0 0 -0 1 1 0 -0 1.7
2 -50 156 7.5 0 1 0 0 -0 1 1 0 -0 1.7
2 -74 156 92.5 0 1 0 0 -0 1 1 0 -0 1.7
1 -23.100000000000001 156 71.824717660087714 0 0 1 1 0 -0 -0 1 0 
1 -12.9 156 66.824717660087714 1 0 -0 0 0 1 0 -1 0 
1 -23.100000000000001 156 66.824717660087714 0 0 1 1 0 -0 -0 1 0 
1 -23.100000000000001 156 66.824717660087714 1 0 -0 0 0 1 0 -1 0 
2 -1.9999999999999996 156 70.599999999999994 0 1 0 0 -0 1 1 0 -0 4.2000000000000002
2 0 156 92.5 0 1 0 0 -0 1 1 0 -0 1.7
2 50 156 7.5 0 1 0 0 -0 1 1 0 -0 1.7
2 74 156 7.5 0 1 0 0 -0 1 1 0 -0 1.7
2 14 156 70.599999999999994 0 1 0 0 -0 1 1 0 -0 4.2000000000000002
2 30 156 69.849999999999994 0 1 0 0 -0 1 1 0 -0 2.5
2 66 156 75 0 1 0 0 -0 1 1 0 -0 10.1
2 74 156 92.5 0 1 0 0 -0 1 1 0 -0 1.7
Triangulations 0

TShapes 164
Ve
1e-07
-81.5 157 100
0 0

0101101
*
Ve
1e-07
-81.5 157 0
0 0

0101101
*
Ed
 1e-07 1 1 0
1  1 0 0 100
2  1 1 0 0 100
2  2 2 0 0 100
0

0101000
-164 0 +163 0 *
Ve
1e-07
-81.5 160 100
0 0

0101101
*
Ed
 1e-07 1 1 0
1  2 0 0 3
2  3 1 0 0 3
2  4 3 0 0 3
0

0101000
-161 0 +164 0 *
Ve
1e-07
-81.5 160 0
0 0

0101101
*
Ed
 1e-07 1 1 0
1  3 0 0 100
2  5 1 0 0 100
2  6 4 0 0 100
0

0101000
-161 0 +159 0 *
Ed
 1e-07 1 1 0
1  4 0 0 3
2  7 1 0 0 3
2  8 5 0 0 3
0

0101000
-159 0 +163 0 *
Wi

0101100
-162 0 -160 0 +158 0 +157 0 *
Fa
0  1e-07 1 0

0101000
+156 0 *
Ve
1e-07
81.5 157 0
0 0

0101101
*
Ed
 1e-07 1 1 0
1  5 0 0 163
2  9 2 0 0 163
2  10 5 0 0 163
0

0101000
-154 0 +163 0 *
Ve
1e-07
81.5 157 100
0 0

0101101
*
Ed
 1e-07 1 1 0
1  6 0 0 100
2  11 6 0 0 100
2  12 2 0 0 100
0

0101000
-152 0 +154 0 *
Ed
 1e-07 1 1 0
1  7 0 0 163
2  13 2 0 0 163
2  14 3 0 0 163
0

0101000
-152 0 +164 0 *
Wi

0101100
-153 0 -151 0 +162 0 +150 0 *
Ve
1e-07
-74 157 9.2
0 0

0101101
*
Ed
 1e-07 1 1 0
1  8 0 0 6.28318530717959
2  15 2 0 0 6.28318530717959
2  16 7 0 0 6.28318530717959
0

0101000
+148 0 -148 0 *
Wi

0101100
-147 0 *
Ve
1e-07
-50 157 9.2
0 0

0101101
*
Ed
 1e-07 1 1 0
1  9 0 0 6.28318530717959
2  17 2 0 0 6.28318530717959
2  18 8 0 0 6.28318530717959
0

0101000
+145 0 -145 0 *
Wi

0101100
-144 0 *
Ve
1e-07
-74 157 94.2
0 0

0101101
*
Ed
 1e-07 1 1 0
1  10 0 0 6.28318530717959
2  19 2 0 0 6.28318530717959
2  20 9 0 0 6.28318530717959
0

0101000
+142 0 -142 0 *
Wi

0101100
-141 0 *
Ve
1.5e-07
-23.1 157 71.8247176600877
0 0

0101101
*
Ve
1.50000001776357e-07
-12.9 157 71.8247176600877
0 0

0101101
*
Ed
 1.5e-07 1 1 0
1  11 0 29.2 39.4
2  21 2 0 29.2 39.4
2  22 10 0 29.2 39.4
0

0101000
+139 0 -138 0 *
Ve
1.50000001776357e-07
-12.9 157 66.8247176600877
0 0

0101101
*
Ed
 1.5e-07 1 1 0
1  12 0 -38.4123588300439 -33.4123588300439
2  23 2 0 -38.4123588300439 -33.4123588300439
2  24 11 0 -38.4123588300439 -33.4123588300439
0

0101000
+138 0 -136 0 *
Ve
1.5e-07
-23.1 157 66.8247176600877
0 0

0101101
*
Ed
 1.5e-07 1 1 0
1  13 0 29.2 39.4
2  25 2 0 29.2 39.4
2  26 12 0 29.2 39.4
0

0101000
+134 0 -136 0 *
Ed
 1.5e-07 1 1 0
1  14 0 -38.4123588300439 -33.4123588300439
2  27 2 0 -38.4123588300439 -33.4123588300439
2  28 13 0 -38.4123588300439 -33.4123588300439
0

0101000
+139 0 -134 0 *
Wi

0101100
-137 0 -135 0 +133 0 +132 0 *
Ve
1.00000000888178e-07
-2 157 74.8
0 0

0101101
*
Ed
 1e-07 1 1 0
1  15 0 0 6.28318530717959
2  29 2 0 0 6.28318530717959
2  30 14 0 0 6.28318530717959
0

0101000
+130 0 -130 0 *
Wi

0101100
-129 0 *
Ve
1.0000000041638e-07
-4.16379911710102e-16 157 94.2
0 0

0101101
*
Ed
 1e-07 1 1 0
1  16 0 0 6.28318530717959
2  31 2 0 0 6.28318530717959
2  32 15 0 0 6.28318530717959
0

0101000
+127 0 -127 0 *
Wi

0101100
-126 0 *
Ve
1e-07
50 157 9.2
0 0

0101101
*
Ed
 1e-07 1 1 0
1  17 0 0 6.28318530717959
2  33 2 0 0 6.28318530717959
2  34 16 0 0 6.28318530717959
0

0101000
+124 0 -124 0 *
Wi

0101100
-123 0 *
Ve
1e-07
74 157 9.2
0 0

0101101
*
Ed
 1e-07 1 1 0
1  18 0 0 6.28318530717959
2  35 2 0 0 6.28318530717959
2  36 17 0 0 6.28318530717959
0

0101000
+121 0 -121 0 *
Wi

0101100
-120 0 *
Ve
1.00000001776357e-07
14 157 74.8
0 0

0101101
*
Ed
 1e-07 1 1 0
1  19 0 0 6.28318530717959
2  37 2 0 0 6.28318530717959
2  38 18 0 0 6.28318530717959
0

0101000
+118 0 -118 0 *
Wi

0101100
-117 0 *
Ve
1e-07
30 157 72.35
0 0

0101101
*
Ed
 1e-07 1 1 0
1  20 0 0 6.28318530717959
2  39 2 0 0 6.28318530717959
2  40 19 0 0 6.28318530717959
0

0101000
+115 0 -115 0 *
Wi

0101100
-114 0 *
Ve
1e-07
66 157 85.1
0 0

0101101
*
Ed
 1e-07 1 1 0
1  21 0 0 6.28318530717959
2  41 2 0 0 6.28318530717959
2  42 20 0 0 6.28318530717959
0

0101000
+112 0 -112 0 *
Wi

0101100
-111 0 *
Ve
1e-07
74 157 94.2
0 0

0101101
*
Ed
 1e-07 1 1 0
1  22 0 0 6.28318530717959
2  43 2 0 0 6.28318530717959
2  44 21 0 0 6.28318530717959
0

0101000
+109 0 -109 0 *
Wi

0101100
-108 0 *
Fa
0  1e-07 2 0

0101000
+149 0 +146 0 +143 0 +140 0 +131 0 +128 0 +125 0 +122 0 +119 0 +116 0 
+113 0 +110 0 +107 0 *
Ve
1e-07
81.5 160 100
0 0

0101101
*
Ed
 1e-07 1 1 0
1  23 0 0 163
2  45 4 0 0 163
2  46 3 0 0 163
0

0101000
-105 0 +161 0 *
Ed
 1e-07 1 1 0
1  24 0 0 3
2  47 6 0 0 3
2  48 3 0 0 3
0

0101000
-105 0 +152 0 *
Wi

0101100
-160 0 -104 0 +103 0 +150 0 *
Fa
0  1e-07 3 0

0101000
+102 0 *
Ve
1e-07
81.5 160 0
0 0

0101101
*
Ed
 1e-07 1 1 0
1  25 0 0 163
2  49 4 0 0 163
2  50 5 0 0 163
0

0101000
-100 0 +159 0 *
Ed
 1e-07 1 1 0
1  26 0 0 100
2  51 6 0 0 100
2  52 4 0 0 100
0

0101000
-105 0 +100 0 *
Wi

0101100
-99 0 -98 0 +158 0 +104 0 *
Ve
1e-07
-74 160 9.2
0 0

0101101
*
Ed
 1e-07 1 1 0
1  27 0 0 6.28318530717959
2  53 4 0 0 6.28318530717959
2  54 7 0 0 6.28318530717959
0

0101000
+96 0 -96 0 *
Wi

0101100
-95 0 *
Ve
1e-07
-50 160 9.2
0 0

0101101
*
Ed
 1e-07 1 1 0
1  28 0 0 6.28318530717959
2  55 4 0 0 6.28318530717959
2  56 8 0 0 6.28318530717959
0

0101000
+93 0 -93 0 *
Wi

0101100
-92 0 *
Ve
1e-07
-74 160 94.2
0 0

0101101
*
Ed
 1e-07 1 1 0
1  29 0 0 6.28318530717959
2  57 4 0 0 6.28318530717959
2  58 9 0 0 6.28318530717959
0

0101000
+90 0 -90 0 *
Wi

0101100
-89 0 *
Ve
1.5e-07
-23.1 160 71.8247176600877
0 0

0101101
*
Ve
1.50000001776357e-07
-12.9 160 71.8247176600877
0 0

0101101
*
Ed
 1.5e-07 1 1 0
1  30 0 29.2 39.4
2  59 4 0 29.2 39.4
2  60 10 0 29.2 39.4
0

0101000
+87 0 -86 0 *
Ve
1.50000001776357e-07
-12.9 160 66.8247176600877
0 0

0101101
*
Ed
 1.5e-07 1 1 0
1  31 0 -38.4123588300439 -33.4123588300439
2  61 4 0 -38.4123588300439 -33.4123588300439
2  62 11 0 -38.4123588300439 -33.4123588300439
0

0101000
+86 0 -84 0 *
Ve
1.5e-07
-23.1 160 66.8247176600877
0 0

0101101
*
Ed
 1.5e-07 1 1 0
1  32 0 29.2 39.4
2  63 4 0 29.2 39.4
2  64 12 0 29.2 39.4
0

0101000
+82 0 -84 0 *
Ed
 1.5e-07 1 1 0
1  33 0 -38.4123588300439 -33.4123588300439
2  65 4 0 -38.4123588300439 -33.4123588300439
2  66 13 0 -38.4123588300439 -33.4123588300439
0

0101000
+87 0 -82 0 *
Wi

0101100
-85 0 -83 0 +81 0 +80 0 *
Ve
1.00000000888178e-07
-2 160 74.8
0 0

0101101
*
Ed
 1e-07 1 1 0
1  34 0 0 6.28318530717959
2  67 4 0 0 6.28318530717959
2  68 14 0 0 6.28318530717959
0

0101000
+78 0 -78 0 *
Wi

0101100
-77 0 *
Ve
1.0000000041638e-07
-4.16379911710102e-16 160 94.2
0 0

0101101
*
Ed
 1e-07 1 1 0
1  35 0 0 6.28318530717959
2  69 4 0 0 6.28318530717959
2  70 15 0 0 6.28318530717959
0

0101000
+75 0 -75 0 *
Wi

0101100
-74 0 *
Ve
1e-07
50 160 9.2
0 0

0101101
*
Ed
 1e-07 1 1 0
1  36 0 0 6.28318530717959
2  71 4 0 0 6.28318530717959
2  72 16 0 0 6.28318530717959
0

0101000
+72 0 -72 0 *
Wi

0101100
-71 0 *
Ve
1e-07
74 160 9.2
0 0

0101101
*
Ed
 1e-07 1 1 0
1  37 0 0 6.28318530717959
2  73 4 0 0 6.28318530717959
2  74 17 0 0 6.28318530717959
0

0101000
+69 0 -69 0 *
Wi

0101100
-68 0 *
Ve
1.00000001776357e-07
14 160 74.8
0 0

0101101
*
Ed
 1e-07 1 1 0
1  38 0 0 6.28318530717959
2  75 4 0 0 6.28318530717959
2  76 18 0 0 6.28318530717959
0

0101000
+66 0 -66 0 *
Wi

0101100
-65 0 *
Ve
1e-07
30 160 72.35
0 0

0101101
*
Ed
 1e-07 1 1 0
1  39 0 0 6.28318530717959
2  77 4 0 0 6.28318530717959
2  78 19 0 0 6.28318530717959
0

0101000
+63 0 -63 0 *
Wi

0101100
-62 0 *
Ve
1e-07
66 160 85.1
0 0

0101101
*
Ed
 1e-07 1 1 0
1  40 0 0 6.28318530717959
2  79 4 0 0 6.28318530717959
2  80 20 0 0 6.28318530717959
0

0101000
+60 0 -60 0 *
Wi

0101100
-59 0 *
Ve
1e-07
74 160 94.2
0 0

0101101
*
Ed
 1e-07 1 1 0
1  41 0 0 6.28318530717959
2  81 4 0 0 6.28318530717959
2  82 21 0 0 6.28318530717959
0

0101000
+57 0 -57 0 *
Wi

0101100
-56 0 *
Fa
0  1e-07 4 0

0101000
+97 0 +94 0 +91 0 +88 0 +79 0 +76 0 +73 0 +70 0 +67 0 +64 0 
+61 0 +58 0 +55 0 *
Ed
 1e-07 1 1 0
1  42 0 0 3
2  83 6 0 0 3
2  84 5 0 0 3
0

0101000
-100 0 +154 0 *
Wi

0101100
-157 0 -99 0 +53 0 +153 0 *
Fa
0  1e-07 5 0

0101000
+52 0 *
Wi

0101100
-151 0 -103 0 +98 0 +53 0 *
Fa
0  1e-07 6 0

0101000
+50 0 *
Ed
 1e-07 1 1 0
1  43 0 1 4
3  85 86CN 7 0 1 4
0

0101000
+148 0 -96 0 *
Wi

0101100
-95 0 +48 0 +147 0 -48 0 *
Fa
0  1e-07 7 0

0101000
+47 0 *
Ed
 1e-07 1 1 0
1  44 0 1 4
3  87 88CN 8 0 1 4
0

0101000
+145 0 -93 0 *
Wi

0101100
-92 0 +45 0 +144 0 -45 0 *
Fa
0  1e-07 8 0

0101000
+44 0 *
Ed
 1e-07 1 1 0
1  45 0 1 4
3  89 90CN 9 0 1 4
0

0101000
+142 0 -90 0 *
Wi

0101100
-89 0 +42 0 +141 0 -42 0 *
Fa
0  1e-07 9 0

0101000
+41 0 *
Ed
 1e-07 1 1 0
1  46 0 1 4
2  91 13 0 1 4
2  92 10 0 1 4
0

0101000
+139 0 -87 0 *
Ed
 1e-07 1 1 0
1  47 0 1 4
2  93 11 0 1 4
2  94 10 0 1 4
0

0101000
+138 0 -86 0 *
Wi

0101100
-39 0 -85 0 +38 0 +137 0 *
Fa
0  1e-07 10 0

0101000
+37 0 *
Ed
 1e-07 1 1 0
1  48 0 1 4
2  95 11 0 1 4
2  96 12 0 1 4
0

0101000
+136 0 -84 0 *
Wi

0101100
-38 0 -83 0 +35 0 +135 0 *
Fa
0  1e-07 11 0

0101000
+34 0 *
Ed
 1e-07 1 1 0
1  49 0 1 4
2  97 13 0 1 4
2  98 12 0 1 4
0

0101000
+134 0 -82 0 *
Wi

0101100
-32 0 -81 0 +35 0 +133 0 *
Fa
0  1e-07 12 0

0101000
+31 0 *
Wi

0101100
-39 0 -80 0 +32 0 +132 0 *
Fa
0  1e-07 13 0

0101000
+29 0 *
Ed
 1e-07 1 1 0
1  50 0 1 4
3  99 100CN 14 0 1 4
0

0101000
+130 0 -78 0 *
Wi

0101100
-77 0 +27 0 +129 0 -27 0 *
Fa
0  1e-07 14 0

0101000
+26 0 *
Ed
 1e-07 1 1 0
1  51 0 1 4
3  101 102CN 15 0 1 4
0

0101000
+127 0 -75 0 *
Wi

0101100
-74 0 +24 0 +126 0 -24 0 *
Fa
0  1e-07 15 0

0101000
+23 0 *
Ed
 1e-07 1 1 0
1  52 0 1 4
3  103 104CN 16 0 1 4
0

0101000
+124 0 -72 0 *
Wi

0101100
-71 0 +21 0 +123 0 -21 0 *
Fa
0  1e-07 16 0

0101000
+20 0 *
Ed
 1e-07 1 1 0
1  53 0 1 4
3  105 106CN 17 0 1 4
0

0101000
+121 0 -69 0 *
Wi

0101100
-68 0 +18 0 +120 0 -18 0 *
Fa
0  1e-07 17 0

0101000
+17 0 *
Ed
 1e-07 1 1 0
1  54 0 1 4
3  107 108CN 18 0 1 4
0

0101000
+118 0 -66 0 *
Wi

0101100
-65 0 +15 0 +117 0 -15 0 *
Fa
0  1e-07 18 0

0101000
+14 0 *
Ed
 1e-07 1 1 0
1  55 0 1 4
3  109 110CN 19 0 1 4
0

0101000
+115 0 -63 0 *
Wi

0101100
-62 0 +12 0 +114 0 -12 0 *
Fa
0  1e-07 19 0

0101000
+11 0 *
Ed
 1e-07 1 1 0
1  56 0 1 4
3  111 112CN 20 0 1 4
0

0101000
+112 0 -60 0 *
Wi

0101100
-59 0 +9 0 +111 0 -9 0 *
Fa
0  1e-07 20 0

0101000
+8 0 *
Ed
 1e-07 1 1 0
1  57 0 1 4
3  113 114CN 21 0 1 4
0

0101000
+109 0 -57 0 *
Wi

0101100
-56 0 +6 0 +108 0 -6 0 *
Fa
0  1e-07 21 0

0101000
+5 0 *
Sh

0101100
-155 0 -106 0 +101 0 +54 0 -51 0 +49 0 -46 0 -43 0 -40 0 -36 0 
-33 0 +30 0 +28 0 -25 0 -22 0 -19 0 -16 0 -13 0 -10 0 -7 0 
-4 0 *
So

0100000
+3 0 *
Co

0100000
+2 0 *

+1 0 