DBRep_DrawableShape

CASCADE Topology V1, (c) Matra-Datavision
Locations 0
Curve2ds 48
1 0 0 1 0 
1 0 0 1 0 
1 1.5999999999999943 0 0 -1 
1 0 0 0 1 
1 0 -96 1 0 
1 0 0 1 0 
1 0 0 0 -1 
1 0 0 0 1 
1 0 0 0 1 
1 0 0 1 0 
1 0 0 1 0 
1 0 116 1 0 
1 1.5999999999999943 0 0 1 
1 0 0 1 0 
1 1.5999999999999943 0 0 1 
1 0 96 1 0 
1 1.5999999999999943 0 0 -1 
1 116 0 0 1 
2 5.5 4 1 0 -0 1 1.6000000000000001
1 0 2.5999999999999943 1 0 
2 112 4 1 0 -0 1 1.6000000000000001
1 0 2.5999999999999943 1 0 
2 32.5 89 1 0 -0 1 1.6000000000000001
1 0 2.5999999999999943 1 0 
2 112 64.5 1 0 -0 1 1.6000000000000001
1 0 2.5999999999999943 1 0 
1 0 0 0 1 
1 0 96 1 0 
1 0 -96 1 0 
1 0 116 1 0 
1 0 0 0 -1 
1 116 0 0 1 
2 5.5 4 1 0 -0 1 1.6000000000000001
1 0 1 1 0 
2 112 4 1 0 -0 1 1.6000000000000001
1 0 1 1 0 
2 32.5 89 1 0 -0 1 1.6000000000000001
1 0 1 1 0 
2 112 64.5 1 0 -0 1 1.6000000000000001
1 0 1 1 0 
1 6.2831853071795862 -0 0 1 
1 0 -0 0 1 
1 6.2831853071795862 -0 0 1 
1 0 -0 0 1 
1 6.2831853071795862 -0 0 1 
1 0 -0 0 1 
1 6.2831853071795862 -0 0 1 
1 0 -0 0 1 
Curves 24
1 -61 64.5 66.5 0 0 1 
1 -61 64.5 68.099999999999994 -0 1 0 
1 -61 160.5 66.5 0 0 1 
1 -61 64.5 66.5 -0 1 0 
1 -61 64.5 66.5 1 0 -0 
1 55 64.5 66.5 0 0 1 
1 -61 64.5 68.099999999999994 1 0 -0 
1 -61 160.5 68.099999999999994 1 0 -0 
1 55 64.5 68.099999999999994 -0 1 0 
2 -55.5 68.5 68.099999999999994 0 0 1 1 0 -0 -0 1 0 1.6000000000000001
2 51 68.5 68.099999999999994 0 0 1 1 0 -0 -0 1 0 1.6000000000000001
2 -28.5 153.5 68.099999999999994 0 0 1 1 0 -0 -0 1 0 1.6000000000000001
2 51 129 68.099999999999994 0 0 1 1 0 -0 -0 1 0 1.6000000000000001
1 -61 160.5 66.5 1 0 -0 
1 55 160.5 66.5 0 0 1 
1 55 64.5 66.5 -0 1 0 
2 -55.5 68.5 66.5 0 0 1 1 0 -0 -0 1 0 1.6000000000000001
2 51 68.5 66.5 0 0 1 1 0 -0 -0 1 0 1.6000000000000001
2 -28.5 153.5 66.5 0 0 1 1 0 -0 -0 1 0 1.6000000000000001
2 51 129 66.5 0 0 1 1 0 -0 -0 1 0 1.6000000000000001
1 -53.899999999999999 68.5 65.5 0 0 1 
1 52.600000000000001 68.5 65.5 0 0 1 
1 -26.899999999999999 153.5 65.5 0 0 1 
1 52.600000000000001 129 65.5 0 0 1 
Polygon3D 0
PolygonOnTriangulations 0
Surfaces 10
1 -61 64.5 66.5 1 0 -0 0 0 1 0 -1 0 
1 -61 64.5 66.5 -0 1 0 0 0 1 1 0 -0 
1 -61 64.5 68.099999999999994 0 0 1 1 0 -0 -0 1 0 
1 -61 160.5 66.5 -0 1 0 0 0 1 1 0 -0 
1 -61 64.5 66.5 0 0 1 1 0 -0 -0 1 0 
1 55 64.5 66.5 1 0 -0 0 0 1 0 -1 0 
2 -55.5 68.5 65.5 0 0 1 1 0 -0 -0 1 0 1.6000000000000001
2 51 68.5 65.5 0 0 1 1 0 -0 -0 1 0 1.6000000000000001
2 -28.5 153.5 65.5 0 0 1 1 0 -0 -0 1 0 1.6000000000000001
2 51 129 65.5 0 0 1 1 0 -0 -0 1 0 1.6000000000000001
Triangulations 0

TShapes 71
Ve
1e-07
-61 64.5 68.1
0 0

0101101
*
Ve
1e-07
-61 64.5 66.5
0 0

0101101
*
Ed
 1e-07 1 1 0
1  1 0 0 1.59999999999999
2  1 1 0 0 1.59999999999999
2  2 2 0 0 1.59999999999999
0

0101000
-71 0 +70 0 *
Ve
1e-07
-61 160.5 68.1
0 0

0101101
*
Ed
 1e-07 1 1 0
1  2 0 0 96
2  3 1 0 0 96
2  4 3 0 0 96
0

0101000
-68 0 +71 0 *
Ve
1e-07
-61 160.5 66.5
0 0

0101101
*
Ed
 1e-07 1 1 0
1  3 0 0 1.59999999999999
2  5 1 0 0 1.59999999999999
2  6 4 0 0 1.59999999999999
0

0101000
-68 0 +66 0 *
Ed
 1e-07 1 1 0
1  4 0 0 96
2  7 1 0 0 96
2  8 5 0 0 96
0

0101000
-66 0 +70 0 *
Wi

0101100
-69 0 -67 0 +65 0 +64 0 *
Fa
0  1e-07 1 0

0101000
+63 0 *
Ve
1e-07
55 64.5 66.5
0 0

0101101
*
Ed
 1e-07 1 1 0
1  5 0 0 116
2  9 2 0 0 116
2  10 5 0 0 116
0

0101000
-61 0 +70 0 *
Ve
1e-07
55 64.5 68.1
0 0

0101101
*
Ed
 1e-07 1 1 0
1  6 0 0 1.59999999999999
2  11 6 0 0 1.59999999999999
2  12 2 0 0 1.59999999999999
0

0101000
-59 0 +61 0 *
Ed
 1e-07 1 1 0
1  7 0 0 116
2  13 2 0 0 116
2  14 3 0 0 116
0

0101000
-59 0 +71 0 *
Wi

0101100
-60 0 -58 0 +57 0 +69 0 *
Fa
0  1e-07 2 0

0101000
+56 0 *
Ve
1e-07
55 160.5 68.1
0 0

0101101
*
Ed
 1e-07 1 1 0
1  8 0 0 116
2  15 4 0 0 116
2  16 3 0 0 116
0

0101000
-54 0 +68 0 *
Ed
 1e-07 1 1 0
1  9 0 0 96
2  17 6 0 0 96
2  18 3 0 0 96
0

0101000
-54 0 +59 0 *
Wi

0101100
-67 0 -53 0 +57 0 +52 0 *
Ve
1e-07
-53.9 68.5 68.1
0 0

0101101
*
Ed
 1e-07 1 1 0
1  10 0 0 6.28318530717959
2  19 3 0 0 6.28318530717959
2  20 7 0 0 6.28318530717959
0

0101000
+50 0 -50 0 *
Wi

0101100
-49 0 *
Ve
1e-07
52.6 68.5 68.1
0 0

0101101
*
Ed
 1e-07 1 1 0
1  11 0 0 6.28318530717959
2  21 3 0 0 6.28318530717959
2  22 8 0 0 6.28318530717959
0

0101000
+47 0 -47 0 *
Wi

0101100
-46 0 *
Ve
1e-07
-26.9 153.5 68.1
0 0

0101101
*
Ed
 1e-07 1 1 0
1  12 0 0 6.28318530717959
2  23 3 0 0 6.28318530717959
2  24 9 0 0 6.28318530717959
0

0101000
+44 0 -44 0 *
Wi

0101100
-43 0 *
Ve
1e-07
52.6 129 68.1
0 0

0101101
*
Ed
 1e-07 1 1 0
1  13 0 0 6.28318530717959
2  25 3 0 0 6.28318530717959
2  26 10 0 0 6.28318530717959
0

0101000
+41 0 -41 0 *
Wi

0101100
-40 0 *
Fa
0  1e-07 3 0

0101000
+51 0 +48 0 +45 0 +42 0 +39 0 *
Ve
1e-07
55 160.5 66.5
0 0

0101101
*
Ed
 1e-07 1 1 0
1  14 0 0 116
2  27 4 0 0 116
2  28 5 0 0 116
0

0101000
-37 0 +66 0 *
Ed
 1e-07 1 1 0
1  15 0 0 1.59999999999999
2  29 6 0 0 1.59999999999999
2  30 4 0 0 1.59999999999999
0

0101000
-54 0 +37 0 *
Wi

0101100
-36 0 -35 0 +53 0 +65 0 *
Fa
0  1e-07 4 0

0101000
+34 0 *
Ed
 1e-07 1 1 0
1  16 0 0 96
2  31 6 0 0 96
2  32 5 0 0 96
0

0101000
-37 0 +61 0 *
Wi

0101100
-64 0 -36 0 +60 0 +32 0 *
Ve
1e-07
-53.9 68.5 66.5
0 0

0101101
*
Ed
 1e-07 1 1 0
1  17 0 0 6.28318530717959
2  33 5 0 0 6.28318530717959
2  34 7 0 0 6.28318530717959
0

0101000
+30 0 -30 0 *
Wi

0101100
-29 0 *
Ve
1e-07
52.6 68.5 66.5
0 0

0101101
*
Ed
 1e-07 1 1 0
1  18 0 0 6.28318530717959
2  35 5 0 0 6.28318530717959
2  36 8 0 0 6.28318530717959
0

0101000
+27 0 -27 0 *
Wi

0101100
-26 0 *
Ve
1e-07
-26.9 153.5 66.5
0 0

0101101
*
Ed
 1e-07 1 1 0
1  19 0 0 6.28318530717959
2  37 5 0 0 6.28318530717959
2  38 9 0 0 6.28318530717959
0

0101000
+24 0 -24 0 *
Wi

0101100
-23 0 *
Ve
1e-07
52.6 129 66.5
0 0

0101101
*
Ed
 1e-07 1 1 0
1  20 0 0 6.28318530717959
2  39 5 0 0 6.28318530717959
2  40 10 0 0 6.28318530717959
0

0101000
+21 0 -21 0 *
Wi

0101100
-20 0 *
Fa
0  1e-07 5 0

0101000
+31 0 +28 0 +25 0 +22 0 +19 0 *
Wi

0101100
-58 0 -52 0 +35 0 +32 0 *
Fa
0  1e-07 6 0

0101000
+17 0 *
Ed
 1e-07 1 1 0
1  21 0 1 2.59999999999999
3  41 42CN 7 0 1 2.59999999999999
0

0101000
+30 0 -50 0 *
Wi

0101100
-49 0 +15 0 +29 0 -15 0 *
Fa
0  1e-07 7 0

0101000
+14 0 *
Ed
 1e-07 1 1 0
1  22 0 1 2.59999999999999
3  43 44CN 8 0 1 2.59999999999999
0

0101000
+27 0 -47 0 *
Wi

0101100
-46 0 +12 0 +26 0 -12 0 *
Fa
0  1e-07 8 0

0101000
+11 0 *
Ed
 1e-07 1 1 0
1  23 0 1 2.59999999999999
3  45 46CN 9 0 1 2.59999999999999
0

0101000
+24 0 -44 0 *
Wi

0101100
-43 0 +9 0 +23 0 -9 0 *
Fa
0  1e-07 9 0

0101000
+8 0 *
Ed
 1e-07 1 1 0
1  24 0 1 2.59999999999999
3  47 48CN 10 0 1 2.59999999999999
0

0101000
+21 0 -41 0 *
Wi

0101100
-40 0 +6 0 +20 0 -6 0 *
Fa
0  1e-07 10 0

0101000
+5 0 *
Sh

0101100
-62 0 -55 0 +38 0 +33 0 -18 0 +16 0 -13 0 -10 0 -7 0 -4 0 
*
So

0100000
+3 0 *
Co

0100000
+2 0 *

+1 0 