DBRep_DrawableShape

CASCADE Topology V1, (c) Matra-Datavision
Locations 3
1
              1               0               0 -5.777830703042 
              0               1               0 107.805000000024 
              0               0               1            68.1 
1
              1               0               0 -0.612830703042 
              0               1               0 2.44999576182181e-11 
              0               0               1               0 
2  2 -1 0
Curve2ds 206
7 0 0  3 25 23  6.2831853071795862 0.9618219539959999  6.1893284614588531 0.96182195399599901  6.0005695174158671 0.96182195399599868  5.7153107085762729 0.9618219539960009  5.4290763999014455 0.96182195399599846  5.1425581366447535 0.96182195399600179  4.8561672808493794 0.96182195399599801  4.5700334612930309 0.96182195399600068  4.2841406907689139 0.96182195399600035  3.9984191594697926 0.96182195399600035  3.7127904186042797 0.96182195399600035  3.4271914561132411 0.96182195399599946  3.1415926535896226 0.96182195399600012  2.8559938510660521 0.96182195399599979  2.570394888575136 0.96182195399599912  2.2847661477097558 0.96182195399600012  1.9990446164107301 0.96182195399600001  1.7131518458866513 0.96182195399600023  1.4270180263303089 0.9618219539959999  1.140627170534934 0.96182195399600079  0.85410890727823396 0.96182195399599901  0.56787459860336753 0.96182195399600057  0.28261578976371915 0.96182195399600035  0.093856845720723392 0.96182195399600001  0 0.9618219539959999 
 4.9704888142769996e-16 4 1.1423973285780913 1 2.2847946571561821 1 3.427191985734273 1 4.5695893143123643 1 5.7119866428904551 1 6.8543839714685459 1 7.9967813000466368 1 9.1391786286247267 1 10.281575957202818 1 11.423973285780908 1 12.566370614358998 1 13.70876794293709 1 14.851165271515182 1 15.993562600093272 1 17.135959928671362 1 18.278357257249453 1 19.420754585827545 1 20.563151914405637 1 21.705549242983725 1 22.847946571561817 1 23.990343900139909 1 25.132741228718 4
1 2.8290463819279101e-14 -4.9704888142769996e-16 0 1 
1 6.2831853071795862 0 0 1 
1 0 0 0 1 
1 6.2831853071795862 0.53333333333300004 -1 0 
1 0 0 1 0 
1 6.2831853071795862 0 0 1 
1 0 0 0 1 
1 0 1.5707963267948966 1 0 
2 3.2558098393799998e-16 -1.5413043205729996e-16 1 2.3201637061225138e-66 2.3201637061225138e-66 -1 3.4666666666669999
1 2.8290463819279101e-14 0 1 0 
1 2.8290463819279101e-14 25.132741228718 1 0 
1 25.132741227067513 0 0 1 
7 0 0  3 25 23  0 0.091034778038223574  0.093856845720758031 0.091104739558619918  0.28261578976377688 0.091119807144269815  0.5678745986033924 0.090970099034552485  0.85410890727821975 0.091027110277483697  1.1406271705348887 0.091051167841288208  1.4270180263302432 0.091040342928162821  1.7131518458865642 0.091052688527437697  1.9990446164106608 0.0910425083668292  2.2847661477097629 0.091000278389422026  2.5703948885752701 0.090996760422955916  2.8559938510663052 0.091052651528142722  3.1415926535899299 0.091089842137037302  3.4271914561135031 0.091052651527013431  3.7127904186044161 0.090996760421226786  3.998419159469786 0.091000278387850256  4.2841406907688047 0.091042508365916749  4.5700334612928915 0.091052688527249084  4.856167280849256 0.091040342928429913  5.1425581366446682 0.091051167841752503  5.42907639990141 0.09102711027786127  5.715310708576304 0.090970099034453022  6.0005695174159239 0.091119807144540793  6.1893284614588833 0.091104739558826989  6.2831853071795862 0.091034778038223574 
 4.9704888142769996e-16 4 1.1423973285780913 1 2.2847946571561821 1 3.427191985734273 1 4.5695893143123643 1 5.7119866428904551 1 6.8543839714685459 1 7.9967813000466368 1 9.1391786286247267 1 10.281575957202818 1 11.423973285780908 1 12.566370614358998 1 13.70876794293709 1 14.851165271515182 1 15.993562600093272 1 17.135959928671362 1 18.278357257249453 1 19.420754585827545 1 20.563151914405637 1 21.705549242983725 1 22.847946571561817 1 23.990343900139909 1 25.132741228718 4
1 4.1500000000000004 -1.5749999999999997 2.3201637061225138e-66 1 
1 1.575 -0.5 1 -1.2451681914049999e-33 
2 3.2558098393799998e-16 -1.5413043205729996e-16 1 2.3201637061225138e-66 -2.3201637061225138e-66 1 4.2000000000000002
1 6.2831853071795862 0 -1 0 
1 1.5749999999999997 4.1500000000000004 -1 -2.3201637061225138e-66 
1 1.575 -0.5 1 1.863333581871e-33 
2 3.2558098393799998e-16 -1.5413043205729996e-16 1 2.3201637061225138e-66 -2.3201637061225138e-66 1 4.2000000000000002
1 6.2831853071795862 0 -1 0 
1 -4.1500000000000004 2.0749999999999997 -2.3201637061225138e-66 -1 
1 2.0750000000000002 -0.5 1 1.2451681914049999e-33 
2 3.2558098393799998e-16 -1.5413043205729996e-16 1 2.3201637061225138e-66 -2.3201637061225138e-66 1 4.2000000000000002
1 6.2831853071795862 0 -1 0 
1 -2.0749999999999993 -4.1500000000000004 1 2.3201637061225138e-66 
1 2.0750000000000002 -0.5 1 -1.863333581871e-33 
2 3.2558098393799998e-16 -1.5413043205729996e-16 1 2.3201637061225138e-66 -2.3201637061225138e-66 1 4.2000000000000002
1 6.2831853071795862 0 -1 0 
1 6.2831853071795862 3.3306690738754696e-16 0 1 
1 0 3.3306690738754696e-16 0 1 
7 0 0  3 25 23  0 3.0505578755515694  0.093856845720751758 3.0504879140311751  0.2826157897637574 3.0504728464455071  0.56787459860334555 3.0506225545551628  0.85410890727816613 3.0505655433121777  1.1406271705348434 3.0505414857483437  1.4270180263302077 3.0505523106615096  1.7131518458865416 3.0505399650623137  1.9990446164106428 3.0505501452230597  2.2847661477097412 3.0505923752005923  2.5703948885752341 3.0505958931671215  2.8559938510662541 3.0505400020618914  3.1415926535898651 3.0505028114528518  3.4271914561134342 3.0505400020626756  3.7127904186043503 3.0505958931682828  3.998419159469734 3.0505923752015569  4.2841406907687647 3.0505501452234673  4.5700334612928621 3.0505399650621832  4.8561672808492347 3.0505523106610806  5.1425581366446576 3.050541485747837  5.4290763999014029 3.0505655433118197  5.7153107085763031 3.0506225545553085  6.0005695174159248 3.0504728464452495  6.1893284614588842 3.0504879140309664  6.2831853071795862 3.0505578755515694 
 4.9704888142769996e-16 4 1.1423973285780913 1 2.2847946571561821 1 3.427191985734273 1 4.5695893143123643 1 5.7119866428904551 1 6.8543839714685459 1 7.9967813000466368 1 9.1391786286247267 1 10.281575957202818 1 11.423973285780908 1 12.566370614358998 1 13.70876794293709 1 14.851165271515182 1 15.993562600093272 1 17.135959928671362 1 18.278357257249453 1 19.420754585827545 1 20.563151914405637 1 21.705549242983725 1 22.847946571561817 1 23.990343900139909 1 25.132741228718 4
1 -3.2686911237687196e-13 -4.9704888142769996e-16 0 1 
1 0 0 1 0 
1 4.3147361880780002 -3.1499999999999995 -1.3084214221427956e-95 1 
1 0 0 0 -1 
1 1.4142135623730958 0 0 -1 
1 -1.0000000000000004 -0.69999999999999996 1 0 
1 4.1500000000000012 5.0822842164600508e-16 0 1 
1 2.5038576008339999 -0.5 -0 1 
1 0.1544568401732673 0 0 1 
1 3.7961423991659999 -0.5 -0 1 
1 6.1287284670063187 0 0 1 
1 -1.0000000000000004 -0.69999999999999996 1 0 
1 4.1500000000000012 5.0822842164600508e-16 0 1 
1 6.2999999999999998 0 0 -1 
1 0 0 0 -1 
1 0 0 1 0 
1 4.3147361880780002 -3.1499999999999995 -1.3084214221427956e-95 1 
1 0 0 1 0 
1 1.149903065444001 -3.1499999999999995 0 1 
1 1.416339486621629 0 0 1 
1 4.7961423991660004 -0.5 0 1 
1 0 -0.19999999999999996 1 0 
2 1.9504585881589517e-28 4.1500000000000004 1 0 0 -1 4.2000000000000002
1 4.8668458205579572 0 0 1 
1 2.5038576008339999 -0.5 0 1 
1 0 -0.19999999999999996 1 0 
2 1.9504585881589517e-28 4.1500000000000004 1 0 0 -1 4.2000000000000002
1 0 0 1 0 
1 -3.9852638119220001 -4.1500000000000012 1 -1.3084214221427956e-95 
1 0.40000000000000036 0 0 -1 
1 6.2831853071795862 0 0 1 
1 0 -0.99999999999999989 1 0 
1 -3.9852638119220001 -4.1500000000000012 1 -1.3084214221427956e-95 
1 3.5038576008340003 -0.5 0 1 
1 1.7252531669681639 0 0 1 
1 4.1499999999999995 -0.69999999999999996 1 0 
1 0 0 1 0 
1 7.3000000000000007 0 0 -1 
1 0 0 0 -1 
1 6.9000000000000004 0 0 -1 
1 4.7123889803846897 0 0 1 
1 0 0 1 0 
1 3.3147361880779993 4.1500000000000004 -1 1.3084214221427956e-95 
1 0 0 0 -1 
1 1.4142135623730958 0 0 -1 
1 3.1499999999999995 -0.69999999999999996 -1 0 
1 3.9009171763179034e-28 8.3000000000000007 1 0 
1 3.7961423991659999 -0.5 0 1 
1 4.5579321402114221 0 0 1 
1 0 -0.99999999999999989 1 0 
1 3.3147361880779993 4.1500000000000004 -1 1.3084214221427956e-95 
1 6.2831853071795862 -0.49999999999999989 -1 0 
2 0.164736188078 1.1092376359793009e-16 1 -1.3084214221427956e-95 1.3084214221427956e-95 1 4.2000000000000002
1 2.9871358134165256 0 0 1 
1 4.7961423991660004 -0.5 0 1 
1 3.2960494937630602 0 0 1 
1 3.5038576008340003 -0.5 0 1 
1 6.2831853071795862 -0.49999999999999989 -1 0 
2 0.164736188078 1.1092376359793009e-16 1 -1.3084214221427956e-95 1.3084214221427956e-95 1 4.2000000000000002
1 0 0 1 0 
1 -3.985263811922001 4.1499999999999995 1.3084214221427956e-95 -1 
1 0.40000000000000036 0 0 -1 
1 6.2831853071795862 0 0 1 
1 0 -0.99999999999999989 1 0 
1 -3.985263811922001 4.1499999999999995 1.3084214221427956e-95 -1 
1 0 -0.99999999999999989 1 0 
1 -3.985263811922001 4.1499999999999995 1.3084214221427956e-95 -1 
1 7.9000000000000004 0 0 -1 
1 4.7123889803846897 0 0 1 
1 0 0 1 0 
1 -3.985263811922001 4.1499999999999995 1.3084214221427956e-95 -1 
1 0 0 1 0 
1 1.1499030654440017 -4.1499999999999995 -1.2246467991479998e-16 1 
1 -3.2686911237687196e-13 0 1 0 
1 -3.2686911237687196e-13 25.132741228718 1 0 
1 25.132741228717958 0 0 1 
7 0 0  3 25 23  6.2831853071795862 0.038178046003999988  6.1893284614588531 0.038178046004000113  6.0005695174158618 0.038178046003999787  5.71531070857624 0.038178046004000508  5.4290763999013976 0.038178046004000765  5.1425581366447144 0.038178046004015004  4.8561672808493608 0.038178046004035085  4.5700334612930433 0.038178046004073728  4.2841406907689485 0.038178046004122931  3.9984191594698455 0.038178046004169894  3.712790418604337 0.03817804600420463  3.427191456113297 0.038178046004221207  3.1415926535896705 0.038178046004213421  2.8559938510660885 0.038178046004182696  2.5703948885751622 0.038178046004140202  2.2847661477097638 0.038178046004095738  1.9990446164107194 0.038178046004054958  1.7131518458866166 0.038178046004025419  1.4270180263302592 0.03817804600401116  1.1406271705348798 0.038178046004001848  0.85410890727819222 0.038178046004000016  0.56787459860334533 0.038178046004000675  0.28261578976371737 0.038178046003999877  0.093856845720725168 0.038178046003999815  -8.8817841970012523e-16 0.038178046003999988 
 4.9704888142769996e-16 4 1.1423973285780913 1 2.2847946571561821 1 3.427191985734273 1 4.5695893143123643 1 5.7119866428904551 1 6.8543839714685459 1 7.9967813000466368 1 9.1391786286247267 1 10.281575957202818 1 11.423973285780908 1 12.566370614358998 1 13.70876794293709 1 14.851165271515182 1 15.993562600093272 1 17.135959928671362 1 18.278357257249453 1 19.420754585827545 1 20.563151914405637 1 21.705549242983725 1 22.847946571561817 1 23.990343900139909 1 25.132741228718 4
2 -3.5852638119220006 3.7499999999999996 1.3084214221427956e-95 -1 -1 -1.3084214221427956e-95 0.39999999999999991
1 7.8539816339744828 0 -1 0 
1 -1.260263811922 0.32499999999999996 -1 8.9074513760600009e-17 
1 0 -0.14999999999999999 1 0 
2 -1.260263811922 3.4094708370778256e-16 1.2439636580857e-15 -1 1 1.2439636580857e-15 0.32500000000000001
1 6.2831853071795862 -0.14999999999999999 -1 0 
1 -4.5852638119220002 -0.32500000000000046 1 -1.2246467991479998e-16 
1 0 -0.14999999999999999 1 0 
2 -3.5852638119219997 -3.7500000000000004 1.3084214221427956e-95 -1 -1 -1.3084214221427956e-95 0.40000000000000036
1 6.2831853071795862 0 -1 0 
1 3.3147361880780002 -4.1500000000000004 0.70710678118654746 0.70710678118654768 
1 0 0 1 0 
1 1.5897361880780001 -0.32499999999999968 1 3.3390166154099997e-17 
1 0 -0.14999999999999999 1 0 
2 1.5897361880780001 5.5412612366577584e-17 -1.3664283379997001e-15 1 -1 -1.3664283379997001e-15 0.32500000000000001
1 6.2831853071795862 -0.14999999999999999 -1 0 
1 4.9147361880779998 0.32500000000000073 -1 1.3084214221427956e-95 
1 0 -0.14999999999999999 1 0 
1 4.3147361880780002 3.1500000000000004 -0.70710678118654768 0.70710678118654746 
1 0 0 1 0 
1 -1.1136931803688119 -0.69999999999999996 1 0 
1 2.3625000000000003 -0.78749999999999931 0.70710678118654746 0.70710678118654768 
1 -1.5750969345559998 -0.32499999999999979 1 3.3390166154099997e-17 
1 0 -0.14999999999999999 1 0 
1 1.7499030654440002 -0.3249999999999994 0 1 
1 0 -0.14999999999999999 1 0 
1 1.7499030654440002 0.32500000000000062 -1 0 
1 0 -0.14999999999999999 1 0 
1 -1.1136931803688119 -0.69999999999999996 1 0 
1 4.9375 6.5125000000000011 -0.70710678118654768 0.70710678118654746 
2 -3.5852638119219997 -3.7500000000000004 1.3084214221427956e-95 -1 -1 -1.3084214221427956e-95 0.40000000000000036
1 6.2831853071795862 0.99999999999999989 -1 0 
1 7.8539816339744828 0.99999999999999989 -1 0 
2 -3.5852638119220006 3.7499999999999996 1.3084214221427956e-95 -1 -1 -1.3084214221427956e-95 0.39999999999999991
1 -1.5750969345559998 -0.32499999999999968 1 3.3390166154199973e-17 
1 0 -0.14999999999999999 1 0 
1 1.7499030654440002 -0.32499999999999885 0 1 
1 0 -0.14999999999999999 1 0 
1 1.7499030654440002 0.32500000000000118 -1 0 
1 0 -0.14999999999999999 1 0 
1 6.2831853071795862 0 0 1 
1 -8.8817841970012523e-16 0 0 1 
1 6.2831853071795862 7.0166666666670006 -1 0 
1 6.2831853071795862 0 -1 0 
1 6.2831853071795862 7.0166666666670006 -1 0 
1 6.2831853071795862 0 -1 0 
1 6.2831853071795862 7.0166666666670006 -1 0 
1 6.2831853071795862 0 -1 0 
1 6.2831853071795862 7.0166666666670006 -1 0 
1 6.2831853071795862 0 -1 0 
1 0 0 0 -1 
1 0.65000000000000002 0 0 -1 
1 3.3250000000000002 0 0 -1 
1 6.2831853071795862 0 0 -1 
1 0 0 1 0 
1 1.7499030654440002 0.32500000000000062 -1 0 
1 6.2831853071795862 0 -1 0 
2 -1.5750969345559998 -4.2094558788625689e-17 -1.3664283379997001e-15 1 -1 -1.3664283379997001e-15 0.32500000000000001
1 3.1415926535897944 0 0 -1 
1 0 0 0 -1 
1 3.3250000000000002 0 0 -1 
1 0 0 0 -1 
1 0 0 1 0 
1 -1.5750969345559998 -0.32499999999999979 1 3.3390166154099997e-17 
1 0 0 0 -1 
1 0.65000000000000002 0 0 -1 
1 3.3250000000000002 0 0 -1 
1 6.2831853071795862 0 0 -1 
1 0 0 1 0 
1 1.7499030654440002 0.32500000000000118 -1 0 
1 6.2831853071795862 0 -1 0 
2 -1.5750969345559998 -4.2094558788808779e-17 -1.3664283380004998e-15 1 -1 -1.3664283380004998e-15 0.32500000000000001
1 3.1415926535897944 0 0 -1 
1 0 0 0 -1 
1 3.3250000000000002 0 0 -1 
1 0 0 0 -1 
1 0 0 1 0 
1 -1.5750969345559998 -0.32499999999999968 1 3.3390166154199973e-17 
1 0 0 1 0 
1 1.7499030654440002 -0.3249999999999994 0 1 
1 0 0 1 0 
1 1.7499030654440002 -0.32499999999999885 0 1 
1 6.2831853071795862 1.5707963267948966 -1 0 
2 0 0 1 0 -0 1 3.4666666666669999
7 0 0  3 25 23  4.4076963263693081 0  4.4076963556765536 0.024049875652695143  4.4076235436879214 0.072149873830588615  4.4072962694235009 0.14428698197522752  4.4067513579579813 0.21639699043390054  4.405989705938044 0.28846772152703232  4.4050125321133304 0.36048743497244157  4.4038214391260633 0.43244485777834663  4.4024184706522043 0.504327388749642  4.4008060046237345 0.5761280772713222  4.3989869376624711 0.6478373953026586  4.3969646170506396 0.7194487139846224  4.3947429017534105 0.79095701255994799  4.392326216144558 0.86235866387765003  4.3897196400270824 0.9336504956235514  4.3869289109414069 1.0048316159571282  4.3839604350945445 1.0759043698060926  4.3808215214147106 1.1468703250826644  4.3775202951327712 1.2177342967216227  4.3740658364130365 1.288502772663487  4.3704682515659554 1.3591839132257033  4.3667388241667666 1.4297872280234019  4.3628899359707995 1.5003232759248442  4.3602538730483671 1.5473102297418466  4.3589205938072073 1.5707963267957414 
 0 4 0.045454545454545456 1 0.090909090909090912 1 0.13636363636363635 1 0.18181818181818182 1 0.22727272727272729 1 0.27272727272727271 1 0.31818181818181818 1 0.36363636363636365 1 0.40909090909090912 1 0.45454545454545459 1 0.5 1 0.54545454545454541 1 0.59090909090909094 1 0.63636363636363635 1 0.68181818181818188 1 0.72727272727272729 1 0.77272727272727271 1 0.81818181818181823 1 0.86363636363636365 1 0.90909090909090917 1 0.95454545454545459 1 1 4
7 0 0  3 25 23  4.4076963263693081 0  4.4076963556765536 0.024049875652695143  4.4076235436879214 0.072149873830588615  4.4072962694235009 0.14428698197522752  4.4067513579579813 0.21639699043390054  4.405989705938044 0.28846772152703232  4.4050125321133304 0.36048743497244157  4.4038214391260633 0.43244485777834663  4.4024184706522043 0.504327388749642  4.4008060046237345 0.5761280772713222  4.3989869376624711 0.6478373953026586  4.3969646170506396 0.7194487139846224  4.3947429017534105 0.79095701255994799  4.392326216144558 0.86235866387765003  4.3897196400270824 0.9336504956235514  4.3869289109414069 1.0048316159571282  4.3839604350945445 1.0759043698060926  4.3808215214147106 1.1468703250826644  4.3775202951327712 1.2177342967216227  4.3740658364130365 1.288502772663487  4.3704682515659554 1.3591839132257033  4.3667388241667666 1.4297872280234019  4.3628899359707995 1.5003232759248442  4.3602538730483671 1.5473102297418466  4.3589205938072073 1.5707963267957414 
 0 4 0.045454545454545456 1 0.090909090909090912 1 0.13636363636363635 1 0.18181818181818182 1 0.22727272727272729 1 0.27272727272727271 1 0.31818181818181818 1 0.36363636363636365 1 0.40909090909090912 1 0.45454545454545459 1 0.5 1 0.54545454545454541 1 0.59090909090909094 1 0.63636363636363635 1 0.68181818181818188 1 0.72727272727272729 1 0.77272727272727271 1 0.81818181818181823 1 0.86363636363636365 1 0.90909090909090917 1 0.95454545454545459 1 1 4
1 6.2831853071795862 0 0 1 
1 0 0 0 1 
1 6.2831853071795862 1.5707963267948966 -1 0 
2 3.9999999999999996 4.0000000000000009 1 0 0 -1 3.4666666666669999
7 0 0  3 25 23  1.8754889808102779 0  1.8754889515030333 0.024049875652505992  1.8755617634916644 0.072149873830151187  1.87588903775608 0.14428698197463485  1.8764339492215925 0.21639699043316676  1.8771956012415203 0.28846772152607353  1.8781727750662287 0.36048743497143221  1.8793638680534919 0.43244485777787783  1.8807668365273791 0.50432738875028338  1.8823793025558562 0.5761280772718117  1.8841983695171263 0.64783739530297946  1.8862206901289578 0.71944871398480614  1.8884424054261926 0.79095701256004813  1.8908590910350549 0.86235866387758908  1.8934656671525569 0.93365049562383395  1.8962563962382624 1.0048316159581911  1.8992248720851113 1.075904369807051  1.9023637857649223 1.1468703250833714  1.9056650120468437 1.2177342967220521  1.9091194707665686 1.2885027726637857  1.912717055613645 1.3591839132259589  1.916446483012832 1.429787228023603  1.9202953712087873 1.500323275924859  1.9229314341312174 1.5473102297418206  1.9242647133723787 1.5707963267957405 
 0 4 0.045454545454545456 1 0.090909090909090912 1 0.13636363636363635 1 0.18181818181818182 1 0.22727272727272729 1 0.27272727272727271 1 0.31818181818181818 1 0.36363636363636365 1 0.40909090909090912 1 0.45454545454545459 1 0.5 1 0.54545454545454541 1 0.59090909090909094 1 0.63636363636363635 1 0.68181818181818188 1 0.72727272727272729 1 0.77272727272727271 1 0.81818181818181823 1 0.86363636363636365 1 0.90909090909090917 1 0.95454545454545459 1 1 4
7 0 0  3 25 23  1.8754889808102779 0  1.8754889515030333 0.024049875652505992  1.8755617634916644 0.072149873830151187  1.87588903775608 0.14428698197463485  1.8764339492215925 0.21639699043316676  1.8771956012415203 0.28846772152607353  1.8781727750662287 0.36048743497143221  1.8793638680534919 0.43244485777787783  1.8807668365273791 0.50432738875028338  1.8823793025558562 0.5761280772718117  1.8841983695171263 0.64783739530297946  1.8862206901289578 0.71944871398480614  1.8884424054261926 0.79095701256004813  1.8908590910350549 0.86235866387758908  1.8934656671525569 0.93365049562383395  1.8962563962382624 1.0048316159581911  1.8992248720851113 1.075904369807051  1.9023637857649223 1.1468703250833714  1.9056650120468437 1.2177342967220521  1.9091194707665686 1.2885027726637857  1.912717055613645 1.3591839132259589  1.916446483012832 1.429787228023603  1.9202953712087873 1.500323275924859  1.9229314341312174 1.5473102297418206  1.9242647133723787 1.5707963267957405 
 0 4 0.045454545454545456 1 0.090909090909090912 1 0.13636363636363635 1 0.18181818181818182 1 0.22727272727272729 1 0.27272727272727271 1 0.31818181818181818 1 0.36363636363636365 1 0.40909090909090912 1 0.45454545454545459 1 0.5 1 0.54545454545454541 1 0.59090909090909094 1 0.63636363636363635 1 0.68181818181818188 1 0.72727272727272729 1 0.77272727272727271 1 0.81818181818181823 1 0.86363636363636365 1 0.90909090909090917 1 0.95454545454545459 1 1 4
1 6.2831853071795862 1.5707963267948966 -1 0 
2 0 0 1 0 -0 1 3.4666666666669999
1 -1.1999999999999995 4 0 -1 
1 2.7999999999999998 3.4290110376115997e-16 0 1 
Curves 103
7 1 1  13 13 2  -4 4.8985871965889997e-16 1.6118219539959999  1 -4.0000000000010001 1.905321418822 1.6118219539959999  1 -3.0152670276790001 3.8545809853940001 1.6118219539959999  1.0000000000010001 -0.98882445730500002 5.2483845134090004 1.6118219539959999  0.99999999999699996 1.7998177366150001 5.4624461725879998 1.6118219539959999  1.0000000000060001 4.2088726710420001 3.9768722416409998 1.6118219539959999  0.99999999999099998 5.9756614059600004 1.8082661931499999 1.6118219539959999  1.0000000000089999 5.9756614060839999 -1.808266193181 1.6118219539959999  0.99999999999199995 4.2088726709669997 -3.976872241588 1.6118219539959999  1.0000000000060001 1.7998177366400001 -5.4624461726359996 1.6118219539959999  0.99999999999599998 -0.98882445730400004 -5.2483845133870002 1.6118219539959999  1.000000000002 -3.015267027683 -3.8545809854000002 1.6118219539959999  0.99999999999900002 -4 -1.905321418822 1.6118219539959999  1
 4.9704888142769996e-16 13 25.132741228718 13
1 -4 4.8985871965889997e-16 0.65000000000000002 0 0 1 
2 0 0 1.1833333333330001 0 0 -1 -1 1.2246467991469999e-16 0 1.2246467991469999e-16 1 0 4
2 -3.4666666666669999 4.2454422370440001e-16 1.1833333333330001 -1.2246467991469999e-16 -1 -0 -1 1.2246467991469999e-16 0 0 0 -1 0.53333333333300004
2 0 0 0.65000000000000002 0 0 -1 -1 1.2246467991469999e-16 0 1.2246467991469999e-16 1 0 3.4666666666669999
7 1 0  2 3 2  -4 4.8985871965889997e-16 1.6118219539959999  1 -4 1.576662977358e-15 1.648336791163  0.73854894587599995 -3.9636363636360001 4.8540545857110002e-16 1.6516563218139999  1
 0 3 25.132741228718 3
7 1 1  13 13 2  -3.9636363636360001 4.8540545857110002e-16 1.6516563218139999  1 -3.9636363636379999 1.888000315015 1.6516563218139999  1 -2.9878555092419998 3.8195393400720001 1.6516563218139999  1.0000000000010001 -0.97983514406500005 5.2006719269249997 1.6516563218139999  0.99999999999699996 1.783455757207 5.4127875710159996 1.6516563218139999  1.0000000000060001 4.1706101921899998 3.940718857632 1.6516563218139999  0.99999999999099998 5.9213372113910001 1.7918274095690001 1.6516563218139999  1.0000000000089999 5.9213372114520002 -1.7918274095990001 1.6516563218139999  0.99999999999199995 4.1706101921660004 -3.9407188575799998 1.6516563218139999  1.0000000000060001 1.7834557572 -5.4127875710630002 1.6516563218139999  0.99999999999599998 -0.97983514404799998 -5.2006719269030004 1.6516563218139999  1.000000000002 -2.9878555092519998 -3.8195393400770001 1.6516563218139999  0.99999999999900002 -3.9636363636360001 -1.8880003150139999 1.6516563218139999  1
 4.9704888142769996e-16 13 25.132741228718 13
1 -4.1500000000000004 1.575 0.65000000000000002 -1.2246467991469999e-16 -1 1.2451681914049999e-33 
2 0 0 0.65000000000000002 0 0 1 -1 1.2246467991469999e-16 0 -1.2246467991469999e-16 -1 0 4.2000000000000002
1 -1.575 -4.1500000000000004 0.65000000000000002 1 -1.2246467991469999e-16 -1.863333581871e-33 
2 0 0 0.65000000000000002 0 0 1 -1 1.2246467991469999e-16 0 -1.2246467991469999e-16 -1 0 4.2000000000000002
1 4.1500000000000004 -2.0750000000000002 0.65000000000000002 1.2246467991469999e-16 1 -1.2451681914049999e-33 
2 0 0 0.65000000000000002 0 0 1 -1 1.2246467991469999e-16 0 -1.2246467991469999e-16 -1 0 4.2000000000000002
1 2.0750000000000002 4.1500000000000004 0.65000000000000002 -1 1.2246467991469999e-16 1.863333581871e-33 
2 0 0 0.65000000000000002 0 0 1 -1 1.2246467991469999e-16 0 -1.2246467991469999e-16 -1 0 4.2000000000000002
2 -4 4.8985871965889997e-16 2.0499999999999998 -1.2246467991469999e-16 -1 -0 0 0 -1 1 -1.2246467991469999e-16 0 0.40000000000000002
7 1 1  13 13 2  -3.9636363636360001 4.8540545857110002e-16 2.4483436781860002  1 -3.9636363636379999 1.888000315015 2.4483436781860002  1 -2.9878555092419998 3.819539340071 2.4483436781860002  1.0000000000010001 -0.97983514406600003 5.2006719269259998 2.4483436781860002  0.99999999999699996 1.7834557572080001 5.4127875710150004 2.4483436781860002  1.0000000000060001 4.1706101921889998 3.9407188576330001 2.4483436781860002  0.99999999999099998 5.9213372113920002 1.7918274095690001 2.4483436781860002  1.0000000000089999 5.9213372114520002 -1.7918274095990001 2.4483436781860002  0.99999999999199995 4.1706101921650003 -3.9407188575790002 2.4483436781860002  1.0000000000060001 1.7834557572009999 -5.4127875710630002 2.4483436781860002  0.99999999999599998 -0.97983514404799998 -5.2006719269030004 2.4483436781860002  1.000000000002 -2.9878555092519998 -3.8195393400770001 2.4483436781860002  0.99999999999900002 -3.9636363636360001 -1.8880003150139999 2.4483436781860002  1
 4.9704888142769996e-16 13 25.132741228718 13
1 -4.1500000000000004 3.1499999999999999 0.14999999999999999 -1.2246467991469999e-16 -1 0 
1 -4.1500000000000004 3.1499999999999999 0.14999999999999999 0 0 1 
1 -4.1500000000000004 4.1500000000000004 0.84999999999999998 -1.2246467991469999e-16 -1 0 
1 -4.1500000000000004 0.64614239916600003 0.65000000000000002 0 0 -1 
1 -4.1500000000000004 -0.64614239916600003 0.65000000000000002 0 0 -1 
1 -4.1500000000000004 4.1500000000000004 0.84999999999999998 -1.2246467991469999e-16 -1 0 
1 -4.1500000000000004 -3.1499999999999999 0.14999999999999999 0 0 1 
1 -4.1500000000000004 3.1499999999999999 0.14999999999999999 -1.2246467991469999e-16 -1 0 
1 -4.1500000000000004 3.1499999999999999 0.14999999999999999 -1.2246467991469999e-16 -1 0 
1 -0.64614239916600003 4.1500000000000004 0.65000000000000002 0 0 -1 
2 0 0 0.84999999999999998 0 0 -1 -1 1.2246467991469999e-16 0 1.2246467991469999e-16 1 0 4.2000000000000002
1 -0.64614239916600003 -4.1500000000000004 0.65000000000000002 0 0 -1 
2 0 0 0.84999999999999998 0 0 -1 -1 1.2246467991469999e-16 0 1.2246467991469999e-16 1 0 4.2000000000000002
1 4.1500000000000004 4.1500000000000004 0.14999999999999999 -1 1.2246467991469999e-16 0 
1 3.75 4.1500000000000004 0.14999999999999999 0 0 1 
1 4.1500000000000004 4.1500000000000004 1.1499999999999999 -1 1.2246467991469999e-16 0 
1 0.64614239916600003 4.1500000000000004 0.65000000000000002 0 0 -1 
1 5.0822842164620003e-16 4.1500000000000004 0.84999999999999998 -1 1.2246467991469999e-16 0 
1 -3.1499999999999999 4.1500000000000004 0.14999999999999999 0 0 1 
1 3.75 -4.1500000000000004 0.14999999999999999 0 0 1 
1 -3.1499999999999999 -4.1500000000000004 0.14999999999999999 1 -1.2246467991469999e-16 0 
1 -3.1499999999999999 -4.1500000000000004 0.14999999999999999 0 0 1 
1 -5.0822842164620003e-16 -4.1500000000000004 0.84999999999999998 -1 1.2246467991469999e-16 0 
1 0.64614239916600003 -4.1500000000000004 0.65000000000000002 0 0 -1 
1 -3.1499999999999999 -4.1500000000000004 1.1499999999999999 1 -1.2246467991469999e-16 0 
2 0 0 1.1499999999999999 0 0 1 -1 1.2246467991469999e-16 0 -1.2246467991469999e-16 -1 0 4.2000000000000002
1 4.1500000000000004 0.64614239916600003 0.65000000000000002 0 0 -1 
1 4.1500000000000004 -0.64614239916600003 0.65000000000000002 0 0 -1 
2 0 0 1.1499999999999999 0 0 1 -1 1.2246467991469999e-16 0 -1.2246467991469999e-16 -1 0 4.2000000000000002
1 4.1500000000000004 -4.1500000000000004 0.14999999999999999 1.2246467991469999e-16 1 0 
1 4.1500000000000004 -3.75 0.14999999999999999 0 0 1 
1 4.1500000000000004 -4.1500000000000004 1.1499999999999999 1.2246467991469999e-16 1 0 
1 4.1500000000000004 -4.1500000000000004 1.1499999999999999 1.2246467991469999e-16 1 0 
1 4.1500000000000004 3.75 0.14999999999999999 0 0 1 
1 4.1500000000000004 -4.1500000000000004 0.14999999999999999 1.2246467991469999e-16 1 0 
1 4.1500000000000004 -4.1500000000000004 0.14999999999999999 1.2246467991469999e-16 1 0 
7 1 0  2 3 2  -3.9636363636360001 4.8540545857110002e-16 2.4483436781860002  1 -4 1.5671219982410001e-15 2.4516632088370001  0.73854894587599995 -4 4.8985871965889997e-16 2.4881780460040002  1
 0 3 25.132741228718 3
7 1 1  13 13 2  -4 4.8985871965889997e-16 2.4881780460040002  1 -4.0000000000010001 1.905321418822 2.4881780460040002  1 -3.015267027678 3.8545809853940001 2.4881780460040002  1.0000000000010001 -0.98882445730699997 5.2483845134099996 2.4881780460040002  0.99999999999699996 1.799817736619 5.4624461725869997 2.4881780460040002  1.0000000000060001 4.2088726710350004 3.976872241643 2.4881780460040002  0.99999999999099998 5.9756614059690003 1.808266193148 2.4881780460049998  1.0000000000089999 5.9756614060739999 -1.8082661931790001 2.4881780460040002  0.99999999999199995 4.2088726709750004 -3.9768722415890001 2.4881780460040002  1.0000000000060001 1.7998177366350001 -5.4624461726350004 2.4881780460040002  0.99999999999599998 -0.98882445730199997 -5.2483845133870002 2.4881780460040002  1.000000000002 -3.0152670276840001 -3.8545809854000002 2.4881780460040002  0.99999999999900002 -4 -1.905321418822 2.4881780460040002  1
 4.9704888142769996e-16 13 25.132741228718 13
2 3.75 -3.75 0.14999999999999999 0 0 -1 1.2246467991469999e-16 1 0 1 -1.2246467991469999e-16 0 0.40000000000000002
1 1.425 -0.32500000000000001 0.14999999999999999 1 -2.115391936753e-16 0 
2 1.425 -4.0453548898829998e-16 0.14999999999999999 0 0 1 -1.1214989781709999e-15 1 0 -1 -1.1214989781709999e-15 0 0.32500000000000001
1 4.75 0.32500000000000001 0.14999999999999999 -1 2.4492935982949998e-16 0 
2 3.75 3.75 0.14999999999999999 0 0 -1 1.2246467991469999e-16 1 0 1 -1.2246467991469999e-16 0 0.40000000000000002
1 -3.1499999999999999 4.1500000000000004 0.14999999999999999 -0.70710678118654757 -0.70710678118654757 0 
1 -1.425 0.32500000000000001 0.14999999999999999 -1 8.9074513760599997e-17 0 
2 -1.425 2.300233201098e-16 0.14999999999999999 -0 0 1 1.2439636580850001e-15 -1 0 1 1.2439636580850001e-15 0 0.32500000000000001
1 -4.75 -0.32500000000000001 0.14999999999999999 1 -1.2246467991469999e-16 0 
1 -4.1500000000000004 -3.1499999999999999 0.14999999999999999 0.70710678118654757 -0.70710678118654757 0 
1 -2.3624999999999998 4.9375 0.84999999999999998 -0.70710678118654757 -0.70710678118654757 0 
1 -1.425 0.32500000000000001 0.14999999999999999 -1 8.9074513760599997e-17 0 
1 -4.75 0.32500000000000001 0.14999999999999999 -1.2246467991469999e-16 -1 0 
1 -4.75 -0.32500000000000001 0.14999999999999999 1 -1.2246467991469999e-16 0 
1 -4.9375 -2.3624999999999998 0.84999999999999998 0.70710678118654757 -0.70710678118654757 0 
2 3.75 3.75 1.1499999999999999 0 0 -1 1.2246467991469999e-16 1 0 1 -1.2246467991469999e-16 0 0.40000000000000002
2 3.75 -3.75 1.1499999999999999 0 0 -1 1.2246467991469999e-16 1 0 1 -1.2246467991469999e-16 0 0.40000000000000002
1 1.425 -0.32500000000000001 0.14999999999999999 1 -2.115391936753e-16 0 
1 4.75 -0.32500000000000001 0.14999999999999999 2.4492935982949998e-16 1 0 
1 4.75 0.32500000000000001 0.14999999999999999 -1 2.4492935982949998e-16 0 
1 -4 4.8985871965889997e-16 2.4500000000000002 0 0 1 
2 0 0 9.4666666666670007 0 0 -1 -1 1.2246467991469999e-16 0 1.2246467991469999e-16 1 0 4
2 0 0 9.4666666666670007 0 0 -1 -1 1.2246467991469999e-16 0 1.2246467991469999e-16 1 0 4
2 0 0 9.4666666666670007 0 0 -1 -1 1.2246467991469999e-16 0 1.2246467991469999e-16 1 0 4
2 0 0 9.4666666666670007 0 0 -1 -1 1.2246467991469999e-16 0 1.2246467991469999e-16 1 0 4
1 -4.75 -0.32500000000000001 0 0 0 1 
1 -1.425 -0.32500000000000001 0 0 0 1 
1 -4.75 -0.32500000000000001 0 1 -1.2246467991469999e-16 0 
2 -1.425 2.300233201098e-16 0 -0 0 1 1.2439636580850001e-15 -1 0 1 1.2439636580850001e-15 0 0.32500000000000001
1 -1.425 0.32500000000000001 0 0 0 1 
1 -4.75 0.32500000000000001 0 0 0 1 
1 -1.425 0.32500000000000001 0 -1 8.9074513760599997e-17 0 
1 4.75 0.32500000000000001 0 0 0 1 
1 1.425 0.32500000000000001 0 0 0 1 
1 4.75 0.32500000000000001 0 -1 2.4492935982949998e-16 0 
2 1.425 -4.0453548898829998e-16 0 0 0 1 -1.1214989781709999e-15 1 0 -1 -1.1214989781709999e-15 0 0.32500000000000001
1 1.425 -0.32500000000000001 0 0 0 1 
1 4.75 -0.32500000000000001 0 0 0 1 
1 1.425 -0.32500000000000001 0 1 -2.115391936753e-16 0 
1 -4.75 0.32500000000000001 0 -1.2246467991469999e-16 -1 0 
1 4.75 -0.32500000000000001 0 2.4492935982949998e-16 1 0 
2 0 0 10 0 0 -1 -1 1.2246467991469999e-16 0 1.2246467991469999e-16 1 0 3.4666666666669999
7 0 0  6 17 4  1.2 3.8157568056679998 9.4666666666670007  1.2 3.8157568012619998 9.508696495753  1.2 3.8115902134009998 9.5507283106200003  1.2 3.803256501026 9.592270940133  1.2 3.790843032593 9.6328409288729997  1.2 3.7745178331089999 9.6719792362099994  1.2 3.734499563645 9.7466074809050003  1.2 3.7107947844710001 9.7820954353410006  1.2 3.6836494329299998 9.8153122133149999  1.2 3.6533712675609999 9.8458905832409993  1.2 3.6203193064730002 9.8735218244479999  1.2 3.5369253134590002 9.9310471754609999  1.2 3.4845986937540001 9.9582872598729999  1.2 3.4288880294849999 9.9790749163410002  1.2 3.37087149716 9.9930345156060003  1.2 3.3116556022210002 9.9999999944540008  1.2 3.25234957804 10 
 0 7 0.29789020593600002 5 0.59618661078500002 5 1 7
2 -3.4666666666669999 4.2454422370440001e-16 9.4666666666670007 1.2246467991469999e-16 1 -0 -1 1.2246467991469999e-16 0 0 0 1 0.53333333333300004
2 0 0 10 0 0 -1 -1 1.2246467991469999e-16 0 1.2246467991469999e-16 1 0 3.4666666666669999
7 0 0  6 17 4  1.2 -3.8157568056679998 9.4666666666670007  1.2 -3.8157568012619998 9.508696495753  1.2 -3.8115902134009998 9.5507283106200003  1.2 -3.803256501026 9.5922709401340001  1.2 -3.790843032593 9.6328409288729997  1.2 -3.7745178331089999 9.6719792362109995  1.2 -3.7344995636439999 9.7466074809070005  1.2 -3.71079478447 9.7820954353420007  1.2 -3.6836494329290002 9.815312213316  1.2 -3.6533712675599999 9.8458905832419994  1.2 -3.6203193064720001 9.8735218244479999  1.2 -3.536925313457 9.9310471754609999  1.2 -3.484598693753 9.9582872598729999  1.2 -3.4288880294849999 9.9790749163410002  1.2 -3.3708714971589999 9.9930345156060003  1.2 -3.3116556022210002 9.9999999944540008  1.2 -3.25234957804 10 
 0 7 0.29789020593799997 5 0.59618661078599999 5 1 7
2 0 0 10 0 0 -1 -1 1.2246467991469999e-16 0 1.2246467991469999e-16 1 0 3.4666666666669999
1 1.2 4 10 -1.2246467991469999e-16 -1 0 
Polygon3D 0
PolygonOnTriangulations 0
Surfaces 41
2 0 0 0.65000000000000002 0 0 1 -1 1.2246467991469999e-16 0 -1.2246467991469999e-16 -1 0 4
9 1 1 0 1 2 13 3 13 2 2 -4 4.8985871965889997e-16 1.6118219539959999  1 -4.0000000000010001 1.905321418822 1.6118219539959999  1 -3.0152670276790001 3.8545809853940001 1.6118219539959999  1.0000000000010001 -0.98882445730500002 5.2483845134090004 1.6118219539959999  0.99999999999699996 1.7998177366150001 5.4624461725879998 1.6118219539959999  1.0000000000060001 4.2088726710420001 3.9768722416409998 1.6118219539959999  0.99999999999099998 5.9756614059600004 1.8082661931499999 1.6118219539959999  1.0000000000089999 5.9756614060839999 -1.808266193181 1.6118219539959999  0.99999999999199995 4.2088726709669997 -3.976872241588 1.6118219539959999  1.0000000000060001 1.7998177366400001 -5.4624461726359996 1.6118219539959999  0.99999999999599998 -0.98882445730400004 -5.2483845133870002 1.6118219539959999  1.000000000002 -3.015267027683 -3.8545809854000002 1.6118219539959999  0.99999999999900002 -4 -1.905321418822 1.6118219539959999  1 
-4 1.576662977358e-15 1.648336791163  0.73854894587599995 -4.0000000000020002 1.905321418822 1.648336791163  0.73854894587599995 -3.0152670276750002 3.8545809853940001 1.648336791163  0.73854894587700004 -0.98882445731299995 5.2483845134090004 1.648336791163  0.73854894587300002 1.799817736629 5.4624461725889999 1.648336791163  0.73854894588099995 4.2088726710230002 3.9768722416400002 1.648336791163  0.738548945869 5.9756614059819997 1.8082661931549999 1.648336791163  0.73854894588300002 5.9756614060609996 -1.808266193186 1.648336791163  0.738548945869 4.2088726709859996 -3.9768722415840001 1.648336791163  0.73854894588099995 1.7998177366279999 -5.4624461726379998 1.648336791163  0.73854894587300002 -0.98882445729799995 -5.2483845133860001 1.648336791163  0.73854894587700004 -3.0152670276850002 -3.8545809854000002 1.648336791163  0.73854894587599995 -3.9999999999989999 -1.905321418822 1.648336791163  0.73854894587599995 
-3.9636363636360001 4.8540545857110002e-16 1.6516563218139999  1 -3.9636363636379999 1.888000315015 1.6516563218139999  1 -2.9878555092419998 3.8195393400720001 1.6516563218139999  1.0000000000010001 -0.97983514406500005 5.2006719269249997 1.6516563218139999  0.99999999999699996 1.783455757207 5.4127875710159996 1.6516563218139999  1.0000000000060001 4.1706101921899998 3.940718857632 1.6516563218139999  0.99999999999099998 5.9213372113910001 1.7918274095690001 1.6516563218139999  1.0000000000089999 5.9213372114520002 -1.7918274095990001 1.6516563218139999  0.99999999999199995 4.1706101921660004 -3.9407188575799998 1.6516563218139999  1.0000000000060001 1.7834557572 -5.4127875710630002 1.6516563218139999  0.99999999999599998 -0.97983514404799998 -5.2006719269030004 1.6516563218139999  1.000000000002 -2.9878555092519998 -3.8195393400770001 1.6516563218139999  0.99999999999900002 -3.9636363636360001 -1.8880003150139999 1.6516563218139999  1 

0 3
25.132741228718 3

4.9704888142769996e-16 13
25.132741228718 13

5 0 0 1.1833333333330001 0 0 -1 -1 1.2246467991469999e-16 0 1.2246467991469999e-16 1 0 3.4666666666669999 0.53333333333300004
1 3.2558098393799998e-16 -1.5413043205730001e-16 0.65000000000000002 1.863333581871e-33 1.2451681914049999e-33 1 -1 1.2246467991469999e-16 1.863333581871e-33 -1.2246467991469999e-16 -1 1.2451681914050001e-33 
7 0 0 0.65000000000000002 -0 0 -1 
2 -4 4.8985871965889997e-16 2.0499999999999998 -1.2246467991469999e-16 -1 -0 0 0 -1 1 -1.2246467991469999e-16 0 0.40000000000000002
1 -4.1500000000000004 3.1499999999999999 0.14999999999999999 1 -1.2246467991469999e-16 0 -1.2246467991469999e-16 -1 0 0 -0 -1 
2 0 0 0.65000000000000002 0 0 -1 -1 1.2246467991469999e-16 0 1.2246467991469999e-16 1 0 4.2000000000000002
1 -3.1499999999999999 -4.1500000000000004 0.14999999999999999 1.2246467991469999e-16 1 0 1 -1.2246467991469999e-16 0 0 0 -1 
2 0 0 0.65000000000000002 0 0 -1 -1 1.2246467991469999e-16 0 1.2246467991469999e-16 1 0 4.2000000000000002
1 4.1500000000000004 -4.1500000000000004 0.14999999999999999 -1 1.2246467991469999e-16 0 1.2246467991469999e-16 1 0 0 0 -1 
2 0 0 0.65000000000000002 0 0 -1 -1 1.2246467991469999e-16 0 1.2246467991469999e-16 1 0 4.2000000000000002
1 4.1500000000000004 4.1500000000000004 0.14999999999999999 -1.2246467991469999e-16 -1 0 -1 1.2246467991469999e-16 0 -0 0 -1 
2 0 0 0.65000000000000002 0 0 -1 -1 1.2246467991469999e-16 0 1.2246467991469999e-16 1 0 4.2000000000000002
9 1 1 0 1 2 13 3 13 2 2 -3.9636363636360001 4.8540545857110002e-16 2.4483436781860002  1 -3.9636363636379999 1.888000315015 2.4483436781860002  1 -2.9878555092419998 3.819539340071 2.4483436781860002  1.0000000000010001 -0.97983514406600003 5.2006719269259998 2.4483436781860002  0.99999999999699996 1.7834557572080001 5.4127875710150004 2.4483436781860002  1.0000000000060001 4.1706101921889998 3.9407188576330001 2.4483436781860002  0.99999999999099998 5.9213372113920002 1.7918274095690001 2.4483436781860002  1.0000000000089999 5.9213372114520002 -1.7918274095990001 2.4483436781860002  0.99999999999199995 4.1706101921650003 -3.9407188575790002 2.4483436781860002  1.0000000000060001 1.7834557572009999 -5.4127875710630002 2.4483436781860002  0.99999999999599998 -0.97983514404799998 -5.2006719269030004 2.4483436781860002  1.000000000002 -2.9878555092519998 -3.8195393400770001 2.4483436781860002  0.99999999999900002 -3.9636363636360001 -1.8880003150139999 2.4483436781860002  1 
-4 1.5671219982410001e-15 2.4516632088370001  0.73854894587599995 -4.0000000000020002 1.905321418822 2.4516632088370001  0.73854894587599995 -3.0152670276759999 3.854580985393 2.4516632088370001  0.73854894587700004 -0.98882445731099999 5.2483845134119997 2.4516632088370001  0.73854894587300002 1.799817736624 5.4624461725830002 2.4516632088370001  0.73854894588099995 4.20887267103 3.976872241648 2.4516632088370001  0.738548945869 5.9756614059739999 1.8082661931449999 2.4516632088370001  0.738548945884 5.9756614060700004 -1.808266193178 2.4516632088370001  0.738548945869 4.208872670981 -3.9768722415900002 2.4516632088370001  0.73854894588099995 1.799817736631 -5.4624461726350004 2.4516632088370001  0.73854894587300002 -0.98882445729900004 -5.2483845133880003 2.4516632088370001  0.73854894587700004 -3.0152670276850002 -3.8545809853990001 2.4516632088370001  0.73854894587599995 -4 -1.905321418822 2.4516632088370001  0.73854894587599995 
-4 4.8985871965889997e-16 2.4881780460040002  1 -4.0000000000010001 1.905321418822 2.4881780460040002  1 -3.015267027678 3.8545809853940001 2.4881780460040002  1.0000000000010001 -0.98882445730699997 5.2483845134099996 2.4881780460040002  0.99999999999699996 1.799817736619 5.4624461725869997 2.4881780460040002  1.0000000000060001 4.2088726710350004 3.976872241643 2.4881780460040002  0.99999999999099998 5.9756614059690003 1.808266193148 2.4881780460049998  1.0000000000089999 5.9756614060739999 -1.8082661931790001 2.4881780460040002  0.99999999999199995 4.2088726709750004 -3.9768722415890001 2.4881780460040002  1.0000000000060001 1.7998177366350001 -5.4624461726350004 2.4881780460040002  0.99999999999599998 -0.98882445730199997 -5.2483845133870002 2.4881780460040002  1.000000000002 -3.0152670276840001 -3.8545809854000002 2.4881780460040002  0.99999999999900002 -4 -1.905321418822 2.4881780460040002  1 

0 3
25.132741228718 3

4.9704888142769996e-16 13
25.132741228718 13

1 0.164736188078 9.0749399054589998e-17 0.14999999999999999 -6.3005422237810002e-34 7.715938867246e-50 1 -1 1.2246467991469999e-16 -6.3005422237810002e-34 -1.2246467991469999e-16 -1 2.076680665997668e-62 
1 -3.1499999999999999 4.1500000000000004 0.14999999999999999 0.70710678118654757 -0.70710678118654757 0 -0.70710678118654757 -0.70710678118654757 0 0 -0 -1 
1 5.0822842164620003e-16 4.1500000000000004 0.84999999999999998 0 0 1 -1 1.2246467991469999e-16 0 -1.2246467991469999e-16 -1 0 
1 5.0822842164620003e-16 4.1500000000000004 0.84999999999999998 0 0 1 -1 1.2246467991469999e-16 0 -1.2246467991469999e-16 -1 0 
1 -4.1500000000000004 -3.1499999999999999 0.14999999999999999 0.70710678118654757 0.70710678118654757 0 0.70710678118654757 -0.70710678118654757 0 0 0 -1 
1 -3.0000969345559998 3.8082250324619998e-16 0.14999999999999999 0 0 1 -1 1.2246467991469999e-16 0 -1.2246467991469999e-16 -1 0 
2 3.75 3.75 0.14999999999999999 0 0 1 1.2246467991469999e-16 1 -0 -1 1.2246467991469999e-16 0 0.40000000000000002
1 0.164736188078 9.0749399054589998e-17 1.1499999999999999 -6.3005422237810002e-34 7.715938867246e-50 1 -1 1.2246467991469999e-16 -6.3005422237810002e-34 -1.2246467991469999e-16 -1 2.076680665997668e-62 
2 3.75 -3.75 0.14999999999999999 0 0 1 1 -1.2246467991469999e-16 0 1.2246467991469999e-16 1 -0 0.40000000000000002
1 0.164736188078 9.0749399054589998e-17 1.1499999999999999 -6.3005422237810002e-34 7.715938867246e-50 1 -1 1.2246467991469999e-16 -6.3005422237810002e-34 -1.2246467991469999e-16 -1 2.076680665997668e-62 
1 3.0000969345559998 -7.4822841404970001e-16 0.14999999999999999 0 0 1 1 -2.4492935982949998e-16 0 2.4492935982949998e-16 1 -0 
2 0 0 2.4500000000000002 0 0 1 -1 1.2246467991469999e-16 0 -1.2246467991469999e-16 -1 0 4
1 1.425 -0.32500000000000001 0 2.115391936753e-16 1 0 1 -2.115391936753e-16 0 0 0 -1 
2 1.425 -4.0453548898829998e-16 0 -0 0 -1 -1.1214989781709999e-15 1 0 1 1.1214989781709999e-15 0 0.32500000000000001
1 4.75 0.32500000000000001 0 -2.4492935982949998e-16 -1 0 -1 2.4492935982949998e-16 0 -0 0 -1 
1 -1.425 0.32500000000000001 0 -8.9074513760599997e-17 -1 0 -1 8.9074513760599997e-17 0 -0 0 -1 
2 -1.425 2.300233201098e-16 0 0 0 -1 1.2439636580850001e-15 -1 0 -1 -1.2439636580850001e-15 -0 0.32500000000000001
1 -4.75 -0.32500000000000001 0 1.2246467991469999e-16 1 0 1 -1.2246467991469999e-16 0 0 0 -1 
1 -4.75 0.32500000000000001 0 1 -1.2246467991469999e-16 0 -1.2246467991469999e-16 -1 0 0 -0 -1 
1 4.75 -0.32500000000000001 0 -1 2.4492935982949998e-16 0 2.4492935982949998e-16 1 0 0 0 -1 
5 0 0 9.4666666666670007 0 0 1 -1 1.2246467991469999e-16 0 -1.2246467991469999e-16 -1 0 3.4666666666669999 0.53333333333300004
5 0 0 9.4666666666670007 0 0 1 -1 1.2246467991469999e-16 0 -1.2246467991469999e-16 -1 0 3.4666666666669999 0.53333333333300004
5 0 0 9.4666666666670007 0 0 1 -1 1.2246467991469999e-16 0 -1.2246467991469999e-16 -1 0 3.4666666666669999 0.53333333333300004
1 -3.0000969345559998 3.8082250324619998e-16 0 0 0 1 -1 1.2246467991469999e-16 0 -1.2246467991469999e-16 -1 0 
1 3.0000969345559998 -7.4822841404970001e-16 0 0 0 1 1 -2.4492935982949998e-16 0 2.4492935982949998e-16 1 -0 
1 0 0 10 -0 0 -1 -1 1.2246467991469999e-16 0 1.2246467991469999e-16 1 0 
1 4 4 10 0 0 1 -1 1.2246467991469999e-16 0 -1.2246467991469999e-16 -1 0 
Triangulations 0

TShapes 253
Ve
2.28258503273757e-05
-4.612830703042 2.45004474769378e-11 1.611821953996
0 0

0101101
*
Ed
 2.28258503273757e-05 1 1 0
1  1 0 4.970488814277e-16 25.132741228718
2  1 1 0 4.970488814277e-16 25.132741228718
2  2 2 0 4.970488814277e-16 25.132741228718
4 G1 1 0 2 0
0

0101000
+253 3 -253 3 *
Ve
1e-07
-4.612830703042 2.45004474769378e-11 1.183333333333
0 0

0101101
*
Ed
 1e-07 1 1 0
1  2 0 0.533333333333 0.961821953996
3  3 4CN 1 0 0.533333333333 0.961821953996
0

0101000
+251 3 -253 3 *
Ed
 1e-07 1 1 0
1  3 0 0 6.28318530717959
2  5 1 0 0 6.28318530717959
2  6 3 0 0 6.28318530717959
4 G1 1 0 3 0
0

0101000
+251 3 -251 3 *
Wi

0101100
+252 0 -250 0 -249 0 +250 0 *
Fa
0  1e-07 1 0

0101000
+248 0 *
Ve
1e-07
-4.079497369709 2.45003821624418e-11 0.65
0 0

0101101
*
Ed
 1e-07 1 1 0
1  4 0 0 1.5707963267949
3  7 8CN 3 0 0 1.5707963267949
0

0101000
+251 3 -246 3 *
Ed
 1e-07 1 1 0
1  5 0 0 6.28318530717959
2  9 3 0 0 6.28318530717959
2  10 4 0 0 6.28318530717959
0

0101000
+246 3 -246 3 *
Wi

0101100
+249 0 +245 0 -244 0 -245 0 *
Fa
0  1e-07 3 0

0101000
+243 0 *
Ve
2.05684774241077e-06
-4.576467066678 2.45004430236767e-11 1.651656321814
0 0

0101101
*
Ed
 1e-07 1 1 0
1  6 0 0 25.132741228718
3  11 12C2 2 0 0 25.132741228718
0

0101000
+253 3 -241 3 *
Ed
 2.05684774241077e-06 1 1 0
1  7 0 4.970488814277e-16 25.132741228718
2  13 2 0 4.970488814277e-16 25.132741228718
2  14 5 0 4.970488814277e-16 25.132741228718
4 G1 2 0 5 0
0

0101000
+241 3 -241 3 *
Wi

0101100
+240 0 +239 0 -240 0 -252 0 *
Fa
0  1e-07 2 0

0101000
+238 0 *
Ve
1e-07
-4.762830703042 0.6461423991905 0.65
0 0

0101101
*
Ve
1e-07
-4.762830703042 -0.6461423991415 0.65
0 0

0101101
*
Ed
 1e-07 1 1 0
1  8 0 0.928857600834 2.221142399166
2  15 4 0 0.928857600834 2.221142399166
2  16 6 0 0.928857600834 2.221142399166
0

0101000
+236 3 -235 3 *
Ve
1e-07
-1.258973102208 -4.1499999999755 0.65
0 0

0101101
*
Ed
 1e-07 1 1 0
1  9 0 0.154456840173268 1.41633948662163
2  17 4 0 0.154456840173268 1.41633948662163
2  18 7 0 0.154456840173268 1.41633948662163
0

0101000
+235 3 -233 3 *
Ve
1e-07
0.0333116961240001 -4.1499999999755 0.65
0 0

0101101
*
Ed
 1e-07 1 1 0
1  10 0 0.928857600834 2.221142399166
2  19 4 0 0.928857600834 2.221142399166
2  20 8 0 0.928857600834 2.221142399166
0

0101000
+233 3 -231 3 *
Ve
1e-07
3.537169296958 -0.6461423991415 0.65
0 0

0101101
*
Ed
 1e-07 1 1 0
1  11 0 1.72525316696816 2.98713581341653
2  21 4 0 1.72525316696816 2.98713581341653
2  22 9 0 1.72525316696816 2.98713581341653
0

0101000
+231 3 -229 3 *
Ve
1e-07
3.537169296958 0.6461423991905 0.65
0 0

0101101
*
Ed
 1e-07 1 1 0
1  12 0 1.428857600834 2.721142399166
2  23 4 0 1.428857600834 2.721142399166
2  24 10 0 1.428857600834 2.721142399166
0

0101000
+229 3 -227 3 *
Ve
1e-07
0.0333116961240001 4.1500000000245 0.65
0 0

0101101
*
Ed
 1e-07 1 1 0
1  13 0 3.29604949376306 4.55793214021142
2  25 4 0 3.29604949376306 4.55793214021142
2  26 11 0 3.29604949376306 4.55793214021142
0

0101000
+227 3 -225 3 *
Ve
1e-07
-1.258973102208 4.1500000000245 0.65
0 0

0101101
*
Ed
 1e-07 1 1 0
1  14 0 1.428857600834 2.721142399166
2  27 4 0 1.428857600834 2.721142399166
2  28 12 0 1.428857600834 2.721142399166
0

0101000
+225 3 -223 3 *
Ed
 1e-07 1 1 0
1  15 0 4.86684582055796 6.12872846700632
2  29 4 0 4.86684582055796 6.12872846700632
2  30 13 0 4.86684582055796 6.12872846700632
0

0101000
+223 3 -236 3 *
Wi

0101100
+234 0 +232 0 +230 0 +228 0 +226 0 +224 0 +222 0 +221 0 *
Wi

0101100
+244 0 *
Fa
0  1e-07 4 0

0101000
+220 0 +219 0 *
Ve
2.05684759417534e-06
-4.576467066678 2.45004430236767e-11 2.448343678186
0 0

0101101
*
Ed
 1e-07 1 1 0
1  16 0 0.0910347780382236 3.05055787555157
3  31 32C2 5 0 0.0910347780382236 3.05055787555157
0

0101000
+241 3 -217 3 *
Ed
 2.05684759417534e-06 1 1 0
1  17 0 4.970488814277e-16 25.132741228718
2  33 5 0 4.970488814277e-16 25.132741228718
2  34 14 0 4.970488814277e-16 25.132741228718
4 G1 5 0 14 0
0

0101000
+217 3 -217 3 *
Wi

0101100
-216 0 +239 0 +216 0 -215 0 *
Fa
0  1e-07 5 0

0101000
+214 0 *
Ve
1e-07
-4.762830703042 3.1500000000245 0.15
0 0

0101101
*
Ve
1e-07
-4.762830703042 0.3250000000245 0.15
0 0

0101101
*
Ed
 1e-07 1 1 0
1  18 0 0 2.825
2  35 6 0 0 2.825
2  36 15 0 0 2.825
0

0101000
+212 3 -211 3 *
Ve
1e-07
-4.762830703042 3.1500000000245 0.85
0 0

0101101
*
Ed
 1e-07 1 1 0
1  19 0 0 0.7
2  37 6 0 0 0.7
2  38 16 0 0 0.7
0

0101000
+212 3 -209 3 *
Ve
1e-07
-4.762830703042 0.6461423991905 0.85
0 0

0101101
*
Ed
 1e-07 1 1 0
1  20 0 1 3.503857600834
2  39 6 0 1 3.503857600834
2  40 17 0 1 3.503857600834
0

0101000
+209 3 -207 3 *
Ed
 1e-07 1 1 0
1  21 0 -0.2 0
2  41 6 0 -0.2 0
2  42 13 0 -0.2 0
0

0101000
+207 3 -236 3 *
Ve
1e-07
-4.762830703042 -0.6461423991415 0.85
0 0

0101101
*
Ed
 1e-07 1 1 0
1  22 0 -0.2 0
2  43 6 0 -0.2 0
2  44 7 0 -0.2 0
0

0101000
+204 3 -235 3 *
Ve
1e-07
-4.762830703042 -3.1499999999755 0.85
0 0

0101101
*
Ed
 1e-07 1 1 0
1  23 0 4.796142399166 7.3
2  45 6 0 4.796142399166 7.3
2  46 18 0 4.796142399166 7.3
0

0101000
+204 3 -202 3 *
Ve
1e-07
-4.762830703042 -3.1499999999755 0.15
0 0

0101101
*
Ed
 1e-07 1 1 0
1  24 0 0 0.7
2  47 6 0 0 0.7
2  48 19 0 0 0.7
0

0101000
+200 3 -202 3 *
Ve
1e-07
-4.762830703042 -0.3249999999755 0.15
0 0

0101101
*
Ed
 1e-07 1 1 0
1  25 0 3.475 6.3
2  49 6 0 3.475 6.3
2  50 15 0 3.475 6.3
0

0101000
+198 3 -200 3 *
Ed
 1e-07 1 1 0
1  26 0 2.825 3.475
2  51 6 0 2.825 3.475
2  52 20 0 2.825 3.475
0

0101000
+211 3 -198 3 *
Wi

0101100
-210 0 +208 0 +206 0 +205 0 +234 0 -203 0 +201 0 -199 0 -197 0 -196 0 
*
Fa
0  1e-07 6 0

0101000
+195 0 *
Ve
1e-07
-1.258973102208 4.1500000000245 0.85
0 0

0101101
*
Ed
 1e-07 1 1 0
1  27 0 -0.2 0
2  53 13 0 -0.2 0
2  54 12 0 -0.2 0
0

0101000
+193 3 -223 3 *
Ed
 1e-07 1 1 0
1  28 0 0.154456840173267 1.41633948662163
2  55 13 0 0.154456840173267 1.41633948662163
2  56 17 0 0.154456840173267 1.41633948662163
0

0101000
+207 3 -193 3 *
Wi

0101100
+192 0 +221 0 -205 0 +191 0 *
Fa
0  1e-07 13 0

0101000
+190 0 *
Ve
1e-07
-1.258973102208 -4.1499999999755 0.85
0 0

0101101
*
Ed
 1e-07 1 1 0
1  29 0 -0.2 0
2  57 7 0 -0.2 0
2  58 8 0 -0.2 0
0

0101000
+188 3 -233 3 *
Ed
 1e-07 1 1 0
1  30 0 4.86684582055796 6.12872846700632
2  59 7 0 4.86684582055796 6.12872846700632
2  60 18 0 4.86684582055796 6.12872846700632
0

0101000
+188 3 -204 3 *
Wi

0101100
-187 0 +186 0 +203 0 +232 0 *
Fa
0  1e-07 7 0

0101000
+185 0 *
Ve
1e-07
3.137169296958 4.1500000000245 0.15
0 0

0101101
*
Ve
1e-07
-3.762830703042 4.1500000000245 0.15
0 0

0101101
*
Ed
 1e-07 1 1 0
1  31 0 0.4 7.3
2  61 12 0 0.4 7.3
2  62 15 0 0.4 7.3
0

0101000
+183 3 -182 3 *
Ve
1e-07
3.137169296958 4.1500000000245 1.15
0 0

0101101
*
Ed
 1e-07 1 1 0
1  32 0 0 1
2  63 12 0 0 1
2  64 21 0 0 1
4 G1 12 0 21 0
0

0101000
+183 3 -180 3 *
Ve
1e-07
0.0333116961240001 4.1500000000245 1.15
0 0

0101101
*
Ed
 1e-07 1 1 0
1  33 0 0.4 3.503857600834
2  65 12 0 0.4 3.503857600834
2  66 22 0 0.4 3.503857600834
0

0101000
+180 3 -178 3 *
Ed
 1e-07 1 1 0
1  34 0 -0.5 0
2  67 12 0 -0.5 0
2  68 11 0 -0.5 0
0

0101000
+178 3 -225 3 *
Ve
1e-07
-3.762830703042 4.1500000000245 0.85
0 0

0101101
*
Ed
 1e-07 1 1 0
1  35 0 0.646142399166001 3.15
2  69 12 0 0.646142399166001 3.15
2  70 17 0 0.646142399166001 3.15
0

0101000
+193 3 -175 3 *
Ed
 1e-07 1 1 0
1  36 0 0 0.7
2  71 12 0 0 0.7
2  72 16 0 0 0.7
0

0101000
+182 3 -175 3 *
Wi

0101100
-181 0 +179 0 +177 0 +176 0 +222 0 -192 0 +174 0 -173 0 *
Fa
0  1e-07 12 0

0101000
+172 0 *
Ve
1e-07
3.137169296958 -4.1499999999755 0.15
0 0

0101101
*
Ve
1e-07
3.137169296958 -4.1499999999755 1.15
0 0

0101101
*
Ed
 1e-07 1 1 0
1  37 0 0 1
2  73 8 0 0 1
2  74 23 0 0 1
4 G1 8 0 23 0
0

0101000
+170 3 -169 3 *
Ve
1e-07
-3.762830703042 -4.1499999999755 0.15
0 0

0101101
*
Ed
 1e-07 1 1 0
1  38 0 0 6.9
2  75 8 0 0 6.9
2  76 15 0 0 6.9
0

0101000
+167 3 -170 3 *
Ve
1e-07
-3.762830703042 -4.1499999999755 0.85
0 0

0101101
*
Ed
 1e-07 1 1 0
1  39 0 0 0.7
2  77 8 0 0 0.7
2  78 19 0 0 0.7
0

0101000
+167 3 -165 3 *
Ed
 1e-07 1 1 0
1  40 0 0.646142399165999 3.15
2  79 8 0 0.646142399165999 3.15
2  80 18 0 0.646142399165999 3.15
0

0101000
+188 3 -165 3 *
Ve
1e-07
0.0333116961240001 -4.1499999999755 1.15
0 0

0101101
*
Ed
 1e-07 1 1 0
1  41 0 -0.5 0
2  81 8 0 -0.5 0
2  82 9 0 -0.5 0
0

0101000
+162 3 -231 3 *
Ed
 1e-07 1 1 0
1  42 0 3.796142399166 6.9
2  83 8 0 3.796142399166 6.9
2  84 24 0 3.796142399166 6.9
0

0101000
+162 3 -169 3 *
Wi

0101100
-168 0 -166 0 +164 0 -163 0 +187 0 +230 0 -161 0 +160 0 *
Fa
0  1e-07 8 0

0101000
+159 0 *
Ve
1e-07
3.537169296958 0.6461423991905 1.15
0 0

0101101
*
Ed
 1e-07 1 1 0
1  43 0 3.29604949376306 4.55793214021142
2  85 11 0 3.29604949376306 4.55793214021142
2  86 22 0 3.29604949376306 4.55793214021142
0

0101000
+157 3 -178 3 *
Ed
 1e-07 1 1 0
1  44 0 -0.5 0
2  87 11 0 -0.5 0
2  88 10 0 -0.5 0
0

0101000
+157 3 -227 3 *
Wi

0101100
-156 0 +155 0 +224 0 -176 0 *
Fa
0  1e-07 11 0

0101000
+154 0 *
Ve
1e-07
3.537169296958 -0.6461423991415 1.15
0 0

0101101
*
Ed
 1e-07 1 1 0
1  45 0 -0.5 0
2  89 9 0 -0.5 0
2  90 10 0 -0.5 0
0

0101000
+152 3 -229 3 *
Ed
 1e-07 1 1 0
1  46 0 1.72525316696816 2.98713581341653
2  91 9 0 1.72525316696816 2.98713581341653
2  92 24 0 1.72525316696816 2.98713581341653
0

0101000
+162 3 -152 3 *
Wi

0101100
-151 0 -150 0 +161 0 +228 0 *
Fa
0  1e-07 9 0

0101000
+149 0 *
Ve
1e-07
3.537169296958 -3.7499999999755 0.15
0 0

0101101
*
Ve
1e-07
3.537169296958 -0.3249999999755 0.15
0 0

0101101
*
Ed
 1e-07 1 1 0
1  47 0 0.4 3.825
2  93 10 0 0.4 3.825
2  94 15 0 0.4 3.825
0

0101000
+147 3 -146 3 *
Ve
1e-07
3.537169296958 -3.7499999999755 1.15
0 0

0101101
*
Ed
 1e-07 1 1 0
1  48 0 0 1
2  95 10 0 0 1
2  96 23 0 0 1
4 G1 10 0 23 0
0

0101000
+147 3 -144 3 *
Ed
 1e-07 1 1 0
1  49 0 0.4 3.503857600834
2  97 10 0 0.4 3.503857600834
2  98 24 0 0.4 3.503857600834
0

0101000
+144 3 -152 3 *
Ve
1e-07
3.537169296958 3.7500000000245 1.15
0 0

0101101
*
Ed
 1e-07 1 1 0
1  50 0 4.796142399166 7.9
2  99 10 0 4.796142399166 7.9
2  100 22 0 4.796142399166 7.9
0

0101000
+157 3 -141 3 *
Ve
1e-07
3.537169296958 3.7500000000245 0.15
0 0

0101101
*
Ed
 1e-07 1 1 0
1  51 0 0 1
2  101 10 0 0 1
2  102 21 0 0 1
4 G1 10 0 21 0
0

0101000
+139 3 -141 3 *
Ve
1e-07
3.537169296958 0.3250000000245 0.15
0 0

0101101
*
Ed
 1e-07 1 1 0
1  52 0 4.475 7.9
2  103 10 0 4.475 7.9
2  104 15 0 4.475 7.9
0

0101000
+137 3 -139 3 *
Ed
 1e-07 1 1 0
1  53 0 3.825 4.475
2  105 10 0 3.825 4.475
2  106 25 0 3.825 4.475
0

0101000
+146 3 -137 3 *
Wi

0101100
-145 0 +143 0 +142 0 +151 0 +226 0 -155 0 +140 0 -138 0 -136 0 -135 0 
*
Fa
0  1e-07 10 0

0101000
+134 0 *
Ve
2.28258530569919e-05
-4.612830703042 2.45004474769378e-11 2.488178046004
0 0

0101101
*
Ed
 1e-07 1 1 0
1  54 0 0 25.132741228718
3  107 108C2 14 0 0 25.132741228718
0

0101000
+217 3 -132 3 *
Ed
 2.28258530569919e-05 1 1 0
1  55 0 4.970488814277e-16 25.132741228718
2  109 14 0 4.970488814277e-16 25.132741228718
2  110 26 0 4.970488814277e-16 25.132741228718
4 G1 14 0 26 0
0

0101000
+132 3 -132 3 *
Wi

0101100
+131 0 +130 0 -131 0 -215 0 *
Fa
0  1e-07 14 0

0101000
+129 0 *
Ed
 1e-07 1 1 0
1  56 0 1.5707963267949 3.14159265358979
2  111 15 0 1.5707963267949 3.14159265358979
2  112 23 0 1.5707963267949 3.14159265358979
0

0101000
+147 3 -170 3 *
Ve
1e-07
0.812169296958 -0.3249999999755 0.15
0 0

0101101
*
Ed
 1e-07 1 1 0
1  57 0 0 2.725
2  113 15 0 0 2.725
2  114 27 0 0 2.725
0

0101000
+126 3 -146 3 *
Ve
1e-07
0.812169296958 0.3250000000245 0.15
0 0

0101101
*
Ed
 1e-07 1 1 0
1  58 0 0 3.14159265358979
2  115 15 0 0 3.14159265358979
2  116 28 0 0 3.14159265358979
0

0101000
+124 3 -126 3 *
Ed
 1e-07 1 1 0
1  59 0 0.6 3.325
2  117 15 0 0.6 3.325
2  118 29 0 0.6 3.325
0

0101000
+137 3 -124 3 *
Ed
 1e-07 1 1 0
1  60 0 0 1.5707963267949
2  119 15 0 0 1.5707963267949
2  120 21 0 0 1.5707963267949
0

0101000
+183 3 -139 3 *
Ed
 1e-07 1 1 0
1  61 0 0 1.4142135623731
2  121 15 0 0 1.4142135623731
2  122 16 0 0 1.4142135623731
0

0101000
+182 3 -212 3 *
Ve
1e-07
-2.037830703042 0.3250000000245 0.15
0 0

0101101
*
Ed
 1e-07 1 1 0
1  62 0 0 2.725
2  123 15 0 0 2.725
2  124 30 0 0 2.725
0

0101000
+119 3 -211 3 *
Ve
1e-07
-2.037830703042 -0.3249999999755 0.15
0 0

0101101
*
Ed
 1e-07 1 1 0
1  63 0 0 3.14159265358979
2  125 15 0 0 3.14159265358979
2  126 31 0 0 3.14159265358979
0

0101000
+117 3 -119 3 *
Ed
 1e-07 1 1 0
1  64 0 0.6 3.325
2  127 15 0 0.6 3.325
2  128 32 0 0.6 3.325
0

0101000
+198 3 -117 3 *
Ed
 1e-07 1 1 0
1  65 0 0 1.4142135623731
2  129 15 0 0 1.4142135623731
2  130 19 0 0 1.4142135623731
0

0101000
+200 3 -167 3 *
Wi

0101100
-127 0 +145 0 -125 0 -123 0 -122 0 +136 0 -121 0 +181 0 +120 0 +210 0 
-118 0 -116 0 -115 0 +197 0 +114 0 +166 0 *
Fa
0  1e-07 15 0

0101000
+113 0 *
Ed
 1e-07 1 1 0
1  66 0 1.11369318036881 2.52790674274191
2  131 16 0 1.11369318036881 2.52790674274191
2  132 17 0 1.11369318036881 2.52790674274191
0

0101000
+175 3 -209 3 *
Wi

0101100
-120 0 +173 0 +111 0 -208 0 *
Fa
0  1e-07 16 0

0101000
+110 0 *
Ve
1e-07
-5.362830703042 0.3250000000245 0.15
0 0

0101101
*
Ed
 1e-07 1 1 0
1  67 0 2.725 3.325
2  133 20 0 2.725 3.325
2  134 30 0 2.725 3.325
0

0101000
+211 3 -108 3 *
Ve
1e-07
-5.362830703042 -0.3249999999755 0.15
0 0

0101101
*
Ed
 1e-07 1 1 0
1  68 0 0 0.65
2  135 20 0 0 0.65
2  136 33 0 0 0.65
0

0101000
+108 3 -106 3 *
Ed
 1e-07 1 1 0
1  69 0 0 0.6
2  137 20 0 0 0.6
2  138 32 0 0 0.6
0

0101000
+106 3 -198 3 *
Wi

0101100
+107 0 +105 0 +104 0 -196 0 *
Fa
0  1e-07 20 0

0101000
+103 0 *
Wi

0101100
+191 0 +174 0 +111 0 +206 0 *
Fa
0  1e-07 17 0

0101000
+101 0 *
Ed
 1e-07 1 1 0
1  70 0 1.11369318036881 2.52790674274191
2  139 19 0 1.11369318036881 2.52790674274191
2  140 18 0 1.11369318036881 2.52790674274191
0

0101000
+202 3 -165 3 *
Wi

0101100
-114 0 +199 0 +99 0 -164 0 *
Fa
0  1e-07 19 0

0101000
+98 0 *
Wi

0101100
-163 0 +186 0 +201 0 +99 0 *
Fa
0  1e-07 18 0

0101000
+96 0 *
Ed
 1e-07 1 1 0
1  71 0 0 1.5707963267949
2  141 22 0 0 1.5707963267949
2  142 21 0 0 1.5707963267949
0

0101000
+180 3 -141 3 *
Wi

0101100
-156 0 +140 0 -94 0 +177 0 *
Fa
0  1e-07 22 0

0101000
+93 0 *
Wi

0101100
+179 0 +94 0 -138 0 -121 0 *
Fa
0  1e-07 21 0

0101000
+91 0 *
Ed
 1e-07 1 1 0
1  72 0 1.5707963267949 3.14159265358979
2  143 23 0 1.5707963267949 3.14159265358979
2  144 24 0 1.5707963267949 3.14159265358979
0

0101000
+144 3 -169 3 *
Wi

0101100
+143 0 +89 0 -168 0 -127 0 *
Fa
0  1e-07 23 0

0101000
+88 0 *
Wi

0101100
-89 0 +142 0 -150 0 +160 0 *
Fa
0  1e-07 24 0

0101000
+86 0 *
Ve
1e-07
4.137169296958 -0.3249999999755 0.15
0 0

0101101
*
Ed
 1e-07 1 1 0
1  73 0 2.725 3.325
2  145 25 0 2.725 3.325
2  146 27 0 2.725 3.325
0

0101000
+146 3 -84 3 *
Ve
1e-07
4.137169296958 0.3250000000245 0.15
0 0

0101101
*
Ed
 1e-07 1 1 0
1  74 0 0 0.65
2  147 25 0 0 0.65
2  148 34 0 0 0.65
0

0101000
+84 3 -82 3 *
Ed
 1e-07 1 1 0
1  75 0 0 0.6
2  149 25 0 0 0.6
2  150 29 0 0 0.6
0

0101000
+82 3 -137 3 *
Wi

0101100
+83 0 +81 0 +80 0 -135 0 *
Fa
0  1e-07 25 0

0101000
+79 0 *
Ve
1e-07
-4.612830703042 2.45004474769378e-11 9.466666666667
0 0

0101101
*
Ed
 1e-07 1 1 0
1  76 0 0.038178046004 7.016666666667
3  151 152CN 26 0 0.038178046004 7.016666666667
0

0101000
+132 3 -77 3 *
Ve
1e-07
0.587169296958 3.8157568056925 9.466666666667
0 0

0101101
*
Ed
 1e-07 1 1 0
1  77 0 0 1.87548898081028
2  153 26 0 0 1.87548898081028
2  154 35 0 0 1.87548898081028
4 G1 26 0 35 0
0

0101000
+77 3 -75 3 *
Ve
1e-07
3.387169296958 2.44999347334632e-11 9.466666666667
0 0

0101101
*
Ed
 1e-07 1 1 0
1  78 0 1.87548898081028 3.14159265358979
2  155 26 0 1.87548898081028 3.14159265358979
2  156 36 0 1.87548898081028 3.14159265358979
4 G1 26 0 36 0
0

0101000
+75 3 -73 3 *
Ve
1e-07
0.587169296958 -3.8157568056435 9.466666666667
0 0

0101101
*
Ed
 1e-07 1 1 0
1  79 0 3.14159265358979 4.40769632636931
2  157 26 0 3.14159265358979 4.40769632636931
2  158 36 0 3.14159265358979 4.40769632636931
4 G1 26 0 36 0
0

0101000
+73 3 -71 3 *
Ed
 1e-07 1 1 0
1  80 0 4.40769632636931 6.28318530717959
2  159 26 0 4.40769632636931 6.28318530717959
2  160 37 0 4.40769632636931 6.28318530717959
4 G1 26 0 37 0
0

0101000
+71 3 -77 3 *
Wi

0101100
-130 0 +76 0 +74 0 +72 0 +70 0 +69 0 -76 0 *
Fa
0  1e-07 26 0

0101000
+68 0 *
Ve
1e-07
-5.362830703042 -0.3249999999755 0
0 0

0101101
*
Ed
 1e-07 1 1 0
1  81 0 0 0.15
2  161 32 0 0 0.15
2  162 33 0 0 0.15
0

0101000
+66 3 -106 3 *
Ve
1e-07
-2.037830703042 -0.3249999999755 0
0 0

0101101
*
Ed
 1e-07 1 1 0
1  82 0 0 0.15
2  163 32 0 0 0.15
2  164 31 0 0 0.15
4 G1 32 0 31 0
0

0101000
+64 3 -117 3 *
Ed
 1e-07 1 1 0
1  83 0 0 3.325
2  165 32 0 0 3.325
2  166 38 0 0 3.325
0

0101000
+66 3 -64 3 *
Wi

0101100
+65 0 +104 0 +115 0 -63 0 -62 0 *
Fa
0  1e-07 32 0

0101000
+61 0 *
Ve
1e-07
-2.037830703042 0.3250000000245 0
0 0

0101101
*
Ed
 1e-07 1 1 0
1  84 0 0 3.14159265358979
2  167 31 0 0 3.14159265358979
2  168 38 0 0 3.14159265358979
0

0101000
+64 3 -59 3 *
Ed
 1e-07 1 1 0
1  85 0 0 0.15
2  169 31 0 0 0.15
2  170 30 0 0 0.15
4 G1 31 0 30 0
0

0101000
+59 3 -119 3 *
Wi

0101100
+58 0 +57 0 -116 0 -63 0 *
Fa
0  1e-07 31 0

0101000
+56 0 *
Ve
1e-07
-5.362830703042 0.3250000000245 0
0 0

0101101
*
Ed
 1e-07 1 1 0
1  86 0 0 0.15
2  171 30 0 0 0.15
2  172 33 0 0 0.15
0

0101000
+54 3 -108 3 *
Ed
 1e-07 1 1 0
1  87 0 0 3.325
2  173 30 0 0 3.325
2  174 38 0 0 3.325
0

0101000
+59 3 -54 3 *
Wi

0101100
+57 0 +118 0 +107 0 -53 0 -52 0 *
Fa
0  1e-07 30 0

0101000
+51 0 *
Ve
1e-07
4.137169296958 0.3250000000245 0
0 0

0101101
*
Ed
 1e-07 1 1 0
1  88 0 0 0.15
2  175 29 0 0 0.15
2  176 34 0 0 0.15
0

0101000
+49 3 -82 3 *
Ve
1e-07
0.812169296958 0.3250000000245 0
0 0

0101101
*
Ed
 1e-07 1 1 0
1  89 0 0 0.15
2  177 29 0 0 0.15
2  178 28 0 0 0.15
4 G1 29 0 28 0
0

0101000
+47 3 -124 3 *
Ed
 1e-07 1 1 0
1  90 0 0 3.325
2  179 29 0 0 3.325
2  180 39 0 0 3.325
0

0101000
+49 3 -47 3 *
Wi

0101100
+48 0 +80 0 +122 0 -46 0 -45 0 *
Fa
0  1e-07 29 0

0101000
+44 0 *
Ve
1e-07
0.812169296958 -0.3249999999755 0
0 0

0101101
*
Ed
 1e-07 1 1 0
1  91 0 0 3.14159265358979
2  181 28 0 0 3.14159265358979
2  182 39 0 0 3.14159265358979
0

0101000
+47 3 -42 3 *
Ed
 1e-07 1 1 0
1  92 0 0 0.15
2  183 28 0 0 0.15
2  184 27 0 0 0.15
4 G1 28 0 27 0
0

0101000
+42 3 -126 3 *
Wi

0101100
+41 0 +40 0 -123 0 -46 0 *
Fa
0  1e-07 28 0

0101000
+39 0 *
Ve
1e-07
4.137169296958 -0.3249999999755 0
0 0

0101101
*
Ed
 1e-07 1 1 0
1  93 0 0 0.15
2  185 27 0 0 0.15
2  186 34 0 0 0.15
0

0101000
+37 3 -84 3 *
Ed
 1e-07 1 1 0
1  94 0 0 3.325
2  187 27 0 0 3.325
2  188 39 0 0 3.325
0

0101000
+42 3 -37 3 *
Wi

0101100
+40 0 +125 0 +83 0 -36 0 -35 0 *
Fa
0  1e-07 27 0

0101000
+34 0 *
Ed
 1e-07 1 1 0
1  95 0 0 0.65
2  189 33 0 0 0.65
2  190 38 0 0 0.65
0

0101000
+54 3 -66 3 *
Wi

0101100
+53 0 +105 0 -65 0 -32 0 *
Fa
0  1e-07 33 0

0101000
+31 0 *
Ed
 1e-07 1 1 0
1  96 0 0 0.65
2  191 34 0 0 0.65
2  192 39 0 0 0.65
0

0101000
+37 3 -49 3 *
Wi

0101100
+36 0 +81 0 -48 0 -29 0 *
Fa
0  1e-07 34 0

0101000
+28 0 *
Ve
1e-07
-4.079497369709 2.45003821624418e-11 10
0 0

0101101
*
Ve
1e-07
0.587169296958 3.2523495780645 10
0 0

0101101
*
Ed
 1e-07 1 1 0
1  97 0 0 1.92426471337238
2  193 35 0 0 1.92426471337238
2  194 40 0 0 1.92426471337238
4 G1 35 0 40 0
0

0101000
+26 3 -25 3 *
Ed
 1e-07 1 1 0
1  98 0 0 1
2  195 35 0 0 1
2  196 36 0 0 1
4 CN 35 0 36 0
0

0101000
+75 3 -25 3 *
Ed
 1e-07 1 1 0
1  99 0 0 1.5707963267949
2  197 35 0 0 1.5707963267949
2  198 37 0 0 1.5707963267949
4 CN 35 0 37 0
0

0101000
+77 3 -26 3 *
Wi

0101100
+24 0 -23 0 -74 0 +22 0 *
Fa
0  1e-07 35 0

0101000
+21 0 *
Ve
1e-07
0.587169296958 -3.2523495780155 10
0 0

0101101
*
Ed
 1e-07 1 1 0
1  100 0 1.92426471337238 4.35892059380721
2  199 36 0 1.92426471337238 4.35892059380721
2  200 41 0 1.92426471337238 4.35892059380721
4 G1 36 0 41 0
0

0101000
+25 3 -19 3 *
Ed
 1e-07 1 1 0
1  101 0 0 1
2  201 36 0 0 1
2  202 37 0 0 1
4 CN 36 0 37 0
0

0101000
+71 3 -19 3 *
Wi

0101100
+18 0 -17 0 -70 0 -72 0 +23 0 *
Fa
0  1e-07 36 0

0101000
+16 0 *
Ed
 1e-07 1 1 0
1  102 0 4.35892059380721 6.28318530717959
2  203 37 0 4.35892059380721 6.28318530717959
2  204 40 0 4.35892059380721 6.28318530717959
4 G1 37 0 40 0
0

0101000
+19 3 -26 3 *
Wi

0101100
+17 0 +14 0 -22 0 -69 0 *
Fa
0  1e-07 37 0

0101000
+13 0 *
Wi

0101100
+32 0 +62 0 +58 0 +52 0 *
Fa
0  1e-07 38 0

0101000
+11 0 *
Wi

0101100
+29 0 +45 0 +41 0 +35 0 *
Fa
0  1e-07 39 0

0101000
+9 0 *
Ed
 1e-07 1 1 0
1  103 0 0.74765042196 7.25234957804
2  205 40 0 0.74765042196 7.25234957804
2  206 41 0 0.74765042196 7.25234957804
4 G2 40 0 41 0
0

0101000
+25 3 -19 3 *
Wi

0101100
+14 0 +24 0 +7 0 *
Fa
0  1e-07 40 0

0101000
+6 0 *
Wi

0101100
-18 0 +7 0 *
Fa
0  1e-07 41 0

0101000
+4 0 *
Sh

0101100
+247 0 +242 0 +237 0 +218 0 -213 0 -194 0 -189 0 -184 0 -171 0 -158 0 
-153 0 -148 0 -133 0 +128 0 -112 0 -109 0 +102 0 +100 0 -97 0 +95 0 
+92 0 +90 0 +87 0 +85 0 +78 0 +67 0 -60 0 +55 0 -50 0 -43 0 
+38 0 -33 0 -30 0 -27 0 +20 0 +15 0 +12 0 -10 0 -8 0 -5 0 
+3 0 *
So

0100000
+2 0 *

+1 1 