DBRep_DrawableShape

CASCADE Topology V1, (c) Matra-Datavision
Locations 3
1
              1               0               0              40 
              0               1               0            97.5 
              0               0               1            68.1 
1
              1               0               0               0 
              0               1               0               0 
              0               0               1               0 
2  2 -1 0
Curve2ds 92
1 0 -0.38499999999999979 1 0 
1 0 0 0 1 
1 0 0 0 -1 
1 0 0 0 1 
1 0 -7.6150000000000002 1 0 
1 6.2831853071795862 0 0 1 
1 6.6150000000000002 -0.38499999999999979 0 -1 
1 0 0 0 1 
1 -4.7123889803846897 0 1 0 
2 0.38500000000000023 0.38499999999999979 0 -1 1 0 0.38499999999999979
1 1.5707963267948966 0 0 1 
1 0 0.38500000000000023 1 0 
1 1.5707963267948966 6.6150000000000002 -1 0 
7 0 0  3 25 23  6.2831853071795862 0  6.2593853628342089 0  6.2117854741434568 0  6.1403856411073203 0  6.0689858080711936 0  5.9975859750350597 0  5.9261861419989286 0  5.8547863089627956 0  5.7833864759266653 0  5.7119866428905315 0  5.6405868098544012 0  5.5691869768182691 0  5.4977871437821388 0  5.4263873107460059 0  5.3549874777098738 0  5.2835876446737435 0  5.2121878116376097 0  5.1407879786014821 0  5.0693881455653473 0  4.9979883125292162 0  4.9265884794930841 0  4.855188646456952 0  4.7837888134208217 0  4.736188924730067 -0  4.7123889803846897 0 
 0 4 0.071399833036131663 1 0.14279966607226333 1 0.21419949910839498 1 0.28559933214452665 1 0.35699916518065833 1 0.42839899821678995 1 0.49979883125292163 1 0.5711986642890533 1 0.64259849732518493 1 0.71399833036131666 1 0.78539816339744828 1 0.8567979964335799 1 0.92819782946971163 1 0.99959766250584325 1 1.070997495541975 1 1.1423973285781066 1 1.2137971616142382 1 1.2851969946503699 1 1.3565968276865017 1 1.4279966607226333 1 1.4993964937587649 1 1.5707963267948966 4
1 0 0 1 0 
7 0 0  3 25 23  4.7123889803846897 0  4.7123889803846897 0.02379994434537663  4.7123889803846897 0.071399833036131122  4.7123889803846888 0.14279966607226405  4.7123889803846897 0.21419949910839631  4.7123889803846906 0.28559933214452471  4.7123889803846888 0.35699916518065955  4.7123889803846906 0.42839899821679017  4.7123889803846906 0.49979883125292313  4.7123889803846888 0.57119866428905275  4.7123889803846906 0.64259849732518448  4.7123889803846888 0.71399833036131666  4.7123889803846897 0.78539816339744783  4.7123889803846897 0.85679799643358168  4.7123889803846897 0.92819782946971063  4.7123889803846897 0.99959766250584214  4.7123889803846888 1.0709974955419754  4.7123889803846897 1.1423973285781055  4.7123889803846906 1.2137971616142396  4.7123889803846906 1.2851969946503696  4.7123889803846888 1.3565968276865021  4.7123889803846897 1.4279966607226335  4.7123889803846897 1.499396493758766  4.7123889803846906 1.5469963824495196  4.7123889803846897 1.5707963267948966 
 0 4 0.071399833036131663 1 0.14279966607226333 1 0.21419949910839498 1 0.28559933214452665 1 0.35699916518065833 1 0.42839899821678995 1 0.49979883125292163 1 0.5711986642890533 1 0.64259849732518493 1 0.71399833036131666 1 0.78539816339744828 1 0.8567979964335799 1 0.92819782946971163 1 0.99959766250584325 1 1.070997495541975 1 1.1423973285781066 1 1.2137971616142382 1 1.2851969946503699 1 1.3565968276865017 1 1.4279966607226333 1 1.4993964937587649 1 1.5707963267948966 4
1 1.5707963267948966 0 0 1 
1 0.38500000000000023 0.38499999999999979 0 1 
1 0 7.2300000000000004 1 0 
1 6.2831853071795862 0 0 1 
1 0 0 1 0 
1 0 0 0 1 
2 7.3149999999999995 0.38499999999999979 0 -1 -1 -0 0.38499999999999979
1 10.995574287564276 0 -1 0 
1 7.7000000000000002 0 0 1 
1 0 0 0 -1 
2 7.3149999999999995 7.6150000000000002 0 -1 1 0 0.38499999999999979
1 -1.5707963267948966 0 1 0 
1 0 8 1 0 
1 0 0 0 1 
2 0.38500000000000023 7.6150000000000002 0 -1 -1 -0 0.38499999999999979
1 7.8539816339744828 0 -1 0 
1 0.7150000000000003 1 0 1 
1 0 0 0 1 
1 0.7150000000000003 7 1 0 
1 0 6 1 0 
1 2.165 1 0 1 
1 1.4499999999999997 0 0 1 
1 0.7150000000000003 1 1 0 
1 0 0 1 0 
1 5.5350000000000001 1 0 1 
1 0 0 0 1 
1 5.5350000000000001 7 1 0 
1 0 6 1 0 
1 6.9849999999999994 1 0 1 
1 1.4499999999999997 0 0 1 
1 5.5350000000000001 1 1 0 
1 0 0 1 0 
1 6.2831853071795862 6.6150000000000002 -1 0 
7 0 0  3 25 23  6.2831853071795862 0  6.2593853628342089 0  6.2117854741434568 0  6.1403856411073203 0  6.0689858080711936 0  5.9975859750350597 0  5.9261861419989286 0  5.8547863089627956 0  5.7833864759266653 0  5.7119866428905315 0  5.6405868098544012 0  5.5691869768182691 0  5.4977871437821388 0  5.4263873107460059 0  5.3549874777098738 0  5.2835876446737435 0  5.2121878116376097 0  5.1407879786014821 0  5.0693881455653473 0  4.9979883125292162 0  4.9265884794930841 0  4.855188646456952 0  4.7837888134208217 0  4.736188924730067 -0  4.7123889803846897 0 
 0 4 0.071399833036131663 1 0.14279966607226333 1 0.21419949910839498 1 0.28559933214452665 1 0.35699916518065833 1 0.42839899821678995 1 0.49979883125292163 1 0.5711986642890533 1 0.64259849732518493 1 0.71399833036131666 1 0.78539816339744828 1 0.8567979964335799 1 0.92819782946971163 1 0.99959766250584325 1 1.070997495541975 1 1.1423973285781066 1 1.2137971616142382 1 1.2851969946503699 1 1.3565968276865017 1 1.4279966607226333 1 1.4993964937587649 1 1.5707963267948966 4
1 4.7123889803846897 0 0 1 
1 0 0.38500000000000023 1 0 
1 6.2831853071795862 1.5707963267948966 -1 0 
1 6.2831853071795862 0 0 1 
1 0 6.9299999999999997 1 0 
1 6.6150000000000002 7.3149999999999995 0 -1 
1 0 0 0 1 
1 0 7.3149999999999995 1 0 
1 4.7123889803846897 0 0 1 
1 7.3149999999999995 0.38499999999999979 -1 0 
1 1.5707963267948966 0 0 1 
1 7.3149999999999995 7.6150000000000002 0 -1 
1 1.5707963267948966 0 0 1 
1 0.38500000000000023 7.6150000000000002 1 0 
1 1.5707963267948966 0 0 1 
1 6.2831853071795862 1.5707963267948966 -1 0 
7 0 0  3 25 23  4.7123889803846897 0  4.7123889803846897 0.02379994434537663  4.7123889803846897 0.071399833036131122  4.7123889803846888 0.14279966607226405  4.7123889803846897 0.21419949910839631  4.7123889803846906 0.28559933214452471  4.7123889803846888 0.35699916518065955  4.7123889803846906 0.42839899821679017  4.7123889803846906 0.49979883125292313  4.7123889803846888 0.57119866428905275  4.7123889803846906 0.64259849732518448  4.7123889803846888 0.71399833036131666  4.7123889803846897 0.78539816339744783  4.7123889803846897 0.85679799643358168  4.7123889803846897 0.92819782946971063  4.7123889803846897 0.99959766250584214  4.7123889803846888 1.0709974955419754  4.7123889803846897 1.1423973285781055  4.7123889803846906 1.2137971616142396  4.7123889803846906 1.2851969946503696  4.7123889803846888 1.3565968276865021  4.7123889803846897 1.4279966607226335  4.7123889803846897 1.499396493758766  4.7123889803846906 1.5469963824495196  4.7123889803846897 1.5707963267948966 
 0 4 0.071399833036131663 1 0.14279966607226333 1 0.21419949910839498 1 0.28559933214452665 1 0.35699916518065833 1 0.42839899821678995 1 0.49979883125292163 1 0.5711986642890533 1 0.64259849732518493 1 0.71399833036131666 1 0.78539816339744828 1 0.8567979964335799 1 0.92819782946971163 1 0.99959766250584325 1 1.070997495541975 1 1.1423973285781066 1 1.2137971616142382 1 1.2851969946503699 1 1.3565968276865017 1 1.4279966607226333 1 1.4993964937587649 1 1.5707963267948966 4
1 0 0 1 0 
1 6.6150000000000002 0.38500000000000023 0 1 
1 0 0 0 1 
1 0 7.3149999999999995 1 0 
1 1.5707963267948966 0 0 1 
1 6.2831853071795862 6.6150000000000002 -1 0 
7 0 0  3 25 23  6.2831853071795862 0  6.2593853628342089 0  6.2117854741434568 0  6.1403856411073203 0  6.0689858080711936 0  5.9975859750350597 0  5.9261861419989286 0  5.8547863089627956 0  5.7833864759266653 0  5.7119866428905315 0  5.6405868098544012 0  5.5691869768182691 0  5.4977871437821388 0  5.4263873107460059 0  5.3549874777098738 0  5.2835876446737435 0  5.2121878116376097 0  5.1407879786014821 0  5.0693881455653473 0  4.9979883125292162 0  4.9265884794930841 0  4.855188646456952 0  4.7837888134208217 0  4.736188924730067 -0  4.7123889803846897 0 
 0 4 0.071399833036131663 1 0.14279966607226333 1 0.21419949910839498 1 0.28559933214452665 1 0.35699916518065833 1 0.42839899821678995 1 0.49979883125292163 1 0.5711986642890533 1 0.64259849732518493 1 0.71399833036131666 1 0.78539816339744828 1 0.8567979964335799 1 0.92819782946971163 1 0.99959766250584325 1 1.070997495541975 1 1.1423973285781066 1 1.2137971616142382 1 1.2851969946503699 1 1.3565968276865017 1 1.4279966607226333 1 1.4993964937587649 1 1.5707963267948966 4
1 6.2831853071795862 0 0 1 
1 0 -0.38499999999999979 1 0 
1 0 0 0 1 
1 0 -7.6150000000000002 1 0 
1 1.5707963267948966 6.6150000000000002 -1 0 
7 0 0  3 25 23  6.2831853071795862 0  6.2593853628342089 0  6.2117854741434568 0  6.1403856411073203 0  6.0689858080711936 0  5.9975859750350597 0  5.9261861419989286 0  5.8547863089627956 0  5.7833864759266653 0  5.7119866428905315 0  5.6405868098544012 0  5.5691869768182691 0  5.4977871437821388 0  5.4263873107460059 0  5.3549874777098738 0  5.2835876446737435 0  5.2121878116376097 0  5.1407879786014821 0  5.0693881455653473 0  4.9979883125292162 0  4.9265884794930841 0  4.855188646456952 0  4.7837888134208217 0  4.736188924730067 -0  4.7123889803846897 0 
 0 4 0.071399833036131663 1 0.14279966607226333 1 0.21419949910839498 1 0.28559933214452665 1 0.35699916518065833 1 0.42839899821678995 1 0.49979883125292163 1 0.5711986642890533 1 0.64259849732518493 1 0.71399833036131666 1 0.78539816339744828 1 0.8567979964335799 1 0.92819782946971163 1 0.99959766250584325 1 1.070997495541975 1 1.1423973285781066 1 1.2137971616142382 1 1.2851969946503699 1 1.3565968276865017 1 1.4279966607226333 1 1.4993964937587649 1 1.5707963267948966 4
1 6.6150000000000002 -7.6150000000000002 0 1 
1 0 0 0 1 
1 0 0 1 0 
7 0 0  3 25 23  4.7123889803846897 0  4.7123889803846897 0.02379994434537663  4.7123889803846897 0.071399833036131122  4.7123889803846888 0.14279966607226405  4.7123889803846897 0.21419949910839631  4.7123889803846906 0.28559933214452471  4.7123889803846888 0.35699916518065955  4.7123889803846906 0.42839899821679017  4.7123889803846906 0.49979883125292313  4.7123889803846888 0.57119866428905275  4.7123889803846906 0.64259849732518448  4.7123889803846888 0.71399833036131666  4.7123889803846897 0.78539816339744783  4.7123889803846897 0.85679799643358168  4.7123889803846897 0.92819782946971063  4.7123889803846897 0.99959766250584214  4.7123889803846888 1.0709974955419754  4.7123889803846897 1.1423973285781055  4.7123889803846906 1.2137971616142396  4.7123889803846906 1.2851969946503696  4.7123889803846888 1.3565968276865021  4.7123889803846897 1.4279966607226335  4.7123889803846897 1.499396493758766  4.7123889803846906 1.5469963824495196  4.7123889803846897 1.5707963267948966 
 0 4 0.071399833036131663 1 0.14279966607226333 1 0.21419949910839498 1 0.28559933214452665 1 0.35699916518065833 1 0.42839899821678995 1 0.49979883125292163 1 0.5711986642890533 1 0.64259849732518493 1 0.71399833036131666 1 0.78539816339744828 1 0.8567979964335799 1 0.92819782946971163 1 0.99959766250584325 1 1.070997495541975 1 1.1423973285781066 1 1.2137971616142382 1 1.2851969946503699 1 1.3565968276865017 1 1.4279966607226333 1 1.4993964937587649 1 1.5707963267948966 4
1 0 6.9299999999999997 1 0 
1 6.2831853071795862 0 0 1 
1 0 0 1 0 
7 0 0  3 25 23  4.7123889803846897 0  4.7123889803846897 0.02379994434537663  4.7123889803846897 0.071399833036131122  4.7123889803846888 0.14279966607226405  4.7123889803846897 0.21419949910839631  4.7123889803846906 0.28559933214452471  4.7123889803846888 0.35699916518065955  4.7123889803846906 0.42839899821679017  4.7123889803846906 0.49979883125292313  4.7123889803846888 0.57119866428905275  4.7123889803846906 0.64259849732518448  4.7123889803846888 0.71399833036131666  4.7123889803846897 0.78539816339744783  4.7123889803846897 0.85679799643358168  4.7123889803846897 0.92819782946971063  4.7123889803846897 0.99959766250584214  4.7123889803846888 1.0709974955419754  4.7123889803846897 1.1423973285781055  4.7123889803846906 1.2137971616142396  4.7123889803846906 1.2851969946503696  4.7123889803846888 1.3565968276865021  4.7123889803846897 1.4279966607226335  4.7123889803846897 1.499396493758766  4.7123889803846906 1.5469963824495196  4.7123889803846897 1.5707963267948966 
 0 4 0.071399833036131663 1 0.14279966607226333 1 0.21419949910839498 1 0.28559933214452665 1 0.35699916518065833 1 0.42839899821678995 1 0.49979883125292163 1 0.5711986642890533 1 0.64259849732518493 1 0.71399833036131666 1 0.78539816339744828 1 0.8567979964335799 1 0.92819782946971163 1 0.99959766250584325 1 1.070997495541975 1 1.1423973285781066 1 1.2137971616142382 1 1.2851969946503699 1 1.3565968276865017 1 1.4279966607226333 1 1.4993964937587649 1 1.5707963267948966 4
1 0 7.2300000000000004 1 0 
1 6.2831853071795862 0 0 1 
1 6.2831853071795862 1.5707963267948966 -1 0 
1 6.2831853071795862 1.5707963267948966 -1 0 
Curves 44
1 -3.8500000000000001 -3.6150000000000002 0 0 0 1 
1 -3.8500000000000001 -4 0 0 1 0 
1 -3.8500000000000001 3.6150000000000002 0 0 0 1 
1 -3.8500000000000001 -3.6150000000000002 6.6150000000000002 0 1 0 
2 -3.4649999999999999 -3.6150000000000002 0 -0 0 1 0 -1 0 1 0 0 0.38500000000000001
1 -3.4649999999999999 -4 0 0 0 1 
2 -3.4649999999999999 -3.6150000000000002 6.6150000000000002 -0 -0 -1 0 -1 0 -1 0 0 0.38500000000000001
2 -3.4649999999999999 -3.6150000000000002 6.6150000000000002 0 1 -0 -1 0 0 0 0 1 0.38500000000000001
1 -3.4649999999999999 -3.6150000000000002 7 0 1 0 
2 -3.4649999999999999 3.6150000000000002 6.6150000000000002 0 1 -0 -1 0 0 0 0 1 0.38500000000000001
1 -3.8500000000000001 -4 0 1 0 0 
2 3.4649999999999999 -3.6150000000000002 0 -0 -0 -1 0 -1 0 -1 0 0 0.38500000000000001
1 3.8500000000000001 -4 0 0 1 0 
2 3.4649999999999999 3.6150000000000002 0 -0 0 1 0 -1 0 1 0 0 0.38500000000000001
1 -3.8500000000000001 4 0 1 0 0 
2 -3.4649999999999999 3.6150000000000002 0 -0 -0 -1 0 -1 0 -1 0 0 0.38500000000000001
1 -3.1349999999999998 -3 0 0 1 0 
1 -3.1349999999999998 3 0 1 0 0 
1 -1.6850000000000001 -3 0 0 1 0 
1 -3.1349999999999998 -3 0 1 0 0 
1 1.6850000000000001 -3 0 0 1 0 
1 1.6850000000000001 3 0 1 0 0 
1 3.1349999999999998 -3 0 0 1 0 
1 1.6850000000000001 -3 0 1 0 0 
2 -3.4649999999999999 3.6150000000000002 6.6150000000000002 0 0 -1 -1 0 0 0 1 0 0.38500000000000001
1 -3.4649999999999999 4 0 0 0 1 
2 -3.4649999999999999 -3.6150000000000002 6.6150000000000002 -1 0 0 0 -1 0 0 0 1 0.38500000000000001
1 3.4649999999999999 -4 6.6150000000000002 -1 -0 -0 
1 3.4649999999999999 -4 0 0 0 1 
1 3.4649999999999999 -3.6150000000000002 7 -1 -0 -0 
1 3.4649999999999999 3.6150000000000002 7 -0 -1 -0 
1 -3.4649999999999999 3.6150000000000002 7 1 0 0 
2 -3.4649999999999999 3.6150000000000002 6.6150000000000002 1 6.1232339957370002e-17 -0 -6.1232339957370002e-17 1 0 0 0 1 0.38500000000000001
1 -3.4649999999999999 4 6.6150000000000002 1 0 0 
1 3.4649999999999999 4 0 0 0 1 
2 3.4649999999999999 -3.6150000000000002 6.6150000000000002 0 0 -1 1 0 0 0 -1 0 0.38500000000000001
1 3.8500000000000001 -3.6150000000000002 0 0 0 1 
1 3.8500000000000001 3.6150000000000002 0 0 0 1 
2 3.4649999999999999 3.6150000000000002 6.6150000000000002 0 0 -1 0 1 0 1 -0 0 0.38500000000000001
1 3.8500000000000001 3.6150000000000002 6.6150000000000002 -0 -1 -0 
2 3.4649999999999999 -3.6150000000000002 6.6150000000000002 -1 -6.1232339957370002e-17 0 6.1232339957370002e-17 -1 0 0 0 1 0.38500000000000001
2 3.4649999999999999 3.6150000000000002 6.6150000000000002 1 0 0 -0 1 0 0 -0 1 0.38500000000000001
2 3.4649999999999999 3.6150000000000002 6.6150000000000002 6.1232339957370002e-17 -1 0 1 6.1232339957370002e-17 0 -0 0 1 0.38500000000000001
2 3.4649999999999999 -3.6150000000000002 6.6150000000000002 0 -1 0 1 0 0 -0 0 1 0.38500000000000001
Polygon3D 0
PolygonOnTriangulations 0
Surfaces 20
1 -3.8500000000000001 -4 0 1 0 0 0 0 1 0 -1 0 
2 -3.4649999999999999 -3.6150000000000002 0 0 0 1 -1 0 0 0 -1 0 0.38500000000000001
1 -3.8500000000000001 -4 0 0 0 1 1 0 -0 -0 1 0 
2 -3.4649999999999999 3.6150000000000002 0 0 0 1 -1 0 0 0 -1 0 0.38500000000000001
2 -3.4649999999999999 -3.6150000000000002 6.6150000000000002 0 1 0 -1 0 0 0 -0 1 0.38500000000000001
1 -3.8500000000000001 -4 0 0 1 0 0 -0 1 1 0 -0 
4 -3.4649999999999999 -3.6150000000000002 6.6150000000000002 0 0 1 0 -1 0 1 0 -0 0.38500000000000001
1 -3.8500000000000001 -4 7 0 0 1 1 0 -0 -0 1 0 
4 -3.4649999999999999 3.6150000000000002 6.6150000000000002 0 0 1 -1 0 0 0 -1 0 0.38500000000000001
2 3.4649999999999999 -3.6150000000000002 0 0 0 1 1 0 -0 -0 1 0 0.38500000000000001
1 3.8500000000000001 -4 0 1 0 0 0 0 1 0 -1 0 
2 3.4649999999999999 3.6150000000000002 0 0 0 1 1 0 -0 -0 1 0 0.38500000000000001
1 -3.8500000000000001 4 0 0 1 0 0 -0 1 1 0 -0 
1 -3.1349999999999998 -3 0 0 0 1 1 0 -0 -0 1 0 
1 1.6850000000000001 -3 0 0 0 1 1 0 -0 -0 1 0 
2 3.4649999999999999 -3.6150000000000002 6.6150000000000002 -1 -0 -0 0 -1 0 -0 0 1 0.38500000000000001
2 3.4649999999999999 3.6150000000000002 6.6150000000000002 -0 -1 -0 1 -0 0 -0 0 1 0.38500000000000001
2 -3.4649999999999999 3.6150000000000002 6.6150000000000002 1 0 0 -0 1 0 0 -0 1 0.38500000000000001
4 3.4649999999999999 -3.6150000000000002 6.6150000000000002 0 0 1 1 0 -0 -0 1 0 0.38500000000000001
4 3.4649999999999999 3.6150000000000002 6.6150000000000002 0 0 1 0 1 0 -1 0 0 0.38500000000000001
Triangulations 0

TShapes 120
Ve
1e-07
-3.85 -3.615 0
0 0

0101101
*
Ve
1e-07
-3.85 -3.615 6.615
0 0

0101101
*
Ed
 1e-07 1 1 0
1  1 0 0 6.615
2  1 1 0 0 6.615
2  2 2 0 0 6.615
4 G1 1 0 2 0
0

0101000
+120 3 -119 3 *
Ve
1e-07
-3.85 3.615 0
0 0

0101101
*
Ed
 1e-07 1 1 0
1  2 0 0.385 7.615
2  3 1 0 0.385 7.615
2  4 3 0 0.385 7.615
0

0101000
+120 3 -117 3 *
Ve
1e-07
-3.85 3.615 6.615
0 0

0101101
*
Ed
 1e-07 1 1 0
1  3 0 0 6.615
2  5 1 0 0 6.615
2  6 4 0 0 6.615
4 G1 1 0 4 0
0

0101000
+117 3 -115 3 *
Ed
 1e-07 1 1 0
1  4 0 0 7.23
2  7 1 0 0 7.23
2  8 5 0 0 7.23
4 G1 1 0 5 0
0

0101000
+119 3 -115 3 *
Wi

0101100
-118 0 +116 0 +114 0 -113 0 *
Fa
0  1e-07 1 0

0101000
+112 0 *
Ve
1e-07
-3.465 -4 0
0 0

0101101
*
Ed
 1e-07 1 1 0
1  5 0 4.71238898038469 6.28318530717959
2  9 2 0 4.71238898038469 6.28318530717959
2  10 3 0 4.71238898038469 6.28318530717959
0

0101000
+120 3 -110 3 *
Ve
1e-07
-3.465 -4 6.615
0 0

0101101
*
Ed
 1e-07 1 1 0
1  6 0 0 6.615
2  11 2 0 0 6.615
2  12 6 0 0 6.615
4 G1 2 0 6 0
0

0101000
+110 3 -108 3 *
Ed
 1e-07 1 1 0
1  7 0 0 1.5707963267949
2  13 2 0 0 1.5707963267949
2  14 7 0 0 1.5707963267949
4 G1 2 0 7 0
0

0101000
+108 3 -119 3 *
Wi

0101100
-118 0 +109 0 +107 0 +106 0 *
Fa
0  1e-07 2 0

0101000
+105 0 *
Ve
1e-07
-3.465 -3.615 7
0 0

0101101
*
Ed
 1e-07 1 1 0
1  8 0 0 1.5707963267949
2  15 5 0 0 1.5707963267949
2  16 7 0 0 1.5707963267949
4 G1 5 0 7 0
0

0101000
+119 3 -103 3 *
Ve
1e-07
-3.465 3.615 7
0 0

0101101
*
Ed
 1e-07 1 1 0
1  9 0 0 7.23
2  17 5 0 0 7.23
2  18 8 0 0 7.23
4 G1 5 0 8 0
0

0101000
+103 3 -101 3 *
Ed
 1e-07 1 1 0
1  10 0 0 1.5707963267949
2  19 5 0 0 1.5707963267949
2  20 9 0 0 1.5707963267949
4 G1 5 0 9 0
0

0101000
+115 3 -101 3 *
Wi

0101100
+102 0 +100 0 -99 0 -113 0 *
Fa
0  1e-07 5 0

0101000
+98 0 *
Ve
1e-07
3.465 -4 0
0 0

0101101
*
Ed
 1e-07 1 1 0
1  11 0 0.385 7.315
2  21 3 0 0.385 7.315
2  22 6 0 0.385 7.315
0

0101000
+110 3 -96 3 *
Ve
1e-07
3.85 -3.615 0
0 0

0101101
*
Ed
 1e-07 1 1 0
1  12 0 4.71238898038469 6.28318530717959
2  23 3 0 4.71238898038469 6.28318530717959
2  24 10 0 4.71238898038469 6.28318530717959
0

0101000
+94 3 -96 3 *
Ve
1e-07
3.85 3.615 0
0 0

0101101
*
Ed
 1e-07 1 1 0
1  13 0 0.385 7.615
2  25 3 0 0.385 7.615
2  26 11 0 0.385 7.615
0

0101000
+94 3 -92 3 *
Ve
1e-07
3.465 4 0
0 0

0101101
*
Ed
 1e-07 1 1 0
1  14 0 1.5707963267949 3.14159265358979
2  27 3 0 1.5707963267949 3.14159265358979
2  28 12 0 1.5707963267949 3.14159265358979
0

0101000
+92 3 -90 3 *
Ve
1e-07
-3.465 4 0
0 0

0101101
*
Ed
 1e-07 1 1 0
1  15 0 0.385 7.315
2  29 3 0 0.385 7.315
2  30 13 0 0.385 7.315
0

0101000
+88 3 -90 3 *
Ed
 1e-07 1 1 0
1  16 0 1.5707963267949 3.14159265358979
2  31 3 0 1.5707963267949 3.14159265358979
2  32 4 0 1.5707963267949 3.14159265358979
0

0101000
+117 3 -88 3 *
Wi

0101100
-116 0 +109 0 +95 0 -93 0 +91 0 +89 0 -87 0 -86 0 *
Ve
1e-07
-3.135 -3 0
0 0

0101101
*
Ve
1e-07
-3.135 3 0
0 0

0101101
*
Ed
 1e-07 1 1 0
1  17 0 0 6
2  33 3 0 0 6
2  34 14 0 0 6
4 CN 3 0 14 0
0

0101000
+84 3 -83 3 *
Ve
1e-07
-1.685 3 0
0 0

0101101
*
Ed
 1e-07 1 1 0
1  18 0 0 1.45
2  35 3 0 0 1.45
2  36 14 0 0 1.45
4 CN 3 0 14 0
0

0101000
+83 3 -81 3 *
Ve
1e-07
-1.685 -3 0
0 0

0101101
*
Ed
 1e-07 1 1 0
1  19 0 0 6
2  37 3 0 0 6
2  38 14 0 0 6
4 CN 3 0 14 0
0

0101000
+79 3 -81 3 *
Ed
 1e-07 1 1 0
1  20 0 0 1.45
2  39 3 0 0 1.45
2  40 14 0 0 1.45
4 CN 3 0 14 0
0

0101000
+84 3 -79 3 *
Wi

0101100
+82 0 +80 0 -78 0 -77 0 *
Ve
1e-07
1.685 -3 0
0 0

0101101
*
Ve
1e-07
1.685 3 0
0 0

0101101
*
Ed
 1e-07 1 1 0
1  21 0 0 6
2  41 3 0 0 6
2  42 15 0 0 6
4 CN 3 0 15 0
0

0101000
+75 3 -74 3 *
Ve
1e-07
3.135 3 0
0 0

0101101
*
Ed
 1e-07 1 1 0
1  22 0 0 1.45
2  43 3 0 0 1.45
2  44 15 0 0 1.45
4 CN 3 0 15 0
0

0101000
+74 3 -72 3 *
Ve
1e-07
3.135 -3 0
0 0

0101101
*
Ed
 1e-07 1 1 0
1  23 0 0 6
2  45 3 0 0 6
2  46 15 0 0 6
4 CN 3 0 15 0
0

0101000
+70 3 -72 3 *
Ed
 1e-07 1 1 0
1  24 0 0 1.45
2  47 3 0 0 1.45
2  48 15 0 0 1.45
4 CN 3 0 15 0
0

0101000
+75 3 -70 3 *
Wi

0101100
+73 0 +71 0 -69 0 -68 0 *
Fa
0  1e-07 3 0

0101000
+85 0 +76 0 +67 0 *
Ve
1e-07
-3.465 4 6.615
0 0

0101101
*
Ed
 1e-07 1 1 0
1  25 0 0 1.5707963267949
2  49 4 0 0 1.5707963267949
2  50 9 0 0 1.5707963267949
4 G1 4 0 9 0
0

0101000
+115 3 -65 3 *
Ed
 1e-07 1 1 0
1  26 0 0 6.615
2  51 4 0 0 6.615
2  52 13 0 0 6.615
4 G1 4 0 13 0
0

0101000
+88 3 -65 3 *
Wi

0101100
+64 0 -63 0 -86 0 +114 0 *
Fa
0  1e-07 4 0

0101000
+62 0 *
Ed
 1e-07 1 1 1
2  53 7 0 0 1.5707963267949
0

0101000
+103 3 -103 3 *
Ed
 1e-07 1 1 0
1  27 0 0 1.5707963267949
2  54 7 0 0 1.5707963267949
2  55 16 0 0 1.5707963267949
4 G1 7 0 16 0
0

0101000
+108 3 -103 3 *
Wi

0101100
+60 0 -102 0 -106 0 +59 0 *
Fa
0  1e-07 7 0

0101000
+58 0 *
Ve
1e-07
3.465 -4 6.615
0 0

0101101
*
Ed
 1e-07 1 1 0
1  28 0 -0 6.93
2  56 6 0 -0 6.93
2  57 16 0 -0 6.93
4 G1 6 0 16 0
0

0101000
+56 3 -108 3 *
Ed
 1e-07 1 1 0
1  29 0 0 6.615
2  58 6 0 0 6.615
2  59 10 0 0 6.615
4 G1 6 0 10 0
0

0101000
+96 3 -56 3 *
Wi

0101100
+107 0 -55 0 -54 0 -95 0 *
Fa
0  1e-07 6 0

0101000
+53 0 *
Ve
1e-07
3.465 -3.615 7
0 0

0101101
*
Ed
 1e-07 1 1 0
1  30 0 -0 6.93
2  60 8 0 -0 6.93
2  61 16 0 -0 6.93
4 G1 8 0 16 0
0

0101000
+51 3 -103 3 *
Ve
1e-07
3.465 3.615 7
0 0

0101101
*
Ed
 1e-07 1 1 0
1  31 0 -0 7.23
2  62 8 0 -0 7.23
2  63 17 0 -0 7.23
4 G1 8 0 17 0
0

0101000
+49 3 -51 3 *
Ed
 1e-07 1 1 0
1  32 0 0 6.93
2  64 8 0 0 6.93
2  65 18 0 0 6.93
4 G1 8 0 18 0
0

0101000
+101 3 -49 3 *
Wi

0101100
-100 0 -50 0 -48 0 -47 0 *
Fa
0  1e-07 8 0

0101000
+46 0 *
Ed
 1e-07 1 1 1
2  66 9 0 0 1.5707963267949
0

0101000
+101 3 -101 3 *
Ed
 1e-07 1 1 0
1  33 0 0 1.5707963267949
2  67 9 0 0 1.5707963267949
2  68 18 0 0 1.5707963267949
4 G1 9 0 18 0
0

0101000
+65 3 -101 3 *
Wi

0101100
+44 0 -43 0 -64 0 +99 0 *
Fa
0  1e-07 9 0

0101000
+42 0 *
Ve
1e-07
3.465 4 6.615
0 0

0101101
*
Ed
 1e-07 1 1 0
1  34 0 0 6.93
2  69 13 0 0 6.93
2  70 18 0 0 6.93
4 G1 13 0 18 0
0

0101000
+65 3 -40 3 *
Ed
 1e-07 1 1 0
1  35 0 0 6.615
2  71 13 0 0 6.615
2  72 12 0 0 6.615
4 G1 13 0 12 0
0

0101000
+90 3 -40 3 *
Wi

0101100
+63 0 +39 0 -38 0 -87 0 *
Fa
0  1e-07 13 0

0101000
+37 0 *
Ve
1e-07
3.85 -3.615 6.615
0 0

0101101
*
Ed
 1e-07 1 1 0
1  36 0 0 1.5707963267949
2  73 10 0 0 1.5707963267949
2  74 19 0 0 1.5707963267949
4 G1 10 0 19 0
0

0101000
+35 3 -56 3 *
Ed
 1e-07 1 1 0
1  37 0 0 6.615
2  75 10 0 0 6.615
2  76 11 0 0 6.615
4 G1 10 0 11 0
0

0101000
+94 3 -35 3 *
Wi

0101100
+34 0 -54 0 -93 0 +33 0 *
Fa
0  1e-07 10 0

0101000
+32 0 *
Ve
1e-07
3.85 3.615 6.615
0 0

0101101
*
Ed
 1e-07 1 1 0
1  38 0 0 6.615
2  77 12 0 0 6.615
2  78 11 0 0 6.615
4 G1 12 0 11 0
0

0101000
+92 3 -30 3 *
Ed
 1e-07 1 1 0
1  39 0 0 1.5707963267949
2  79 12 0 0 1.5707963267949
2  80 20 0 0 1.5707963267949
4 G1 12 0 20 0
0

0101000
+40 3 -30 3 *
Wi

0101100
-29 0 +89 0 +38 0 +28 0 *
Fa
0  1e-07 12 0

0101000
+27 0 *
Ed
 1e-07 1 1 0
1  40 0 -0 7.23
2  81 11 0 -0 7.23
2  82 17 0 -0 7.23
4 G1 11 0 17 0
0

0101000
+30 3 -35 3 *
Wi

0101100
-33 0 +91 0 +29 0 +25 0 *
Fa
0  1e-07 11 0

0101000
+24 0 *
Wi

0101100
-82 0 +77 0 +78 0 -80 0 *
Fa
0  1e-07 14 0

0101000
+22 0 *
Wi

0101100
-73 0 +68 0 +69 0 -71 0 *
Fa
0  1e-07 15 0

0101000
+20 0 *
Ed
 1e-07 1 1 0
1  41 0 0 1.5707963267949
2  83 16 0 0 1.5707963267949
2  84 19 0 0 1.5707963267949
4 G1 16 0 19 0
0

0101000
+56 3 -51 3 *
Wi

0101100
+18 0 +50 0 -59 0 -55 0 *
Fa
0  1e-07 16 0

0101000
+17 0 *
Ed
 1e-07 1 1 0
1  42 0 0 1.5707963267949
2  85 18 0 0 1.5707963267949
2  86 20 0 0 1.5707963267949
4 G1 18 0 20 0
0

0101000
+40 3 -49 3 *
Wi

0101100
+43 0 +47 0 -15 0 -39 0 *
Fa
0  1e-07 18 0

0101000
+14 0 *
Ed
 1e-07 1 1 0
1  43 0 0 1.5707963267949
2  87 17 0 0 1.5707963267949
2  88 20 0 0 1.5707963267949
4 G1 17 0 20 0
0

0101000
+30 3 -49 3 *
Ed
 1e-07 1 1 0
1  44 0 0 1.5707963267949
2  89 17 0 0 1.5707963267949
2  90 19 0 0 1.5707963267949
4 G1 17 0 19 0
0

0101000
+35 3 -51 3 *
Wi

0101100
+12 0 +48 0 -11 0 -25 0 *
Fa
0  1e-07 17 0

0101000
+10 0 *
Ed
 1e-07 1 1 1
2  91 19 0 0 1.5707963267949
0

0101000
+51 3 -51 3 *
Wi

0101100
+8 0 -18 0 -34 0 +11 0 *
Fa
0  1e-07 19 0

0101000
+7 0 *
Ed
 1e-07 1 1 1
2  92 20 0 0 1.5707963267949
0

0101000
+49 3 -49 3 *
Wi

0101100
+5 0 -12 0 -28 0 +15 0 *
Fa
0  1e-07 20 0

0101000
+4 0 *
Sh

0101100
-111 0 +104 0 +97 0 -66 0 +61 0 +57 0 -52 0 +45 0 +41 0 +36 0 
+31 0 +26 0 +23 0 -21 0 -19 0 +16 0 +13 0 +9 0 +6 0 +3 0 
*
So

0100000
+2 0 *

+1 1 