DBRep_DrawableShape

CASCADE Topology V1, (c) Matra-Datavision
Locations 0
Curve2ds 84
1 0 0 1 0 
1 0 0 1 0 
1 1.5999999999999943 0 0 -1 
1 0 0 0 1 
1 0 -127.80000000000001 1 0 
1 0 0 1 0 
1 0 0 0 -1 
1 0 0 0 1 
1 0 0 0 1 
1 0 0 1 0 
1 0 0 1 0 
1 0 136.90000000000001 1 0 
1 1.5999999999999943 0 0 1 
1 0 0 1 0 
1 1.5999999999999943 0 0 1 
1 0 127.80000000000001 1 0 
1 1.5999999999999943 0 0 -1 
1 136.90000000000001 0 0 1 
2 35.944999999999993 26.195000000000022 1 0 -0 1 1.6000000000000001
1 0 2.5999999999999943 1 0 
2 3.8999999999999986 44.099999999999994 1 0 -0 1 1.6000000000000001
1 0 2.5999999999999943 1 0 
2 75.800000000000011 17.400000000000006 1 0 -0 1 1.6000000000000001
1 0 2.5999999999999943 1 0 
2 99.745000000000005 26.195000000000022 1 0 -0 1 1.6000000000000001
1 0 2.5999999999999943 1 0 
2 69.400000000000006 41.699999999999989 1 0 -0 1 1.6000000000000001
1 0 2.5999999999999943 1 0 
2 105.90000000000001 60.900000000000006 1 0 -0 1 1.6000000000000001
1 0 2.5999999999999943 1 0 
2 42 112.69999999999999 1 0 -0 1 1.6000000000000001
1 0 2.5999999999999943 1 0 
2 68.800000000000011 71.699999999999989 1 0 -0 1 1.6000000000000001
1 0 2.5999999999999943 1 0 
2 105.90000000000001 68.699999999999989 1 0 -0 1 1.6000000000000001
1 0 2.5999999999999943 1 0 
2 106.90000000000001 92.699999999999989 1 0 -0 1 1.6000000000000001
1 0 2.5999999999999943 1 0 
1 0 0 0 1 
1 0 127.80000000000001 1 0 
1 0 -127.80000000000001 1 0 
1 0 136.90000000000001 1 0 
1 0 0 0 -1 
1 136.90000000000001 0 0 1 
2 35.944999999999993 26.195000000000022 1 0 -0 1 1.6000000000000001
1 0 1 1 0 
2 3.8999999999999986 44.099999999999994 1 0 -0 1 1.6000000000000001
1 0 1 1 0 
2 75.800000000000011 17.400000000000006 1 0 -0 1 1.6000000000000001
1 0 1 1 0 
2 99.745000000000005 26.195000000000022 1 0 -0 1 1.6000000000000001
1 0 1 1 0 
2 69.400000000000006 41.699999999999989 1 0 -0 1 1.6000000000000001
1 0 1 1 0 
2 105.90000000000001 60.900000000000006 1 0 -0 1 1.6000000000000001
1 0 1 1 0 
2 42 112.69999999999999 1 0 -0 1 1.6000000000000001
1 0 1 1 0 
2 68.800000000000011 71.699999999999989 1 0 -0 1 1.6000000000000001
1 0 1 1 0 
2 105.90000000000001 68.699999999999989 1 0 -0 1 1.6000000000000001
1 0 1 1 0 
2 106.90000000000001 92.699999999999989 1 0 -0 1 1.6000000000000001
1 0 1 1 0 
1 6.2831853071795862 -0 0 1 
1 0 -0 0 1 
1 6.2831853071795862 -0 0 1 
1 0 -0 0 1 
1 6.2831853071795862 -0 0 1 
1 0 -0 0 1 
1 6.2831853071795862 -0 0 1 
1 0 -0 0 1 
1 6.2831853071795862 -0 0 1 
1 0 -0 0 1 
1 6.2831853071795862 -0 0 1 
1 0 -0 0 1 
1 6.2831853071795862 -0 0 1 
1 0 -0 0 1 
1 6.2831853071795862 -0 0 1 
1 0 -0 0 1 
1 6.2831853071795862 -0 0 1 
1 0 -0 0 1 
1 6.2831853071795862 -0 0 1 
1 0 -0 0 1 
Curves 42
1 -64.5 64.5 66.5 0 0 1 
1 -64.5 64.5 68.099999999999994 -0 1 0 
1 -64.5 192.30000000000001 66.5 0 0 1 
1 -64.5 64.5 66.5 -0 1 0 
1 -64.5 64.5 66.5 1 0 -0 
1 72.400000000000006 64.5 66.5 0 0 1 
1 -64.5 64.5 68.099999999999994 1 0 -0 
1 -64.5 192.30000000000001 68.099999999999994 1 0 -0 
1 72.400000000000006 64.5 68.099999999999994 -0 1 0 
2 -28.555000000000007 90.695000000000022 68.099999999999994 0 0 1 1 0 -0 -0 1 0 1.6000000000000001
2 -60.600000000000001 108.59999999999999 68.099999999999994 0 0 1 1 0 -0 -0 1 0 1.6000000000000001
2 11.300000000000006 81.900000000000006 68.099999999999994 0 0 1 1 0 -0 -0 1 0 1.6000000000000001
2 35.245000000000005 90.695000000000022 68.099999999999994 0 0 1 1 0 -0 -0 1 0 1.6000000000000001
2 4.9000000000000004 106.19999999999999 68.099999999999994 0 0 1 1 0 -0 -0 1 0 1.6000000000000001
2 41.399999999999999 125.40000000000001 68.099999999999994 0 0 1 1 0 -0 -0 1 0 1.6000000000000001
2 -22.5 177.19999999999999 68.099999999999994 0 0 1 1 0 -0 -0 1 0 1.6000000000000001
2 4.300000000000006 136.19999999999999 68.099999999999994 0 0 1 1 0 -0 -0 1 0 1.6000000000000001
2 41.399999999999999 133.19999999999999 68.099999999999994 0 0 1 1 0 -0 -0 1 0 1.6000000000000001
2 42.399999999999999 157.19999999999999 68.099999999999994 0 0 1 1 0 -0 -0 1 0 1.6000000000000001
1 -64.5 192.30000000000001 66.5 1 0 -0 
1 72.400000000000006 192.30000000000001 66.5 0 0 1 
1 72.400000000000006 64.5 66.5 -0 1 0 
2 -28.555000000000007 90.695000000000022 66.5 0 0 1 1 0 -0 -0 1 0 1.6000000000000001
2 -60.600000000000001 108.59999999999999 66.5 0 0 1 1 0 -0 -0 1 0 1.6000000000000001
2 11.300000000000006 81.900000000000006 66.5 0 0 1 1 0 -0 -0 1 0 1.6000000000000001
2 35.245000000000005 90.695000000000022 66.5 0 0 1 1 0 -0 -0 1 0 1.6000000000000001
2 4.9000000000000004 106.19999999999999 66.5 0 0 1 1 0 -0 -0 1 0 1.6000000000000001
2 41.399999999999999 125.40000000000001 66.5 0 0 1 1 0 -0 -0 1 0 1.6000000000000001
2 -22.5 177.19999999999999 66.5 0 0 1 1 0 -0 -0 1 0 1.6000000000000001
2 4.300000000000006 136.19999999999999 66.5 0 0 1 1 0 -0 -0 1 0 1.6000000000000001
2 41.399999999999999 133.19999999999999 66.5 0 0 1 1 0 -0 -0 1 0 1.6000000000000001
2 42.399999999999999 157.19999999999999 66.5 0 0 1 1 0 -0 -0 1 0 1.6000000000000001
1 -26.955000000000005 90.695000000000022 65.5 0 0 1 
1 -59 108.59999999999999 65.5 0 0 1 
1 12.900000000000006 81.900000000000006 65.5 0 0 1 
1 36.845000000000006 90.695000000000022 65.5 0 0 1 
1 6.5 106.19999999999999 65.5 0 0 1 
1 43 125.40000000000001 65.5 0 0 1 
1 -20.899999999999999 177.19999999999999 65.5 0 0 1 
1 5.9000000000000057 136.19999999999999 65.5 0 0 1 
1 43 133.19999999999999 65.5 0 0 1 
1 44 157.19999999999999 65.5 0 0 1 
Polygon3D 0
PolygonOnTriangulations 0
Surfaces 16
1 -64.5 64.5 66.5 1 0 -0 0 0 1 0 -1 0 
1 -64.5 64.5 66.5 -0 1 0 0 0 1 1 0 -0 
1 -64.5 64.5 68.099999999999994 0 0 1 1 0 -0 -0 1 0 
1 -64.5 192.30000000000001 66.5 -0 1 0 0 0 1 1 0 -0 
1 -64.5 64.5 66.5 0 0 1 1 0 -0 -0 1 0 
1 72.400000000000006 64.5 66.5 1 0 -0 0 0 1 0 -1 0 
2 -28.555000000000007 90.695000000000022 65.5 0 0 1 1 0 -0 -0 1 0 1.6000000000000001
2 -60.600000000000001 108.59999999999999 65.5 0 0 1 1 0 -0 -0 1 0 1.6000000000000001
2 11.300000000000006 81.900000000000006 65.5 0 0 1 1 0 -0 -0 1 0 1.6000000000000001
2 35.245000000000005 90.695000000000022 65.5 0 0 1 1 0 -0 -0 1 0 1.6000000000000001
2 4.9000000000000004 106.19999999999999 65.5 0 0 1 1 0 -0 -0 1 0 1.6000000000000001
2 41.399999999999999 125.40000000000001 65.5 0 0 1 1 0 -0 -0 1 0 1.6000000000000001
2 -22.5 177.19999999999999 65.5 0 0 1 1 0 -0 -0 1 0 1.6000000000000001
2 4.300000000000006 136.19999999999999 65.5 0 0 1 1 0 -0 -0 1 0 1.6000000000000001
2 41.399999999999999 133.19999999999999 65.5 0 0 1 1 0 -0 -0 1 0 1.6000000000000001
2 42.399999999999999 157.19999999999999 65.5 0 0 1 1 0 -0 -0 1 0 1.6000000000000001
Triangulations 0

TShapes 125
Ve
1e-07
-64.5 64.5 68.1
0 0

0101101
*
Ve
1e-07
-64.5 64.5 66.5
0 0

0101101
*
Ed
 1e-07 1 1 0
1  1 0 0 1.59999999999999
2  1 1 0 0 1.59999999999999
2  2 2 0 0 1.59999999999999
0

0101000
-125 0 +124 0 *
Ve
1e-07
-64.5 192.3 68.1
0 0

0101101
*
Ed
 1e-07 1 1 0
1  2 0 0 127.8
2  3 1 0 0 127.8
2  4 3 0 0 127.8
0

0101000
-122 0 +125 0 *
Ve
1e-07
-64.5 192.3 66.5
0 0

0101101
*
Ed
 1e-07 1 1 0
1  3 0 0 1.59999999999999
2  5 1 0 0 1.59999999999999
2  6 4 0 0 1.59999999999999
0

0101000
-122 0 +120 0 *
Ed
 1e-07 1 1 0
1  4 0 0 127.8
2  7 1 0 0 127.8
2  8 5 0 0 127.8
0

0101000
-120 0 +124 0 *
Wi

0101100
-123 0 -121 0 +119 0 +118 0 *
Fa
0  1e-07 1 0

0101000
+117 0 *
Ve
1e-07
72.4 64.5 66.5
0 0

0101101
*
Ed
 1e-07 1 1 0
1  5 0 0 136.9
2  9 2 0 0 136.9
2  10 5 0 0 136.9
0

0101000
-115 0 +124 0 *
Ve
1e-07
72.4 64.5 68.1
0 0

0101101
*
Ed
 1e-07 1 1 0
1  6 0 0 1.59999999999999
2  11 6 0 0 1.59999999999999
2  12 2 0 0 1.59999999999999
0

0101000
-113 0 +115 0 *
Ed
 1e-07 1 1 0
1  7 0 0 136.9
2  13 2 0 0 136.9
2  14 3 0 0 136.9
0

0101000
-113 0 +125 0 *
Wi

0101100
-114 0 -112 0 +111 0 +123 0 *
Fa
0  1e-07 2 0

0101000
+110 0 *
Ve
1e-07
72.4 192.3 68.1
0 0

0101101
*
Ed
 1e-07 1 1 0
1  8 0 0 136.9
2  15 4 0 0 136.9
2  16 3 0 0 136.9
0

0101000
-108 0 +122 0 *
Ed
 1e-07 1 1 0
1  9 0 0 127.8
2  17 6 0 0 127.8
2  18 3 0 0 127.8
0

0101000
-108 0 +113 0 *
Wi

0101100
-121 0 -107 0 +111 0 +106 0 *
Ve
1e-07
-26.955 90.695 68.1
0 0

0101101
*
Ed
 1e-07 1 1 0
1  10 0 0 6.28318530717959
2  19 3 0 0 6.28318530717959
2  20 7 0 0 6.28318530717959
0

0101000
+104 0 -104 0 *
Wi

0101100
-103 0 *
Ve
1e-07
-59 108.6 68.1
0 0

0101101
*
Ed
 1e-07 1 1 0
1  11 0 0 6.28318530717959
2  21 3 0 0 6.28318530717959
2  22 8 0 0 6.28318530717959
0

0101000
+101 0 -101 0 *
Wi

0101100
-100 0 *
Ve
1e-07
12.9 81.9 68.1
0 0

0101101
*
Ed
 1e-07 1 1 0
1  12 0 0 6.28318530717959
2  23 3 0 0 6.28318530717959
2  24 9 0 0 6.28318530717959
0

0101000
+98 0 -98 0 *
Wi

0101100
-97 0 *
Ve
1e-07
36.845 90.695 68.1
0 0

0101101
*
Ed
 1e-07 1 1 0
1  13 0 0 6.28318530717959
2  25 3 0 0 6.28318530717959
2  26 10 0 0 6.28318530717959
0

0101000
+95 0 -95 0 *
Wi

0101100
-94 0 *
Ve
1e-07
6.5 106.2 68.1
0 0

0101101
*
Ed
 1e-07 1 1 0
1  14 0 0 6.28318530717959
2  27 3 0 0 6.28318530717959
2  28 11 0 0 6.28318530717959
0

0101000
+92 0 -92 0 *
Wi

0101100
-91 0 *
Ve
1e-07
43 125.4 68.1
0 0

0101101
*
Ed
 1e-07 1 1 0
1  15 0 0 6.28318530717959
2  29 3 0 0 6.28318530717959
2  30 12 0 0 6.28318530717959
0

0101000
+89 0 -89 0 *
Wi

0101100
-88 0 *
Ve
1e-07
-20.9 177.2 68.1
0 0

0101101
*
Ed
 1e-07 1 1 0
1  16 0 0 6.28318530717959
2  31 3 0 0 6.28318530717959
2  32 13 0 0 6.28318530717959
0

0101000
+86 0 -86 0 *
Wi

0101100
-85 0 *
Ve
1e-07
5.90000000000001 136.2 68.1
0 0

0101101
*
Ed
 1e-07 1 1 0
1  17 0 0 6.28318530717959
2  33 3 0 0 6.28318530717959
2  34 14 0 0 6.28318530717959
0

0101000
+83 0 -83 0 *
Wi

0101100
-82 0 *
Ve
1e-07
43 133.2 68.1
0 0

0101101
*
Ed
 1e-07 1 1 0
1  18 0 0 6.28318530717959
2  35 3 0 0 6.28318530717959
2  36 15 0 0 6.28318530717959
0

0101000
+80 0 -80 0 *
Wi

0101100
-79 0 *
Ve
1e-07
44 157.2 68.1
0 0

0101101
*
Ed
 1e-07 1 1 0
1  19 0 0 6.28318530717959
2  37 3 0 0 6.28318530717959
2  38 16 0 0 6.28318530717959
0

0101000
+77 0 -77 0 *
Wi

0101100
-76 0 *
Fa
0  1e-07 3 0

0101000
+105 0 +102 0 +99 0 +96 0 +93 0 +90 0 +87 0 +84 0 +81 0 +78 0 
+75 0 *
Ve
1e-07
72.4 192.3 66.5
0 0

0101101
*
Ed
 1e-07 1 1 0
1  20 0 0 136.9
2  39 4 0 0 136.9
2  40 5 0 0 136.9
0

0101000
-73 0 +120 0 *
Ed
 1e-07 1 1 0
1  21 0 0 1.59999999999999
2  41 6 0 0 1.59999999999999
2  42 4 0 0 1.59999999999999
0

0101000
-108 0 +73 0 *
Wi

0101100
-72 0 -71 0 +107 0 +119 0 *
Fa
0  1e-07 4 0

0101000
+70 0 *
Ed
 1e-07 1 1 0
1  22 0 0 127.8
2  43 6 0 0 127.8
2  44 5 0 0 127.8
0

0101000
-73 0 +115 0 *
Wi

0101100
-118 0 -72 0 +114 0 +68 0 *
Ve
1e-07
-26.955 90.695 66.5
0 0

0101101
*
Ed
 1e-07 1 1 0
1  23 0 0 6.28318530717959
2  45 5 0 0 6.28318530717959
2  46 7 0 0 6.28318530717959
0

0101000
+66 0 -66 0 *
Wi

0101100
-65 0 *
Ve
1e-07
-59 108.6 66.5
0 0

0101101
*
Ed
 1e-07 1 1 0
1  24 0 0 6.28318530717959
2  47 5 0 0 6.28318530717959
2  48 8 0 0 6.28318530717959
0

0101000
+63 0 -63 0 *
Wi

0101100
-62 0 *
Ve
1e-07
12.9 81.9 66.5
0 0

0101101
*
Ed
 1e-07 1 1 0
1  25 0 0 6.28318530717959
2  49 5 0 0 6.28318530717959
2  50 9 0 0 6.28318530717959
0

0101000
+60 0 -60 0 *
Wi

0101100
-59 0 *
Ve
1e-07
36.845 90.695 66.5
0 0

0101101
*
Ed
 1e-07 1 1 0
1  26 0 0 6.28318530717959
2  51 5 0 0 6.28318530717959
2  52 10 0 0 6.28318530717959
0

0101000
+57 0 -57 0 *
Wi

0101100
-56 0 *
Ve
1e-07
6.5 106.2 66.5
0 0

0101101
*
Ed
 1e-07 1 1 0
1  27 0 0 6.28318530717959
2  53 5 0 0 6.28318530717959
2  54 11 0 0 6.28318530717959
0

0101000
+54 0 -54 0 *
Wi

0101100
-53 0 *
Ve
1e-07
43 125.4 66.5
0 0

0101101
*
Ed
 1e-07 1 1 0
1  28 0 0 6.28318530717959
2  55 5 0 0 6.28318530717959
2  56 12 0 0 6.28318530717959
0

0101000
+51 0 -51 0 *
Wi

0101100
-50 0 *
Ve
1e-07
-20.9 177.2 66.5
0 0

0101101
*
Ed
 1e-07 1 1 0
1  29 0 0 6.28318530717959
2  57 5 0 0 6.28318530717959
2  58 13 0 0 6.28318530717959
0

0101000
+48 0 -48 0 *
Wi

0101100
-47 0 *
Ve
1e-07
5.90000000000001 136.2 66.5
0 0

0101101
*
Ed
 1e-07 1 1 0
1  30 0 0 6.28318530717959
2  59 5 0 0 6.28318530717959
2  60 14 0 0 6.28318530717959
0

0101000
+45 0 -45 0 *
Wi

0101100
-44 0 *
Ve
1e-07
43 133.2 66.5
0 0

0101101
*
Ed
 1e-07 1 1 0
1  31 0 0 6.28318530717959
2  61 5 0 0 6.28318530717959
2  62 15 0 0 6.28318530717959
0

0101000
+42 0 -42 0 *
Wi

0101100
-41 0 *
Ve
1e-07
44 157.2 66.5
0 0

0101101
*
Ed
 1e-07 1 1 0
1  32 0 0 6.28318530717959
2  63 5 0 0 6.28318530717959
2  64 16 0 0 6.28318530717959
0

0101000
+39 0 -39 0 *
Wi

0101100
-38 0 *
Fa
0  1e-07 5 0

0101000
+67 0 +64 0 +61 0 +58 0 +55 0 +52 0 +49 0 +46 0 +43 0 +40 0 
+37 0 *
Wi

0101100
-112 0 -106 0 +71 0 +68 0 *
Fa
0  1e-07 6 0

0101000
+35 0 *
Ed
 1e-07 1 1 0
1  33 0 1 2.59999999999999
3  65 66CN 7 0 1 2.59999999999999
0

0101000
+66 0 -104 0 *
Wi

0101100
-103 0 +33 0 +65 0 -33 0 *
Fa
0  1e-07 7 0

0101000
+32 0 *
Ed
 1e-07 1 1 0
1  34 0 1 2.59999999999999
3  67 68CN 8 0 1 2.59999999999999
0

0101000
+63 0 -101 0 *
Wi

0101100
-100 0 +30 0 +62 0 -30 0 *
Fa
0  1e-07 8 0

0101000
+29 0 *
Ed
 1e-07 1 1 0
1  35 0 1 2.59999999999999
3  69 70CN 9 0 1 2.59999999999999
0

0101000
+60 0 -98 0 *
Wi

0101100
-97 0 +27 0 +59 0 -27 0 *
Fa
0  1e-07 9 0

0101000
+26 0 *
Ed
 1e-07 1 1 0
1  36 0 1 2.59999999999999
3  71 72CN 10 0 1 2.59999999999999
0

0101000
+57 0 -95 0 *
Wi

0101100
-94 0 +24 0 +56 0 -24 0 *
Fa
0  1e-07 10 0

0101000
+23 0 *
Ed
 1e-07 1 1 0
1  37 0 1 2.59999999999999
3  73 74CN 11 0 1 2.59999999999999
0

0101000
+54 0 -92 0 *
Wi

0101100
-91 0 +21 0 +53 0 -21 0 *
Fa
0  1e-07 11 0

0101000
+20 0 *
Ed
 1e-07 1 1 0
1  38 0 1 2.59999999999999
3  75 76CN 12 0 1 2.59999999999999
0

0101000
+51 0 -89 0 *
Wi

0101100
-88 0 +18 0 +50 0 -18 0 *
Fa
0  1e-07 12 0

0101000
+17 0 *
Ed
 1e-07 1 1 0
1  39 0 1 2.59999999999999
3  77 78CN 13 0 1 2.59999999999999
0

0101000
+48 0 -86 0 *
Wi

0101100
-85 0 +15 0 +47 0 -15 0 *
Fa
0  1e-07 13 0

0101000
+14 0 *
Ed
 1e-07 1 1 0
1  40 0 1 2.59999999999999
3  79 80CN 14 0 1 2.59999999999999
0

0101000
+45 0 -83 0 *
Wi

0101100
-82 0 +12 0 +44 0 -12 0 *
Fa
0  1e-07 14 0

0101000
+11 0 *
Ed
 1e-07 1 1 0
1  41 0 1 2.59999999999999
3  81 82CN 15 0 1 2.59999999999999
0

0101000
+42 0 -80 0 *
Wi

0101100
-79 0 +9 0 +41 0 -9 0 *
Fa
0  1e-07 15 0

0101000
+8 0 *
Ed
 1e-07 1 1 0
1  42 0 1 2.59999999999999
3  83 84CN 16 0 1 2.59999999999999
0

0101000
+39 0 -77 0 *
Wi

0101100
-76 0 +6 0 +38 0 -6 0 *
Fa
0  1e-07 16 0

0101000
+5 0 *
Sh

0101100
-116 0 -109 0 +74 0 +69 0 -36 0 +34 0 -31 0 -28 0 -25 0 -22 0 
-19 0 -16 0 -13 0 -10 0 -7 0 -4 0 *
So

0100000
+3 0 *
Co

0100000
+2 0 *

+1 0 