DBRep_DrawableShape

CASCADE Topology V1, (c) Matra-Datavision
Locations 3
1
              1               0               0          22.185 
              0               1               0         124.055 
              0               0               1            68.1 
1
              1               0               0               0 
              0               1               0               0 
              0               0               1               0 
2  2 -1 0
Curve2ds 326
1 6.2831853071795862 0 0 1 
1 0 0 0 1 
1 6.2831853071795862 3.6763573601498583 -1 0 
1 0 -0.66114094487475739 1 0 
1 6.2831853071795862 2.7631114137932973 -1 0 
1 6.2831853071795862 0 -1 0 
1 6.2831853071795862 0.94441158506862022 -1 0 
2 -3 -2.4000000000000008 -1 0 -0 -1 1.8
1 6.2831853071795862 5.6089383310769073e-33 0 1 
1 0 5.6089383310769073e-33 0 1 
1 0 2.5452258913847047e-32 0 -1 
1 6.2831853071795862 2.5452258913847047e-32 0 -1 
1 0 -1.7883564019212003e-16 1 2.8462576137579534e-17 
2 -3 -2.4000000000000004 -1 0 -0 -1 1.8
7 0 0  3 25 23  2.3073503999943767 2.7331947552261067e-13  2.3080127131188632 -0.010778849622768523  2.3093434029449238 -0.032227335434685263  2.3113577784560668 -0.064075534847108304  2.3133906444702017 -0.095602328305115031  2.3154421518027739 -0.12681079592078656  2.3175124519710408 -0.15770398984633152  2.3196016972870428 -0.18828493055920137  2.321710040822639 -0.21855660823278261  2.3238376364083191 -0.24852198274062975  2.3259846386224545 -0.27818398402308259  2.3281512027825695 -0.30754551235305638  2.3303374849355478 -0.33660943862517556  2.3325436418475718 -0.36537860463497113  2.3347698309935563 -0.39385582335722957  2.3370162105461567 -0.42204387922060632  2.3392829393642707 -0.44994552838113377  2.3415701769811861 -0.47756349898711165  2.3438780835917683 -0.50490049146301352  2.3462068200409245 -0.53195917870951115  2.3485565478048933 -0.55874220660370877  2.3509274289969504 -0.58525219336636181  2.353319626279422 -0.61149173314491212  2.354928744175087 -0.62880616694865465  2.3557369102563666 -0.63741916371576768 
 -2.2018118057462757 4 -2.191923599671278 1 -2.1820353935962804 1 -2.1721471875212828 1 -2.1622589814462851 1 -2.1523707753712875 1 -2.1424825692962899 1 -2.1325943632212923 1 -2.1227061571462942 1 -2.1128179510712966 1 -2.1029297449962989 1 -2.0930415389213013 1 -2.0831533328463037 1 -2.073265126771306 1 -2.0633769206963084 1 -2.0534887146213108 1 -2.0436005085463131 1 -2.0337123024713155 1 -2.0238240963963179 1 -2.0139358903213203 1 -2.0040476842463226 1 -1.9941594781713248 1 -1.9842712720963271 4
5 2.1799527966393031 3.1312750536800347 1.0374024437554037e-13 -1 1 1.0374024437554037e-13 0.63679734353600004 0.36169255452999999
7 0 0  3 25 23  2.3557369102551107 -0.63741916371613594  2.3545246736087222 -0.63676472742761925  2.3521010225689807 -0.635457123093773  2.3484680046197361 -0.63349955325329843  2.3448374371375067 -0.6315458520285675  2.3412093119601316 -0.62959605128852136  2.3375836209133283 -0.62765018284473451  2.3339603558090936 -0.6257082784429463  2.3303395084463432 -0.62377036976467692  2.3267210706109207 -0.62183648842613437  2.3231050340757928 -0.61990666597785726  2.319491390601204 -0.61798093390415421  2.3158801319348061 -0.61605932362260518  2.3122712498118272 -0.61414186648354174  2.3086647359552099 -0.6122285937695402  2.3050605820757575 -0.61031953669490913  2.3014587798722932 -0.60841472640518324  2.2978593210317815 -0.60651419397660022  2.2942621972295001 -0.60461797041564869  2.2906674001291378 -0.60272608665837302  2.2870749213830521 -0.60083857357054415  2.2834847526320221 -0.59895546194467408  2.2798968855067834 -0.59707678250873764  2.2775065029175927 -0.59582730476376411  2.2763116924332341 -0.59520331480384892 
 5.1597279111897869 4 5.163767049426732 1 5.1678061876636772 1 5.1718453259006214 1 5.1758844641375665 1 5.1799236023745117 1 5.1839627406114568 1 5.188001878848401 1 5.1920410170853462 1 5.1960801553222913 1 5.2001192935592364 1 5.2041584317961807 1 5.2081975700331258 1 5.2122367082700709 1 5.216275846507016 1 5.2203149847439612 1 5.2243541229809054 1 5.2283932612178505 1 5.2324323994547957 1 5.2364715376917408 1 5.240510675928685 1 5.2445498141656302 1 5.2485889524025753 4
3 2.6891032964171289 -0.79414400046314171 -0.89458204181042555 -0.44690375974060675 0.44690375974060675 -0.89458204181042555 1.4334216481440003 1.3281744576250001
7 0 0  3 25 23  2.2456732784520881 7.8733034349248342e-14  2.2460958913323825 -0.0099390710217011416  2.2469446847099874 -0.029728049944265367  2.2482286632086073 -0.059146339331754956  2.249523515502446 -0.088301768210281961  2.2508293277181082 -0.11719662664456544  2.2521461864839267 -0.1458331862972618  2.2534741790012376 -0.17421369797074737  2.2548133930262857 -0.20234039249055735  2.2561639168759946 -0.23021548069142977  2.2575258394272399 -0.25784115364179705  2.2588992501177643 -0.28521958280243581  2.2602842389465518 -0.31235292020078093  2.2616808964742461 -0.33924329859909474  2.263089313823432 -0.36589283166243358  2.2645095826788673 -0.39230361412448983  2.2659417952875849 -0.41847772195309402  2.2673860444590019 -0.44441721251030875  2.268842423564509 -0.47012412472561071  2.2703110265386552 -0.49560047921338857  2.2717919478737976 -0.52084827859135563  2.2732852826387493 -0.54586950704240644  2.2747911264073331 -0.570666132693193  2.2758034258175357 -0.58704877721369519  2.2763116924343052 -0.59520331480285649 
 -2.5636234858831863 4 -2.5547576803826852 1 -2.5458918748821842 1 -2.5370260693816831 1 -2.528160263881182 1 -2.5192944583806809 1 -2.5104286528801798 1 -2.5015628473796787 1 -2.4926970418791776 1 -2.4838312363786765 1 -2.4749654308781754 1 -2.4660996253776744 1 -2.4572338198771733 1 -2.4483680143766722 1 -2.4395022088761711 1 -2.43063640337567 1 -2.4217705978751689 1 -2.4129047923746678 1 -2.4040389868741667 1 -2.3951731813736656 1 -2.3863073758731645 1 -2.3774415703726635 1 -2.3685757648721624 4
5 2.1799527966395988 3.1911940447564744 1.0374024437554037e-13 -1 1 1.0374024437554037e-13 0.453189580476 0.25740574880299999
1 0 1.8827581100842085e-16 1 -8.383936025558566e-17 
2 -3 -2.4000000000000004 -1 0 -0 -1 1.8
7 0 0  3 25 23  0.89591937513770592 7.8733034349248342e-14  0.89549676225741059 -0.0099390710217011416  0.89464796887980569 -0.02972804994426536  0.89336399038118497 -0.059146339331754977  0.89206913808734711 -0.088301768210281906  0.89076332587168583 -0.11719662664456565  0.88944646710586639 -0.14583318629726177  0.88811847458855553 -0.17421369797074737  0.88677926056350742 -0.20234039249055741  0.88542873671379851 -0.23021548069142955  0.88406681416255317 -0.25784115364179716  0.88269340347202885 -0.28521958280243581  0.88130841464324039 -0.31235292020078098  0.87991175711554792 -0.33924329859909463  0.87850333976636286 -0.3658928316624338  0.87708307091092497 -0.39230361412448983  0.87565085830220823 -0.41847772195309402  0.87420660913079029 -0.44441721251030875  0.87275023002528407 -0.47012412472561071  0.87128162705113787 -0.49560047921338857  0.86980070571599466 -0.52084827859135563  0.86830737095104382 -0.54586950704240644  0.86680152718246095 -0.57066613269319333  0.86578922777225831 -0.58704877721369531  0.86528096115548703 -0.59520331480285649 
 -2.5636234858831863 4 -2.5547576803826852 1 -2.5458918748821842 1 -2.5370260693816831 1 -2.528160263881182 1 -2.5192944583806809 1 -2.5104286528801798 1 -2.5015628473796787 1 -2.4926970418791776 1 -2.4838312363786765 1 -2.4749654308781754 1 -2.4660996253776744 1 -2.4572338198771733 1 -2.4483680143766722 1 -2.4395022088761711 1 -2.43063640337567 1 -2.4217705978751689 1 -2.4129047923746678 1 -2.4040389868741667 1 -2.3951731813736656 1 -2.3863073758731645 1 -2.3774415703726635 1 -2.3685757648721624 4
5 -2.1799527966395988 3.1911940447564748 -1.0379517197550629e-13 -1 -1 1.0379517197550629e-13 0.453189580476 0.25740574880299999
7 0 0  3 25 23  0.78585574333468244 -0.63741916371613594  0.78706797998107003 -0.63676472742761914  0.78949163102081243 -0.63545712309377289  0.79312464897005608 -0.63349955325329854  0.79675521645228642 -0.63154585202856739  0.80038334162966152 -0.6295960512885217  0.80400903267646662 -0.62765018284473439  0.80763229778069867 -0.6257082784429463  0.81125314514344993 -0.62377036976467692  0.8148715829788733 -0.62183648842613437  0.8184876195139994 -0.61990666597785726  0.8221012629885891 -0.61798093390415421  0.8257125216549861 -0.61605932362260518  0.82932140377796593 -0.61414186648354174  0.83292791763458407 -0.61222859376953986  0.83653207151403475 -0.61031953669490924  0.84013387371749992 -0.60841472640518324  0.84373333255801164 -0.60651419397660022  0.84733045636029392 -0.60461797041564869  0.85092525346065528 -0.60272608665837302  0.85451773220674188 -0.60083857357054415  0.85810790095777101 -0.59895546194467408  0.86169576808301152 -0.59707678250873764  0.86408615067220129 -0.59582730476376411  0.86528096115655906 -0.59520331480384892 
 5.1597279111897869 4 5.163767049426732 1 5.1678061876636772 1 5.1718453259006214 1 5.1758844641375665 1 5.1799236023745117 1 5.1839627406114568 1 5.188001878848401 1 5.1920410170853462 1 5.1960801553222913 1 5.2001192935592364 1 5.2041584317961807 1 5.2081975700331258 1 5.2122367082700709 1 5.216275846507016 1 5.2203149847439612 1 5.2243541229809054 1 5.2283932612178505 1 5.2324323994547957 1 5.2364715376917408 1 5.240510675928685 1 5.2445498141656302 1 5.2485889524025753 4
3 -2.6891032964171289 -0.79414400046314171 0.89458204181042555 -0.44690375974060675 -0.44690375974060675 -0.89458204181042555 1.4334216481440003 1.3281744576250001
7 0 0  3 25 23  0.83424225359541726 2.7331947552261067e-13  0.83357994047092987 -0.010778849622768523  0.83224925064486932 -0.032227335434685263  0.8302348751337254 -0.064075534847108304  0.82820200911959141 -0.095602328305115045  0.82615050178701832 -0.12681079592078651  0.82408020161875228 -0.15770398984633172  0.82199095630275121 -0.18828493055920131  0.81988261276715502 -0.21855660823278264  0.81775501718147314 -0.24852198274062975  0.81560801496733859 -0.27818398402308259  0.81344145080722363 -0.30754551235305638  0.81125516865424441 -0.33660943862517556  0.80904901174222044 -0.36537860463497113  0.80682282259623683 -0.39385582335722952  0.8045764430436364 -0.42204387922060643  0.80230971422552333 -0.44994552838113361  0.80002247660860615 -0.47756349898711165  0.7977145699980257 -0.50490049146301352  0.79538583354886772 -0.53195917870951115  0.7930361057848998 -0.55874220660370877  0.79066522459284361 -0.58525219336636181  0.78827302731037019 -0.61149173314491212  0.78666390941470699 -0.62880616694865465  0.78585574333342656 -0.63741916371576768 
 -2.2018118057462757 4 -2.191923599671278 1 -2.1820353935962804 1 -2.1721471875212828 1 -2.1622589814462851 1 -2.1523707753712875 1 -2.1424825692962899 1 -2.1325943632212923 1 -2.1227061571462942 1 -2.1128179510712966 1 -2.1029297449962989 1 -2.0930415389213013 1 -2.0831533328463037 1 -2.073265126771306 1 -2.0633769206963084 1 -2.0534887146213108 1 -2.0436005085463131 1 -2.0337123024713155 1 -2.0238240963963179 1 -2.0139358903213203 1 -2.0040476842463226 1 -1.9941594781713248 1 -1.9842712720963271 4
5 -2.1799527966393031 3.1312750536800347 -1.0379517197550629e-13 -1 -1 1.0379517197550629e-13 0.63679734353600004 0.36169255452999999
1 0 0 1 0 
2 -3 -2.4000000000000004 -1 0 -0 -1 1.8
1 0 0 0 -1 
1 0 0 1 0 
1 -1.3 0 1 0 
1 0 -0 1 0 
1 -1.8999999999999999 0.60000000000000009 0.70710678118654757 -0.70710678118654757 
1 0 0 1 0 
1 -4.0999999999999996 0.60000000000000009 1 0 
1 0 -0 1 0 
1 -4.7000000000000002 0 0.70710678118654757 0.70710678118654757 
1 0 0 1 0 
1 -6 0 1 0 
1 0 -0 1 0 
1 -6 -4.7999999999999998 0 1 
1 0 0 1 0 
1 -4.7000000000000002 -4.7999999999999998 -1 0 
1 0 0 1 0 
1 -4.0999999999999996 -5.4000000000000004 -0.70710678118654757 0.70710678118654757 
1 0 0 1 0 
1 -1.8999999999999999 -5.4000000000000004 -1 0 
1 0 0 1 0 
1 -1.3 -4.7999999999999998 -0.70710678118654757 -0.70710678118654757 
1 0 0 1 0 
1 0 -4.7999999999999998 -1 0 
1 0 0 1 0 
1 0 0 0 -1 
1 0 -1.2999999999999998 1 0 
1 -1.3 0 1 0 
1 0 -1.2999999999999998 1 0 
1 -1.8999999999999999 0.60000000000000009 0.70710678118654757 -0.70710678118654757 
1 0 -1.2999999999999998 1 0 
1 -4.0999999999999996 0.60000000000000009 1 0 
1 0 -1.2999999999999998 1 0 
1 -4.7000000000000002 0 0.70710678118704751 0.70710678118604753 
1 0 -1.2999999999999998 1 0 
1 -6 0 1 0 
1 0 -1.2999999999999998 1 0 
1 -6 -4.7999999999999998 0 1 
1 0 -1.2999999999999998 1 0 
1 -4.7000000000000002 -4.7999999999999998 -1 0 
1 0 -1.2999999999999998 1 0 
1 -4.0999999999999996 -5.4000000000000004 -0.70710678118654757 0.70710678118654757 
1 0 -1.2999999999999998 1 0 
1 -3.6323182254750002 -1.722337866098 0.27570114219786845 0.96124340319754131 
1 -2.6570201954534998 0.21729598833709615 -1 2.1640208704117887e-16 
1 -2.1396484150979997 -2.5173855786729997 -0.27570114219786845 0.96124340319754131 
1 1.8299167688602449 0.21729598833717578 1 1.5395204190601384e-16 
1 -1.3 -4.7999999999999998 -0.70710678118654757 -0.70710678118654757 
1 0 -1.2999999999999998 1 0 
1 0 -4.7999999999999998 -1 0 
1 0 -1.2999999999999998 1 0 
1 -0.63989749351413971 0.30367148208434624 0.95624699327191898 0.29256057126416496 
1 0 0 1 6.9388939039072284e-18 
2 -0.57040007848090024 0.076516148477868196 0.9940178757221797 0.1092175020075325 -0.1092175020075325 0.9940178757221797 0.23754880821100011
1 6.2831853071795871 -1.3768352708269372e-16 -1 7.8306515758678725e-17 
1 -0.65121684423232584 -1.0222611592470361 -0.14340242211668369 0.98966446098213934 
1 0 0 1 0 
2 -0.54460915241520902 -1.0068137002085495 0.9940178757221797 0.1092175020075325 -0.1092175020075325 0.9940178757221797 0.10772104689999978
1 6.2831853071795862 -9.000433918833219e-16 -1 2.4842800221309128e-16 
1 -0.57614968588984306 -0.5401714652806513 -0.041443071280683939 -0.99914086686654169 
1 0.529004186471 -0.65049529046499999 0.1503188233110066 0.98863757330904356 
1 -0.58001926704248086 -0.63346225063789174 0.041443071280683939 0.99914086686654169 
1 1.3569603941549999 -0.45818520816700004 0.1503188233110066 -0.98863757330904356 
1 -0.63082947848846704 -0.57406193388052718 -0.079893881169169109 0.99680337466911029 
1 0.072420941063624344 -0.51696108948700004 0.16481407015710894 -0.9863246535893988 
1 0 0 -3.5096925365962761e-14 -1 
1 4.5249213140911957 -4.5929926528742726e-13 -1.7763568393976971e-14 -1 
1 6.9017708215213247e-13 -0.10000000000014368 1 6.9388939039072284e-18 
1 -0.63989749351317848 0.30367148208430628 0.95624699327191898 0.29256057126416496 
2 -0.57040007848090002 0.076516148477868223 0.9940178757221797 0.1092175020075325 -0.1092175020075325 0.9940178757221797 0.23754880821100005
1 6.2831853071786874 -0.10000000000041608 -1 -1.9796429832218262e-16 
1 1.8299167688602804 0.23191135206425451 1 1.5395204190601384e-16 
1 -2.2367939811849999 -2.5452485980090001 -0.27570114219786845 0.96124340319754131 
1 -3.535172659388 -1.7502008854339999 0.27570114219786845 0.96124340319754131 
1 -2.6570201954535353 0.2319113520641749 -1 2.1640208704117887e-16 
3 -5.4578587243659999 -4.5562888343959997 -0.96124340319754131 0.27570114219786845 -0.27570114219786845 -0.96124340319754131 1.6426038595100001 0.23754880821099991
7 0 0  1 2 2  2.3193167181749867 -0.09971365552858602  2.319083814657823 -0.10000000000051745 
 2.2836364535151703 2 2.2838693570323336 2
1 -4.0999999999999996 -5.4000000000000004 -0.70710678118654757 0.70710678118654757 
1 0 -1.2999999999999998 1 0 
1 -1.8999999999999999 -5.4000000000000004 -1 0 
1 0 -1.2999999999999998 1 0 
1 -1.3 -4.7999999999999998 -0.70710678118654757 -0.70710678118654757 
1 0 -1.2999999999999998 1 0 
3 -0.54214127563400005 -4.5562888343959997 0.96124340319754131 0.27570114219786845 -0.27570114219786845 0.96124340319754131 1.6426038595100001 0.23754880821099991
7 0 0  1 2 2  3.9641014925217641 -0.1000000000005179  3.9638685890045995 -0.099713655528586242 
 3.9993159501472526 2 3.9995488536644159 2
1 0.63989749351317848 0.30367148208430628 -0.95624699327191898 0.29256057126416501 
1 -6.9017708215213247e-13 -0.10000000000014368 -1 6.9388939039072284e-18 
2 0.57040007848090002 0.076516148477868182 -0.99401787572217981 0.10921750200753258 0.10921750200753258 0.99401787572217981 0.23754880821100005
1 8.9905860534145177e-13 -0.10000000000041608 1 -1.9796429832218269e-16 
1 0 0 -1 6.9388939039072284e-18 
1 0.63989749351413971 0.30367148208434619 -0.95624699327191898 0.29256057126416501 
1 0 0 3.5096925365962761e-14 -1 
1 1.7582639930883903 -4.5929926528742726e-13 1.7763568393976971e-14 -1 
2 0.57040007848090024 0.076516148477868168 -0.99401787572217981 0.10921750200753258 0.10921750200753258 0.99401787572217981 0.23754880821100011
1 -1.1102230246251565e-15 -1.376835270826937e-16 1 7.8306515758678713e-17 
1 0.65121684423232573 -1.0222611592470361 0.14340242211668375 0.98966446098213934 
1 0 0 -1 0 
2 0.54460915241520891 -1.0068137002085495 -0.99401787572217981 0.10921750200753258 0.10921750200753258 0.99401787572217981 0.10772104689999978
1 0 -5.0553284717289679e-16 1 1.2421400110653874e-16 
1 0.58206787591353926 -0.68285166073860692 0.041443071280683884 -0.99914086686654169 
1 1.3495298523199999 -0.50931499559899995 -0.1503188233110066 0.98863757330904356 
1 0.57596997913144388 -0.53583895900840794 -0.041443071280683884 0.99914086686654169 
1 -0.071647630771999982 -0.55478225202300002 -0.1503188233110066 -0.98863757330904356 
1 0.63641603320152296 -0.5043607689234535 0.079893881169169165 0.99680337466911029 
1 0.76458262392815202 -0.58592953314200003 -0.16481407015710894 -0.9863246535893988 
1 0 0 0 -1 
1 1.3 0 0 -1 
1 0 -1.2000000000000002 1 0 
1 0 0 0 -1 
1 4.7999999999999998 0 0 -1 
1 0 0 0 -1 
1 0 -0 0 -1 
1 0.84852813742385724 0 0 -1 
1 0 -1.2000000000000002 1 0 
1 -1.3 0 1 0 
1 0 -1.2000000000000002 1 0 
1 0 -4.7999999999999998 -1 0 
1 1.3 0 0 -1 
1 0 0 0 -1 
1 0 0 0 -1 
1 2.2000000000000002 0 0 -1 
1 0 -1.2000000000000002 1 0 
1 -1.8999999999999999 0.60000000000000009 0.70710678118654757 -0.70710678118654757 
1 0 -1.2000000000000002 1 0 
1 -1.3 -4.7999999999999998 -0.70710678118654757 -0.70710678118654757 
1 0.84852813742385724 0 0 -1 
1 0 0 0 -1 
1 0 -0 0 -1 
1 0.84852813742385724 0 0 -1 
1 0 -1.2000000000000002 1 0 
1 -4.0999999999999996 0.60000000000000009 1 0 
1 0 -1.2000000000000002 1 0 
1 -1.8999999999999999 -5.4000000000000004 -1 0 
1 2.2000000000000002 0 0 -1 
1 0 0 0 -1 
1 0 0 0 -1 
1 1.3 0 0 -1 
1 0 -1.2000000000000002 1 0 
1 -4.7000000000000002 0 0.70710678118654757 0.70710678118654757 
1 0 -1.2000000000000002 1 0 
1 -4.0999999999999996 -5.4000000000000004 -0.70710678118654757 0.70710678118654757 
1 0.84852813742385724 0 0 -1 
1 0 0 0 -1 
1 0 -0 0 -1 
1 4.7999999999999998 0 0 -1 
1 0 -1.2000000000000002 1 0 
1 -6 0 1 0 
1 0 -1.2000000000000002 1 0 
1 -4.7000000000000002 -4.7999999999999998 -1 0 
1 1.3 0 0 -1 
1 0 0 0 -1 
1 0 -1.2000000000000002 1 0 
1 -6 -4.7999999999999998 0 1 
1 0 0 0 -1 
1 1.3 0 0 -1 
1 4.7999999999999998 0 0 -1 
1 0 0 0 -1 
1 4.7999999999999998 0 -1 0 
1 0 -0.10000000000000001 1 0 
1 1.8999999999999999 0 -1 0 
1 0 -0.10000000000000001 1 0 
1 1.3 0 0 -1 
1 0 0 0 -1 
1 0.84852813742385724 0 0 -1 
1 0 0 0 -1 
1 1.3 0 0 -1 
1 0 0 0 -1 
1 1.3 0 -1 0 
1 0 -0.10000000000000001 1 0 
1 4.7999999999999998 0 0 -1 
1 0 -0 0 -1 
1 4.7999999999999998 0 -1 0 
1 0 -0.10000000000000001 1 0 
1 1.3 0 0 -1 
1 0 0 0 -1 
1 1.8999999999999999 0 -1 -0 
1 0 -0.10000000000000001 1 0 
1 0.84852813742385691 0 0 -1 
1 0 -0 0 -1 
1 0 0 1 0 
1 -4.7000000000000002 0 0.70710678118704751 0.70710678118604753 
1 2.2000000000000002 0 0 -1 
1 0 0 0 -1 
1 0 -0 1 0 
1 -4.0999999999999996 0.60000000000000009 1 0 
1 0.84852813742385724 0 0 -1 
1 0 -0 0 -1 
1 0 0 1 0 
1 -1.8999999999999999 0.60000000000000009 0.70710678118654757 -0.70710678118654757 
1 1.3 0 -1 -0 
1 0 -0.10000000000000001 1 0 
1 0 -0 1 0 
1 1.8999999999999999 -4.7999999999999998 -1 0 
1 0 -0 0 -1 
1 4.7999999999999998 0 0 -1 
1 0 -0.10000000000000001 1 0 
1 -1.8999999999999999 -4.7999999999999998 1 0 
1 0.42624267999599996 -0.63487076925300001 0.1503188233110066 0.98863757330904356 
1 -0.54781822118042545 -0.54134661780495397 -0.041443071280683939 -0.99914086686654169 
3 0.41460301561299984 -0.162823313443 0.98863757330904356 -0.1503188233110066 0.1503188233110066 0.98863757330904356 0.39486770096000001 0.10772104690000001
7 0 0  3 25 23  2.2133313239800523 -3.9601655288379334e-13  2.2090699092646036 -0.0014271274419594289  2.2005470798337088 -0.0042911539016398373  2.1877628356873671 -0.0086158010931062876  2.1749785915410196 -0.012968350357337288  2.1621943473946712 -0.01734808997028385  2.1494101032483259 -0.021754304228862445  2.1366258591019749 -0.026186272978571179  2.1238416149556265 -0.030643271889099637  2.1110573708092777 -0.035124572530402597  2.0982731266629275 -0.039629442503083374  2.0854888825165747 -0.044157145555057738  2.0727046383702303 -0.048706941702697251  2.0599203942238704 -0.05327808735154857  2.0471361500775194 -0.057869835417926008  2.0343519059311612 -0.062481435450970652  2.0215676617848093 -0.067112133755408823  2.0087834176384534 -0.071761173514331283  1.9959991734920914 -0.076427794914372404  1.9832149293457375 -0.081111235264343315  1.9704306851993787 -0.085810729140576261  1.9576464410530188 -0.090525508434792748  1.9448621969066582 -0.095254802767855001  1.9363393674757505 -0.098416826615978406  1.9320779527602971 -0.099999999999968003 
 1.0791520820422931 4 1.091936326188623 1 1.104720570334953 1 1.1175048144812829 1 1.1302890586276129 1 1.1430733027739426 1 1.1558575469202725 1 1.1686417910666025 1 1.1814260352129324 1 1.1942102793592624 1 1.2069945235055923 1 1.2197787676519223 1 1.2325630117982522 1 1.2453472559445822 1 1.2581315000909121 1 1.2709157442372421 1 1.2836999883835718 1 1.2964842325299017 1 1.3092684766762317 1 1.3220527208225616 1 1.3348369649688916 1 1.3476212091152215 1 1.3604054532615515 4
1 1.8999999999999999 0 0 -1 
1 0 0 0 -1 
1 6.2831853071840991 -0.099999999999467168 -1 4.0542330266518001e-16 
2 -0.54460915241548435 -1.0068137002086885 0.9940178757221797 0.1092175020075325 -0.1092175020075325 0.9940178757221797 0.10772104689999978
7 0 0  3 25 23  2.4797637997843687 -0.10000000000057852  2.4780061331225944 -0.099071109278050365  2.4744907997990393 -0.09721808946769582  2.4692177998136984 -0.094452921500596768  2.4639447998283761 -0.091702192283577386  2.4586717998430392 -0.088965978267668944  2.4533987998577138 -0.08624435554028434  2.4481257998723782 -0.083537399772421819  2.4428527998870462 -0.080845186230143695  2.4375797999017186 -0.078167789768842227  2.432306799916383 -0.07550528483213674  2.4270337999310598 -0.072857745449538852  2.4217607999457207 -0.07022524523446548  2.4164877999603966 -0.067607857382175798  2.4112147999750637 -0.065005654667736473  2.4059417999897339 -0.062418709443998688  2.4006688000044076 -0.059847093639600404  2.3953958000190743 -0.057290878756893988  2.3901228000337458 -0.054750135870244326  2.3848498000484142 -0.052224935622979654  2.3795768000630901 -0.049715348229428621  2.3743038000777563 -0.047221443458040177  2.3690308000924345 -0.044743290685148429  2.3655154667688811 -0.043101736018489469  2.3637578001070998 -0.042283606971708076 
 5.4836536428852627 4 5.4889266428705996 1 5.4941996428559357 1 5.4994726428412726 1 5.5047456428266086 1 5.5100186428119455 1 5.5152916427972825 1 5.5205646427826185 1 5.5258376427679554 1 5.5311106427532915 1 5.5363836427386284 1 5.5416566427239644 1 5.5469296427093013 1 5.5522026426946383 1 5.5574756426799743 1 5.5627486426653112 1 5.5680216426506473 1 5.5732946426359842 1 5.5785676426213211 1 5.5838406426066571 1 5.5891136425919941 1 5.5943866425773301 1 5.599659642562667 4
3 -1.8985820185769999 -4.9185085749209998 0.96124340319754131 0.27570114219786845 -0.27570114219786845 0.96124340319754131 0.74487011204800002 0.10772104690000014
7 0 0  3 25 23  2.993878343026072 -0.099999999999550782  2.9843310620728554 -0.099668426032432506  2.9652365001664198 -0.0989521943992836  2.9365946573067663 -0.097719619467847255  2.9079528144471039 -0.096329789997896625  2.8793109715874432 -0.094783856284018114  2.8506691287277746 -0.093083083716112361  2.8220272858681015 -0.091228868170029329  2.7933854430084217 -0.089222730460491173  2.7647436001487433 -0.087066316273097091  2.7361017572890556 -0.084761394498307649  2.7074599144293647 -0.082309855865126874  2.6788180715696681 -0.07971371136741591  2.6501762287099644 -0.076975090620448883  2.6215343858502664 -0.074096240112038789  2.5928925429905458 -0.071079521361377074  2.564250700130831 -0.067927408977308659  2.535608857271118 -0.064642488645073215  2.5069670144113885 -0.061227454943204966  2.4783251715516625 -0.057685109364764772  2.4496833286919197 -0.054018357154979303  2.4210414858321854 -0.050230208153667195  2.3923996429724439 -0.046323762288189275  2.3733050810659444 -0.043642755400935922  2.3637578001126931 -0.042283606971374121 
 3.3187636524140296 4 3.3474054952737378 1 3.3760473381334464 1 3.4046891809931545 1 3.4333310238528632 1 3.4619728667125713 1 3.4906147095722795 1 3.5192565524319881 1 3.5478983952916963 1 3.5765402381514049 1 3.605182081011113 1 3.6338239238708212 1 3.6624657667305298 1 3.691107609590238 1 3.7197494524499466 1 3.7483912953096548 1 3.7770331381693634 1 3.8056749810290715 1 3.8343168238887797 1 3.8629586667484883 1 3.8916005096081965 1 3.9202423524679046 1 3.9488841953276133 4
3 -0.10544403010092152 -0.10234887612399998 -0.98632465358943433 -0.16481407015689636 0.16481407015689636 -0.98632465358943433 0.2245799298379999 0.10772104690000001
1 6.2831853071814256 -0.099999999999462297 -1 -9.8031554505241501e-16 
2 -0.54460915241548435 -1.0068137002086885 0.9940178757221797 0.1092175020075325 -0.1092175020075325 0.9940178757221797 0.10772104689999978
1 3.107129941472397 -2.1804780203638074e-13 0 -1 
1 0 0 -3.9726555378649664e-13 -1 
1 1.5835423250454284e-13 -0.099999999999465197 1 0 
1 -0.65121684423260118 -1.0222611592471753 -0.14340242211668369 0.98966446098213934 
1 1.0758315320324594 1.8035573035035668e-13 -3.9726555378649664e-13 -1 
1 3.1071299414721008 -5.0948134600048434e-13 4.4408920984821282e-15 -1 
1 6.2831853071795729 -0.10000000000041631 -1 0 
2 -0.57040007848090002 0.076516148477868223 0.9940178757221797 0.1092175020075325 -0.1092175020075325 0.9940178757221797 0.23754880821100005
7 0 0  1 2 2  3.9638685890069842 -0.099713655528657075  3.9629431372044928 -0.099999999999914491 
 2.3487734064305839 2 2.3496988582330736 2
3 -0.052239611492645131 -1.1903867199979998 -0.98632465358943433 -0.16481407015689636 0.16481407015689636 -0.98632465358943433 0.49524857227300018 0.237548808211
1 0 0 1 0 
1 -1.3 -4.7999999999999998 -0.70710678118654757 -0.70710678118654757 
1 0.18482814788551813 -0.49817793405900002 0.16481407015710894 -0.9863246535893988 
1 -0.68531904977190516 -0.57842927797615573 -0.079893881169169109 0.99680337466911029 
1 0.84852813742385724 0 0 -1 
1 0 0 0 -1 
1 2.2000000000000002 0 0 -1 
1 0 0 0 -1 
1 0 0 1 0 
1 -1.8999999999999999 -5.4000000000000004 -1 0 
1 0 0 1 0 
1 -4.0999999999999996 -5.4000000000000004 -0.70710678118654757 0.70710678118654757 
3 0.90076774891650235 -1.1903867199979998 0.98632465358943433 -0.16481407015689636 0.16481407015689636 0.98632465358943433 0.49524857227300001 0.23754880821099994
7 0 0  1 2 2  2.3202421699750935 -0.099999999999914491  2.3193167181726033 -0.099713655528657186 
 3.9334864489465127 2 3.9344119007490024 2
1 0.65217541710767213 -0.56714637771400001 -0.16481407015710894 -0.9863246535893988 
1 0.69090560448427596 -0.5087281130192608 0.079893881169169165 0.99680337466911029 
3 0.95397216752477876 -0.10234887612399998 0.98632465358943433 -0.16481407015689636 0.16481407015689636 0.98632465358943433 0.22457992983799974 0.10772104689999999
7 0 0  3 25 23  3.9194275070668931 -0.042283606971374121  3.9098802261136454 -0.043642755400935852  3.8907856642071468 -0.046323762288189178  3.8621438213473995 -0.050230208153667202  3.8335019784876665 -0.054018357154979289  3.8048601356279232 -0.057685109364764751  3.7762182927681978 -0.061227454943204994  3.7475764499084692 -0.06464248864507316  3.7189346070487534 -0.067927408977308729  3.6902927641890404 -0.071079521361377004  3.6616509213293189 -0.07409624011203883  3.6330090784696214 -0.076975090620448897  3.6043672356099177 -0.079713711367415938  3.5757253927502233 -0.082309855865126874  3.5470835498905289 -0.084761394498307635  3.5184417070308434 -0.087066316273097147  3.4897998641711641 -0.089222730460491118  3.4611580213114843 -0.091228868170029398  3.4325161784518121 -0.093083083716112333  3.4038743355921426 -0.094783856284018114  3.3752324927324815 -0.096329789997896625  3.3465906498728208 -0.097719619467847241  3.3179488070131651 -0.098952194399283641  3.2988542451067309 -0.099668426032432506  3.2893069641535142 -0.099999999999550782 
 2.334301111851973 4 2.3629429547116811 1 2.3915847975713898 1 2.4202266404310979 1 2.4488684832908065 1 2.4775103261505147 1 2.5061521690102233 1 2.5347940118699315 1 2.5634358547296401 1 2.5920776975893483 1 2.6207195404490564 1 2.649361383308765 1 2.6780032261684736 1 2.7066450690281818 1 2.73528691188789 1 2.7639287547475986 1 2.7925705976073067 1 2.8212124404670154 1 2.8498542833267235 1 2.8784961261864321 1 2.9071379690461403 1 2.9357798119058485 1 2.9644216547655571 4
1 1.3322676295501878e-14 -0.10000000000041631 1 0 
2 0.57040007848090002 0.076516148477868182 -0.99401787572217981 0.10921750200753258 0.10921750200753258 0.99401787572217981 0.23754880821100005
1 3.1760553657074855 -5.0948134600048434e-13 -4.4408920984821282e-15 -1 
1 -1.0758315320324594 1.8035573035035668e-13 3.9726555378649664e-13 -1 
1 0 -0 1 0 
1 1.8999999999999999 -4.7999999999999998 -1 0 
1 0 -0 0 -1 
1 4.7999999999999998 0 0 -1 
3 1.4853969843870001 -0.162823313443 -0.98863757330904356 -0.1503188233110066 0.1503188233110066 -0.98863757330904356 0.39486770096000001 0.10772104690000001
7 0 0  3 25 23  4.3511073544192893 -0.099999999999968003  4.3468459397038366 -0.09841682661597842  4.3383231102729276 -0.095254802767854974  4.3255388661265677 -0.090525508434792845  4.3127546219802131 -0.085810729140576636  4.2999703778338469 -0.081111235264343842  4.287186133687495 -0.076427794914373126  4.2744018895411386 -0.071761173514331991  4.2616176453947814 -0.067112133755409795  4.2488334012484312 -0.062481435450972296  4.2360491571020651 -0.057869835417926986  4.2232649129557212 -0.053278087351549645  4.2104806688093612 -0.048706941702698736  4.1976964246630155 -0.044157145555059368  4.1849121805166627 -0.039629442503084832  4.1721279363703161 -0.035124572530404352  4.1593436922239615 -0.030643271889101927  4.1465594480776105 -0.026186272978572893  4.1337752039312674 -0.021754304228865307  4.1209909597849199 -0.017348089970285762  4.1082067156385733 -0.012968350357339578  4.0954224714922294 -0.0086158010931093182  4.0826382273458881 -0.0042911539016426657  4.0741153979149907 -0.0014271274419624331  4.0698539831995397 -3.9923619965520629e-13 
 4.9227798539180352 4 4.9355640980643649 1 4.9483483422106946 1 4.9611325863570235 1 4.9739168305033532 1 4.9867010746496829 1 4.9994853187960127 1 5.0122695629423415 1 5.0250538070886712 1 5.0378380512350009 1 5.0506222953813307 1 5.0634065395276604 1 5.0761907836739892 1 5.088975027820319 1 5.1017592719666487 1 5.1145435161129784 1 5.1273277602593073 1 5.140112004405637 1 5.1528962485519667 1 5.1656804926982964 1 5.1784647368446262 1 5.191248980990955 1 5.2040332251372847 4
1 1.4522913587940001 -0.49369047438800001 -0.1503188233110066 0.98863757330904356 
1 0.55373641120439754 -0.68402681326205927 0.041443071280683884 -0.99914086686654169 
1 0 -0.10000000000000001 1 0 
1 -6 -4.7999999999999998 1 0 
1 1.8999999999999999 0 0 -1 
1 0 0 0 -1 
1 3.1760553657071893 -2.1804780203638074e-13 0 -1 
1 0 0 3.9726555378649664e-13 -1 
1 -1.8394175071989594e-12 -0.099999999999462297 1 -9.8031554505241501e-16 
2 0.54460915241548424 -1.0068137002086885 -0.99401787572217981 0.10921750200753258 0.10921750200753258 0.99401787572217981 0.10772104689999978
7 0 0  3 25 23  3.9194275070724864 -0.042283606971708076  3.9176698404107086 -0.043101736018489108  3.9141545070871553 -0.044743290685147895  3.9088815071018308 -0.047221443458039906  3.9036085071164961 -0.049715348229428934  3.8983355071311721 -0.052224935622979342  3.8930625071458405 -0.054750135870244535  3.8877895071605111 -0.057290878756893523  3.882516507175179 -0.059847093639600127  3.8772435071898474 -0.062418709443998271  3.8719705072045225 -0.065005654667736446  3.8666975072191918 -0.067607857382175576  3.8614245072338638 -0.070225245234465133  3.8561515072485268 -0.072857745449538547  3.8508785072632028 -0.075505284832136324  3.8456055072778668 -0.078167789768842172  3.8403325072925396 -0.080845186230143654  3.835059507307208 -0.083537399772421375  3.8297865073218738 -0.08624435554028409  3.8245135073365422 -0.088965978267669041  3.8192405073512123 -0.091702192283576747  3.8139675073658861 -0.094452921500597226  3.8086945073805487 -0.097218089467695515  3.8051791740569922 -0.099071109278050143  3.8034215073952176 -0.10000000000057852 
 0.68352566461691933 4 0.68879866460225592 1 0.6940716645875924 1 0.69934466457292899 1 0.70461766455826547 1 0.70989066454360206 1 0.71516366452893865 1 0.72043666451427513 1 0.72570966449961172 1 0.7309826644849482 1 0.73625566447028479 1 0.74152866445562138 1 0.74680166444095786 1 0.75207466442629445 1 0.75734766441163093 1 0.76262066439696752 1 0.767893664382304 1 0.77316666436764059 1 0.77843966435297718 1 0.78371266433831366 1 0.78898566432365025 1 0.79425866430898684 1 0.79953166429432332 4
3 -4.1014179814230003 -4.9185085749209998 -0.96124340319754131 0.27570114219786845 -0.27570114219786845 -0.96124340319754131 0.74487011204800002 0.10772104690000014
1 -4.5128345504963363e-12 -0.099999999999467168 1 4.0542330266518001e-16 
2 0.54460915241548424 -1.0068137002086885 -0.99401787572217981 0.10921750200753258 0.10921750200753258 0.99401787572217981 0.10772104689999978
1 -1.5835423250454284e-13 -0.099999999999465197 -1 0 
1 0.65121684423260107 -1.0222611592471753 0.14340242211668375 0.98966446098213934 
1 4.7999999999999998 0 0 -1 
1 0 0 0 -1 
1 0 0 1 0 
1 0 -4.7999999999999998 0 1 
1 0 0 0 -1 
1 1.8999999999999999 0 0 -1 
1 0 0 1 0 
1 1.8999999999999999 0 0 -1 
1 0 0 0 -1 
1 4.7999999999999998 0 0 -1 
1 0 -0.10000000000000001 1 0 
1 -4.0999999999999996 0 -1 0 
1 0 0 1 0 
1 0 0 1 0 
1 0 0 -1 0 
1 0 -0.10000000000000001 1 0 
1 -4.0999999999999996 -4.7999999999999998 0 1 
1 0 -0.10000000000000001 1 0 
1 -3.7178086449740002 -1.6978177432819999 0.27570114219786845 0.96124340319754131 
1 -2.6570201954534109 -1.0818998584271522 -1 2.1640208704117887e-16 
1 -2.0541579955980001 -2.4928654558566099 -0.27570114219786845 0.96124340319754131 
1 1.8299167688602551 -1.0818998584272272 1 1.5395204190601384e-16 
1 -1.8999999999999999 0 0 -1 
1 0 -0.10000000000000001 1 0 
1 1.8999999999999999 0 0 -1 
1 0 0 0 -1 
1 0 0 1 0 
1 0 0 1 0 
1 1.8999999999999999 0 0 -1 
1 0 0 1 0 
1 0 -4.7999999999999998 0 1 
1 0 0 1 0 
Curves 163
2 1.61336892744 -4.5693963244950004e-16 2.0578731584310002 0 -1 -2.22044604925e-16 1 0 0 0 -2.22044604925e-16 1 0.17470232064300001
2 0 -4.3716988043350001e-16 1.968838110618 0 2.22044604925e-16 -1 1 0 0 0 -1 -2.22044604925e-16 1.4630570480059999
2 0 -4.7127354177259996e-16 2.1224273471170001 0 2.22044604925e-16 -1 1 0 0 0 -1 -2.22044604925e-16 1.4510308309840001
2 0 -6.6613381477510004e-16 3 0 2.22044604925e-16 -1 1 0 0 0 -1 -2.22044604925e-16 1.8
1 1.4510308309840001 -4.7127354177259996e-16 2.1224273471170001 0.36950962327586873 -2.0632982068742668e-16 0.92922690356366977 
1 1.8 -3.1086244689499998e-16 1.3999999999999999 -0.50963860974904029 -1.9104463960011511e-16 0.86038856771406802 
2 0 -3.1086244689499998e-16 1.3999999999999999 0 2.22044604925e-16 -1 1 0 0 0 -1 -2.22044604925e-16 1.8
5 -0.358767170606 0.102900595614 4.283346370236 0.95113850009651479 -0.27280288217586085 -0.14461722273192626 -0.13901235133978504 0.039871133488775176 -0.98948767495573409 0.27570114219773617 0.96124340319757917 1.247960068617715e-13 0.63679734353600004 0.36169255452999999
3 0.044381429885140003 -0.27114813834000001 2.1490758680809998 0.052270859336567208 -0.31934857068004402 0.94619461405613048 0.15283897025092152 -0.93376897401952041 -0.32359813400446286 0.98686777555904359 0.16153016301342998 1.6528445279107018e-14 1.4334216481440001 1.3281744576250001
5 -0.25532384075699999 0.073231269304720001 4.3281737511290004 0.95113850009651479 -0.27280288217586085 -0.14461722273192626 -0.13901235133978504 0.039871133488775176 -0.98948767495573409 0.27570114219773617 0.96124340319757917 1.247960068617715e-13 0.453189580476 0.25740574880299999
2 0 -3.1086244689499998e-16 1.3999999999999999 0 2.22044604925e-16 -1 1 0 0 0 -1 -2.22044604925e-16 1.8
5 0.25532384075699999 0.073231269304720001 4.3281737511290004 0.95113850009651479 0.27280288217586085 0.14461722273192626 0.13901235133978504 0.039871133488775176 -0.98948767495573409 -0.27570114219773617 0.96124340319757917 1.247960068617715e-13 0.453189580476 0.25740574880299999
3 -0.044381429885140003 -0.27114813834000001 2.1490758680809998 0.052270859336567208 0.31934857068004402 -0.94619461405613048 -0.15283897025092152 -0.93376897401952041 -0.32359813400446286 -0.98686777555904359 0.16153016301342998 1.6528445279107018e-14 1.4334216481440001 1.3281744576250001
5 0.358767170606 0.102900595614 4.283346370236 0.95113850009651479 0.27280288217586085 0.14461722273192626 0.13901235133978504 0.039871133488775176 -0.98948767495573409 -0.27570114219773617 0.96124340319757917 1.247960068617715e-13 0.63679734353600004 0.36169255452999999
2 0 -3.1086244689499998e-16 1.3999999999999999 0 2.22044604925e-16 -1 1 0 0 0 -1 -2.22044604925e-16 1.8
1 -3 2.3999999999999999 3 0 -1 0 
1 -1.7 2.3999999999999999 3 -1 0 0 
1 -1.1000000000000001 3 3 -0.70710678118654757 -0.70710678118654757 0 
1 1.1000000000000001 3 3 -1 0 0 
1 1.7 2.3999999999999999 3 -0.70710678118654757 0.70710678118654757 0 
1 3 2.3999999999999999 3 -1 0 0 
1 3 -2.3999999999999999 3 0 1 0 
1 1.7 -2.3999999999999999 3 1 0 0 
1 1.1000000000000001 -3 3 0.70710678118654757 0.70710678118654757 0 
1 -1.1000000000000001 -3 3 1 0 0 
1 -1.7 -2.3999999999999999 3 0.70710678118654757 -0.70710678118654757 0 
1 -3 -2.3999999999999999 3 1 0 0 
1 -3 2.3999999999999999 1.3999999999999999 0 -1 0 
1 -1.7 2.3999999999999999 1.3999999999999999 -1 0 0 
1 -1.1000000000000001 3 1.3999999999999999 -0.70710678118654757 -0.70710678118654757 0 
1 1.1000000000000001 3 1.3999999999999999 -1 0 0 
1 1.7 2.3999999999999999 1.3999999999999999 -0.70710678118704751 0.70710678118604753 0 
1 3 2.3999999999999999 1.3999999999999999 -1 0 0 
1 3 -2.3999999999999999 1.3999999999999999 0 1 0 
1 1.7 -2.3999999999999999 1.3999999999999999 1 0 0 
1 1.1000000000000001 -3 1.3999999999999999 0.70710678118654757 0.70710678118654757 0 
1 0.63231822547500005 0.67766213390200003 1.3999999999999999 -0.27570114219786845 0.96124340319754131 0 
1 -0.86035158490200003 -0.11738557867299999 1.3999999999999999 0.27570114219786845 0.96124340319754131 0 
1 -1.7 -2.3999999999999999 1.3999999999999999 0.70710678118654757 -0.70710678118654757 0 
1 -3 -2.3999999999999999 1.3999999999999999 1 0 0 
1 -1.529274937571 -2.4949221343449999 1.485467486481 0.30430792118892253 0.90752139251976882 0.28948507944392626 
2 -1.541691817911 -2.4190612619760001 1.2607000835769999 0.95113850009651479 -0.27280288217586085 -0.14461722273192626 0.28923444546308591 0.95113850009657841 0.10806937212592858 0.10806937212648821 -0.14461722273150809 0.98356843671277505 0.237548808211
1 -1.716716709682 -2.4529363482119999 0.173473480062 0.098039372186709078 -0.17730367609492598 0.97926078648359116 
2 -1.685177459678 -2.3510763154240002 0.18875855039 0.95113850009651479 -0.27280288217586085 -0.14461722273192626 0.28923444546308591 0.95113850009657841 0.10806937212592858 0.10806937212648821 -0.14461722273150809 0.98356843671277505 0.10772104690000001
1 -1.6290041864710001 -2.3999999999999999 0.65049529046499999 -0.1503188233110066 -0 -0.98863757330904356 
1 -1.6430396058450001 -2.3999999999999999 0.55818520816700001 0.1503188233110066 0 0.98863757330904356 
1 -1.648790661474 -2.4512093385260001 0.61696108948700001 0.11654114664304713 -0.11654114664304713 0.9863246535893988 
1 -1.529274937571 -2.4949221343449999 1.485467486481 0.95113850009651479 -0.27280288217586085 -0.14461722273192626 
1 -1.434161087561 -2.5222024225620001 1.4710057642080001 0.30430792118892253 0.90752139251976882 0.28948507944392626 
2 -1.446577967901 -2.446341550194 1.246238361304 0.95113850009651479 -0.27280288217586085 -0.14461722273192626 0.28923444546308591 0.95113850009657841 0.10806937212592858 0.10806937212648821 -0.14461722273150809 0.98356843671277505 0.237548808211
1 -0.76320601881500005 -0.145248598009 1.3999999999999999 0.27570114219786845 0.96124340319754131 0 
1 0.53517265938799996 0.64979911456600004 1.3999999999999999 -0.27570114219786845 0.96124340319754131 0 
3 2.4578587243659999 -2.1562888343959998 1.3999999999999999 0 0 -1 0.96124340319754131 0.27570114219786845 0 0.27570114219786845 -0.96124340319754131 0 1.6426038595100001 0.237548808211
1 1.1000000000000001 -3 1.3999999999999999 0.70710678118654757 0.70710678118654757 0 
1 -1.1000000000000001 -3 1.3999999999999999 1 0 0 
1 -1.7 -2.3999999999999999 1.3999999999999999 0.70710678118654757 -0.70710678118654757 0 
3 -2.4578587243659999 -2.1562888343959998 1.3999999999999999 0 0 -1 -0.96124340319754131 0.27570114219786845 0 0.27570114219786845 0.96124340319754131 0 1.6426038595100001 0.237548808211
1 1.434161087561 -2.5222024225620001 1.4710057642080001 -0.30430792118892253 0.90752139251976882 0.28948507944392626 
2 1.446577967901 -2.446341550194 1.246238361304 0.95113850009651479 0.27280288217586085 0.14461722273192626 -0.28923444546308591 0.95113850009657841 0.10806937212592858 -0.10806937212648821 -0.14461722273150809 0.98356843671277505 0.237548808211
1 1.529274937571 -2.4949221343449999 1.485467486481 -0.30430792118892253 0.90752139251976882 0.28948507944392626 
1 1.529274937571 -2.4949221343449999 1.485467486481 -0.95113850009651479 -0.27280288217586085 -0.14461722273192626 
2 1.541691817911 -2.4190612619760001 1.2607000835769999 0.95113850009651479 0.27280288217586085 0.14461722273192626 -0.28923444546308591 0.95113850009657841 0.10806937212592858 -0.10806937212648821 -0.14461722273150809 0.98356843671277505 0.237548808211
1 1.716716709682 -2.4529363482119999 0.173473480062 -0.098039372186709078 -0.17730367609492598 0.97926078648359116 
2 1.685177459678 -2.3510763154240002 0.18875855039 0.95113850009651479 0.27280288217586085 0.14461722273192626 -0.28923444546308591 0.95113850009657841 0.10806937212592858 -0.10806937212648821 -0.14461722273150809 0.98356843671277505 0.10772104690000001
1 1.6504701476800001 -2.3999999999999999 0.50931499559899995 0.1503188233110066 0 -0.98863757330904356 
1 1.628352369228 -2.3999999999999999 0.654782252023 -0.1503188233110066 0 0.98863757330904356 
1 1.640641558157 -2.4593584418429999 0.685929533142 -0.11654114664304713 -0.11654114664304713 0.9863246535893988 
1 -3 2.3999999999999999 3 0 0 1 
1 -3 2.3999999999999999 4.2000000000000002 0 -1 0 
1 -3 -2.3999999999999999 3 0 0 1 
1 -1.7 2.3999999999999999 3 0 0 1 
1 -1.7 2.3999999999999999 4.2000000000000002 -1 0 0 
1 -3 -2.3999999999999999 4.2000000000000002 1 0 0 
1 -1.7 -2.3999999999999999 3 0 0 1 
1 -1.1000000000000001 3 3 0 0 1 
1 -1.1000000000000001 3 4.2000000000000002 -0.70710678118654757 -0.70710678118654757 0 
1 -1.7 -2.3999999999999999 4.2000000000000002 0.70710678118654757 -0.70710678118654757 0 
1 -1.1000000000000001 -3 3 0 0 1 
1 1.1000000000000001 3 3 0 0 1 
1 1.1000000000000001 3 4.2000000000000002 -1 0 0 
1 -1.1000000000000001 -3 4.2000000000000002 1 0 0 
1 1.1000000000000001 -3 3 0 0 1 
1 1.7 2.3999999999999999 3 0 0 1 
1 1.7 2.3999999999999999 4.2000000000000002 -0.70710678118654757 0.70710678118654757 0 
1 1.1000000000000001 -3 4.2000000000000002 0.70710678118654757 0.70710678118654757 0 
1 1.7 -2.3999999999999999 3 0 0 1 
1 3 2.3999999999999999 3 0 0 1 
1 3 2.3999999999999999 4.2000000000000002 -1 0 0 
1 1.7 -2.3999999999999999 4.2000000000000002 1 0 0 
1 3 -2.3999999999999999 3 0 0 1 
1 3 -2.3999999999999999 4.2000000000000002 0 1 0 
1 -3 2.3999999999999999 0.10000000000000001 0 0 1 
1 -3 -2.3999999999999999 0.10000000000000001 0 0 1 
1 -3 -2.3999999999999999 0.10000000000000001 0 1 0 
1 -1.1000000000000001 -2.3999999999999999 0.10000000000000001 -1 0 0 
1 -1.7 -2.3999999999999999 0.10000000000000001 0 0 1 
1 1.7 -2.3999999999999999 0.10000000000000001 0 0 1 
1 3 -2.3999999999999999 0.10000000000000001 0 0 1 
1 3 -2.3999999999999999 0.10000000000000001 -1 0 0 
1 3 2.3999999999999999 0.10000000000000001 0 0 1 
1 3 2.3999999999999999 0.10000000000000001 0 -1 0 
1 1.7 2.3999999999999999 0.10000000000000001 0 0 1 
1 1.1000000000000001 2.3999999999999999 0.10000000000000001 1 0 0 
1 1.1000000000000001 3 0.10000000000000001 0 0 1 
1 1.7 2.3999999999999999 0.10000000000000001 -0.70710678118704751 0.70710678118604753 0 
1 -1.1000000000000001 3 0.10000000000000001 0 0 1 
1 1.1000000000000001 3 0.10000000000000001 -1 0 0 
1 -1.7 2.3999999999999999 0.10000000000000001 0 0 1 
1 -1.1000000000000001 3 0.10000000000000001 -0.70710678118654757 -0.70710678118654757 0 
1 -3 2.3999999999999999 0.10000000000000001 1 0 0 
1 -1.1000000000000001 -2.3999999999999999 0 -1 0 0 
1 -1.1000000000000001 -2.3999999999999999 0 0 0 1 
1 -1.1000000000000001 -2.3999999999999999 0.10000000000000001 -1 0 0 
1 -1.5262426799960001 -2.3999999999999999 0.63487076925300001 -0.1503188233110066 -0 -0.98863757330904356 
3 -1.5146030156129999 -2.3999999999999999 0.162823313443 0 -1 0 -0.98863757330904356 0 0.1503188233110066 -0.1503188233110066 -0 -0.98863757330904356 0.39486770096000001 0.10772104690000001
1 -3 -2.3999999999999999 0 0 0 1 
2 -1.590063609669 -2.3783566036420001 0.17429682811700001 0.95113850009651479 -0.27280288217586085 -0.14461722273192626 0.28923444546308591 0.95113850009657841 0.10806937212592858 0.10806937212648821 -0.14461722273150809 0.98356843671277505 0.10772104690000001
3 -1.1014179814230001 -2.5185085749209999 0.10000000000000001 0 0 -1 -0.96124340319754131 0.27570114219786845 0 0.27570114219786845 0.96124340319754131 0 0.74487011204800002 0.10772104690000001
3 -1.77456018872 -2.3254398112799999 0.20234887612399999 0.70710678118654757 0.70710678118654757 0 -0.69743685100456154 0.69743685100456154 0.16481407015689639 0.1165411466428968 -0.1165411466428968 0.98632465358943433 0.22457992983799999 0.10772104690000001
2 -1.590063609669 -2.3783566036420001 0.17429682811700001 0.95113850009651479 -0.27280288217586085 -0.14461722273192626 0.28923444546308591 0.95113850009657841 0.10806937212592858 0.10806937212648821 -0.14461722273150809 0.98356843671277505 0.10772104690000001
1 -1.716716709682 -2.4529363482119999 0.173473480062 0.95113850009651479 -0.27280288217586085 -0.14461722273192626 
1 -1.6216028596730001 -2.4802166364299998 0.15901175778900001 0.098039372186709078 -0.17730367609492598 0.97926078648359116 
1 -1.6112428617029999 -2.6436852336999999 1.2269931122440001 0.95113850009651479 -0.27280288217586085 -0.14461722273192626 
2 -1.446577967901 -2.446341550194 1.246238361304 0.95113850009651479 -0.27280288217586085 -0.14461722273192626 0.28923444546308591 0.95113850009657841 0.10806937212592858 0.10806937212648821 -0.14461722273150809 0.98356843671277505 0.237548808211
3 -1.736938983533 -2.3630610164669998 1.2903867199979999 0.70710678118654757 0.70710678118654757 0 -0.69743685100456154 0.69743685100456154 0.16481407015689639 0.1165411466428968 -0.1165411466428968 0.98632465358943433 0.49524857227300001 0.237548808211
1 -1.7 -2.3999999999999999 0.10000000000000001 0.70710678118654757 -0.70710678118654757 0 
1 -1.569306763276 -2.5306932367239998 0.59817793405899999 0.11654114664304713 -0.11654114664304713 0.9863246535893988 
1 -1.1000000000000001 -3 0.10000000000000001 0 0 1 
1 1.1000000000000001 -3 0.10000000000000001 0 0 1 
1 -1.1000000000000001 -3 0.10000000000000001 1 0 0 
1 1.1000000000000001 -3 0.10000000000000001 0.70710678118654757 0.70710678118654757 0 
3 1.736938983533 -2.3630610164669998 1.2903867199979999 -0.70710678118654757 0.70710678118654757 1.387778780780112e-17 0.69743685100456154 0.69743685100456154 0.16481407015689639 0.11654114664289679 0.11654114664289682 -0.98632465358943433 0.49524857227300001 0.237548808211
1 1.5611576599600001 -2.53884234004 0.66714637771399998 -0.11654114664304713 -0.11654114664304713 0.9863246535893988 
3 1.77456018872 -2.3254398112799999 0.20234887612399999 -0.70710678118654757 0.70710678118654757 1.387778780780112e-17 0.69743685100456154 0.69743685100456154 0.16481407015689639 0.11654114664289679 0.11654114664289682 -0.98632465358943433 0.22457992983799999 0.10772104690000001
2 1.446577967901 -2.446341550194 1.246238361304 0.95113850009651479 0.27280288217586085 0.14461722273192626 -0.28923444546308591 0.95113850009657841 0.10806937212592858 -0.10806937212648821 -0.14461722273150809 0.98356843671277505 0.237548808211
1 1.6112428617029999 -2.6436852336999999 1.2269931122440001 -0.95113850009651479 -0.27280288217586085 -0.14461722273192626 
1 3 -2.3999999999999999 0 -1 0 0 
1 3 -2.3999999999999999 0 0 0 1 
3 1.5146030156129999 -2.3999999999999999 0.162823313443 0 -1 0 0.98863757330904356 0 0.1503188233110066 -0.1503188233110066 0 0.98863757330904356 0.39486770096000001 0.10772104690000001
1 1.5477086412059999 -2.3999999999999999 0.49369047438800001 0.1503188233110066 0 -0.98863757330904356 
1 3 -2.3999999999999999 0.10000000000000001 -1 0 0 
1 1.1000000000000001 -2.3999999999999999 0 0 0 1 
1 1.716716709682 -2.4529363482119999 0.173473480062 -0.95113850009651479 -0.27280288217586085 -0.14461722273192626 
2 1.590063609669 -2.3783566036420001 0.17429682811700001 0.95113850009651479 0.27280288217586085 0.14461722273192626 -0.28923444546308591 0.95113850009657841 0.10806937212592858 -0.10806937212648821 -0.14461722273150809 0.98356843671277505 0.10772104690000001
3 1.1014179814230001 -2.5185085749209999 0.10000000000000001 0 0 -1 0.96124340319754131 0.27570114219786845 0 0.27570114219786845 -0.96124340319754131 0 0.74487011204800002 0.10772104690000001
2 1.590063609669 -2.3783566036420001 0.17429682811700001 0.95113850009651479 0.27280288217586085 0.14461722273192626 -0.28923444546308591 0.95113850009657841 0.10806937212592858 -0.10806937212648821 -0.14461722273150809 0.98356843671277505 0.10772104690000001
1 1.6216028596730001 -2.4802166364299998 0.15901175778900001 -0.098039372186709078 -0.17730367609492598 0.97926078648359116 
1 -3 2.3999999999999999 0 0 0 1 
1 -3 -2.3999999999999999 0 0 1 0 
1 3 2.3999999999999999 0 0 0 1 
1 3 2.3999999999999999 0 0 -1 0 
1 1.1000000000000001 2.3999999999999999 0 0 0 1 
1 1.1000000000000001 2.3999999999999999 0.10000000000000001 1 0 0 
1 1.1000000000000001 2.3999999999999999 0 1 0 0 
1 -3 2.3999999999999999 0.10000000000000001 1 0 0 
1 1.1000000000000001 -2.3999999999999999 0.10000000000000001 0 1 0 
1 0.71780864497399999 0.70218225671800005 0.10000000000000001 -0.27570114219786845 0.96124340319754131 0 
1 -0.94584200440199995 -0.092865455856610005 0.10000000000000001 0.27570114219786845 0.96124340319754131 0 
1 -1.1000000000000001 2.3999999999999999 0.10000000000000001 0 -1 0 
1 -1.1000000000000001 2.3999999999999999 0 0 0 1 
1 -3 2.3999999999999999 0 1 0 0 
1 -1.1000000000000001 2.3999999999999999 0 0 -1 0 
1 1.1000000000000001 -2.3999999999999999 0 0 1 0 
Polygon3D 0
PolygonOnTriangulations 0
Surfaces 60
5 0 -4.5693963244950004e-16 2.0578731584310002 0 -2.22044604925e-16 1 1 0 0 -0 1 2.22044604925e-16 1.61336892744 0.17470232064300001
3 0 -3.1086244689499998e-16 1.3999999999999999 0 2.22044604925e-16 -1 1 0 0 0 -1 -2.22044604925e-16 1.8
0.53476470655599995
3 0 -4.7127354177259996e-16 2.1224273471170001 0 -2.22044604925e-16 1 1 0 0 -0 1 2.22044604925e-16 1.4510308309840001
0.37848123979699999
1 -3 2.3999999999999999 3 0 0 -1 -1 0 0 0 1 0 
1 -3 2.3999999999999999 1.3999999999999999 0 0 -1 -1 0 0 0 1 0 
1 -1.395068554479 -1.8677171637829999 1.184988297723 0.95113850009651479 -0.27280288217586085 -0.14461722273192626 0.27570114219772179 0.96124340319758339 2.2142010447367966e-14 0.13901235133981366 -0.039871133488675464 0.9894876749557342 
1 -1.529274937571 -2.4949221343449999 1.485467486481 0.052270859336567208 -0.31934857068004402 0.94619461405613048 0.30430792118891353 0.90752139251982378 0.2894850794437635 -0.95113850009654155 0.27280288217592746 0.14461722273162431 
1 -1.2999547044690001 -1.894997452001 1.1705265754500001 0.95113850009651479 -0.27280288217586085 -0.14461722273192626 0.27570114219772179 0.96124340319758339 2.2142010447367966e-14 0.13901235133981366 -0.039871133488675464 0.9894876749557342 
1 -3 2.3999999999999999 1.3999999999999999 0 0 -1 -1 0 0 0 1 0 
1 1.2999547044690001 -1.894997452001 1.1705265754500001 -0.95113850009651479 -0.27280288217586085 -0.14461722273192626 0.27570114219772179 -0.96124340319758339 -2.2086499296136708e-14 -0.13901235133981368 -0.039871133488675409 0.9894876749557342 
1 1.529274937571 -2.4949221343449999 1.485467486481 -0.052270859336567208 -0.31934857068004402 0.94619461405613048 0.30430792118891353 -0.90752139251982378 -0.2894850794437635 0.95113850009654155 0.27280288217592746 0.14461722273162431 
1 1.395068554479 -1.8677171637829999 1.184988297723 -0.95113850009651479 -0.27280288217586085 -0.14461722273192626 0.27570114219772179 -0.96124340319758339 -2.2086499296136708e-14 -0.13901235133981368 -0.039871133488675409 0.9894876749557342 
1 -3 2.3999999999999999 3 1 0 0 0 -1 0 0 0 -1 
1 -1.7 2.3999999999999999 3 0 -1 0 -1 0 0 -0 -0 -1 
1 -1.1000000000000001 3 3 0.70710678118654757 -0.70710678118654757 0 -0.70710678118654757 -0.70710678118654757 0 0 -0 -1 
1 1.1000000000000001 3 3 0 -1 0 -1 0 0 -0 -0 -1 
1 1.7 2.3999999999999999 3 -0.70710678118654757 -0.70710678118654757 0 -0.70710678118654757 0.70710678118654757 0 -0 0 -1 
1 3 2.3999999999999999 3 0 -1 0 -1 0 0 -0 -0 -1 
1 3 -2.3999999999999999 3 -1 0 0 0 1 0 0 0 -1 
1 1.7 -2.3999999999999999 3 0 1 0 1 0 0 0 0 -1 
1 1.1000000000000001 -3 3 -0.70710678118654757 0.70710678118654757 0 0.70710678118654757 0.70710678118654757 0 0 0 -1 
1 -1.1000000000000001 -3 3 0 1 0 1 0 0 0 0 -1 
1 -1.7 -2.3999999999999999 3 0.70710678118654757 0.70710678118654757 0 0.70710678118654757 -0.70710678118654757 0 0 0 -1 
1 -3 -2.3999999999999999 3 0 1 0 1 0 0 0 0 -1 
1 -3 2.3999999999999999 0.10000000000000001 1 0 0 0 -1 0 0 0 -1 
1 -1.7 2.3999999999999999 0.10000000000000001 0 -1 0 -1 0 0 -0 -0 -1 
1 -1.1000000000000001 3 0.10000000000000001 0.70710678118654757 -0.70710678118654757 0 -0.70710678118654757 -0.70710678118654757 0 0 -0 -1 
1 1.1000000000000001 3 0.10000000000000001 0 -1 0 -1 0 0 -0 -0 -1 
1 1.7 2.3999999999999999 0.10000000000000001 -0.70710678118604753 -0.70710678118704751 0 -0.70710678118704751 0.70710678118604753 0 -0 0 -1 
1 3 2.3999999999999999 0.10000000000000001 0 -1 0 -1 0 0 -0 -0 -1 
1 3 -2.3999999999999999 0.10000000000000001 -1 0 0 0 1 0 0 0 -1 
1 1.7 -2.3999999999999999 0.10000000000000001 0 1 0 1 0 0 0 0 -1 
1 1.1000000000000001 -3 0.10000000000000001 -0.70710678118654757 0.70710678118654757 0 0.70710678118654757 0.70710678118654757 0 0 0 -1 
1 -1.7 -2.3999999999999999 0.10000000000000001 0.70710678118654757 0.70710678118654757 0 0.70710678118654757 -0.70710678118654757 0 0 0 -1 
1 -3 -2.3999999999999999 0.10000000000000001 0 1 0 1 0 0 0 0 -1 
2 -1.541691817911 -2.4190612619760001 1.2607000835769999 -0.95113850009651479 0.27280288217586085 0.14461722273192626 0.28923444546308591 0.95113850009657841 0.10806937212592858 -0.10806937212648821 0.14461722273150809 -0.98356843671277505 0.237548808211
1 -1.716716709682 -2.4529363482119999 0.173473480062 -0.29278633017115696 -0.94559081738350692 -0.14189492924307609 0.098039372186785989 -0.17730367609467765 0.97926078648362858 -0.95113850009666157 0.27280288217558285 0.14461722273148495 
2 -1.685177459678 -2.3510763154240002 0.18875855039 -0.95113850009651479 0.27280288217586085 0.14461722273192626 0.28923444546308591 0.95113850009657841 0.10806937212592858 -0.10806937212648821 0.14461722273150809 -0.98356843671277505 0.10772104690000001
1 -1.1000000000000001 -2.3999999999999999 0 0 -1 0 -1 0 0 -0 -0 -1 
2 1.541691817911 -2.4190612619760001 1.2607000835769999 0.95113850009651479 0.27280288217586085 0.14461722273192626 -0.28923444546308591 0.95113850009657841 0.10806937212592858 -0.10806937212648821 -0.14461722273150809 0.98356843671277505 0.237548808211
1 1.1000000000000001 -3 0.10000000000000001 -0.70710678118654757 0.70710678118654757 0 0.70710678118654757 0.70710678118654757 0 0 0 -1 
1 -1.1000000000000001 -3 0.10000000000000001 0 1 0 1 0 0 0 0 -1 
1 -1.7 -2.3999999999999999 0.10000000000000001 0.70710678118654757 0.70710678118654757 0 0.70710678118654757 -0.70710678118654757 0 0 0 -1 
1 1.716716709682 -2.4529363482119999 0.173473480062 0.29278633017115696 -0.94559081738350692 -0.14189492924307609 0.098039372186785989 0.17730367609467765 -0.97926078648362858 0.95113850009666157 0.27280288217558285 0.14461722273148495 
2 1.685177459678 -2.3510763154240002 0.18875855039 0.95113850009651479 0.27280288217586085 0.14461722273192626 -0.28923444546308591 0.95113850009657841 0.10806937212592858 -0.10806937212648821 -0.14461722273150809 0.98356843671277505 0.10772104690000001
1 3 -2.3999999999999999 0 0 -1 0 -1 0 0 -0 -0 -1 
1 -3 2.3999999999999999 4.2000000000000002 0 0 -1 -1 0 0 0 1 0 
1 -3 -2.3999999999999999 0 -1 0 0 0 1 0 0 0 -1 
1 3 2.3999999999999999 0 1 0 0 0 -1 0 0 0 -1 
1 1.1000000000000001 2.3999999999999999 0 0 1 0 1 0 0 0 0 -1 
1 -3 2.3999999999999999 0.10000000000000001 0 0 -1 -1 0 0 0 1 0 
1 -3 2.3999999999999999 0 0 1 0 1 0 0 0 0 -1 
1 -3 2.3999999999999999 0 0 0 1 1 0 -0 -0 1 0 
1 -1.1000000000000001 2.3999999999999999 0 1 0 0 0 -1 0 0 0 -1 
1 -1.2999547044690001 -1.894997452001 1.1705265754500001 0.95113850009651479 -0.27280288217586085 -0.14461722273192626 0.27570114219772179 0.96124340319758339 2.2142010447367966e-14 0.13901235133981366 -0.039871133488675464 0.9894876749557342 
1 -1.2999547044690001 -1.894997452001 1.1705265754500001 0.95113850009651479 -0.27280288217586085 -0.14461722273192626 0.27570114219772179 0.96124340319758339 2.2142010447367966e-14 0.13901235133981366 -0.039871133488675464 0.9894876749557342 
1 1.2999547044690001 -1.894997452001 1.1705265754500001 -0.95113850009651479 -0.27280288217586085 -0.14461722273192626 0.27570114219772179 -0.96124340319758339 -2.2086499296136708e-14 -0.13901235133981368 -0.039871133488675409 0.9894876749557342 
1 1.1000000000000001 2.3999999999999999 0 0 0 1 1 0 -0 -0 1 0 
1 1.2999547044690001 -1.894997452001 1.1705265754500001 -0.95113850009651479 -0.27280288217586085 -0.14461722273192626 0.27570114219772179 -0.96124340319758339 -2.2086499296136708e-14 -0.13901235133981368 -0.039871133488675409 0.9894876749557342 
1 1.1000000000000001 -2.3999999999999999 0 -1 0 0 0 1 0 0 0 -1 
Triangulations 0

TShapes 392
Ve
1e-07
1.451030830984 -4.440892098501e-16 2.122427347117
0 0

0101101
*
Ve
1e-07
1.463057048006 -4.440892098501e-16 1.968838110618
0 0

0101101
*
Ed
 1e-07 1 1 0
1  1 0 2.7631114137933 3.67635736014986
3  1 2CN 1 0 2.7631114137933 3.67635736014986
0

0101000
+392 3 -391 3 *
Ed
 1e-07 1 1 0
1  2 0 0 6.28318530717959
2  3 1 0 0 6.28318530717959
2  4 2 0 0 6.28318530717959
4 G1 1 0 2 0
0

0101000
+391 3 -391 3 *
Ed
 1e-07 1 1 0
1  3 0 0 6.28318530717959
2  5 1 0 0 6.28318530717959
2  6 3 0 0 6.28318530717959
4 G1 1 0 3 0
0

0101000
+392 3 -392 3 *
Wi

0101100
+390 0 +389 0 -390 0 -388 0 *
Fa
0  1e-07 1 0

0101000
+387 0 *
Ve
1e-07
1.8 -8.881784197001e-16 3
0 0

0101101
*
Ed
 1e-07 1 1 0
1  4 0 0 6.28318530717959
2  7 3 0 0 6.28318530717959
2  8 4 0 0 6.28318530717959
0

0101000
+385 3 -385 3 *
Ed
 1e-07 1 1 0
1  5 0 -5.60893833107691e-33 0.94441158506862
3  9 10CN 3 0 -5.60893833107691e-33 0.94441158506862
0

0101000
+392 3 -385 3 *
Wi

0101100
+384 0 -383 0 -388 0 +383 0 *
Fa
0  1e-07 3 0

0101000
+382 0 *
Ve
1e-07
1.8 -4.440892098501e-16 1.4
0 0

0101101
*
Ed
 1e-07 1 1 0
1  6 0 2.5452258913847e-32 0.661140944874757
3  11 12CN 2 0 2.5452258913847e-32 0.661140944874757
0

0101000
+380 3 -391 3 *
Ve
1e-07
-1.209130568431 -1.333417889668 1.4
0 0

0101101
*
Ed
 1e-07 1 1 0
1  7 0 2.30735039999367 6.28318530717959
2  13 2 0 2.30735039999367 6.28318530717959
2  14 5 0 2.30735039999367 6.28318530717959
0

0101000
+378 3 -380 3 *
Ve
1e-07
-1.042608748011 -1.04356333857 1.948428161303
0 0

0101101
*
Ed
 1e-07 1 1 0
1  8 0 -2.20181180574628 -1.98427127209633
2  15 2 0 -2.20181180574628 -1.98427127209633
2  16 6 0 -2.20181180574628 -1.98427127209633
0

0101000
+378 3 -376 3 *
Ve
1e-07
-0.970474548505 -1.139374621125 1.912106127522
0 0

0101101
*
Ed
 1e-07 1 1 0
1  9 0 5.15972791118979 5.24858895240258
2  17 2 0 5.15972791118979 5.24858895240258
2  18 7 0 5.15972791118979 5.24858895240258
0

0101000
+376 3 -374 3 *
Ve
1e-07
-1.12464224514 -1.405410908043 1.4
0 0

0101101
*
Ed
 1e-07 1 1 0
1  10 0 -2.56362348588319 -2.36857576487216
2  19 2 0 -2.56362348588319 -2.36857576487216
2  20 8 0 -2.56362348588319 -2.36857576487216
0

0101000
+372 3 -374 3 *
Ve
1e-07
1.12464224514 -1.405410908043 1.4
0 0

0101101
*
Ed
 1e-07 1 1 0
1  11 0 0.895919375138491 2.2456732784513
2  21 2 0 0.895919375138491 2.2456732784513
2  22 9 0 0.895919375138491 2.2456732784513
0

0101000
+370 3 -372 3 *
Ve
1e-07
0.970474548505 -1.139374621125 1.912106127522
0 0

0101101
*
Ed
 1e-07 1 1 0
1  12 0 -2.56362348588319 -2.36857576487216
2  23 2 0 -2.56362348588319 -2.36857576487216
2  24 10 0 -2.56362348588319 -2.36857576487216
0

0101000
+370 3 -368 3 *
Ve
1e-07
1.042608748011 -1.04356333857 1.948428161303
0 0

0101101
*
Ed
 1e-07 1 1 0
1  13 0 5.15972791118979 5.24858895240258
2  25 2 0 5.15972791118979 5.24858895240258
2  26 11 0 5.15972791118979 5.24858895240258
0

0101000
+366 3 -368 3 *
Ve
1e-07
1.209130568431 -1.333417889668 1.4
0 0

0101101
*
Ed
 1e-07 1 1 0
1  14 0 -2.20181180574628 -1.98427127209633
2  27 2 0 -2.20181180574628 -1.98427127209633
2  28 12 0 -2.20181180574628 -1.98427127209633
0

0101000
+364 3 -366 3 *
Ed
 1e-07 1 1 0
1  15 0 0 0.834242253596126
2  29 2 0 0 0.834242253596126
2  30 5 0 0 0.834242253596126
0

0101000
+380 3 -364 3 *
Wi

0101100
+389 0 -379 0 -377 0 +375 0 +373 0 -371 0 -369 0 +367 0 -365 0 -363 0 
-362 0 +379 0 *
Fa
0  1e-07 2 0

0101000
+361 0 *
Ve
1e-07
-3 2.4 3
0 0

0101101
*
Ve
1e-07
-3 -2.4 3
0 0

0101101
*
Ed
 1e-07 1 1 0
1  16 0 0 4.8
2  31 4 0 0 4.8
2  32 13 0 0 4.8
0

0101000
+359 3 -358 3 *
Ve
1e-07
-1.7 2.4 3
0 0

0101101
*
Ed
 1e-07 1 1 0
1  17 0 0 1.3
2  33 4 0 0 1.3
2  34 14 0 0 1.3
0

0101000
+356 3 -359 3 *
Ve
1e-07
-1.1 3 3
0 0

0101101
*
Ed
 1e-07 1 1 0
1  18 0 0 0.848528137423857
2  35 4 0 0 0.848528137423857
2  36 15 0 0 0.848528137423857
0

0101000
+354 3 -356 3 *
Ve
1e-07
1.1 3 3
0 0

0101101
*
Ed
 1e-07 1 1 0
1  19 0 0 2.2
2  37 4 0 0 2.2
2  38 16 0 0 2.2
0

0101000
+352 3 -354 3 *
Ve
1e-07
1.7 2.4 3
0 0

0101101
*
Ed
 1e-07 1 1 0
1  20 0 0 0.848528137423857
2  39 4 0 0 0.848528137423857
2  40 17 0 0 0.848528137423857
0

0101000
+350 3 -352 3 *
Ve
1e-07
3 2.4 3
0 0

0101101
*
Ed
 1e-07 1 1 0
1  21 0 0 1.3
2  41 4 0 0 1.3
2  42 18 0 0 1.3
0

0101000
+348 3 -350 3 *
Ve
1e-07
3 -2.4 3
0 0

0101101
*
Ed
 1e-07 1 1 0
1  22 0 0 4.8
2  43 4 0 0 4.8
2  44 19 0 0 4.8
0

0101000
+346 3 -348 3 *
Ve
1e-07
1.7 -2.4 3
0 0

0101101
*
Ed
 1e-07 1 1 0
1  23 0 0 1.3
2  45 4 0 0 1.3
2  46 20 0 0 1.3
0

0101000
+344 3 -346 3 *
Ve
1e-07
1.1 -3 3
0 0

0101101
*
Ed
 1e-07 1 1 0
1  24 0 0 0.848528137423857
2  47 4 0 0 0.848528137423857
2  48 21 0 0 0.848528137423857
0

0101000
+342 3 -344 3 *
Ve
1e-07
-1.1 -3 3
0 0

0101101
*
Ed
 1e-07 1 1 0
1  25 0 0 2.2
2  49 4 0 0 2.2
2  50 22 0 0 2.2
0

0101000
+340 3 -342 3 *
Ve
1e-07
-1.7 -2.4 3
0 0

0101101
*
Ed
 1e-07 1 1 0
1  26 0 0 0.848528137423857
2  51 4 0 0 0.848528137423857
2  52 23 0 0 0.848528137423857
0

0101000
+338 3 -340 3 *
Ed
 1e-07 1 1 0
1  27 0 0 1.3
2  53 4 0 0 1.3
2  54 24 0 0 1.3
0

0101000
+358 3 -338 3 *
Wi

0101100
-357 0 -355 0 -353 0 -351 0 -349 0 -347 0 -345 0 -343 0 -341 0 -339 0 
-337 0 -336 0 *
Wi

0101100
-384 0 *
Fa
0  1e-07 4 0

0101000
+335 0 +334 0 *
Ve
1e-07
-3 2.4 1.4
0 0

0101101
*
Ve
1e-07
-3 -2.4 1.4
0 0

0101101
*
Ed
 1e-07 1 1 0
1  28 0 0 4.8
2  55 5 0 0 4.8
2  56 25 0 0 4.8
0

0101000
+332 3 -331 3 *
Ve
1e-07
-1.7 2.4 1.4
0 0

0101101
*
Ed
 1e-07 1 1 0
1  29 0 0 1.3
2  57 5 0 0 1.3
2  58 26 0 0 1.3
0

0101000
+329 3 -332 3 *
Ve
1e-07
-1.1 3 1.4
0 0

0101101
*
Ed
 1e-07 1 1 0
1  30 0 0 0.848528137423857
2  59 5 0 0 0.848528137423857
2  60 27 0 0 0.848528137423857
0

0101000
+327 3 -329 3 *
Ve
1e-07
1.1 3 1.4
0 0

0101101
*
Ed
 1e-07 1 1 0
1  31 0 0 2.2
2  61 5 0 0 2.2
2  62 28 0 0 2.2
0

0101000
+325 3 -327 3 *
Ve
1e-07
1.7 2.4 1.4
0 0

0101101
*
Ed
 1e-07 1 1 0
1  32 0 0 0.848528137423857
2  63 5 0 0 0.848528137423857
2  64 29 0 0 0.848528137423857
0

0101000
+323 3 -325 3 *
Ve
1e-07
3 2.4 1.4
0 0

0101101
*
Ed
 1e-07 1 1 0
1  33 0 0 1.3
2  65 5 0 0 1.3
2  66 30 0 0 1.3
0

0101000
+321 3 -323 3 *
Ve
1e-07
3 -2.4 1.4
0 0

0101101
*
Ed
 1e-07 1 1 0
1  34 0 0 4.8
2  67 5 0 0 4.8
2  68 31 0 0 4.8
0

0101000
+319 3 -321 3 *
Ve
1e-07
1.7 -2.4 1.4
0 0

0101101
*
Ed
 1e-07 1 1 0
1  35 0 0 1.3
2  69 5 0 0 1.3
2  70 32 0 0 1.3
0

0101000
+317 3 -319 3 *
Ve
1e-07
1.556269145191 -2.543730854809 1.4
0 0

0101101
*
Ed
 1e-07 1 1 0
1  36 0 0.645262013221491 0.848528137423857
2  71 5 0 0.645262013221491 0.848528137423857
2  72 33 0 0.645262013221491 0.848528137423857
0

0101000
+315 3 -317 3 *
Ed
 1e-07 1 1 0
1  37 0 -3.35127708340573 -2.09216522774582
2  73 5 0 -3.35127708340573 -2.09216522774582
2  74 12 0 -3.35127708340573 -2.09216522774582
0

0101000
+315 3 -364 3 *
Ve
1e-07
-1.556269145191 -2.543730854809 1.4
0 0

0101101
*
Ed
 1e-07 1 1 0
1  38 0 -2.52417365681248 -1.26506180115256
2  75 5 0 -2.52417365681248 -1.26506180115256
2  76 6 0 -2.52417365681248 -1.26506180115256
0

0101000
+312 3 -378 3 *
Ve
1e-07
-1.7 -2.4 1.4
0 0

0101101
*
Ed
 1e-07 1 1 0
1  39 0 0 0.203266124202366
2  77 5 0 0 0.203266124202366
2  78 34 0 0 0.203266124202366
0

0101000
+310 3 -312 3 *
Ed
 1e-07 1 1 0
1  40 0 0 1.3
2  79 5 0 0 1.3
2  80 35 0 0 1.3
0

0101000
+331 3 -310 3 *
Wi

0101100
-330 0 -328 0 -326 0 -324 0 -322 0 -320 0 -318 0 -316 0 -314 0 +313 0 
-362 0 -377 0 -311 0 -309 0 -308 0 *
Fa
0  1e-07 5 0

0101000
+307 0 *
Ve
1e-07
-1.529274937571 -2.494922134345 1.485467486481
0 0

0101101
*
Ed
 1e-07 1 1 0
1  41 0 0 1.59925573957574
2  81 6 0 0 1.59925573957574
2  82 7 0 0 1.59925573957574
0

0101000
+305 3 -376 3 *
Ve
1e-07
-1.611242861703 -2.6436852337 1.226993112244
0 0

0101101
*
Ed
 1e-07 1 1 0
1  42 0 1.75826399308839 3.17605536570749
2  83 6 0 1.75826399308839 3.17605536570749
2  84 36 0 1.75826399308839 3.17605536570749
0

0101000
+305 3 -303 3 *
Ve
1e-07
-1.716716709682 -2.452936348212 0.173473480062
0 0

0101101
*
Ed
 1e-07 1 1 0
1  43 0 0 1.07583153203246
2  85 6 0 0 1.07583153203246
2  86 37 0 0 1.07583153203246
0

0101000
+301 3 -303 3 *
Ve
1e-07
-1.713167173164 -2.4 0.09696054947601
0 0

0101101
*
Ed
 1e-07 1 1 0
1  44 0 3.17605536570719 4.06985398320189
2  87 6 0 3.17605536570719 4.06985398320189
2  88 38 0 3.17605536570719 4.06985398320189
0

0101000
+301 3 -299 3 *
Ve
1e-07
-1.712705035533 -2.4 0.1
0 0

0101101
*
Ed
 1e-07 1 1 0
1  45 0 0.556822141224507 0.559896524199637
2  89 6 0 0.556822141224507 0.559896524199637
2  90 39 0 0.556822141224507 0.559896524199637
0

0101000
+297 3 -299 3 *
Ve
1e-07
-1.7 -2.4 0.183560230326
0 0

0101101
*
Ed
 1e-07 1 1 0
1  46 0 -0.463451137744478 -0.378930548418391
2  91 6 0 -0.463451137744478 -0.378930548418391
2  92 35 0 -0.463451137744478 -0.378930548418391
0

0101000
+297 3 -295 3 *
Ed
 1e-07 1 1 0
1  47 0 -0.439409942338625 0.793895709352303
2  93 6 0 -0.439409942338625 0.793895709352303
2  94 34 0 -0.439409942338625 0.793895709352303
0

0101000
+295 3 -312 3 *
Wi

0101100
-304 0 +302 0 -300 0 +298 0 -296 0 +294 0 +293 0 +311 0 +375 0 *
Fa
0  1e-07 6 0

0101000
+292 0 *
Ve
1e-07
-1.434161087561 -2.522202422562 1.471005764208
0 0

0101101
*
Ed
 1e-07 1 1 0
1  48 0 0 0.100000000000144
2  95 7 0 0 0.100000000000144
2  96 36 0 0 0.100000000000144
4 G1 7 0 36 0
0

0101000
+305 3 -290 3 *
Ed
 1e-07 1 1 0
1  49 0 0 1.52374127247527
2  97 7 0 0 1.52374127247527
2  98 8 0 0 1.52374127247527
0

0101000
+290 3 -374 3 *
Wi

0101100
-304 0 +289 0 +288 0 -373 0 *
Fa
0  1e-07 7 0

0101000
+287 0 *
Ve
1e-07
-1.474511690943 -2.625245160735 1.4
0 0

0101101
*
Ed
 1e-07 1 1 0
1  50 0 1.75826399308457 2.31908381465666
2  99 8 0 1.75826399308457 2.31908381465666
2  100 36 0 1.75826399308457 2.31908381465666
0

0101000
+290 3 -285 3 *
Ed
 1e-07 1 1 0
1  51 0 -2.57998812213046 -1.31097108790785
2  101 8 0 -2.57998812213046 -1.31097108790785
2  102 9 0 -2.57998812213046 -1.31097108790785
0

0101000
+285 3 -372 3 *
Wi

0101100
-288 0 +284 0 +283 0 +371 0 *
Fa
0  1e-07 8 0

0101000
+282 0 *
Ve
1e-07
1.474511690943 -2.625245160735 1.4
0 0

0101101
*
Ed
 1e-07 1 1 0
1  52 0 -3.40709154872371 -2.1380745145011
2  103 9 0 -3.40709154872371 -2.1380745145011
2  104 10 0 -3.40709154872371 -2.1380745145011
0

0101000
+280 3 -370 3 *
Ve
1e-07
1.474799838758 -2.625200161242 1.4
0 0

0101101
*
Ed
 1e-07 1 1 0
1  53 0 2.28363645351517 2.28386935703233
2  105 9 0 2.28363645351517 2.28386935703233
2  106 40 0 2.28363645351517 2.28386935703233
0

0101000
+278 3 -280 3 *
Ve
1e-07
1.1 -3 1.4
0 0

0101101
*
Ed
 1e-07 1 1 0
1  54 0 0 0.530047015146813
2  107 9 0 0 0.530047015146813
2  108 41 0 0 0.530047015146813
0

0101000
+276 3 -278 3 *
Ve
1e-07
-1.1 -3 1.4
0 0

0101101
*
Ed
 1e-07 1 1 0
1  55 0 0 2.2
2  109 9 0 0 2.2
2  110 42 0 0 2.2
0

0101000
+274 3 -276 3 *
Ve
1e-07
-1.474799838758 -2.625200161242 1.4
0 0

0101101
*
Ed
 1e-07 1 1 0
1  56 0 0.318481122277044 0.848528137423857
2  111 9 0 0.318481122277044 0.848528137423857
2  112 43 0 0.318481122277044 0.848528137423857
0

0101000
+272 3 -274 3 *
Ed
 1e-07 1 1 0
1  57 0 3.99931595014725 3.99954885366442
2  113 9 0 3.99931595014725 3.99954885366442
2  114 36 0 3.99931595014725 3.99954885366442
0

0101000
+285 3 -272 3 *
Wi

0101100
+283 0 -369 0 -279 0 -277 0 -275 0 -273 0 -271 0 -270 0 *
Fa
0  1e-07 9 0

0101000
+269 0 *
Ve
1e-07
1.434161087561 -2.522202422562 1.471005764208
0 0

0101101
*
Ed
 1e-07 1 1 0
1  58 0 0 1.52374127247527
2  115 10 0 0 1.52374127247527
2  116 11 0 0 1.52374127247527
0

0101000
+267 3 -368 3 *
Ed
 1e-07 1 1 0
1  59 0 1.75826399308457 2.31908381465666
2  117 10 0 1.75826399308457 2.31908381465666
2  118 40 0 1.75826399308457 2.31908381465666
0

0101000
+267 3 -280 3 *
Wi

0101100
-266 0 +265 0 +279 0 +367 0 *
Fa
0  1e-07 10 0

0101000
-264 0 *
Ve
1e-07
1.529274937571 -2.494922134345 1.485467486481
0 0

0101101
*
Ed
 1e-07 1 1 0
1  60 0 0 1.59925573957574
2  119 11 0 0 1.59925573957574
2  120 12 0 0 1.59925573957574
0

0101000
+262 3 -366 3 *
Ed
 1e-07 1 1 0
1  61 0 -0 0.100000000000144
2  121 11 0 -0 0.100000000000144
2  122 40 0 -0 0.100000000000144
4 G1 11 0 40 0
0

0101000
+262 3 -267 3 *
Wi

0101100
-261 0 +260 0 +266 0 -365 0 *
Fa
0  1e-07 11 0

0101000
-259 0 *
Ve
1e-07
1.611242861703 -2.6436852337 1.226993112244
0 0

0101101
*
Ed
 1e-07 1 1 0
1  62 0 1.75826399308839 3.17605536570749
2  123 12 0 1.75826399308839 3.17605536570749
2  124 40 0 1.75826399308839 3.17605536570749
0

0101000
+262 3 -257 3 *
Ve
1e-07
1.716716709682 -2.452936348212 0.173473480062
0 0

0101101
*
Ed
 1e-07 1 1 0
1  63 0 0 1.07583153203246
2  125 12 0 0 1.07583153203246
2  126 44 0 0 1.07583153203246
0

0101000
+255 3 -257 3 *
Ve
1e-07
1.713167173164 -2.4 0.096960549476
0 0

0101101
*
Ed
 1e-07 1 1 0
1  64 0 3.17605536570719 4.06985398320194
2  127 12 0 3.17605536570719 4.06985398320194
2  128 45 0 3.17605536570719 4.06985398320194
0

0101000
+255 3 -253 3 *
Ve
1e-07
1.712705035533 -2.4 0.1
0 0

0101101
*
Ed
 1e-07 1 1 0
1  65 0 0.414019259078953 0.417093642054092
2  129 12 0 0.414019259078953 0.417093642054092
2  130 46 0 0.414019259078953 0.417093642054092
0

0101000
+251 3 -253 3 *
Ve
1e-07
1.7 -2.4 0.183560230326
0 0

0101101
*
Ed
 1e-07 1 1 0
1  66 0 -0.561158372897058 -0.476637783570972
2  131 12 0 -0.561158372897058 -0.476637783570972
2  132 32 0 -0.561158372897058 -0.476637783570972
0

0101000
+251 3 -249 3 *
Ed
 1e-07 1 1 0
1  67 0 -0.509334630324595 0.723971021366334
2  133 12 0 -0.509334630324595 0.723971021366334
2  134 33 0 -0.509334630324595 0.723971021366334
0

0101000
+249 3 -315 3 *
Wi

0101100
-261 0 +256 0 -254 0 +252 0 -250 0 +248 0 +247 0 +313 0 +363 0 *
Fa
0  1e-07 12 0

0101000
-246 0 *
Ve
1e-07
-3 2.4 4.2
0 0

0101101
*
Ed
 1e-07 1 1 0
1  68 0 0 1.2
2  135 13 0 0 1.2
2  136 14 0 0 1.2
0

0101000
+359 3 -244 3 *
Ve
1e-07
-3 -2.4 4.2
0 0

0101101
*
Ed
 1e-07 1 1 0
1  69 0 0 4.8
2  137 13 0 0 4.8
2  138 47 0 0 4.8
0

0101000
+244 3 -242 3 *
Ed
 1e-07 1 1 0
1  70 0 0 1.2
2  139 13 0 0 1.2
2  140 24 0 0 1.2
0

0101000
+358 3 -242 3 *
Wi

0101100
+243 0 +241 0 -240 0 -357 0 *
Fa
0  1e-07 13 0

0101000
+239 0 *
Ve
1e-07
-1.7 2.4 4.2
0 0

0101101
*
Ed
 1e-07 1 1 0
1  71 0 0 1.2
2  141 14 0 0 1.2
2  142 15 0 0 1.2
0

0101000
+356 3 -237 3 *
Ed
 1e-07 1 1 0
1  72 0 0 1.3
2  143 14 0 0 1.3
2  144 47 0 0 1.3
0

0101000
+237 3 -244 3 *
Wi

0101100
+236 0 +235 0 -243 0 -355 0 *
Fa
0  1e-07 14 0

0101000
+234 0 *
Ve
1e-07
-1.7 -2.4 4.2
0 0

0101101
*
Ed
 1e-07 1 1 0
1  73 0 0 1.3
2  145 24 0 0 1.3
2  146 47 0 0 1.3
0

0101000
+242 3 -232 3 *
Ed
 1e-07 1 1 0
1  74 0 0 1.2
2  147 24 0 0 1.2
2  148 23 0 0 1.2
0

0101000
+338 3 -232 3 *
Wi

0101100
+240 0 +231 0 -230 0 -336 0 *
Fa
0  1e-07 24 0

0101000
+229 0 *
Ve
1e-07
-1.1 3 4.2
0 0

0101101
*
Ed
 1e-07 1 1 0
1  75 0 0 1.2
2  149 15 0 0 1.2
2  150 16 0 0 1.2
0

0101000
+354 3 -227 3 *
Ed
 1e-07 1 1 0
1  76 0 0 0.848528137423857
2  151 15 0 0 0.848528137423857
2  152 47 0 0 0.848528137423857
0

0101000
+227 3 -237 3 *
Wi

0101100
+226 0 +225 0 -236 0 -353 0 *
Fa
0  1e-07 15 0

0101000
+224 0 *
Ve
1e-07
-1.1 -3 4.2
0 0

0101101
*
Ed
 1e-07 1 1 0
1  77 0 0 0.848528137423857
2  153 23 0 0 0.848528137423857
2  154 47 0 0 0.848528137423857
0

0101000
+232 3 -222 3 *
Ed
 1e-07 1 1 0
1  78 0 0 1.2
2  155 23 0 0 1.2
2  156 22 0 0 1.2
0

0101000
+340 3 -222 3 *
Wi

0101100
+230 0 +221 0 -220 0 -337 0 *
Fa
0  1e-07 23 0

0101000
+219 0 *
Ve
1e-07
1.1 3 4.2
0 0

0101101
*
Ed
 1e-07 1 1 0
1  79 0 0 1.2
2  157 16 0 0 1.2
2  158 17 0 0 1.2
0

0101000
+352 3 -217 3 *
Ed
 1e-07 1 1 0
1  80 0 0 2.2
2  159 16 0 0 2.2
2  160 47 0 0 2.2
0

0101000
+217 3 -227 3 *
Wi

0101100
+216 0 +215 0 -226 0 -351 0 *
Fa
0  1e-07 16 0

0101000
+214 0 *
Ve
1e-07
1.1 -3 4.2
0 0

0101101
*
Ed
 1e-07 1 1 0
1  81 0 0 2.2
2  161 22 0 0 2.2
2  162 47 0 0 2.2
0

0101000
+222 3 -212 3 *
Ed
 1e-07 1 1 0
1  82 0 0 1.2
2  163 22 0 0 1.2
2  164 21 0 0 1.2
0

0101000
+342 3 -212 3 *
Wi

0101100
+220 0 +211 0 -210 0 -339 0 *
Fa
0  1e-07 22 0

0101000
+209 0 *
Ve
1e-07
1.7 2.4 4.2
0 0

0101101
*
Ed
 1e-07 1 1 0
1  83 0 0 1.2
2  165 17 0 0 1.2
2  166 18 0 0 1.2
0

0101000
+350 3 -207 3 *
Ed
 1e-07 1 1 0
1  84 0 0 0.848528137423857
2  167 17 0 0 0.848528137423857
2  168 47 0 0 0.848528137423857
0

0101000
+207 3 -217 3 *
Wi

0101100
+206 0 +205 0 -216 0 -349 0 *
Fa
0  1e-07 17 0

0101000
+204 0 *
Ve
1e-07
1.7 -2.4 4.2
0 0

0101101
*
Ed
 1e-07 1 1 0
1  85 0 0 0.848528137423857
2  169 21 0 0 0.848528137423857
2  170 47 0 0 0.848528137423857
0

0101000
+212 3 -202 3 *
Ed
 1e-07 1 1 0
1  86 0 0 1.2
2  171 21 0 0 1.2
2  172 20 0 0 1.2
0

0101000
+344 3 -202 3 *
Wi

0101100
+210 0 +201 0 -200 0 -341 0 *
Fa
0  1e-07 21 0

0101000
+199 0 *
Ve
1e-07
3 2.4 4.2
0 0

0101101
*
Ed
 1e-07 1 1 0
1  87 0 0 1.2
2  173 18 0 0 1.2
2  174 19 0 0 1.2
0

0101000
+348 3 -197 3 *
Ed
 1e-07 1 1 0
1  88 0 0 1.3
2  175 18 0 0 1.3
2  176 47 0 0 1.3
0

0101000
+197 3 -207 3 *
Wi

0101100
+196 0 +195 0 -206 0 -347 0 *
Fa
0  1e-07 18 0

0101000
+194 0 *
Ve
1e-07
3 -2.4 4.2
0 0

0101101
*
Ed
 1e-07 1 1 0
1  89 0 0 1.3
2  177 20 0 0 1.3
2  178 47 0 0 1.3
0

0101000
+202 3 -192 3 *
Ed
 1e-07 1 1 0
1  90 0 0 1.2
2  179 20 0 0 1.2
2  180 19 0 0 1.2
0

0101000
+346 3 -192 3 *
Wi

0101100
+200 0 +191 0 -190 0 -343 0 *
Fa
0  1e-07 20 0

0101000
+189 0 *
Ed
 1e-07 1 1 0
1  91 0 0 4.8
2  181 19 0 0 4.8
2  182 47 0 0 4.8
0

0101000
+192 3 -197 3 *
Wi

0101100
+190 0 +187 0 -196 0 -345 0 *
Fa
0  1e-07 19 0

0101000
+186 0 *
Ve
1e-07
-3 2.4 0.1
0 0

0101101
*
Ed
 1e-07 1 1 0
1  92 0 0 1.3
2  183 25 0 0 1.3
2  184 26 0 0 1.3
0

0101000
+184 3 -332 3 *
Ve
1e-07
-3 -2.4 0.1
0 0

0101101
*
Ed
 1e-07 1 1 0
1  93 0 0 1.3
2  185 25 0 0 1.3
2  186 35 0 0 1.3
0

0101000
+182 3 -331 3 *
Ed
 1e-07 1 1 0
1  94 0 0 4.8
2  187 25 0 0 4.8
2  188 48 0 0 4.8
4 G2 25 0 48 0
0

0101000
+182 3 -184 3 *
Wi

0101100
+183 0 +330 0 -181 0 +180 0 *
Fa
0  1e-07 25 0

0101000
+179 0 *
Ed
 1e-07 1 1 0
1  95 0 0.612705035533 1.9
2  189 35 0 0.612705035533 1.9
2  190 39 0 0.612705035533 1.9
4 G2 35 0 39 0
0

0101000
+297 3 -182 3 *
Ed
 1e-07 1 1 0
1  96 0 0.083560230326 1.3
2  191 35 0 0.083560230326 1.3
2  192 34 0 0.083560230326 1.3
0

0101000
+295 3 -310 3 *
Wi

0101100
+177 0 +181 0 +308 0 -176 0 -294 0 *
Fa
0  1e-07 35 0

0101000
+175 0 *
Wi

0101100
-293 0 +176 0 +309 0 *
Fa
0  1e-07 34 0

0101000
+173 0 *
Ed
 1e-07 1 1 0
1  97 0 0.083560230326 1.3
2  193 33 0 0.083560230326 1.3
2  194 32 0 0.083560230326 1.3
0

0101000
+249 3 -317 3 *
Wi

0101100
+247 0 +314 0 -171 0 *
Fa
0  1e-07 33 0

0101000
+170 0 *
Ve
1e-07
3 -2.4 0.1
0 0

0101101
*
Ed
 1e-07 1 1 0
1  98 0 0 1.3
2  195 32 0 0 1.3
2  196 31 0 0 1.3
0

0101000
+168 3 -319 3 *
Ed
 1e-07 1 1 0
1  99 0 0 1.287294964467
2  197 32 0 0 1.287294964467
2  198 46 0 0 1.287294964467
4 G2 32 0 46 0
0

0101000
+168 3 -251 3 *
Wi

0101100
+248 0 +171 0 +316 0 -167 0 +166 0 *
Fa
0  1e-07 32 0

0101000
+165 0 *
Ve
1e-07
3 2.4 0.1
0 0

0101101
*
Ed
 1e-07 1 1 0
1  100 0 0 1.3
2  199 31 0 0 1.3
2  200 30 0 0 1.3
0

0101000
+163 3 -321 3 *
Ed
 1e-07 1 1 0
1  101 0 0 4.8
2  201 31 0 0 4.8
2  202 49 0 0 4.8
4 G2 31 0 49 0
0

0101000
+163 3 -168 3 *
Wi

0101100
+167 0 +318 0 -162 0 +161 0 *
Fa
0  1e-07 31 0

0101000
+160 0 *
Ve
1e-07
1.7 2.4 0.1
0 0

0101101
*
Ed
 1e-07 1 1 0
1  102 0 0 1.3
2  203 30 0 0 1.3
2  204 29 0 0 1.3
0

0101000
+158 3 -323 3 *
Ed
 1e-07 1 1 0
1  103 0 0.6 1.9
2  205 30 0 0.6 1.9
2  206 50 0 0.6 1.9
4 G2 30 0 50 0
0

0101000
+158 3 -163 3 *
Wi

0101100
+162 0 +320 0 -157 0 +156 0 *
Fa
0  1e-07 30 0

0101000
+155 0 *
Ve
1e-07
1.1 3 0.1
0 0

0101101
*
Ed
 1e-07 1 1 0
1  104 0 0 1.3
2  207 29 0 0 1.3
2  208 28 0 0 1.3
0

0101000
+153 3 -325 3 *
Ed
 1e-07 1 1 0
1  105 0 0 0.848528137423857
2  209 29 0 0 0.848528137423857
2  210 51 0 0 0.848528137423857
0

0101000
+158 3 -153 3 *
Wi

0101100
+157 0 +322 0 -152 0 -151 0 *
Fa
0  1e-07 29 0

0101000
+150 0 *
Ve
1e-07
-1.1 3 0.1
0 0

0101101
*
Ed
 1e-07 1 1 0
1  106 0 0 1.3
2  211 28 0 0 1.3
2  212 27 0 0 1.3
0

0101000
+148 3 -327 3 *
Ed
 1e-07 1 1 0
1  107 0 0 2.2
2  213 28 0 0 2.2
2  214 51 0 0 2.2
0

0101000
+153 3 -148 3 *
Wi

0101100
+152 0 +324 0 -147 0 -146 0 *
Fa
0  1e-07 28 0

0101000
+145 0 *
Ve
1e-07
-1.7 2.4 0.1
0 0

0101101
*
Ed
 1e-07 1 1 0
1  108 0 0 1.3
2  215 27 0 0 1.3
2  216 26 0 0 1.3
0

0101000
+143 3 -329 3 *
Ed
 1e-07 1 1 0
1  109 0 0 0.848528137423857
2  217 27 0 0 0.848528137423857
2  218 51 0 0 0.848528137423857
0

0101000
+148 3 -143 3 *
Wi

0101100
+147 0 +326 0 -142 0 -141 0 *
Fa
0  1e-07 27 0

0101000
+140 0 *
Ed
 1e-07 1 1 0
1  110 0 0 1.3
2  219 26 0 0 1.3
2  220 52 0 0 1.3
4 G2 26 0 52 0
0

0101000
+184 3 -143 3 *
Wi

0101100
+142 0 +328 0 -183 0 +138 0 *
Fa
0  1e-07 26 0

0101000
+137 0 *
Ve
1e-07
-1.1 -2.4 0
0 0

0101101
*
Ve
1e-07
-3 -2.4 0
0 0

0101101
*
Ed
 1e-07 1 1 0
1  111 0 0 1.9
2  221 39 0 0 1.9
2  222 53 0 0 1.9
0

0101000
+135 3 -134 3 *
Ve
1e-07
-1.1 -2.4 0.1
0 0

0101101
*
Ed
 1e-07 1 1 0
1  112 0 0 0.1
2  223 39 0 0 0.1
2  224 54 0 0 0.1
0

0101000
+135 3 -132 3 *
Ve
1e-07
-1.607567876234 -2.4 0.1
0 0

0101101
*
Ed
 1e-07 1 1 0
1  113 0 0 0.507567876234
2  225 39 0 0 0.507567876234
2  226 51 0 0 0.507567876234
0

0101000
+132 3 -130 3 *
Ve
1e-07
-1.611966486418 -2.4 0.07107061376462
0 0

0101101
*
Ed
 1e-07 1 1 0
1  114 0 0.54101804715226 0.570279919264389
2  227 39 0 0.54101804715226 0.570279919264389
2  228 55 0 0.54101804715226 0.570279919264389
0

0101000
+130 3 -128 3 *
Ed
 1e-07 1 1 0
1  115 0 1.07915208204229 1.36040545326155
2  229 39 0 1.07915208204229 1.36040545326155
2  230 38 0 1.07915208204229 1.36040545326155
0

0101000
+299 3 -128 3 *
Ed
 1e-07 1 1 0
1  116 0 0 0.1
2  231 39 0 0 0.1
2  232 48 0 0 0.1
0

0101000
+134 3 -182 3 *
Wi

0101100
-133 0 +131 0 +129 0 +127 0 -126 0 -296 0 +177 0 -125 0 *
Fa
0  1e-07 39 0

0101000
+124 0 *
Ve
1e-07
-1.621796446547 -2.449608497236 0.1
0 0

0101101
*
Ed
 1e-07 1 1 0
1  117 0 3.80342150739707 4.35110735442593
2  233 38 0 3.80342150739707 4.35110735442593
2  234 55 0 3.80342150739707 4.35110735442593
0

0101000
+122 3 -128 3 *
Ve
1e-07
-1.675326139823 -2.424673860177 0.1
0 0

0101101
*
Ed
 1e-07 1 1 0
1  118 0 5.48365364288526 5.59965964256267
2  235 38 0 5.48365364288526 5.59965964256267
2  236 51 0 5.48365364288526 5.59965964256267
0

0101000
+122 3 -120 3 *
Ve
1e-07
-1.622594299899 -2.477405700101 0.14718862587
0 0

0101101
*
Ed
 1e-07 1 1 0
1  119 0 3.31876365241403 3.94888419532761
2  237 38 0 3.31876365241403 3.94888419532761
2  238 43 0 3.31876365241403 3.94888419532761
0

0101000
+118 3 -120 3 *
Ve
1e-07
-1.621602859673 -2.48021663643 0.159011757789
0 0

0101101
*
Ed
 1e-07 1 1 0
1  120 0 3.17605536570719 3.28930696415771
2  239 38 0 3.17605536570719 3.28930696415771
2  240 56 0 3.17605536570719 3.28930696415771
0

0101000
+116 3 -118 3 *
Ed
 1e-07 1 1 0
1  121 0 0 0.0999999999994653
2  241 38 0 0 0.0999999999994653
2  242 37 0 0 0.0999999999994653
4 G1 38 0 37 0
0

0101000
+301 3 -116 3 *
Wi

0101100
+126 0 -121 0 +119 0 -117 0 -115 0 -114 0 +298 0 *
Fa
0  1e-07 38 0

0101000
+113 0 *
Ve
1e-07
-1.516129011693 -2.670965521918 1.212531389971
0 0

0101101
*
Ed
 1e-07 1 1 0
1  122 0 0 1.07583153203256
2  243 37 0 0 1.07583153203256
2  244 56 0 0 1.07583153203256
0

0101000
+116 3 -111 3 *
Ed
 1e-07 1 1 0
1  123 0 0 0.100000000000417
2  245 37 0 0 0.100000000000417
2  246 36 0 0 0.100000000000417
4 G1 37 0 36 0
0

0101000
+303 3 -111 3 *
Wi

0101100
+114 0 +110 0 -109 0 -300 0 *
Fa
0  1e-07 37 0

0101000
+108 0 *
Ve
1e-07
-1.474590230872 -2.625409769128 1.39979396157
0 0

0101101
*
Ed
 1e-07 1 1 0
1  124 0 2.32024216997592 3.17605536570749
2  247 36 0 2.32024216997592 3.17605536570749
2  248 56 0 2.32024216997592 3.17605536570749
0

0101000
+106 3 -111 3 *
Ed
 1e-07 1 1 0
1  125 0 2.34877340643058 2.34969885823307
2  249 36 0 2.34877340643058 2.34969885823307
2  250 43 0 2.34877340643058 2.34969885823307
0

0101000
+272 3 -106 3 *
Wi

0101100
+109 0 -105 0 -104 0 -270 0 -284 0 -289 0 +302 0 *
Fa
0  1e-07 36 0

0101000
+103 0 *
Ve
1e-07
-1.1 -3 0.1
0 0

0101101
*
Ed
 1e-07 1 1 0
1  126 0 0.034894107698411 0.848528137423857
2  251 43 0 0.034894107698411 0.848528137423857
2  252 51 0 0.034894107698411 0.848528137423857
0

0101000
+120 3 -101 3 *
Ed
 1e-07 1 1 0
1  127 0 -0.457242254411694 0.812730397231328
2  253 43 0 -0.457242254411694 0.812730397231328
2  254 56 0 -0.457242254411694 0.812730397231328
0

0101000
+118 3 -106 3 *
Ed
 1e-07 1 1 0
1  128 0 0 1.3
2  255 43 0 0 1.3
2  256 42 0 0 1.3
0

0101000
+101 3 -274 3 *
Wi

0101100
-100 0 -117 0 +99 0 -104 0 +271 0 -98 0 *
Fa
0  1e-07 43 0

0101000
+97 0 *
Ve
1e-07
1.1 -3 0.1
0 0

0101101
*
Ed
 1e-07 1 1 0
1  129 0 0 1.3
2  257 42 0 0 1.3
2  258 41 0 0 1.3
0

0101000
+95 3 -276 3 *
Ed
 1e-07 1 1 0
1  130 0 0 2.2
2  259 42 0 0 2.2
2  260 51 0 0 2.2
0

0101000
+101 3 -95 3 *
Wi

0101100
+98 0 +273 0 -94 0 -93 0 *
Fa
0  1e-07 42 0

0101000
+92 0 *
Ve
1e-07
1.675326139823 -2.424673860177 0.1
0 0

0101101
*
Ed
 1e-07 1 1 0
1  131 0 0 0.813634029725446
2  261 41 0 0 0.813634029725446
2  262 51 0 0 0.813634029725446
0

0101000
+95 3 -90 3 *
Ve
1e-07
1.474590230872 -2.625409769128 1.39979396157
0 0

0101101
*
Ed
 1e-07 1 1 0
1  132 0 3.93348644894651 3.934411900749
2  263 41 0 3.93348644894651 3.934411900749
2  264 40 0 3.93348644894651 3.934411900749
0

0101000
+88 3 -278 3 *
Ve
1e-07
1.622594299899 -2.477405700101 0.14718862587
0 0

0101101
*
Ed
 1e-07 1 1 0
1  133 0 -0.52716694239743 0.742805709245592
2  265 41 0 -0.52716694239743 0.742805709245592
2  266 57 0 -0.52716694239743 0.742805709245592
0

0101000
+86 3 -88 3 *
Ed
 1e-07 1 1 0
1  134 0 2.33430111185197 2.96442165476556
2  267 41 0 2.33430111185197 2.96442165476556
2  268 45 0 2.33430111185197 2.96442165476556
0

0101000
+90 3 -86 3 *
Wi

0101100
-89 0 +94 0 +275 0 -87 0 -85 0 -84 0 *
Fa
0  1e-07 41 0

0101000
+83 0 *
Ve
1e-07
1.516129011693 -2.670965521918 1.212531389971
0 0

0101101
*
Ed
 1e-07 1 1 0
1  135 0 2.32024216997592 3.17605536570749
2  269 40 0 2.32024216997592 3.17605536570749
2  270 57 0 2.32024216997592 3.17605536570749
0

0101000
+88 3 -81 3 *
Ed
 1e-07 1 1 0
1  136 0 -0 0.100000000000417
2  271 40 0 -0 0.100000000000417
2  272 44 0 -0 0.100000000000417
4 G1 40 0 44 0
0

0101000
+257 3 -81 3 *
Wi

0101100
-256 0 +260 0 +265 0 -277 0 -87 0 +80 0 -79 0 *
Fa
0  1e-07 40 0

0101000
+78 0 *
Ve
1e-07
3 -2.4 0
0 0

0101101
*
Ve
1e-07
1.1 -2.4 0
0 0

0101101
*
Ed
 1e-07 1 1 0
1  137 0 0 1.9
2  273 46 0 0 1.9
2  274 58 0 0 1.9
0

0101000
+76 3 -75 3 *
Ed
 1e-07 1 1 0
1  138 0 0 0.1
2  275 46 0 0 0.1
2  276 49 0 0 0.1
0

0101000
+76 3 -168 3 *
Ve
1e-07
1.611966486418 -2.4 0.07107061376462
0 0

0101101
*
Ed
 1e-07 1 1 0
1  139 0 4.92277985391804 5.20403322513728
2  277 46 0 4.92277985391804 5.20403322513728
2  278 45 0 4.92277985391804 5.20403322513728
0

0101000
+72 3 -253 3 *
Ve
1e-07
1.607567876234 -2.4 0.1
0 0

0101101
*
Ed
 1e-07 1 1 0
1  140 0 0.398215165007544 0.427477037119673
2  279 46 0 0.398215165007544 0.427477037119673
2  280 59 0 0.398215165007544 0.427477037119673
0

0101000
+70 3 -72 3 *
Ve
1e-07
1.1 -2.4 0.1
0 0

0101101
*
Ed
 1e-07 1 1 0
1  141 0 1.392432123766 1.9
2  281 46 0 1.392432123766 1.9
2  282 51 0 1.392432123766 1.9
0

0101000
+70 3 -68 3 *
Ed
 1e-07 1 1 0
1  142 0 0 0.1
2  283 46 0 0 0.1
2  284 60 0 0 0.1
0

0101000
+75 3 -68 3 *
Wi

0101100
-74 0 +73 0 +166 0 +250 0 -71 0 -69 0 +67 0 -66 0 *
Fa
0  1e-07 46 0

0101000
+65 0 *
Ve
1e-07
1.621602859673 -2.48021663643 0.159011757789
0 0

0101101
*
Ed
 1e-07 1 1 0
1  143 0 -0 0.0999999999994653
2  285 45 0 -0 0.0999999999994653
2  286 44 0 -0 0.0999999999994653
4 G1 45 0 44 0
0

0101000
+255 3 -63 3 *
Ed
 1e-07 1 1 0
1  144 0 3.17605536570719 3.28930696415771
2  287 45 0 3.17605536570719 3.28930696415771
2  288 57 0 3.17605536570719 3.28930696415771
0

0101000
+63 3 -86 3 *
Ve
1e-07
1.621796446547 -2.449608497236 0.1
0 0

0101101
*
Ed
 1e-07 1 1 0
1  145 0 0.683525664616919 0.799531664294323
2  289 45 0 0.683525664616919 0.799531664294323
2  290 51 0 0.683525664616919 0.799531664294323
0

0101000
+90 3 -60 3 *
Ed
 1e-07 1 1 0
1  146 0 3.80342150739707 4.35110735442593
2  291 45 0 3.80342150739707 4.35110735442593
2  292 59 0 3.80342150739707 4.35110735442593
0

0101000
+60 3 -72 3 *
Wi

0101100
-252 0 +62 0 +61 0 -84 0 +59 0 +58 0 +71 0 *
Fa
0  1e-07 45 0

0101000
+57 0 *
Ed
 1e-07 1 1 0
1  147 0 0 1.07583153203256
2  293 44 0 0 1.07583153203256
2  294 57 0 0 1.07583153203256
0

0101000
+63 3 -81 3 *
Wi

0101100
+62 0 +55 0 -79 0 -254 0 *
Fa
0  1e-07 44 0

0101000
-54 0 *
Wi

0101100
+241 0 +231 0 +221 0 +211 0 +201 0 +191 0 +187 0 +195 0 +205 0 +215 0 
+225 0 +235 0 *
Fa
0  1e-07 47 0

0101000
-52 0 *
Ve
1e-07
-3 2.4 0
0 0

0101101
*
Ed
 1e-07 1 1 0
1  148 0 0 0.1
2  295 48 0 0 0.1
2  296 52 0 0 0.1
0

0101000
+50 3 -184 3 *
Ed
 1e-07 1 1 0
1  149 0 0 4.8
2  297 48 0 0 4.8
2  298 53 0 0 4.8
0

0101000
+134 3 -50 3 *
Wi

0101100
+125 0 +180 0 -49 0 -48 0 *
Fa
0  1e-07 48 0

0101000
+47 0 *
Ve
1e-07
3 2.4 0
0 0

0101101
*
Ed
 1e-07 1 1 0
1  150 0 0 0.1
2  299 49 0 0 0.1
2  300 50 0 0 0.1
0

0101000
+45 3 -163 3 *
Ed
 1e-07 1 1 0
1  151 0 0 4.8
2  301 49 0 0 4.8
2  302 58 0 0 4.8
0

0101000
+45 3 -76 3 *
Wi

0101100
+44 0 +161 0 -73 0 -43 0 *
Fa
0  1e-07 49 0

0101000
+42 0 *
Ve
1e-07
1.1 2.4 0
0 0

0101101
*
Ve
1e-07
1.1 2.4 0.1
0 0

0101101
*
Ed
 1e-07 1 1 0
1  152 0 0 0.1
2  303 50 0 0 0.1
2  304 60 0 0 0.1
0

0101000
+40 3 -39 3 *
Ed
 1e-07 1 1 0
1  153 0 0 0.6
2  305 50 0 0 0.6
2  306 51 0 0 0.6
0

0101000
+39 3 -158 3 *
Ed
 1e-07 1 1 0
1  154 0 0 1.9
2  307 50 0 0 1.9
2  308 58 0 0 1.9
0

0101000
+40 3 -45 3 *
Wi

0101100
+38 0 +37 0 +156 0 -44 0 -36 0 *
Fa
0  1e-07 50 0

0101000
+35 0 *
Ve
1e-07
-1.1 2.4 0.1
0 0

0101101
*
Ed
 1e-07 1 1 0
1  155 0 1.3 1.9
2  309 51 0 1.3 1.9
2  310 52 0 1.3 1.9
0

0101000
+143 3 -33 3 *
Ed
 1e-07 1 1 0
1  156 0 0 4.8
2  311 51 0 0 4.8
2  312 60 0 0 4.8
0

0101000
+68 3 -39 3 *
Ed
 1e-07 1 1 0
1  157 0 -3.2788685399239 -3.22725986612612
2  313 51 0 -3.2788685399239 -3.22725986612612
2  314 59 0 -3.2788685399239 -3.22725986612612
0

0101000
+60 3 -70 3 *
Ed
 1e-07 1 1 0
1  158 0 -2.45176511333075 -2.40015643953296
2  315 51 0 -2.45176511333075 -2.40015643953296
2  316 55 0 -2.45176511333075 -2.40015643953296
0

0101000
+122 3 -130 3 *
Ed
 1e-07 1 1 0
1  159 0 0 4.8
2  317 51 0 0 4.8
2  318 54 0 0 4.8
0

0101000
+33 3 -132 3 *
Wi

0101100
-32 0 -141 0 -146 0 -151 0 -37 0 -31 0 -67 0 -30 0 -59 0 -89 0 
-93 0 -100 0 -119 0 +29 0 -129 0 -28 0 *
Fa
0  1e-07 51 0

0101000
+27 0 *
Ve
1e-07
-1.1 2.4 0
0 0

0101101
*
Ed
 1e-07 1 1 0
1  160 0 0 0.1
2  319 52 0 0 0.1
2  320 54 0 0 0.1
0

0101000
+25 3 -33 3 *
Ed
 1e-07 1 1 0
1  161 0 0 1.9
2  321 52 0 0 1.9
2  322 53 0 0 1.9
0

0101000
+50 3 -25 3 *
Wi

0101100
+49 0 +138 0 +32 0 -24 0 -23 0 *
Fa
0  1e-07 52 0

0101000
+22 0 *
Ed
 1e-07 1 1 0
1  162 0 0 4.8
2  323 53 0 0 4.8
2  324 54 0 0 4.8
0

0101000
+25 3 -135 3 *
Wi

0101100
+23 0 +20 0 +133 0 +48 0 *
Fa
0  1e-07 53 0

0101000
-19 0 *
Wi

0101100
-29 0 +121 0 -127 0 *
Fa
0  1e-07 55 0

0101000
+17 0 *
Wi

0101100
+24 0 +28 0 -131 0 -20 0 *
Fa
0  1e-07 54 0

0101000
+15 0 *
Wi

0101100
+99 0 +105 0 -110 0 +115 0 *
Fa
0  1e-07 56 0

0101000
+13 0 *
Wi

0101100
+85 0 +80 0 -55 0 +61 0 *
Fa
0  1e-07 57 0

0101000
-11 0 *
Ed
 1e-07 1 1 0
1  163 0 0 4.8
2  325 58 0 0 4.8
2  326 60 0 0 4.8
0

0101000
+75 3 -40 3 *
Wi

0101100
+36 0 +43 0 +74 0 +9 0 *
Fa
0  1e-07 58 0

0101000
-8 0 *
Wi

0101100
+66 0 +31 0 -38 0 -9 0 *
Fa
0  1e-07 60 0

0101000
+6 0 *
Wi

0101100
-30 0 +58 0 -69 0 *
Fa
0  1e-07 59 0

0101000
-4 0 *
Sh

0101100
-386 0 +381 0 +360 0 +333 0 -306 0 -291 0 +286 0 +281 0 -268 0 +263 0 
+258 0 -245 0 -238 0 -233 0 -228 0 -223 0 -218 0 -213 0 -208 0 -203 0 
-198 0 -193 0 -188 0 -185 0 -178 0 -174 0 -172 0 -169 0 -164 0 -159 0 
-154 0 -149 0 -144 0 -139 0 -136 0 +123 0 +112 0 +107 0 +102 0 -96 0 
-91 0 -82 0 +77 0 +64 0 +56 0 +53 0 -51 0 +46 0 +41 0 +34 0 
+26 0 +21 0 -18 0 +16 0 +14 0 +12 0 +10 0 -7 0 +5 0 +3 0 
*
So

0100000
+2 0 *

+1 1 