DBRep_DrawableShape

CASCADE Topology V1, (c) Matra-Datavision
Locations 10
1
              1               0               0               0 
              0               1               0              99 
              0               0               1            68.1 
1
              1               0               0               0 
              0               1               0               0 
              0               0               1               0 
1
              1               0               0               0 
              0               1               0               0 
              0               0               1               0 
1
              1               0               0               0 
              0               1               0               0 
              0               0               1               0 
1
              1               0               0               0 
              0               1               0               0 
              0               0               1               0 
1
              1               0               0               0 
              0               1               0               0 
              0               0               1               0 
2  6 -1 2 -1 4 -1 5 -1 0
1
              1               0               0               0 
              0               1               0               0 
              0               0               1               0 
1
              1               0               0               0 
              0               1               0               0 
              0               0               1               0 
2  6 -1 2 -1 8 -1 9 -1 0
Curve2ds 172
1 5.8700000000000001 -0.62999999999999989 0 -1 
1 0 0 0 1 
1 0 -0.62999999999999989 1 0 
1 0 0 0 1 
1 0 0 0 -1 
1 0 0 0 1 
1 0 -3.7999999999999998 1 0 
1 0 0.0050000000000007816 1 0 
1 1.95 -1.8999999999999995 0 1 
1 0.0050000000000007816 -1.9000000000000004 0 -1 
1 0 -8.8000000000000007 1 0 
1 0 0.0050000000000007816 1 0 
1 0 0 0 -1 
1 0 0 0 1 
1 0 -11.969999999999999 1 0 
1 6.2831853071795862 0 0 1 
1 0 0 1 0 
7 0 0  3 25 23  4.7123889803846897 0  4.7123889803846897 0.023799944345377293  4.7123889803846897 0.071399833036131649  4.7123889803846888 0.14279966607226288  4.7123889803846897 0.2141994991083945  4.7123889803846906 0.2855993321445271  4.7123889803846888 0.35699916518065805  4.7123889803846906 0.42839899821678967  4.7123889803846906 0.49979883125292091  4.7123889803846888 0.57119866428905364  4.7123889803846906 0.64259849732518493  4.7123889803846888 0.71399833036131621  4.7123889803846897 0.78539816339744828  4.7123889803846897 0.85679799643358046  4.7123889803846897 0.92819782946971152  4.7123889803846897 0.99959766250584281  4.7123889803846888 1.0709974955419754  4.7123889803846897 1.1423973285781073  4.7123889803846906 1.2137971616142385  4.7123889803846906 1.2851969946503699  4.7123889803846888 1.3565968276865019  4.7123889803846897 1.4279966607226338  4.7123889803846897 1.4993964937587654  4.7123889803846906 1.546996382449519  4.7123889803846897 1.5707963267948966 
 0 4 0.071399833036131663 1 0.14279966607226333 1 0.21419949910839498 1 0.28559933214452665 1 0.35699916518065833 1 0.42839899821678995 1 0.49979883125292163 1 0.5711986642890533 1 0.64259849732518493 1 0.71399833036131666 1 0.78539816339744828 1 0.8567979964335799 1 0.92819782946971163 1 0.99959766250584325 1 1.070997495541975 1 1.1423973285781066 1 1.2137971616142382 1 1.2851969946503699 1 1.3565968276865017 1 1.4279966607226333 1 1.4993964937587649 1 1.5707963267948966 4
1 1.5707963267948966 0 0 1 
1 0.62999999999999989 0.62999999999999989 0 1 
1 0 11.34 1 0 
1 6.2831853071795862 0 0 1 
1 6.2831853071795862 5.8700000000000001 -1 0 
7 0 0  3 25 23  6.2831853071795862 8.8817841970012523e-16  6.2593853628342089 3.4540271877227098e-16  6.2117854741434568 -1.6030195965518259e-16  6.1403856411073203 4.295278063473257e-17  6.0689858080711927 -1.1509162883747761e-17  5.9975859750350606 3.0838709002584645e-18  5.9261861419989259 -8.2632071728609404e-19  5.8547863089627974 2.2141196888591506e-19  5.7833864759266627 -5.9327158257565819e-20  5.7119866428905368 1.5896664144348179e-20  5.6405868098543994 -4.2594983198268843e-21  5.56918697681827 1.1413291349593577e-21  5.497787143782138 -3.0581822001054547e-22  5.4263873107460077 8.1943745082825977e-23  5.3549874777098756 -2.1956760320758149e-23  5.2835876446737418 5.8832962002065631e-24  5.2121878116376141 -1.576424480068103e-24  5.1407879786014785 4.2240172006584831e-25  5.0693881455653491 -1.1318240019529026e-25  4.9979883125292179 3.0327880715312586e-26  4.926588479493085 -8.1291226659600771e-27  4.8551886464569538 2.1886099485277138e-27  4.7837888134208217 -6.2531712815077321e-28  4.7361889247300688 -0  4.7123889803846915 0 
 0 4 0.071399833036131607 1 0.14279966607226321 1 0.21419949910839481 1 0.28559933214452643 1 0.35699916518065805 1 0.42839899821678962 1 0.49979883125292124 1 0.57119866428905286 1 0.64259849732518448 1 0.7139983303613161 1 0.78539816339744772 1 0.85679799643357923 1 0.92819782946971086 1 0.99959766250584248 1 1.0709974955419741 1 1.1423973285781057 1 1.2137971616142373 1 1.285196994650369 1 1.3565968276865006 1 1.4279966607226322 1 1.4993964937587638 1 1.5707963267948952 4
1 4.7123889803846897 0 0 1 
1 0 0.62999999999999989 1 0 
1 7.8539816339744828 0 -1 0 
2 0.62999999999999989 11.969999999999999 0 -1 -1 -0 0.62999999999999989
2 0.62999999999999989 0.62999999999999989 0 -1 1 0 0.62999999999999989
1 -4.7123889803846897 0 1 0 
1 0 0 1 0 
1 0 0 0 1 
2 12.82 0.62999999999999989 0 -1 -1 -0 0.62999999999999989
1 10.995574287564276 0 -1 0 
1 13.449999999999999 0 0 1 
1 0 0 0 -1 
1 11.445 3.7999999999999998 1 0 
1 0 0 0 1 
1 11.445 3.7999999999999998 0 1 
1 0 0 0 -1 
1 11.445 8.8000000000000007 1 0 
1 0 0 0 1 
1 13.449999999999999 0 0 1 
1 0 0 0 -1 
2 12.82 11.969999999999999 0 -1 1 0 0.62999999999999989
1 -1.5707963267948966 0 1 0 
1 0 12.6 1 0 
1 0 0 0 1 
1 -0.0050000000000007816 8.8000000000000007 1 0 
1 0 0 0 1 
1 2.0049999999999999 3.7999999999999998 0 1 
1 0 0 0 -1 
1 -0.0050000000000007816 3.7999999999999998 1 0 
1 0 0 0 1 
1 1.95 0 0 1 
1 0 5 1 0 
1 0 2.0100000000000007 1 0 
1 0 -5 1 0 
1 0 0 1 0 
1 1.95 0 0 1 
1 2.0100000000000007 0 0 1 
1 1.95 0 0 -1 
1 0 2.0100000000000007 1 0 
1 0 0 1 0 
1 1.5707963267948966 0 0 1 
1 0 0.62999999999999989 1 0 
1 1.5707963267948966 5.8700000000000001 -1 0 
7 0 0  3 25 23  6.2831853071795862 8.8817841970012523e-16  6.2593853628342089 3.4540271877227088e-16  6.2117854741434559 -1.6030195965518254e-16  6.1403856411073221 4.2952780634732552e-17  6.0689858080711936 -1.1509162883747756e-17  5.9975859750350597 3.0838709002584633e-18  5.9261861419989268 -8.2632071728609375e-19  5.8547863089627965 2.2141196888591501e-19  5.7833864759266662 -5.9327158257565819e-20  5.7119866428905324 1.5896664144348154e-20  5.6405868098544012 -4.2594983198268843e-21  5.5691869768182691 1.1413291349593562e-21  5.4977871437821388 -3.0581822001054528e-22  5.4263873107460059 8.1943745082826e-23  5.3549874777098747 -2.1956760320758114e-23  5.2835876446737418 5.8832962002065594e-24  5.2121878116376115 -1.5764244800680999e-24  5.1407879786014785 4.2240172006584712e-25  5.06938814556535 -1.1318240019528994e-25  4.9979883125292162 3.0327880715312609e-26  4.9265884794930841 -8.1291226659600642e-27  4.855188646456952 2.1886099485277074e-27  4.7837888134208226 -6.2531712815077384e-28  4.7361889247300679 -0  4.7123889803846897 0 
 0 4 0.071399833036131663 1 0.14279966607226333 1 0.21419949910839498 1 0.28559933214452665 1 0.35699916518065833 1 0.42839899821678995 1 0.49979883125292163 1 0.5711986642890533 1 0.64259849732518493 1 0.71399833036131666 1 0.78539816339744828 1 0.8567979964335799 1 0.92819782946971163 1 0.99959766250584325 1 1.070997495541975 1 1.1423973285781066 1 1.2137971616142382 1 1.2851969946503699 1 1.3565968276865017 1 1.4279966607226333 1 1.4993964937587649 1 1.5707963267948966 4
1 6.2831853071795862 1.5707963267948966 -1 0 
1 6.2831853071795862 0 0 1 
1 0 12.19 1 0 
1 12.82 0.62999999999999989 -1 0 
1 1.5707963267948966 0 0 1 
1 12.82 11.969999999999999 0 -1 
1 1.5707963267948966 0 0 1 
1 0.62999999999999989 11.969999999999999 1 0 
1 1.5707963267948966 0 0 1 
1 6.2831853071795862 1.5707963267948966 -1 0 
7 0 0  3 25 23  4.7123889803846897 0  4.7123889803846897 0.023799944345377293  4.7123889803846897 0.071399833036131566  4.7123889803846888 0.14279966607226258  4.7123889803846897 0.21419949910839459  4.7123889803846906 0.28559933214452704  4.7123889803846888 0.35699916518065805  4.7123889803846906 0.42839899821678967  4.7123889803846906 0.49979883125292091  4.7123889803846888 0.57119866428905364  4.7123889803846906 0.64259849732518493  4.7123889803846888 0.71399833036131621  4.7123889803846897 0.78539816339744828  4.7123889803846897 0.85679799643358046  4.7123889803846897 0.92819782946971152  4.7123889803846897 0.99959766250584281  4.7123889803846888 1.0709974955419754  4.7123889803846897 1.1423973285781073  4.7123889803846906 1.2137971616142385  4.7123889803846906 1.2851969946503699  4.7123889803846888 1.3565968276865019  4.7123889803846897 1.4279966607226338  4.7123889803846897 1.4993964937587654  4.7123889803846906 1.546996382449519  4.7123889803846897 1.5707963267948966 
 0 4 0.071399833036131663 1 0.14279966607226333 1 0.21419949910839498 1 0.28559933214452665 1 0.35699916518065833 1 0.42839899821678995 1 0.49979883125292163 1 0.5711986642890533 1 0.64259849732518493 1 0.71399833036131666 1 0.78539816339744828 1 0.8567979964335799 1 0.92819782946971163 1 0.99959766250584325 1 1.070997495541975 1 1.1423973285781066 1 1.2137971616142382 1 1.2851969946503699 1 1.3565968276865017 1 1.4279966607226333 1 1.4993964937587649 1 1.5707963267948966 4
1 0 8.8817841970012523e-16 1 -5.6543194337129189e-16 
1 5.8700000000000001 0.62999999999999989 0 1 
1 0 0 0 1 
1 0 12.82 1 0 
1 1.5707963267948966 0 0 1 
1 0 0 0 1 
1 0 -11.969999999999999 1 0 
1 1.5707963267948966 5.8700000000000001 -1 0 
7 0 0  3 25 23  6.2831853071795862 8.8817841970012523e-16  6.2593853628342089 3.4540271877227088e-16  6.2117854741434559 -1.6030195965518254e-16  6.1403856411073221 4.2952780634732552e-17  6.0689858080711936 -1.1509162883747756e-17  5.9975859750350597 3.0838709002584633e-18  5.9261861419989268 -8.2632071728609375e-19  5.8547863089627965 2.2141196888591501e-19  5.7833864759266662 -5.9327158257565819e-20  5.7119866428905324 1.5896664144348154e-20  5.6405868098544012 -4.2594983198268843e-21  5.5691869768182691 1.1413291349593562e-21  5.4977871437821388 -3.0581822001054528e-22  5.4263873107460059 8.1943745082826e-23  5.3549874777098747 -2.1956760320758114e-23  5.2835876446737418 5.8832962002065594e-24  5.2121878116376115 -1.5764244800680999e-24  5.1407879786014785 4.2240172006584712e-25  5.06938814556535 -1.1318240019528994e-25  4.9979883125292162 3.0327880715312609e-26  4.9265884794930841 -8.1291226659600642e-27  4.855188646456952 2.1886099485277074e-27  4.7837888134208226 -6.2531712815077384e-28  4.7361889247300679 -0  4.7123889803846897 0 
 0 4 0.071399833036131663 1 0.14279966607226333 1 0.21419949910839498 1 0.28559933214452665 1 0.35699916518065833 1 0.42839899821678995 1 0.49979883125292163 1 0.5711986642890533 1 0.64259849732518493 1 0.71399833036131666 1 0.78539816339744828 1 0.8567979964335799 1 0.92819782946971163 1 0.99959766250584325 1 1.070997495541975 1 1.1423973285781066 1 1.2137971616142382 1 1.2851969946503699 1 1.3565968276865017 1 1.4279966607226333 1 1.4993964937587649 1 1.5707963267948966 4
1 5.8700000000000001 -11.969999999999999 0 1 
1 0 0 0 1 
1 0 -0.62999999999999989 1 0 
1 6.2831853071795862 0 0 1 
1 0 -3.7999999999999998 1 0 
1 0 2.0049999999999999 1 0 
1 1.95 -1.8999999999999995 0 1 
1 2.0049999999999999 -1.9000000000000004 0 -1 
1 0 -8.8000000000000007 1 0 
1 0 2.0049999999999999 1 0 
1 0 0 1 0 
1 0 -5 1 0 
1 1.95 0 0 1 
1 0 5 1 0 
1 0 0 1 0 
1 0 0 1 0 
1 1.95 0 0 -1 
1 0 0 0 1 
1 1.95 0 0 1 
1 0 0 1 0 
1 6.2831853071795862 5.8700000000000001 -1 0 
7 0 0  3 25 23  6.2831853071795862 8.8817841970012523e-16  6.2593853628342089 3.4540271877227088e-16  6.2117854741434568 -1.6030195965518254e-16  6.1403856411073203 4.2952780634732552e-17  6.0689858080711936 -1.1509162883747756e-17  5.9975859750350597 3.0838709002584633e-18  5.9261861419989268 -8.2632071728609375e-19  5.8547863089627965 2.2141196888591501e-19  5.7833864759266662 -5.9327158257565819e-20  5.7119866428905324 1.5896664144348154e-20  5.6405868098544012 -4.2594983198268843e-21  5.5691869768182691 1.1413291349593562e-21  5.4977871437821388 -3.0581822001054528e-22  5.4263873107460059 8.1943745082826e-23  5.3549874777098747 -2.1956760320758114e-23  5.2835876446737418 5.8832962002065594e-24  5.2121878116376115 -1.5764244800680999e-24  5.1407879786014785 4.2240172006584712e-25  5.06938814556535 -1.1318240019528994e-25  4.9979883125292162 3.0327880715312609e-26  4.9265884794930841 -8.1291226659600642e-27  4.855188646456952 2.1886099485277074e-27  4.7837888134208217 -6.2531712815077384e-28  4.736188924730067 -0  4.7123889803846897 0 
 0 4 0.071399833036131663 1 0.14279966607226333 1 0.21419949910839498 1 0.28559933214452665 1 0.35699916518065833 1 0.42839899821678995 1 0.49979883125292163 1 0.5711986642890533 1 0.64259849732518493 1 0.71399833036131666 1 0.78539816339744828 1 0.8567979964335799 1 0.92819782946971163 1 0.99959766250584325 1 1.070997495541975 1 1.1423973285781066 1 1.2137971616142382 1 1.2851969946503699 1 1.3565968276865017 1 1.4279966607226333 1 1.4993964937587649 1 1.5707963267948966 4
1 4.7123889803846897 0 0 1 
1 0 12.82 1 0 
1 5.8700000000000001 12.82 0 -1 
1 0 0 0 1 
1 0 0 1 0 
7 0 0  3 25 23  4.7123889803846897 0  4.7123889803846897 0.023799944345377293  4.7123889803846897 0.071399833036131566  4.7123889803846888 0.14279966607226258  4.7123889803846897 0.21419949910839459  4.7123889803846906 0.28559933214452704  4.7123889803846888 0.35699916518065805  4.7123889803846906 0.42839899821678967  4.7123889803846906 0.49979883125292091  4.7123889803846888 0.57119866428905364  4.7123889803846906 0.64259849732518493  4.7123889803846888 0.71399833036131621  4.7123889803846897 0.78539816339744828  4.7123889803846897 0.85679799643358046  4.7123889803846897 0.92819782946971152  4.7123889803846897 0.99959766250584281  4.7123889803846888 1.0709974955419754  4.7123889803846897 1.1423973285781073  4.7123889803846906 1.2137971616142385  4.7123889803846906 1.2851969946503699  4.7123889803846888 1.3565968276865019  4.7123889803846897 1.4279966607226338  4.7123889803846897 1.4993964937587654  4.7123889803846906 1.546996382449519  4.7123889803846897 1.5707963267948966 
 0 4 0.071399833036131663 1 0.14279966607226333 1 0.21419949910839498 1 0.28559933214452665 1 0.35699916518065833 1 0.42839899821678995 1 0.49979883125292163 1 0.5711986642890533 1 0.64259849732518493 1 0.71399833036131666 1 0.78539816339744828 1 0.8567979964335799 1 0.92819782946971163 1 0.99959766250584325 1 1.070997495541975 1 1.1423973285781066 1 1.2137971616142382 1 1.2851969946503699 1 1.3565968276865017 1 1.4279966607226333 1 1.4993964937587649 1 1.5707963267948966 4
1 0 12.19 1 0 
1 6.2831853071795862 0 0 1 
1 0 -8.8817841970012523e-16 1 5.6543194337129189e-16 
7 0 0  3 25 23  4.7123889803846915 0  4.7123889803846915 0.023799944345377293  4.7123889803846923 0.071399833036131649  4.7123889803846897 0.14279966607226288  4.7123889803846923 0.2141994991083945  4.7123889803846915 0.2855993321445271  4.7123889803846906 0.35699916518065805  4.7123889803846915 0.42839899821678967  4.7123889803846915 0.49979883125292091  4.7123889803846906 0.57119866428905364  4.7123889803846923 0.64259849732518493  4.7123889803846915 0.71399833036131621  4.7123889803846915 0.78539816339744828  4.7123889803846915 0.85679799643358046  4.7123889803846906 0.92819782946971152  4.7123889803846932 0.99959766250584281  4.7123889803846879 1.0709974955419754  4.7123889803846906 1.1423973285781073  4.7123889803846906 1.2137971616142385  4.7123889803846906 1.2851969946503699  4.7123889803846888 1.3565968276865019  4.7123889803846897 1.4279966607226338  4.7123889803846897 1.4993964937587654  4.7123889803846906 1.546996382449519  4.7123889803846897 1.5707963267948966 
 0 4 0.071399833036131663 1 0.14279966607226333 1 0.21419949910839498 1 0.28559933214452665 1 0.35699916518065833 1 0.42839899821678995 1 0.49979883125292163 1 0.5711986642890533 1 0.64259849732518493 1 0.71399833036131666 1 0.78539816339744828 1 0.8567979964335799 1 0.92819782946971163 1 0.99959766250584325 1 1.070997495541975 1 1.1423973285781066 1 1.2137971616142382 1 1.2851969946503699 1 1.3565968276865017 1 1.4279966607226333 1 1.4993964937587649 1 1.5707963267948966 4
1 0 11.34 1 0 
1 6.2831853071795862 0 0 1 
1 6.2831853071795862 1.5707963267948966 -1 0 
1 6.2831853071795862 1.5707963267948966 -1 0 
1 0 0 1 0 
1 0 0 1 0 
1 0 0 0 -1 
1 0 0 0 1 
1 0 -5 1 0 
1 0 0 1 0 
1 1.95 0 0 -1 
1 0 0 0 1 
1 0 0 1 0 
1 0 2.0100000000000007 1 0 
1 0 0 0 -1 
1 2.0100000000000007 0 0 1 
1 0 -5 1 0 
1 0 2.0100000000000007 1 0 
1 1.95 0 0 -1 
1 2.0100000000000007 0 0 1 
1 0 0 0 1 
1 0 0 1 0 
1 1.95 0 0 1 
1 0 0 1 0 
1 0 0 0 1 
1 0 5 1 0 
1 1.95 0 0 1 
1 0 5 1 0 
1 0 0 1 0 
1 0 0 1 0 
1 0 0 0 -1 
1 0 0 0 1 
1 0 -5 1 0 
1 0 0 1 0 
1 1.95 0 0 -1 
1 0 0 0 1 
1 0 0 1 0 
1 0 2.0100000000000007 1 0 
1 0 0 0 -1 
1 2.0100000000000007 0 0 1 
1 0 -5 1 0 
1 0 2.0100000000000007 1 0 
1 1.95 0 0 -1 
1 2.0100000000000007 0 0 1 
1 0 0 0 1 
1 0 0 1 0 
1 1.95 0 0 1 
1 0 0 1 0 
1 0 0 0 1 
1 0 5 1 0 
1 1.95 0 0 1 
1 0 5 1 0 
Curves 84
1 -6.7249999999999996 -5.6699999999999999 5.8700000000000001 0 1 0 
1 -6.7249999999999996 -5.6699999999999999 0 0 0 1 
1 -6.7249999999999996 -6.2999999999999998 0 0 1 0 
1 -6.7249999999999996 -2.5 0 0 0 1 
1 -6.7249999999999996 -4.4000000000000004 1.95 0 -1 0 
1 -6.7249999999999996 2.5 0 0 0 1 
1 -6.7249999999999996 -6.2999999999999998 0 0 1 0 
1 -6.7249999999999996 5.6699999999999999 0 0 0 1 
2 -6.0949999999999998 -5.6699999999999999 5.8700000000000001 0 1 -0 -1 0 0 0 0 1 0.63
1 -6.0949999999999998 -5.6699999999999999 6.5 0 1 0 
2 -6.0949999999999998 5.6699999999999999 5.8700000000000001 0 1 -0 -1 0 0 0 0 1 0.63
2 -6.0949999999999998 5.6699999999999999 5.8700000000000001 0 0 -1 -1 1.409807015397e-15 0 1.409807015397e-15 1 0 0.63
1 -6.0949999999999998 6.2999999999999998 0 0 0 1 
2 -6.0949999999999998 5.6699999999999999 0 -0 -0 -1 0 -1 0 -1 0 0 0.63
2 -6.0949999999999998 -5.6699999999999999 0 -0 0 1 0 -1 0 1 0 0 0.63
1 -6.7249999999999996 -6.2999999999999998 0 1 0 0 
2 6.0949999999999998 -5.6699999999999999 0 -0 -0 -1 0 -1 0 -1 0 0 0.63
1 6.7249999999999996 -6.2999999999999998 0 0 1 0 
1 4.7199999999999998 -2.5 0 1 0 0 
1 4.7199999999999998 -2.5 0 0 1 0 
1 4.7199999999999998 2.5 0 1 0 0 
1 6.7249999999999996 -6.2999999999999998 0 0 1 0 
2 6.0949999999999998 5.6699999999999999 0 -0 0 1 0 -1 0 1 0 0 0.63
1 -6.7249999999999996 6.2999999999999998 0 1 0 0 
1 -6.7300000000000004 2.5 0 1 0 0 
1 -4.7199999999999998 -2.5 0 0 1 0 
1 -6.7300000000000004 -2.5 0 1 0 0 
1 -6.7300000000000004 2.5 1.95 1 0 0 
1 -4.7199999999999998 2.5 0 0 0 1 
1 -6.7300000000000004 -2.5 1.95 1 0 0 
1 -4.7199999999999998 -2.5 1.95 0 1 0 
1 -4.7199999999999998 -2.5 0 0 0 1 
1 -6.0949999999999998 -6.2999999999999998 0 0 0 1 
2 -6.0949999999999998 -5.6699999999999999 5.8700000000000001 -0 -0 -1 0 -1 0 -1 0 0 0.63
2 -6.0949999999999998 -5.6699999999999999 5.8700000000000001 -1 0 0 0 -1 0 0 0 1 0.63
1 6.0949999999999998 -5.6699999999999999 6.5 -1 -0 -0 
1 6.0949999999999998 5.6699999999999999 6.5 -0 -1 -0 
1 -6.0949999999999998 5.6699999999999999 6.5 1 0 0 
2 -6.0949999999999998 5.6699999999999999 5.8700000000000001 1 -1.3485746754400001e-15 0 1.3485746754400001e-15 1 0 -0 0 1 0.63
1 -6.0949999999999998 6.2999999999999998 5.8700000000000001 1 0 0 
1 6.0949999999999998 6.2999999999999998 0 0 0 1 
1 6.7249999999999996 5.6699999999999999 0 0 0 1 
2 6.0949999999999998 5.6699999999999999 5.8700000000000001 0 0 -1 0 1 0 1 -0 0 0.63
1 6.7249999999999996 5.6699999999999999 5.8700000000000001 -0 -1 -0 
1 6.7249999999999996 -5.6699999999999999 0 0 0 1 
1 6.7249999999999996 -2.5 0 0 0 1 
1 6.7249999999999996 -4.4000000000000004 1.95 0 -1 0 
1 6.7249999999999996 2.5 0 0 0 1 
1 4.7199999999999998 2.5 0 0 0 1 
1 4.7199999999999998 2.5 1.95 1 0 0 
1 4.7199999999999998 -2.5 0 0 0 1 
1 4.7199999999999998 -2.5 1.95 0 1 0 
1 4.7199999999999998 -2.5 1.95 1 0 0 
2 6.0949999999999998 -5.6699999999999999 5.8700000000000001 0 0 -1 1 0 0 0 -1 0 0.63
1 6.0949999999999998 -6.2999999999999998 0 0 0 1 
1 6.0949999999999998 -6.2999999999999998 5.8700000000000001 -1 -0 -0 
2 6.0949999999999998 -5.6699999999999999 5.8700000000000001 -1 -6.1232339957370002e-17 0 6.1232339957370002e-17 -1 0 0 0 1 0.63
2 6.0949999999999998 5.6699999999999999 5.8700000000000001 1 0 0 -0 1 0 0 -0 1 0.63
2 6.0949999999999998 5.6699999999999999 5.8700000000000001 1.3934999695079999e-15 -1 0 1 1.3934999695079999e-15 0 -0 0 1 0.63
2 6.0949999999999998 -5.6699999999999999 5.8700000000000001 0 -1 0 1 0 0 -0 0 1 0.63
1 -6.7300000000000004 -2.5 0 0 0 1 
1 -6.7300000000000004 -2.5 0 0 1 0 
1 -6.7300000000000004 2.5 0 0 0 1 
1 -6.7300000000000004 -2.5 1.95 0 1 0 
1 -4.7199999999999998 -2.5 0 0 0 1 
1 -4.7199999999999998 -2.5 0 0 1 0 
1 -4.7199999999999998 2.5 0 0 0 1 
1 -4.7199999999999998 -2.5 1.95 0 1 0 
1 -6.7300000000000004 -2.5 0 1 0 0 
1 -6.7300000000000004 -2.5 1.95 1 0 0 
1 -6.7300000000000004 2.5 0 1 0 0 
1 -6.7300000000000004 2.5 1.95 1 0 0 
1 4.7199999999999998 -2.5 0 0 0 1 
1 4.7199999999999998 -2.5 0 0 1 0 
1 4.7199999999999998 2.5 0 0 0 1 
1 4.7199999999999998 -2.5 1.95 0 1 0 
1 6.7300000000000004 -2.5 0 0 0 1 
1 6.7300000000000004 -2.5 0 0 1 0 
1 6.7300000000000004 2.5 0 0 0 1 
1 6.7300000000000004 -2.5 1.95 0 1 0 
1 4.7199999999999998 -2.5 0 1 0 0 
1 4.7199999999999998 -2.5 1.95 1 0 0 
1 4.7199999999999998 2.5 0 1 0 0 
1 4.7199999999999998 2.5 1.95 1 0 0 
Polygon3D 0
PolygonOnTriangulations 0
Surfaces 38
1 -6.7249999999999996 -6.2999999999999998 0 1 0 0 0 0 1 0 -1 0 
2 -6.0949999999999998 -5.6699999999999999 5.8700000000000001 0 1 0 -1 0 0 0 -0 1 0.63
2 -6.0949999999999998 -5.6699999999999999 0 0 0 1 -1 0 0 0 -1 0 0.63
1 -6.7249999999999996 -6.2999999999999998 0 0 0 1 1 0 -0 -0 1 0 
1 -6.7300000000000004 -2.5 0 0 1 0 0 -0 1 1 0 -0 
1 -6.7300000000000004 -2.5 1.95 0 0 1 1 0 -0 -0 1 0 
1 -6.7300000000000004 2.5 0 0 1 0 0 -0 1 1 0 -0 
2 -6.0949999999999998 5.6699999999999999 0 0 0 1 -1 0 0 0 -1 0 0.63
4 -6.0949999999999998 -5.6699999999999999 5.8700000000000001 0 0 1 0 -1 0 1 0 -0 0.63
1 -6.7249999999999996 -6.2999999999999998 6.5 0 0 1 1 0 -0 -0 1 0 
4 -6.0949999999999998 5.6699999999999999 5.8700000000000001 0 0 1 -1 1.409807015397e-15 0 -1.409807015397e-15 -1 0 0.63
1 -6.7249999999999996 6.2999999999999998 0 0 1 0 0 -0 1 1 0 -0 
1 -6.7249999999999996 -6.2999999999999998 0 0 1 0 0 -0 1 1 0 -0 
2 6.0949999999999998 -5.6699999999999999 0 0 0 1 1 0 -0 -0 1 0 0.63
1 6.7249999999999996 -6.2999999999999998 0 1 0 0 0 0 1 0 -1 0 
1 4.7199999999999998 -2.5 0 0 1 0 0 -0 1 1 0 -0 
1 4.7199999999999998 -2.5 0 1 0 0 0 0 1 0 -1 0 
1 4.7199999999999998 2.5 0 0 1 0 0 -0 1 1 0 -0 
2 6.0949999999999998 5.6699999999999999 0 0 0 1 1 0 -0 -0 1 0 0.63
1 -4.7199999999999998 -2.5 0 1 0 0 0 0 1 0 -1 0 
2 6.0949999999999998 -5.6699999999999999 5.8700000000000001 -1 -0 -0 0 -1 0 -0 0 1 0.63
2 6.0949999999999998 5.6699999999999999 5.8700000000000001 -0 -1 -0 1 -0 0 -0 0 1 0.63
2 -6.0949999999999998 5.6699999999999999 5.8700000000000001 1 0 0 -0 1 0 0 -0 1 0.63
4 6.0949999999999998 5.6699999999999999 5.8700000000000001 0 0 1 0 1 0 -1 0 0 0.63
1 4.7199999999999998 -2.5 1.95 0 0 1 1 0 -0 -0 1 0 
4 6.0949999999999998 -5.6699999999999999 5.8700000000000001 0 0 1 1 0 -0 -0 1 0 0.63
1 -6.7300000000000004 -2.5 0 1 0 0 0 0 1 0 -1 0 
1 -6.7300000000000004 -2.5 0 0 1 0 0 -0 1 1 0 -0 
1 -6.7300000000000004 -2.5 0 0 0 1 1 0 -0 -0 1 0 
1 -6.7300000000000004 2.5 0 0 1 0 0 -0 1 1 0 -0 
1 -6.7300000000000004 -2.5 1.95 0 0 1 1 0 -0 -0 1 0 
1 -4.7199999999999998 -2.5 0 1 0 0 0 0 1 0 -1 0 
1 4.7199999999999998 -2.5 0 1 0 0 0 0 1 0 -1 0 
1 4.7199999999999998 -2.5 0 0 1 0 0 -0 1 1 0 -0 
1 4.7199999999999998 -2.5 0 0 0 1 1 0 -0 -0 1 0 
1 4.7199999999999998 2.5 0 0 1 0 0 -0 1 1 0 -0 
1 4.7199999999999998 -2.5 1.95 0 0 1 1 0 -0 -0 1 0 
1 6.7300000000000004 -2.5 0 1 0 0 0 0 1 0 -1 0 
Triangulations 0

TShapes 228
Co

0100000
*
Ve
1e-07
-6.725 -5.67 5.87
0 0

0101101
*
Ve
1e-07
-6.725 5.67 5.87
0 0

0101101
*
Ed
 1e-07 1 1 0
1  1 0 0 11.34
2  1 1 0 0 11.34
2  2 2 0 0 11.34
4 G1 1 0 2 0
0

0101000
+227 7 -226 7 *
Ve
1e-07
-6.725 -5.67 0
0 0

0101101
*
Ed
 1e-07 1 1 0
1  2 0 0 5.87
2  3 1 0 0 5.87
2  4 3 0 0 5.87
4 G1 1 0 3 0
0

0101000
+224 7 -227 7 *
Ve
1e-07
-6.725 -2.5 0
0 0

0101101
*
Ed
 1e-07 1 1 0
1  3 0 0.63 3.8
2  5 1 0 0.63 3.8
2  6 4 0 0.63 3.8
0

0101000
+224 7 -222 7 *
Ve
1e-07
-6.725 -2.5 1.95
0 0

0101101
*
Ed
 1e-07 1 1 0
1  4 0 0 1.95
2  7 1 0 0 1.95
2  8 5 0 0 1.95
0

0101000
+222 7 -220 7 *
Ve
1e-07
-6.725 2.5 1.95
0 0

0101101
*
Ed
 1e-07 1 1 0
1  5 0 -6.9 -1.9
2  9 1 0 -6.9 -1.9
2  10 6 0 -6.9 -1.9
0

0101000
+218 7 -220 7 *
Ve
1e-07
-6.725 2.5 0
0 0

0101101
*
Ed
 1e-07 1 1 0
1  6 0 0 1.95
2  11 1 0 0 1.95
2  12 7 0 0 1.95
0

0101000
+216 7 -218 7 *
Ve
1e-07
-6.725 5.67 0
0 0

0101101
*
Ed
 1e-07 1 1 0
1  7 0 8.8 11.97
2  13 1 0 8.8 11.97
2  14 4 0 8.8 11.97
0

0101000
+216 7 -214 7 *
Ed
 1e-07 1 1 0
1  8 0 0 5.87
2  15 1 0 0 5.87
2  16 8 0 0 5.87
4 G1 1 0 8 0
0

0101000
+214 7 -226 7 *
Wi

0101100
-225 0 -223 0 +221 0 +219 0 -217 0 -215 0 +213 0 +212 0 *
Fa
0  1e-07 1 0

0101000
+211 0 *
Ve
1e-07
-6.095 -5.67 6.5
0 0

0101101
*
Ed
 1e-07 1 1 0
1  9 0 0 1.5707963267949
2  17 2 0 0 1.5707963267949
2  18 9 0 0 1.5707963267949
4 G1 2 0 9 0
0

0101000
+227 7 -209 7 *
Ve
1e-07
-6.095 5.67 6.5
0 0

0101101
*
Ed
 1e-07 1 1 0
1  10 0 0 11.34
2  19 2 0 0 11.34
2  20 10 0 0 11.34
4 G1 2 0 10 0
0

0101000
+209 7 -207 7 *
Ed
 1e-07 1 1 0
1  11 0 0 1.5707963267949
2  21 2 0 0 1.5707963267949
2  22 11 0 0 1.5707963267949
4 G1 2 0 11 0
0

0101000
+226 7 -207 7 *
Wi

0101100
+208 0 +206 0 -205 0 -225 0 *
Fa
0  1e-07 2 0

0101000
+204 0 *
Ve
1e-07
-6.095 6.3 5.87
0 0

0101101
*
Ed
 1e-07 1 1 0
1  12 0 0 1.5707963267949
2  23 8 0 0 1.5707963267949
2  24 11 0 0 1.5707963267949
4 G1 8 0 11 0
0

0101000
+226 7 -202 7 *
Ve
1e-07
-6.095 6.3 0
0 0

0101101
*
Ed
 1e-07 1 1 0
1  13 0 0 5.87
2  25 8 0 0 5.87
2  26 12 0 0 5.87
4 G1 8 0 12 0
0

0101000
+200 7 -202 7 *
Ed
 1e-07 1 1 0
1  14 0 1.5707963267949 3.14159265358979
2  27 8 0 1.5707963267949 3.14159265358979
2  28 4 0 1.5707963267949 3.14159265358979
0

0101000
+214 7 -200 7 *
Wi

0101100
+201 0 -199 0 -198 0 +212 0 *
Fa
0  1e-07 8 0

0101000
+197 0 *
Ve
1e-07
-6.095 -6.3 0
0 0

0101101
*
Ed
 1e-07 1 1 0
1  15 0 4.71238898038469 6.28318530717959
2  29 4 0 4.71238898038469 6.28318530717959
2  30 3 0 4.71238898038469 6.28318530717959
0

0101000
+224 7 -195 7 *
Ve
1e-07
6.095 -6.3 0
0 0

0101101
*
Ed
 1e-07 1 1 0
1  16 0 0.63 12.82
2  31 4 0 0.63 12.82
2  32 13 0 0.63 12.82
0

0101000
+195 7 -193 7 *
Ve
1e-07
6.725 -5.67 0
0 0

0101101
*
Ed
 1e-07 1 1 0
1  17 0 4.71238898038469 6.28318530717959
2  33 4 0 4.71238898038469 6.28318530717959
2  34 14 0 4.71238898038469 6.28318530717959
0

0101000
+191 7 -193 7 *
Ve
1e-07
6.725 -2.5 0
0 0

0101101
*
Ed
 1e-07 1 1 0
1  18 0 0.63 3.8
2  35 4 0 0.63 3.8
2  36 15 0 0.63 3.8
0

0101000
+191 7 -189 7 *
Ve
1e-07
4.72 -2.5 0
0 0

0101101
*
Ed
 1e-07 1 1 0
1  19 0 0 2.005
2  37 4 0 0 2.005
2  38 16 0 0 2.005
0

0101000
+187 7 -189 7 *
Ve
1e-07
4.72 2.5 0
0 0

0101101
*
Ed
 1e-07 1 1 0
1  20 0 0 5
2  39 4 0 0 5
2  40 17 0 0 5
0

0101000
+187 7 -185 7 *
Ve
1e-07
6.725 2.5 0
0 0

0101101
*
Ed
 1e-07 1 1 0
1  21 0 0 2.005
2  41 4 0 0 2.005
2  42 18 0 0 2.005
0

0101000
+185 7 -183 7 *
Ve
1e-07
6.725 5.67 0
0 0

0101101
*
Ed
 1e-07 1 1 0
1  22 0 8.8 11.97
2  43 4 0 8.8 11.97
2  44 15 0 8.8 11.97
0

0101000
+183 7 -181 7 *
Ve
1e-07
6.095 6.3 0
0 0

0101101
*
Ed
 1e-07 1 1 0
1  23 0 1.5707963267949 3.14159265358979
2  45 4 0 1.5707963267949 3.14159265358979
2  46 19 0 1.5707963267949 3.14159265358979
0

0101000
+181 7 -179 7 *
Ed
 1e-07 1 1 0
1  24 0 0.63 12.82
2  47 4 0 0.63 12.82
2  48 12 0 0.63 12.82
0

0101000
+200 7 -179 7 *
Ve
1e-07
-4.72 2.5 0
0 0

0101101
*
Ed
 1e-07 1 1 0
1  25 0 0.00500000000000078 2.01
2  49 4 0 0.00500000000000078 2.01
2  50 7 0 0.00500000000000078 2.01
0

0101000
+216 7 -176 7 *
Ve
1e-07
-4.72 -2.5 0
0 0

0101101
*
Ed
 1e-07 1 1 0
1  26 0 0 5
2  51 4 0 0 5
2  52 20 0 0 5
0

0101000
+174 7 -176 7 *
Ed
 1e-07 1 1 0
1  27 0 0.00500000000000078 2.01
2  53 4 0 0.00500000000000078 2.01
2  54 5 0 0.00500000000000078 2.01
0

0101000
+222 7 -174 7 *
Wi

0101100
-221 0 +194 0 +192 0 -190 0 +188 0 -186 0 +184 0 +182 0 +180 0 +178 0 
-177 0 -198 0 -213 0 +175 0 -173 0 -172 0 *
Fa
0  1e-07 4 0

0101000
+171 0 *
Ve
1e-07
-4.72 2.5 1.95
0 0

0101101
*
Ed
 1e-07 1 1 0
1  28 0 0.00500000000000078 2.01
2  55 7 0 0.00500000000000078 2.01
2  56 6 0 0.00500000000000078 2.01
0

0101000
+218 7 -169 7 *
Ed
 1e-07 1 1 0
1  29 0 0 1.95
2  57 7 0 0 1.95
2  58 20 0 0 1.95
0

0101000
+176 7 -169 7 *
Wi

0101100
-175 0 +215 0 +168 0 -167 0 *
Fa
0  1e-07 7 0

0101000
+166 0 *
Ve
1e-07
-4.72 -2.5 1.95
0 0

0101101
*
Ed
 1e-07 1 1 0
1  30 0 0.00500000000000078 2.01
2  59 6 0 0.00500000000000078 2.01
2  60 5 0 0.00500000000000078 2.01
0

0101000
+220 7 -164 7 *
Ed
 1e-07 1 1 0
1  31 0 0 5
2  61 6 0 0 5
2  62 20 0 0 5
0

0101000
+164 7 -169 7 *
Wi

0101100
-168 0 +217 0 +163 0 +162 0 *
Fa
0  1e-07 6 0

0101000
+161 0 *
Ed
 1e-07 1 1 0
1  32 0 0 1.95
2  63 5 0 0 1.95
2  64 20 0 0 1.95
0

0101000
+174 7 -164 7 *
Wi

0101100
-172 0 +219 0 +163 0 -159 0 *
Fa
0  1e-07 5 0

0101000
+158 0 *
Ve
1e-07
-6.095 -6.3 5.87
0 0

0101101
*
Ed
 1e-07 1 1 0
1  33 0 0 5.87
2  65 3 0 0 5.87
2  66 13 0 0 5.87
4 G1 3 0 13 0
0

0101000
+195 7 -156 7 *
Ed
 1e-07 1 1 0
1  34 0 0 1.5707963267949
2  67 3 0 0 1.5707963267949
2  68 9 0 0 1.5707963267949
4 G1 3 0 9 0
0

0101000
+156 7 -227 7 *
Wi

0101100
-223 0 +194 0 +155 0 +154 0 *
Fa
0  1e-07 3 0

0101000
+153 0 *
Ed
 1e-07 1 1 1
2  69 9 0 0 1.5707963267949
0

0101000
+209 7 -209 7 *
Ed
 1e-07 1 1 0
1  35 0 0 1.5707963267949
2  70 9 0 0 1.5707963267949
2  71 21 0 0 1.5707963267949
4 G1 9 0 21 0
0

0101000
+156 7 -209 7 *
Wi

0101100
+151 0 -208 0 -154 0 +150 0 *
Fa
0  1e-07 9 0

0101000
+149 0 *
Ve
1e-07
6.095 -5.67 6.5
0 0

0101101
*
Ed
 1e-07 1 1 0
1  36 0 -0 12.19
2  72 10 0 -0 12.19
2  73 21 0 -0 12.19
4 G1 10 0 21 0
0

0101000
+147 7 -209 7 *
Ve
1e-07
6.095 5.67 6.5
0 0

0101101
*
Ed
 1e-07 1 1 0
1  37 0 -0 11.34
2  74 10 0 -0 11.34
2  75 22 0 -0 11.34
4 G1 10 0 22 0
0

0101000
+145 7 -147 7 *
Ed
 1e-07 1 1 0
1  38 0 0 12.19
2  76 10 0 0 12.19
2  77 23 0 0 12.19
4 G1 10 0 23 0
0

0101000
+207 7 -145 7 *
Wi

0101100
-206 0 -146 0 -144 0 -143 0 *
Fa
0  1e-07 10 0

0101000
+142 0 *
Ed
 1e-07 1 1 1
2  78 11 0 0 1.5707963267949
0

0101000
+207 7 -207 7 *
Ed
 1e-07 1 1 0
1  39 0 0 1.5707963267949
2  79 11 0 0 1.5707963267949
2  80 23 0 0 1.5707963267949
4 G1 11 0 23 0
0

0101000
+202 7 -207 7 *
Wi

0101100
+140 0 -139 0 -201 0 +205 0 *
Fa
0  1e-07 11 0

0101000
+138 0 *
Ve
1e-07
6.095 6.3 5.87
0 0

0101101
*
Ed
 1e-07 1 1 0
1  40 0 0 12.19
2  81 12 0 0 12.19
2  82 23 0 0 12.19
4 G1 12 0 23 0
0

0101000
+202 7 -136 7 *
Ed
 1e-07 1 1 0
1  41 0 0 5.87
2  83 12 0 0 5.87
2  84 19 0 0 5.87
4 G1 12 0 19 0
0

0101000
+179 7 -136 7 *
Wi

0101100
+199 0 +135 0 -134 0 -177 0 *
Fa
0  1e-07 12 0

0101000
+133 0 *
Wi

0101100
-159 0 +173 0 +167 0 -162 0 *
Fa
0  1e-07 20 0

0101000
+131 0 *
Ve
1e-07
6.725 5.67 5.87
0 0

0101101
*
Ed
 1e-07 1 1 0
1  42 0 0 5.87
2  85 19 0 0 5.87
2  86 15 0 0 5.87
4 G1 19 0 15 0
0

0101000
+181 7 -129 7 *
Ed
 1e-07 1 1 0
1  43 0 0 1.5707963267949
2  87 19 0 0 1.5707963267949
2  88 24 0 0 1.5707963267949
4 G1 19 0 24 0
0

0101000
+136 7 -129 7 *
Wi

0101100
-128 0 +178 0 +134 0 +127 0 *
Fa
0  1e-07 19 0

0101000
+126 0 *
Ve
1e-07
6.725 -5.67 5.87
0 0

0101101
*
Ed
 1e-07 1 1 0
1  44 0 -0 11.34
2  89 15 0 -0 11.34
2  90 22 0 -0 11.34
4 G1 15 0 22 0
0

0101000
+129 7 -124 7 *
Ed
 1e-07 1 1 0
1  45 0 0 5.87
2  91 15 0 0 5.87
2  92 14 0 0 5.87
4 G1 15 0 14 0
0

0101000
+191 7 -124 7 *
Ve
1e-07
6.725 -2.5 1.95
0 0

0101101
*
Ed
 1e-07 1 1 0
1  46 0 0 1.95
2  93 15 0 0 1.95
2  94 16 0 0 1.95
0

0101000
+189 7 -121 7 *
Ve
1e-07
6.725 2.5 1.95
0 0

0101101
*
Ed
 1e-07 1 1 0
1  47 0 -6.9 -1.9
2  95 15 0 -6.9 -1.9
2  96 25 0 -6.9 -1.9
0

0101000
+119 7 -121 7 *
Ed
 1e-07 1 1 0
1  48 0 0 1.95
2  97 15 0 0 1.95
2  98 18 0 0 1.95
0

0101000
+183 7 -119 7 *
Wi

0101100
+123 0 -122 0 +188 0 +120 0 -118 0 -117 0 +180 0 +128 0 *
Fa
0  1e-07 15 0

0101000
+116 0 *
Ve
1e-07
4.72 2.5 1.95
0 0

0101101
*
Ed
 1e-07 1 1 0
1  49 0 0 1.95
2  99 18 0 0 1.95
2  100 17 0 0 1.95
0

0101000
+185 7 -114 7 *
Ed
 1e-07 1 1 0
1  50 0 0 2.005
2  101 18 0 0 2.005
2  102 25 0 0 2.005
0

0101000
+114 7 -119 7 *
Wi

0101100
-182 0 +113 0 +112 0 -117 0 *
Fa
0  1e-07 18 0

0101000
+111 0 *
Ve
1e-07
4.72 -2.5 1.95
0 0

0101101
*
Ed
 1e-07 1 1 0
1  51 0 0 1.95
2  103 17 0 0 1.95
2  104 16 0 0 1.95
0

0101000
+187 7 -109 7 *
Ed
 1e-07 1 1 0
1  52 0 0 5
2  105 17 0 0 5
2  106 25 0 0 5
0

0101000
+109 7 -114 7 *
Wi

0101100
-108 0 +184 0 +113 0 -107 0 *
Fa
0  1e-07 17 0

0101000
+106 0 *
Ed
 1e-07 1 1 0
1  53 0 0 2.005
2  107 16 0 0 2.005
2  108 25 0 0 2.005
0

0101000
+109 7 -121 7 *
Wi

0101100
-186 0 +108 0 +104 0 -120 0 *
Fa
0  1e-07 16 0

0101000
+103 0 *
Ve
1e-07
6.095 -6.3 5.87
0 0

0101101
*
Ed
 1e-07 1 1 0
1  54 0 0 1.5707963267949
2  109 14 0 0 1.5707963267949
2  110 26 0 0 1.5707963267949
4 G1 14 0 26 0
0

0101000
+124 7 -101 7 *
Ed
 1e-07 1 1 0
1  55 0 0 5.87
2  111 14 0 0 5.87
2  112 13 0 0 5.87
4 G1 14 0 13 0
0

0101000
+193 7 -101 7 *
Wi

0101100
+100 0 -99 0 -190 0 +122 0 *
Fa
0  1e-07 14 0

0101000
+98 0 *
Ed
 1e-07 1 1 0
1  56 0 -0 12.19
2  113 13 0 -0 12.19
2  114 21 0 -0 12.19
4 G1 13 0 21 0
0

0101000
+101 7 -156 7 *
Wi

0101100
+155 0 -96 0 -99 0 -192 0 *
Fa
0  1e-07 13 0

0101000
+95 0 *
Ed
 1e-07 1 1 0
1  57 0 0 1.5707963267949
2  115 21 0 0 1.5707963267949
2  116 26 0 0 1.5707963267949
4 G1 21 0 26 0
0

0101000
+101 7 -147 7 *
Wi

0101100
+93 0 +146 0 -150 0 -96 0 *
Fa
0  1e-07 21 0

0101000
+92 0 *
Ed
 1e-07 1 1 0
1  58 0 0 1.5707963267949
2  117 23 0 0 1.5707963267949
2  118 24 0 0 1.5707963267949
4 G1 23 0 24 0
0

0101000
+136 7 -145 7 *
Wi

0101100
+139 0 +143 0 -90 0 -135 0 *
Fa
0  1e-07 23 0

0101000
+89 0 *
Ed
 1e-07 1 1 0
1  59 0 0 1.5707963267949
2  119 22 0 0 1.5707963267949
2  120 24 0 0 1.5707963267949
4 G1 22 0 24 0
0

0101000
+129 7 -145 7 *
Ed
 1e-07 1 1 0
1  60 0 0 1.5707963267949
2  121 22 0 0 1.5707963267949
2  122 26 0 0 1.5707963267949
4 G1 22 0 26 0
0

0101000
+124 7 -147 7 *
Wi

0101100
+87 0 +144 0 -86 0 -123 0 *
Fa
0  1e-07 22 0

0101000
+85 0 *
Ed
 1e-07 1 1 1
2  123 24 0 0 1.5707963267949
0

0101000
+145 7 -145 7 *
Wi

0101100
+83 0 -87 0 -127 0 +90 0 *
Fa
0  1e-07 24 0

0101000
+82 0 *
Wi

0101100
-112 0 -107 0 +104 0 -118 0 *
Fa
0  1e-07 25 0

0101000
+80 0 *
Ed
 1e-07 1 1 1
2  124 26 0 0 1.5707963267949
0

0101000
+147 7 -147 7 *
Wi

0101100
+78 0 -93 0 -100 0 +86 0 *
Fa
0  1e-07 26 0

0101000
+77 0 *
Sh

0101100
-210 0 +203 0 +196 0 -170 0 -165 0 -160 0 +157 0 +152 0 +148 0 +141 0 
+137 0 +132 0 -130 0 +125 0 +115 0 -110 0 +105 0 +102 0 +97 0 -94 0 
+91 0 +88 0 +84 0 +81 0 -79 0 +76 0 *
So

0100000
+75 0 *
Co

0100000
+74 5 *
Ve
1e-07
-6.73 -2.5 0
0 0

0101101
*
Ve
1e-07
-6.73 -2.5 1.95
0 0

0101101
*
Ed
 1e-07 1 1 0
1  61 0 0 1.95
2  125 27 0 0 1.95
2  126 28 0 0 1.95
0

0101000
+72 10 -71 10 *
Ve
1e-07
-6.73 2.5 0
0 0

0101101
*
Ed
 1e-07 1 1 0
1  62 0 0 5
2  127 27 0 0 5
2  128 29 0 0 5
0

0101000
+72 10 -69 10 *
Ve
1e-07
-6.73 2.5 1.95
0 0

0101101
*
Ed
 1e-07 1 1 0
1  63 0 0 1.95
2  129 27 0 0 1.95
2  130 30 0 0 1.95
0

0101000
+69 10 -67 10 *
Ed
 1e-07 1 1 0
1  64 0 0 5
2  131 27 0 0 5
2  132 31 0 0 5
0

0101000
+71 10 -67 10 *
Wi

0101100
-70 0 +68 0 +66 0 -65 0 *
Fa
0  1e-07 27 0

0101000
+64 0 *
Ve
1e-07
-4.72 -2.5 0
0 0

0101101
*
Ve
1e-07
-4.72 -2.5 1.95
0 0

0101101
*
Ed
 1e-07 1 1 0
1  65 0 0 1.95
2  133 32 0 0 1.95
2  134 28 0 0 1.95
0

0101000
+62 10 -61 10 *
Ve
1e-07
-4.72 2.5 0
0 0

0101101
*
Ed
 1e-07 1 1 0
1  66 0 0 5
2  135 32 0 0 5
2  136 29 0 0 5
0

0101000
+62 10 -59 10 *
Ve
1e-07
-4.72 2.5 1.95
0 0

0101101
*
Ed
 1e-07 1 1 0
1  67 0 0 1.95
2  137 32 0 0 1.95
2  138 30 0 0 1.95
0

0101000
+59 10 -57 10 *
Ed
 1e-07 1 1 0
1  68 0 0 5
2  139 32 0 0 5
2  140 31 0 0 5
0

0101000
+61 10 -57 10 *
Wi

0101100
-60 0 +58 0 +56 0 -55 0 *
Fa
0  1e-07 32 0

0101000
+54 0 *
Ed
 1e-07 1 1 0
1  69 0 0 2.01
2  141 28 0 0 2.01
2  142 29 0 0 2.01
0

0101000
+72 10 -62 10 *
Ed
 1e-07 1 1 0
1  70 0 0 2.01
2  143 28 0 0 2.01
2  144 31 0 0 2.01
0

0101000
+71 10 -61 10 *
Wi

0101100
-52 0 +70 0 +51 0 -60 0 *
Fa
0  1e-07 28 0

0101000
+50 0 *
Ed
 1e-07 1 1 0
1  71 0 0 2.01
2  145 30 0 0 2.01
2  146 29 0 0 2.01
0

0101000
+69 10 -59 10 *
Ed
 1e-07 1 1 0
1  72 0 0 2.01
2  147 30 0 0 2.01
2  148 31 0 0 2.01
0

0101000
+67 10 -57 10 *
Wi

0101100
-48 0 +66 0 +47 0 -56 0 *
Fa
0  1e-07 30 0

0101000
+46 0 *
Wi

0101100
-68 0 +52 0 +58 0 -48 0 *
Fa
0  1e-07 29 0

0101000
+44 0 *
Wi

0101100
-65 0 +51 0 +55 0 -47 0 *
Fa
0  1e-07 31 0

0101000
+42 0 *
Sh

0101100
-63 0 +53 0 -49 0 +45 0 -43 0 +41 0 *
So

0100000
+40 0 *
Ve
1e-07
4.72 -2.5 0
0 0

0101101
*
Ve
1e-07
4.72 -2.5 1.95
0 0

0101101
*
Ed
 1e-07 1 1 0
1  73 0 0 1.95
2  149 33 0 0 1.95
2  150 34 0 0 1.95
0

0101000
+38 10 -37 10 *
Ve
1e-07
4.72 2.5 0
0 0

0101101
*
Ed
 1e-07 1 1 0
1  74 0 0 5
2  151 33 0 0 5
2  152 35 0 0 5
0

0101000
+38 10 -35 10 *
Ve
1e-07
4.72 2.5 1.95
0 0

0101101
*
Ed
 1e-07 1 1 0
1  75 0 0 1.95
2  153 33 0 0 1.95
2  154 36 0 0 1.95
0

0101000
+35 10 -33 10 *
Ed
 1e-07 1 1 0
1  76 0 0 5
2  155 33 0 0 5
2  156 37 0 0 5
0

0101000
+37 10 -33 10 *
Wi

0101100
-36 0 +34 0 +32 0 -31 0 *
Fa
0  1e-07 33 0

0101000
+30 0 *
Ve
1e-07
6.73 -2.5 0
0 0

0101101
*
Ve
1e-07
6.73 -2.5 1.95
0 0

0101101
*
Ed
 1e-07 1 1 0
1  77 0 0 1.95
2  157 38 0 0 1.95
2  158 34 0 0 1.95
0

0101000
+28 10 -27 10 *
Ve
1e-07
6.73 2.5 0
0 0

0101101
*
Ed
 1e-07 1 1 0
1  78 0 0 5
2  159 38 0 0 5
2  160 35 0 0 5
0

0101000
+28 10 -25 10 *
Ve
1e-07
6.73 2.5 1.95
0 0

0101101
*
Ed
 1e-07 1 1 0
1  79 0 0 1.95
2  161 38 0 0 1.95
2  162 36 0 0 1.95
0

0101000
+25 10 -23 10 *
Ed
 1e-07 1 1 0
1  80 0 0 5
2  163 38 0 0 5
2  164 37 0 0 5
0

0101000
+27 10 -23 10 *
Wi

0101100
-26 0 +24 0 +22 0 -21 0 *
Fa
0  1e-07 38 0

0101000
+20 0 *
Ed
 1e-07 1 1 0
1  81 0 0 2.01
2  165 34 0 0 2.01
2  166 35 0 0 2.01
0

0101000
+38 10 -28 10 *
Ed
 1e-07 1 1 0
1  82 0 0 2.01
2  167 34 0 0 2.01
2  168 37 0 0 2.01
0

0101000
+37 10 -27 10 *
Wi

0101100
-18 0 +36 0 +17 0 -26 0 *
Fa
0  1e-07 34 0

0101000
+16 0 *
Ed
 1e-07 1 1 0
1  83 0 0 2.01
2  169 36 0 0 2.01
2  170 35 0 0 2.01
0

0101000
+35 10 -25 10 *
Ed
 1e-07 1 1 0
1  84 0 0 2.01
2  171 36 0 0 2.01
2  172 37 0 0 2.01
0

0101000
+33 10 -23 10 *
Wi

0101100
-14 0 +32 0 +13 0 -22 0 *
Fa
0  1e-07 36 0

0101000
+12 0 *
Wi

0101100
-34 0 +18 0 +24 0 -14 0 *
Fa
0  1e-07 35 0

0101000
+10 0 *
Wi

0101100
-31 0 +17 0 +21 0 -13 0 *
Fa
0  1e-07 37 0

0101000
+8 0 *
Sh

0101100
-29 0 +19 0 -15 0 +11 0 -9 0 +7 0 *
So

0100000
+6 0 *
Co

0100000
+39 0 +5 0 *
Co

0100000
+4 9 *
Co

0100000
+228 3 +73 4 +3 8 *
Co

0100000
+2 2 *

+1 1 