DBRep_DrawableShape

CASCADE Topology V1, (c) Matra-Datavision
Locations 3
1
              1               0               0            16.5 
              0               1               0         158.685 
              0               0               1            68.1 
1
              1               0               0 -2.22044604925031e-16 
              0               1               0            3.81 
              0               0               1               0 
2  2 -1 0
Curve2ds 476
1 0 0 0 -1 
1 2.032 0 0 -1 
1 0 -2.54 1 0 
1 -1.016 5.0800000000000001 -0.70710678118654757 -0.70710678118654757 
1 0.35921024484276615 0 0 -1 
1 0 0 0 -1 
1 0 0 1 0 
1 -1.016 5.0800000000000001 -0.70710678118654757 -0.70710678118654757 
1 0 -0 0 -1 
1 0.35921024484276615 0 0 -1 
1 0 -2.54 1 0 
1 1.016 5.0800000000000001 -1 0 
1 0 -0 1 0 
1 1.016 5.0800000000000001 -1 0 
1 0 -2.54 1 0 
1 -1.27 4.8260000000000005 0 -1 
1 2.032 0 0 -1 
1 0 0 0 -1 
1 0 0 1 0 
1 -1.27 4.8260000000000005 0 -1 
1 -1.27 2.794 0.70710678118654757 -0.70710678118654757 
1 0 0 1 0 
1 -1.016 2.54 -0.70710678118654757 -0.70710678118654757 
1 0 0 1 0 
1 -1.27 2.286 0 -1 
1 0 0 1 0 
1 -1.27 0.254 0.70710678118654757 -0.70710678118654757 
1 0 0 1 0 
1 -1.016 0 -0.70710678118654757 -0.70710678118654757 
1 0 0 1 0 
1 -1.27 -0.254 0 -1 
1 0 0 1 0 
1 -1.27 -2.286 0.70710678118654757 -0.70710678118654757 
1 0 0 1 0 
1 -1.016 -2.5399999999999996 -0.70710678118654757 -0.70710678118654757 
1 0 0 1 0 
1 -1.27 -2.794 0 -1 
1 0 0 1 0 
1 -1.27 -4.8259999999999987 0.70710678118654757 -0.70710678118654757 
1 0 0 1 0 
1 -1.016 -5.0800000000000001 1 0 
1 0 0 1 0 
1 1.016 -5.0800000000000001 0.70710678118654757 0.70710678118654757 
1 0 0 1 0 
1 1.27 -4.8259999999999987 0 1 
1 0 0 1 0 
1 1.27 -2.794 -0.70710678118654757 0.70710678118654757 
1 0 0 1 0 
1 1.016 -2.5399999999999996 0.70710678118654757 0.70710678118654757 
1 0 0 1 0 
1 1.27 -2.286 0 1 
1 0 0 1 0 
1 1.27 -0.254 -0.70710678118654757 0.70710678118654757 
1 0 0 1 0 
1 1.016 0 0.70710678118654757 0.70710678118654757 
1 0 0 1 0 
1 1.27 0.254 0 1 
1 0 0 1 0 
1 1.27 2.286 -0.70710678118654757 0.70710678118654757 
1 0 0 1 0 
1 1.016 2.54 0.70710678118654757 0.70710678118654757 
1 0 0 1 0 
1 1.27 2.794 0 1 
1 0 0 1 0 
1 1.27 4.8260000000000005 -0.70710678118654757 0.70710678118654757 
1 0 0 1 0 
1 -0.16000000000000006 -0.94999999999999973 -1 0 
1 3 0.16 0 -1 
1 0.31999999999999995 -0.79500000000000037 0 1 
1 3 -0.79499999999999993 0 -1 
1 -0.16000000000000006 -1.5900000000000003 -1 0 
1 3 0.16 0 -1 
1 -0.32000000000000006 -0.79500000000000037 0 1 
1 3 -0.79499999999999993 0 -1 
1 0.31999999999999995 -2.0649999999999999 0 1 
1 3 -2.0650000000000004 0 -1 
1 -0.16000000000000006 -4.1300000000000008 -1 0 
1 3 0.16 0 -1 
1 -0.32000000000000006 -2.0649999999999999 0 1 
1 3 -2.0650000000000004 0 -1 
1 -0.16000000000000006 -3.4899999999999998 -1 0 
1 3 0.16 0 -1 
1 0.31999999999999995 1.7450000000000001 0 1 
1 3 1.7449999999999999 0 -1 
1 -0.16000000000000006 3.4900000000000002 -1 0 
1 3 0.16 0 -1 
1 -0.32000000000000006 1.7450000000000001 0 1 
1 3 1.7449999999999999 0 -1 
1 -0.16000000000000006 4.1299999999999999 -1 0 
1 3 0.16 0 -1 
1 -0.16000000000000006 1.5899999999999999 -1 0 
1 3 0.16 0 -1 
1 0.31999999999999995 0.47500000000000009 0 1 
1 3 0.47500000000000009 0 -1 
1 -0.16000000000000006 0.95000000000000018 -1 0 
1 3 0.16 0 -1 
1 -0.32000000000000006 0.47500000000000009 0 1 
1 3 0.47500000000000009 0 -1 
1 -1.27 2.794 0.70710678118654757 -0.70710678118654757 
1 0 -2.54 1 0 
1 -1.016 2.54 -0.70710678118654757 -0.70710678118654757 
1 0 -2.54 1 0 
1 -1.27 2.286 0 -1 
1 0 -2.54 1 0 
1 -1.27 0.254 0.70710678118654757 -0.70710678118654757 
1 0 -2.54 1 0 
1 -1.016 0 -0.70710678118654757 -0.70710678118654757 
1 0 -2.54 1 0 
1 -1.27 -0.254 0 -1 
1 0 -2.54 1 0 
1 -1.27 -2.286 0.70710678118654757 -0.70710678118654757 
1 0 -2.54 1 0 
1 -1.016 -2.5399999999999996 -0.70710678118654757 -0.70710678118654757 
1 0 -2.54 1 0 
1 -1.27 -2.794 0 -1 
1 0 -2.54 1 0 
1 -1.27 -4.8259999999999987 0.70710678118654757 -0.70710678118654757 
1 0 -2.54 1 0 
1 -1.016 -5.0800000000000001 1 0 
1 0 -2.54 1 0 
1 1.016 -5.0800000000000001 0.70710678118654757 0.70710678118654757 
1 0 -2.54 1 0 
1 1.27 -4.8259999999999987 0 1 
1 0 -2.54 1 0 
1 1.27 -2.794 -0.70710678118654757 0.70710678118654757 
1 0 -2.54 1 0 
1 1.016 -2.5399999999999996 0.70710678118654757 0.70710678118654757 
1 0 -2.54 1 0 
1 1.27 -2.286 0 1 
1 0 -2.54 1 0 
1 1.27 -0.254 -0.70710678118654757 0.70710678118654757 
1 0 -2.54 1 0 
1 1.016 0 0.70710678118654757 0.70710678118654757 
1 0 -2.54 1 0 
1 1.27 0.254 0 1 
1 0 -2.54 1 0 
1 1.27 2.286 -0.70710678118654757 0.70710678118654757 
1 0 -2.54 1 0 
1 1.016 2.54 0.70710678118654757 0.70710678118654757 
1 0 -2.54 1 0 
1 1.27 2.794 0 1 
1 0 -2.54 1 0 
1 1.27 4.8260000000000005 -0.70710678118654757 0.70710678118654757 
1 0 -2.54 1 0 
1 -0.16000000000000006 -0.94999999999999973 -1 0 
1 5.54 0.16 0 -1 
1 0.31999999999999995 -0.79500000000000037 0 1 
1 5.54 -0.79499999999999993 0 -1 
1 -0.16000000000000006 -1.5900000000000003 -1 0 
1 5.54 0.16 0 -1 
1 -0.32000000000000006 -0.79500000000000037 0 1 
1 5.54 -0.79499999999999993 0 -1 
1 0.31999999999999995 -2.0649999999999999 0 1 
1 5.54 -2.0650000000000004 0 -1 
1 -0.16000000000000006 -4.1300000000000008 -1 0 
1 5.54 0.16 0 -1 
1 -0.32000000000000006 -2.0649999999999999 0 1 
1 5.54 -2.0650000000000004 0 -1 
1 -0.16000000000000006 -3.4899999999999998 -1 0 
1 5.54 0.16 0 -1 
1 0.31999999999999995 1.7450000000000001 0 1 
1 5.54 1.7449999999999999 0 -1 
1 -0.16000000000000006 3.4900000000000002 -1 0 
1 5.54 0.16 0 -1 
1 -0.32000000000000006 1.7450000000000001 0 1 
1 5.54 1.7449999999999999 0 -1 
1 -0.16000000000000006 4.1299999999999999 -1 0 
1 5.54 0.16 0 -1 
1 -0.16000000000000006 1.5899999999999999 -1 0 
1 5.54 0.16 0 -1 
1 0.31999999999999995 0.47500000000000009 0 1 
1 5.54 0.47500000000000009 0 -1 
1 -0.16000000000000006 0.95000000000000018 -1 0 
1 5.54 0.16 0 -1 
1 -0.32000000000000006 0.47500000000000009 0 1 
1 5.54 0.47500000000000009 0 -1 
1 0 0 0 -1 
1 2.032 0 0 -1 
1 0.35921024484276615 0 0 -1 
1 0 0 0 -1 
1 0 0 0 -1 
1 0.35921024484276615 0 0 -1 
1 0.35921024484276615 0 0 -1 
1 0 0 0 -1 
1 0 0 0 -1 
1 0.35921024484276615 0 0 -1 
1 2.032 0 0 -1 
1 0 0 0 -1 
1 0 0 0 -1 
1 2.032 0 0 -1 
1 0.35921024484276615 0 0 -1 
1 0 0 0 -1 
1 0 0 0 -1 
1 0.35921024484276615 0 0 -1 
1 0.35921024484276615 0 0 -1 
1 0 0 0 -1 
1 0 0 0 -1 
1 0.35921024484276615 0 0 -1 
1 2.032 0 0 -1 
1 0 0 0 -1 
1 0 0 0 -1 
1 2.032 0 0 -1 
1 0.3592102448427657 0 0 -1 
1 0 0 0 -1 
1 0 0 0 -1 
1 0.3592102448427657 0 0 -1 
1 0.35921024484276665 0 0 -1 
1 0 0 0 -1 
1 0 0 0 -1 
1 0.35921024484276665 0 0 -1 
1 2.0319999999999991 0 0 -1 
1 0 0 0 -1 
1 0 0 0 -1 
1 2.0319999999999991 0 0 -1 
1 0.35921024484276753 0 0 -1 
1 0 0 0 -1 
1 0 0 0 -1 
1 0.35921024484276753 0 0 -1 
1 2.032 0 0 -1 
1 0 0 0 -1 
1 0 0.64000000000000001 1 0 
1 0 -0.64000000000000057 1 0 
1 0.16000000000000014 0 0 1 
1 0 -0.11313708498984772 -1 0 
1 0 0 1 0 
1 0 -0.64000000000000057 1 0 
1 0 0 1 0 
1 0 0 1 0 
1 0.16000000000000014 0 0 -1 
1 0 -0.11313708498984772 1 0 
1 0 0.64000000000000001 1 0 
1 0 0 1 0 
1 0.16000000000000014 0 0 1 
1 0 -0.11313708498984772 -1 0 
1 0.16000000000000014 0 0 -1 
1 0 -0.11313708498984772 1 0 
1 0 0 1 0 
1 0 0.64000000000000001 1 0 
1 0.16000000000000014 0 0 -1 
1 0 -0.11313708498984772 1 0 
1 0 -0.64000000000000057 1 0 
1 0 0.64000000000000001 1 0 
1 0.16000000000000014 0 0 1 
1 0 -0.11313708498984772 -1 0 
1 0 0 1 0 
1 0 -0.64000000000000057 1 0 
1 0 0 1 0 
1 0 0 1 0 
1 0.16000000000000014 0 0 -1 
1 0 -0.11313708498984772 1 0 
1 0.16000000000000014 0 0 1 
1 0 -0.11313708498984772 -1 0 
1 0 0 1 0 
1 0 0.64000000000000001 1 0 
1 0.16000000000000014 0 0 -1 
1 0 -0.11313708498984772 1 0 
1 0 -0.64000000000000001 1 0 
1 0 0.64000000000000001 1 0 
1 0.16000000000000014 0 0 1 
1 0 -0.11313708498984772 -1 0 
1 0 0 1 0 
1 0 -0.64000000000000001 1 0 
1 0 0 1 0 
1 0 0 1 0 
1 0.16000000000000014 0 0 -1 
1 0 -0.11313708498984772 1 0 
1 0.16000000000000014 0 0 1 
1 0 -0.11313708498984772 -1 0 
1 0 0.64000000000000001 1 0 
1 0 -0.63999999999999968 1 0 
1 0.16000000000000014 0 0 1 
1 5.5370485901133031e-34 -0.1131370849898474 -1 0 
1 0 0 1 0 
1 0 -0.63999999999999968 1 0 
1 0 0 1 0 
1 0 0 1 0 
1 0.16000000000000014 0 0 -1 
1 0 -0.11313708498984772 1 0 
1 0 0.64000000000000001 1 0 
1 0 0 1 0 
1 0.16000000000000014 0 0 1 
1 0 -0.11313708498984772 -1 0 
1 0.16000000000000014 0 0 -1 
1 0 -0.11313708498984772 1 0 
1 0 0.64000000000000001 1 0 
1 0 -0.64000000000000057 1 0 
1 0 0 1 0 
1 0 -0.64000000000000057 1 0 
1 11.380000000000001 0 0 1 
1 0 -0.11313708498984772 -1 0 
1 0 0 1 0 
1 0 0 1 0 
1 11.380000000000001 0 0 -1 
1 0 -0.11313708498984772 1 0 
1 0 0.64000000000000001 1 0 
1 0 0 1 0 
1 11.380000000000001 0 0 1 
1 0 -0.11313708498984772 -1 0 
1 11.380000000000001 0 0 -1 
1 0 -0.11313708498984772 1 0 
1 0 0 1 0 
1 0 0.64000000000000001 1 0 
1 0 -0.64000000000000057 1 0 
1 0 0.64000000000000001 1 0 
1 11.380000000000001 0 0 -1 
1 0 -0.11313708498984772 1 0 
1 0 0 1 0 
1 0 -0.64000000000000057 1 0 
1 11.380000000000001 0 0 1 
1 0 -0.11313708498984772 -1 0 
1 0 0 1 0 
1 0 0 1 0 
1 11.380000000000001 0 0 -1 
1 0 -0.11313708498984772 1 0 
1 11.380000000000001 0 0 1 
1 0 -0.11313708498984772 -1 0 
1 0 0 1 0 
1 0 0.64000000000000001 1 0 
1 0 -0.64000000000000001 1 0 
1 0 0.64000000000000001 1 0 
1 11.380000000000001 0 0 -1 
1 0 -0.11313708498984772 1 0 
1 0 0 1 0 
1 0 -0.64000000000000001 1 0 
1 11.380000000000001 0 0 1 
1 0 -0.11313708498984772 -1 0 
1 0 0 1 0 
1 0 0 1 0 
1 11.380000000000001 0 0 -1 
1 0 -0.11313708498984772 1 0 
1 11.380000000000001 0 0 1 
1 0 -0.11313708498984772 -1 0 
1 0 0.64000000000000001 1 0 
1 0 -0.63999999999999968 1 0 
1 0 0 1 0 
1 0 -0.63999999999999968 1 0 
1 11.380000000000001 0 0 1 
1 0 -0.11313708498984772 -1 0 
1 0 0 1 0 
1 0 0 1 0 
1 11.380000000000001 0 0 -1 
1 0 -0.11313708498984772 1 0 
1 0 0.64000000000000001 1 0 
1 0 0 1 0 
1 11.380000000000001 0 0 1 
1 0 -0.11313708498984772 -1 0 
1 11.380000000000001 0 0 -1 
1 0 -0.11313708498984772 1 0 
1 -0.16 0.11313708498984772 -0.57735026918962573 0.81649658092772603 
1 0.48000000000000043 0.1131370849898477 -0.57735026918962573 0.81649658092772603 
1 -0.37333333333333002 0.26398653164344987 0.57735026918962573 0.81649658092772603 
1 0.37333333333300001 0.26398653164321573 -0.57735026918962573 0.81649658092772603 
1 0 0.11313708498984772 -1 0 
1 0 0.48000000000000043 1 0 
1 0.05333333333300061 -0.037712361663753843 0.57735026918962573 0.81649658092772603 
1 -0.053333333332999999 -0.037712361663753177 -0.57735026918962573 0.81649658092772603 
1 3.6111186457260672e-35 0.1131370849898477 1 0 
1 0.16 0 0 1 
1 -0.47999999999999998 0.11313708498984772 0.57735026918962573 0.81649658092772603 
1 0.16000000000000014 0.1131370849898477 0.57735026918962573 0.81649658092772603 
1 0 0.11313708498984772 -1 0 
1 0 0.16000000000000014 1 0 
1 3.6111186457260672e-35 0.1131370849898477 1 0 
1 0.47999999999999998 0 0 1 
1 0.16000000000000014 0.1131370849898477 0.57735026918962573 0.81649658092772603 
1 -0.47999999999999998 0.11313708498984772 0.57735026918962573 0.81649658092772603 
1 0.37333333333300001 0.26398653164321573 -0.57735026918962573 0.81649658092772603 
1 -0.37333333333333002 0.26398653164344987 0.57735026918962573 0.81649658092772603 
1 3.6111186457260672e-35 0.1131370849898477 1 0 
1 0.47999999999999998 0 0 1 
1 -0.16 0.11313708498984772 -0.57735026918962573 0.81649658092772603 
1 0.48000000000000043 0.1131370849898477 -0.57735026918962573 0.81649658092772603 
1 0 0.11313708498984772 -1 0 
1 0 0.48000000000000043 1 0 
1 0.05333333333300061 -0.037712361663753843 0.57735026918962573 0.81649658092772603 
1 -0.053333333332999999 -0.037712361663753177 -0.57735026918962573 0.81649658092772603 
1 3.6111186457260672e-35 0.1131370849898477 1 0 
1 0.16 0 0 1 
1 0 0.11313708498984772 -1 0 
1 0 0.16000000000000014 1 0 
1 0.16 0.1131370849898477 0.57735026918962573 0.81649658092772603 
1 -0.47999999999999998 0.1131370849898477 0.57735026918962573 0.81649658092772603 
1 0.37333333333333002 0.26398653164321573 -0.57735026918962573 0.81649658092772603 
1 -0.37333333333333002 0.26398653164321573 0.57735026918962573 0.81649658092772603 
1 3.6111186457260672e-35 0.1131370849898477 1 0 
1 0.47999999999999998 0 0 1 
1 -0.16 0.1131370849898477 -0.57735026918962573 0.81649658092772603 
1 0.47999999999999998 0.1131370849898477 -0.57735026918962573 0.81649658092772603 
1 3.6111186457260672e-35 0.1131370849898477 -1 0 
1 0 0.47999999999999998 1 0 
1 0.053333333332999999 -0.037712361663753843 0.57735026918962573 0.81649658092772603 
1 -0.053333333332999999 -0.037712361663753843 -0.57735026918962573 0.81649658092772603 
1 3.6111186457260672e-35 0.1131370849898477 1 0 
1 0.16 0 0 1 
1 3.6111186457260672e-35 0.1131370849898477 -1 0 
1 0 0.16 1 0 
1 -0.16 0.11313708498984772 -0.57735026918962573 0.81649658092772603 
1 0.47999999999999998 0.1131370849898477 -0.57735026918962573 0.81649658092772603 
1 -0.37333333333333002 0.26398653164344921 0.57735026918962573 0.81649658092772603 
1 0.37333333333300001 0.26398653164321573 -0.57735026918962573 0.81649658092772603 
1 0 0.11313708498984772 -1 0 
1 0 0.47999999999999998 1 0 
1 0.053333333332999722 -0.037712361663753843 0.57735026918962573 0.81649658092772603 
1 -0.053333333332999999 -0.037712361663754121 -0.57735026918962573 0.81649658092772603 
1 3.6111186457260672e-35 0.1131370849898477 1 0 
1 0.16 0 0 1 
1 -0.47999999999999998 0.1131370849898474 0.57735026918962573 0.81649658092772603 
1 0.1599999999999997 0.1131370849898477 0.57735026918962573 0.81649658092772603 
1 -5.5370485901133031e-34 0.1131370849898474 -1 0 
1 0 0.1599999999999997 1 0 
1 3.6111186457260672e-35 0.1131370849898477 1 0 
1 0.47999999999999998 0 0 1 
1 -0.16 0.11313708498984583 -0.57735026918962573 0.81649658092772603 
1 0.48000000000000043 0.11313708498984582 -0.57735026918962573 0.81649658092772603 
1 -0.37333333333333002 0.2639865316434486 0.57735026918962573 0.81649658092772603 
1 0.37333333333300001 0.26398653164321523 -0.57735026918962573 0.81649658092772603 
1 -1.0953726558702404e-33 0.11313708498984583 -1 0 
1 0 0.48000000000000043 1 0 
1 0.05333333333300061 -0.037712361663755259 0.57735026918962573 0.81649658092772603 
1 -0.053333333332999999 -0.037712361663755065 -0.57735026918962573 0.81649658092772603 
1 -1.0592614694129797e-33 0.11313708498984582 1 0 
1 0.16 0 0 1 
1 -0.47999999999999998 0.11313708498984583 0.57735026918962573 0.81649658092772603 
1 0.16000000000000014 0.11313708498984582 0.57735026918962573 0.81649658092772603 
1 -1.0953726558702404e-33 0.11313708498984583 -1 0 
1 0 0.16000000000000014 1 0 
1 -1.0592614694129797e-33 0.11313708498984582 1 0 
1 0.47999999999999998 0 0 1 
1 0.16000000000000014 0.11313708498984582 0.57735026918962573 0.81649658092772603 
1 -0.47999999999999998 0.11313708498984583 0.57735026918962573 0.81649658092772603 
1 0.37333333333300001 0.26398653164321523 -0.57735026918962573 0.81649658092772603 
1 -0.37333333333333002 0.2639865316434486 0.57735026918962573 0.81649658092772603 
1 -1.0592614694129797e-33 0.11313708498984582 1 0 
1 0.47999999999999998 0 0 1 
1 -0.16 0.11313708498984583 -0.57735026918962573 0.81649658092772603 
1 0.48000000000000043 0.11313708498984582 -0.57735026918962573 0.81649658092772603 
1 -1.0953726558702404e-33 0.11313708498984583 -1 0 
1 0 0.48000000000000043 1 0 
1 0.05333333333300061 -0.037712361663755259 0.57735026918962573 0.81649658092772603 
1 -0.053333333332999999 -0.037712361663755065 -0.57735026918962573 0.81649658092772603 
1 -1.0592614694129797e-33 0.11313708498984582 1 0 
1 0.16 0 0 1 
1 -1.0953726558702404e-33 0.11313708498984583 -1 0 
1 0 0.16000000000000014 1 0 
1 0.16 0.11313708498984582 0.57735026918962573 0.81649658092772603 
1 -0.47999999999999998 0.11313708498984582 0.57735026918962573 0.81649658092772603 
1 0.37333333333333002 0.26398653164321523 -0.57735026918962573 0.81649658092772603 
1 -0.37333333333333002 0.26398653164321523 0.57735026918962573 0.81649658092772603 
1 -1.0592614694129797e-33 0.11313708498984582 1 0 
1 0.47999999999999998 0 0 1 
1 -0.16 0.11313708498984582 -0.57735026918962573 0.81649658092772603 
1 0.47999999999999998 0.11313708498984582 -0.57735026918962573 0.81649658092772603 
1 -1.0592614694129797e-33 0.11313708498984582 -1 0 
1 0 0.47999999999999998 1 0 
1 0.053333333332999999 -0.037712361663755259 0.57735026918962573 0.81649658092772603 
1 -0.053333333332999999 -0.037712361663755259 -0.57735026918962573 0.81649658092772603 
1 -1.0592614694129797e-33 0.11313708498984582 1 0 
1 0.16 0 0 1 
1 -1.0592614694129797e-33 0.11313708498984582 -1 0 
1 0 0.16 1 0 
1 -0.16 0.11313708498984583 -0.57735026918962573 0.81649658092772603 
1 0.47999999999999998 0.11313708498984582 -0.57735026918962573 0.81649658092772603 
1 -0.37333333333333002 0.26398653164344887 0.57735026918962573 0.81649658092772603 
1 0.37333333333300001 0.26398653164321523 -0.57735026918962573 0.81649658092772603 
1 -1.0953726558702404e-33 0.11313708498984583 -1 0 
1 0 0.47999999999999998 1 0 
1 0.053333333332999722 -0.037712361663755259 0.57735026918962573 0.81649658092772603 
1 -0.053333333332999999 -0.037712361663755377 -0.57735026918962573 0.81649658092772603 
1 -1.0592614694129797e-33 0.11313708498984582 1 0 
1 0.16 0 0 1 
1 -0.47999999999999998 0.11313708498984583 0.57735026918962573 0.81649658092772603 
1 0.1599999999999997 0.11313708498984582 0.57735026918962573 0.81649658092772603 
1 -1.0953726558702404e-33 0.11313708498984583 -1 0 
1 0 0.1599999999999997 1 0 
1 -1.0592614694129797e-33 0.11313708498984582 1 0 
1 0.47999999999999998 0 0 1 
Curves 238
1 -1.016 1.27 0 0 0 1 
1 -1.016 1.27 2.54 -0.70710678118654757 -0.70710678118654757 0 
1 -1.27 1.016 0 0 0 1 
1 -1.016 1.27 0 -0.70710678118654757 -0.70710678118654757 0 
1 1.016 1.27 0 0 0 1 
1 1.016 1.27 2.54 -1 0 0 
1 1.016 1.27 0 -1 0 0 
1 -1.27 1.016 2.54 0 -1 0 
1 -1.27 -1.016 0 0 0 1 
1 -1.27 1.016 0 0 -1 0 
1 -1.27 -1.016 0 0.70710678118654757 -0.70710678118654757 0 
1 -1.016 -1.27 0 -0.70710678118654757 -0.70710678118654757 0 
1 -1.27 -1.524 0 0 -1 0 
1 -1.27 -3.556 0 0.70710678118654757 -0.70710678118654757 0 
1 -1.016 -3.8100000000000001 0 -0.70710678118654757 -0.70710678118654757 0 
1 -1.27 -4.0640000000000001 0 0 -1 0 
1 -1.27 -6.0960000000000001 0 0.70710678118654757 -0.70710678118654757 0 
1 -1.016 -6.3499999999999996 0 -0.70710678118654757 -0.70710678118654757 0 
1 -1.27 -6.6040000000000001 0 0 -1 0 
1 -1.27 -8.6359999999999992 0 0.70710678118654757 -0.70710678118654757 0 
1 -1.016 -8.8900000000000006 0 1 0 0 
1 1.016 -8.8900000000000006 0 0.70710678118654757 0.70710678118654757 0 
1 1.27 -8.6359999999999992 0 0 1 0 
1 1.27 -6.6040000000000001 0 -0.70710678118654757 0.70710678118654757 0 
1 1.016 -6.3499999999999996 0 0.70710678118654757 0.70710678118654757 0 
1 1.27 -6.0960000000000001 0 0 1 0 
1 1.27 -4.0640000000000001 0 -0.70710678118654757 0.70710678118654757 0 
1 1.016 -3.8100000000000001 0 0.70710678118654757 0.70710678118654757 0 
1 1.27 -3.556 0 0 1 0 
1 1.27 -1.524 0 -0.70710678118654757 0.70710678118654757 0 
1 1.016 -1.27 0 0.70710678118654757 0.70710678118654757 0 
1 1.27 -1.016 0 0 1 0 
1 1.27 1.016 0 -0.70710678118654757 0.70710678118654757 0 
1 -0.16 -4.7599999999999998 0 -1 0 0 
1 0.32000000000000001 -4.6050000000000004 0 0 1 0 
1 -0.16 -5.4000000000000004 0 -1 0 0 
1 -0.32000000000000001 -4.6050000000000004 0 0 1 0 
1 0.32000000000000001 -5.875 0 0 1 0 
1 -0.16 -7.9400000000000004 0 -1 0 0 
1 -0.32000000000000001 -5.875 0 0 1 0 
1 -0.16 -7.2999999999999998 0 -1 0 0 
1 0.32000000000000001 -2.0649999999999999 0 0 1 0 
1 -0.16 -0.32000000000000001 0 -1 0 0 
1 -0.32000000000000001 -2.0649999999999999 0 0 1 0 
1 -0.16 0.32000000000000001 0 -1 0 0 
1 -0.16 -2.2200000000000002 0 -1 0 0 
1 0.32000000000000001 -3.335 0 0 1 0 
1 -0.16 -2.8599999999999999 0 -1 0 0 
1 -0.32000000000000001 -3.335 0 0 1 0 
1 -1.27 -1.016 2.54 0.70710678118654757 -0.70710678118654757 0 
1 -1.016 -1.27 2.54 -0.70710678118654757 -0.70710678118654757 0 
1 -1.27 -1.524 2.54 0 -1 0 
1 -1.27 -3.556 2.54 0.70710678118654757 -0.70710678118654757 0 
1 -1.016 -3.8100000000000001 2.54 -0.70710678118654757 -0.70710678118654757 0 
1 -1.27 -4.0640000000000001 2.54 0 -1 0 
1 -1.27 -6.0960000000000001 2.54 0.70710678118654757 -0.70710678118654757 0 
1 -1.016 -6.3499999999999996 2.54 -0.70710678118654757 -0.70710678118654757 0 
1 -1.27 -6.6040000000000001 2.54 0 -1 0 
1 -1.27 -8.6359999999999992 2.54 0.70710678118654757 -0.70710678118654757 0 
1 -1.016 -8.8900000000000006 2.54 1 0 0 
1 1.016 -8.8900000000000006 2.54 0.70710678118654757 0.70710678118654757 0 
1 1.27 -8.6359999999999992 2.54 0 1 0 
1 1.27 -6.6040000000000001 2.54 -0.70710678118654757 0.70710678118654757 0 
1 1.016 -6.3499999999999996 2.54 0.70710678118654757 0.70710678118654757 0 
1 1.27 -6.0960000000000001 2.54 0 1 0 
1 1.27 -4.0640000000000001 2.54 -0.70710678118654757 0.70710678118654757 0 
1 1.016 -3.8100000000000001 2.54 0.70710678118654757 0.70710678118654757 0 
1 1.27 -3.556 2.54 0 1 0 
1 1.27 -1.524 2.54 -0.70710678118654757 0.70710678118654757 0 
1 1.016 -1.27 2.54 0.70710678118654757 0.70710678118654757 0 
1 1.27 -1.016 2.54 0 1 0 
1 1.27 1.016 2.54 -0.70710678118654757 0.70710678118654757 0 
1 -0.16 -4.7599999999999998 2.54 -1 0 0 
1 0.32000000000000001 -4.6050000000000004 2.54 0 1 0 
1 -0.16 -5.4000000000000004 2.54 -1 0 0 
1 -0.32000000000000001 -4.6050000000000004 2.54 0 1 0 
1 0.32000000000000001 -5.875 2.54 0 1 0 
1 -0.16 -7.9400000000000004 2.54 -1 0 0 
1 -0.32000000000000001 -5.875 2.54 0 1 0 
1 -0.16 -7.2999999999999998 2.54 -1 0 0 
1 0.32000000000000001 -2.0649999999999999 2.54 0 1 0 
1 -0.16 -0.32000000000000001 2.54 -1 0 0 
1 -0.32000000000000001 -2.0649999999999999 2.54 0 1 0 
1 -0.16 0.32000000000000001 2.54 -1 0 0 
1 -0.16 -2.2200000000000002 2.54 -1 0 0 
1 0.32000000000000001 -3.335 2.54 0 1 0 
1 -0.16 -2.8599999999999999 2.54 -1 0 0 
1 -0.32000000000000001 -3.335 2.54 0 1 0 
1 1.27 1.016 0 0 0 1 
1 -1.016 -1.27 0 0 0 1 
1 1.27 -1.016 0 0 0 1 
1 -1.27 -1.524 0 0 0 1 
1 1.016 -1.27 0 0 0 1 
1 -1.27 -3.556 0 0 0 1 
1 1.27 -1.524 0 0 0 1 
1 -1.016 -3.8100000000000001 0 0 0 1 
1 1.27 -3.556 0 0 0 1 
1 -1.27 -4.0640000000000001 0 0 0 1 
1 1.016 -3.8100000000000001 0 0 0 1 
1 -1.27 -6.0960000000000001 0 0 0 1 
1 1.27 -4.0640000000000001 0 0 0 1 
1 -1.016 -6.3499999999999996 0 0 0 1 
1 1.27 -6.0960000000000001 0 0 0 1 
1 -1.27 -6.6040000000000001 0 0 0 1 
1 1.016 -6.3499999999999996 0 0 0 1 
1 -1.27 -8.6359999999999992 0 0 0 1 
1 1.27 -6.6040000000000001 0 0 0 1 
1 -1.016 -8.8900000000000006 0 0 0 1 
1 1.27 -8.6359999999999992 0 0 0 1 
1 1.016 -8.8900000000000006 0 0 0 1 
1 0.32000000000000001 -4.7599999999999998 -3 0 0 1 
1 -0.32000000000000001 -4.7599999999999998 -2.8399999999999999 1 0 0 
1 -0.32000000000000001 -4.7599999999999998 -3 0 0 1 
1 -0.32000000000000001 -5.4000000000000004 -3 0 0 1 
1 -0.32000000000000001 -5.4000000000000004 -2.8399999999999999 0 1 0 
1 0.32000000000000001 -5.4000000000000004 -3 0 0 1 
1 -0.32000000000000001 -5.4000000000000004 -2.8399999999999999 1 0 0 
1 0.32000000000000001 -5.4000000000000004 -2.8399999999999999 0 1 0 
1 0.32000000000000001 -7.9400000000000004 -3 0 0 1 
1 0.32000000000000001 -7.9400000000000004 -2.8399999999999999 0 1 0 
1 0.32000000000000001 -7.2999999999999998 -3 0 0 1 
1 -0.32000000000000001 -7.2999999999999998 -2.8399999999999999 1 0 0 
1 -0.32000000000000001 -7.2999999999999998 -3 0 0 1 
1 -0.32000000000000001 -7.9400000000000004 -3 0 0 1 
1 -0.32000000000000001 -7.9400000000000004 -2.8399999999999999 0 1 0 
1 -0.32000000000000001 -7.9400000000000004 -2.8399999999999999 1 0 0 
1 0.32000000000000001 -0.32000000000000001 -3 0 0 1 
1 0.32000000000000001 -0.32000000000000001 -2.8399999999999999 0 1 0 
1 0.32000000000000001 0.32000000000000001 -3 0 0 1 
1 -0.32000000000000001 0.32000000000000001 -2.8399999999999999 1 0 0 
1 -0.32000000000000001 0.32000000000000001 -3 0 0 1 
1 -0.32000000000000001 -0.32000000000000001 -3 0 0 1 
1 -0.32000000000000001 -0.32000000000000001 -2.8399999999999999 0 1 0 
1 -0.32000000000000001 -0.32000000000000001 -2.8399999999999999 1 0 0 
1 0.32000000000000001 -2.2200000000000002 -3 0 0 1 
1 -0.32000000000000001 -2.2200000000000002 -2.8399999999999999 1 0 0 
1 -0.32000000000000001 -2.2200000000000002 -3 0 0 1 
1 -0.32000000000000001 -2.8599999999999999 -3 0 0 1 
1 -0.32000000000000001 -2.8599999999999999 -2.8399999999999999 0 1 0 
1 0.32000000000000001 -2.8599999999999999 -3 0 0 1 
1 -0.32000000000000001 -2.8599999999999999 -2.8399999999999999 1 0 0 
1 0.32000000000000001 -2.8599999999999999 -2.8399999999999999 0 1 0 
1 0.32000000000000001 -4.7599999999999998 -3 0 0 1 
1 -0.32000000000000001 -4.7599999999999998 -3 0 0 1 
1 -0.32000000000000001 -4.7599999999999998 8.3800000000000008 1 0 0 
1 -0.32000000000000001 -5.4000000000000004 -3 0 0 1 
1 -0.32000000000000001 -5.4000000000000004 8.3800000000000008 0 1 0 
1 0.32000000000000001 -5.4000000000000004 -3 0 0 1 
1 -0.32000000000000001 -5.4000000000000004 8.3800000000000008 1 0 0 
1 0.32000000000000001 -5.4000000000000004 8.3800000000000008 0 1 0 
1 0.32000000000000001 -7.9400000000000004 -3 0 0 1 
1 0.32000000000000001 -7.2999999999999998 -3 0 0 1 
1 0.32000000000000001 -7.9400000000000004 8.3800000000000008 0 1 0 
1 -0.32000000000000001 -7.2999999999999998 -3 0 0 1 
1 -0.32000000000000001 -7.2999999999999998 8.3800000000000008 1 0 0 
1 -0.32000000000000001 -7.9400000000000004 -3 0 0 1 
1 -0.32000000000000001 -7.9400000000000004 8.3800000000000008 0 1 0 
1 -0.32000000000000001 -7.9400000000000004 8.3800000000000008 1 0 0 
1 0.32000000000000001 -0.32000000000000001 -3 0 0 1 
1 0.32000000000000001 0.32000000000000001 -3 0 0 1 
1 0.32000000000000001 -0.32000000000000001 8.3800000000000008 0 1 0 
1 -0.32000000000000001 0.32000000000000001 -3 0 0 1 
1 -0.32000000000000001 0.32000000000000001 8.3800000000000008 1 0 0 
1 -0.32000000000000001 -0.32000000000000001 -3 0 0 1 
1 -0.32000000000000001 -0.32000000000000001 8.3800000000000008 0 1 0 
1 -0.32000000000000001 -0.32000000000000001 8.3800000000000008 1 0 0 
1 0.32000000000000001 -2.2200000000000002 -3 0 0 1 
1 -0.32000000000000001 -2.2200000000000002 -3 0 0 1 
1 -0.32000000000000001 -2.2200000000000002 8.3800000000000008 1 0 0 
1 -0.32000000000000001 -2.8599999999999999 -3 0 0 1 
1 -0.32000000000000001 -2.8599999999999999 8.3800000000000008 0 1 0 
1 0.32000000000000001 -2.8599999999999999 -3 0 0 1 
1 -0.32000000000000001 -2.8599999999999999 8.3800000000000008 1 0 0 
1 0.32000000000000001 -2.8599999999999999 8.3800000000000008 0 1 0 
1 -0.16 -4.9199999999999999 -3 0.57735026918962573 -0.57735026918962573 -0.57735026918962573 
1 0.053333333333329999 -5.0266666666670003 -3.106666666667 -0.57735026918962573 -0.57735026918962573 -0.57735026918962573 
1 -0.32000000000000001 -4.9199999999999999 -3 1 0 0 
1 -0.26666666666700001 -5.3466666666669997 -2.893333333333 0.57735026918962573 0.57735026918962573 -0.57735026918962573 
1 -0.16 -5.4000000000000004 -3 0 1 0 
1 0.16 -5.2400000000000002 -3 -0.57735026918962573 0.57735026918962573 -0.57735026918962573 
1 -0.32000000000000001 -5.2400000000000002 -3 1 0 0 
1 0.16 -5.4000000000000004 -3 0 1 0 
1 0.16 -7.7800000000000002 -3 -0.57735026918962573 0.57735026918962573 -0.57735026918962573 
1 0.053333333333329999 -7.5666666666670004 -3.106666666667 -0.57735026918962573 -0.57735026918962573 -0.57735026918962573 
1 0.16 -7.9400000000000004 -3 0 1 0 
1 -0.16 -7.46 -3 0.57735026918962573 -0.57735026918962573 -0.57735026918962573 
1 -0.32000000000000001 -7.46 -3 1 0 0 
1 -0.26666666666700001 -7.8866666666669998 -2.893333333333 0.57735026918962573 0.57735026918962573 -0.57735026918962573 
1 -0.16 -7.9400000000000004 -3 0 1 0 
1 -0.32000000000000001 -7.7800000000000002 -3 1 0 0 
1 0.16 -0.16 -3 -0.57735026918962573 0.57735026918962573 -0.57735026918962573 
1 0.053333333333329999 0.053333333333329999 -3.106666666667 -0.57735026918962573 -0.57735026918962573 -0.57735026918962573 
1 0.16 -0.32000000000000001 -3 0 1 0 
1 -0.16 0.16 -3 0.57735026918962573 -0.57735026918962573 -0.57735026918962573 
1 -0.32000000000000001 0.16 -3 1 0 0 
1 -0.26666666666700001 -0.26666666666700001 -2.893333333333 0.57735026918962573 0.57735026918962573 -0.57735026918962573 
1 -0.16 -0.32000000000000001 -3 0 1 0 
1 -0.32000000000000001 -0.16 -3 1 0 0 
1 -0.16 -2.3799999999999999 -3 0.57735026918962573 -0.57735026918962573 -0.57735026918962573 
1 0.053333333333329999 -2.4866666666669999 -3.106666666667 -0.57735026918962573 -0.57735026918962573 -0.57735026918962573 
1 -0.32000000000000001 -2.3799999999999999 -3 1 0 0 
1 -0.26666666666700001 -2.8066666666670002 -2.893333333333 0.57735026918962573 0.57735026918962573 -0.57735026918962573 
1 -0.16 -2.8599999999999999 -3 0 1 0 
1 0.16 -2.7000000000000002 -3 -0.57735026918962573 0.57735026918962573 -0.57735026918962573 
1 -0.32000000000000001 -2.7000000000000002 -3 1 0 0 
1 0.16 -2.8599999999999999 -3 0 1 0 
1 -0.16 -4.9199999999999999 8.5399999999999991 0.57735026918962573 -0.57735026918962573 0.57735026918962573 
1 0.053333333333329999 -5.0266666666670003 8.6466666666670005 -0.57735026918962573 -0.57735026918962573 0.57735026918962573 
1 -0.32000000000000001 -4.9199999999999999 8.5399999999999991 1 0 0 
1 -0.26666666666700001 -5.3466666666669997 8.4333333333329996 0.57735026918962573 0.57735026918962573 0.57735026918962573 
1 -0.16 -5.4000000000000004 8.5399999999999991 0 1 0 
1 0.16 -5.2400000000000002 8.5399999999999991 -0.57735026918962573 0.57735026918962573 0.57735026918962573 
1 -0.32000000000000001 -5.2400000000000002 8.5399999999999991 1 0 0 
1 0.16 -5.4000000000000004 8.5399999999999991 0 1 0 
1 0.16 -7.7800000000000002 8.5399999999999991 -0.57735026918962573 0.57735026918962573 0.57735026918962573 
1 0.053333333333329999 -7.5666666666670004 8.6466666666670005 -0.57735026918962573 -0.57735026918962573 0.57735026918962573 
1 0.16 -7.9400000000000004 8.5399999999999991 0 1 0 
1 -0.16 -7.46 8.5399999999999991 0.57735026918962573 -0.57735026918962573 0.57735026918962573 
1 -0.32000000000000001 -7.46 8.5399999999999991 1 0 0 
1 -0.26666666666700001 -7.8866666666669998 8.4333333333329996 0.57735026918962573 0.57735026918962573 0.57735026918962573 
1 -0.16 -7.9400000000000004 8.5399999999999991 0 1 0 
1 -0.32000000000000001 -7.7800000000000002 8.5399999999999991 1 0 0 
1 0.16 -0.16 8.5399999999999991 -0.57735026918962573 0.57735026918962573 0.57735026918962573 
1 0.053333333333329999 0.053333333333329999 8.6466666666670005 -0.57735026918962573 -0.57735026918962573 0.57735026918962573 
1 0.16 -0.32000000000000001 8.5399999999999991 0 1 0 
1 -0.16 0.16 8.5399999999999991 0.57735026918962573 -0.57735026918962573 0.57735026918962573 
1 -0.32000000000000001 0.16 8.5399999999999991 1 0 0 
1 -0.26666666666700001 -0.26666666666700001 8.4333333333329996 0.57735026918962573 0.57735026918962573 0.57735026918962573 
1 -0.16 -0.32000000000000001 8.5399999999999991 0 1 0 
1 -0.32000000000000001 -0.16 8.5399999999999991 1 0 0 
1 -0.16 -2.3799999999999999 8.5399999999999991 0.57735026918962573 -0.57735026918962573 0.57735026918962573 
1 0.053333333333329999 -2.4866666666669999 8.6466666666670005 -0.57735026918962573 -0.57735026918962573 0.57735026918962573 
1 -0.32000000000000001 -2.3799999999999999 8.5399999999999991 1 0 0 
1 -0.26666666666700001 -2.8066666666670002 8.4333333333329996 0.57735026918962573 0.57735026918962573 0.57735026918962573 
1 -0.16 -2.8599999999999999 8.5399999999999991 0 1 0 
1 0.16 -2.7000000000000002 8.5399999999999991 -0.57735026918962573 0.57735026918962573 0.57735026918962573 
1 -0.32000000000000001 -2.7000000000000002 8.5399999999999991 1 0 0 
1 0.16 -2.8599999999999999 8.5399999999999991 0 1 0 
Polygon3D 0
PolygonOnTriangulations 0
Surfaces 100
1 -1.016 1.27 0 0.70710678118654757 -0.70710678118654757 0 -0.70710678118654757 -0.70710678118654757 0 0 -0 -1 
1 1.016 1.27 0 0 -1 0 -1 0 0 -0 -0 -1 
1 4.2590536892780001e-17 -3.8100000000000001 2.54 0 0 1 1 0 -0 -0 1 0 
1 -1.27 1.016 0 1 0 0 0 -1 0 0 0 -1 
1 4.2590536892780001e-17 -3.8100000000000001 0 0 0 1 1 0 -0 -0 1 0 
1 1.27 1.016 0 -0.70710678118654757 -0.70710678118654757 0 -0.70710678118654757 0.70710678118654757 0 -0 0 -1 
1 -1.27 -1.016 0 0.70710678118654757 0.70710678118654757 0 0.70710678118654757 -0.70710678118654757 0 0 0 -1 
1 -1.016 -1.27 0 0.70710678118654757 -0.70710678118654757 0 -0.70710678118654757 -0.70710678118654757 0 0 -0 -1 
1 -1.27 -1.524 0 1 0 0 0 -1 0 0 0 -1 
1 -1.27 -3.556 0 0.70710678118654757 0.70710678118654757 0 0.70710678118654757 -0.70710678118654757 0 0 0 -1 
1 -1.016 -3.8100000000000001 0 0.70710678118654757 -0.70710678118654757 0 -0.70710678118654757 -0.70710678118654757 0 0 -0 -1 
1 -1.27 -4.0640000000000001 0 1 0 0 0 -1 0 0 0 -1 
1 -1.27 -6.0960000000000001 0 0.70710678118654757 0.70710678118654757 0 0.70710678118654757 -0.70710678118654757 0 0 0 -1 
1 -1.016 -6.3499999999999996 0 0.70710678118654757 -0.70710678118654757 0 -0.70710678118654757 -0.70710678118654757 0 0 -0 -1 
1 -1.27 -6.6040000000000001 0 1 0 0 0 -1 0 0 0 -1 
1 -1.27 -8.6359999999999992 0 0.70710678118654757 0.70710678118654757 0 0.70710678118654757 -0.70710678118654757 0 0 0 -1 
1 -1.016 -8.8900000000000006 0 0 1 0 1 0 0 0 0 -1 
1 1.016 -8.8900000000000006 0 -0.70710678118654757 0.70710678118654757 0 0.70710678118654757 0.70710678118654757 0 0 0 -1 
1 1.27 -8.6359999999999992 0 -1 0 0 0 1 0 0 0 -1 
1 1.27 -6.6040000000000001 0 -0.70710678118654757 -0.70710678118654757 0 -0.70710678118654757 0.70710678118654757 0 -0 0 -1 
1 1.016 -6.3499999999999996 0 -0.70710678118654757 0.70710678118654757 0 0.70710678118654757 0.70710678118654757 0 0 0 -1 
1 1.27 -6.0960000000000001 0 -1 0 0 0 1 0 0 0 -1 
1 1.27 -4.0640000000000001 0 -0.70710678118654757 -0.70710678118654757 0 -0.70710678118654757 0.70710678118654757 0 -0 0 -1 
1 1.016 -3.8100000000000001 0 -0.70710678118654757 0.70710678118654757 0 0.70710678118654757 0.70710678118654757 0 0 0 -1 
1 1.27 -3.556 0 -1 0 0 0 1 0 0 0 -1 
1 1.27 -1.524 0 -0.70710678118654757 -0.70710678118654757 0 -0.70710678118654757 0.70710678118654757 0 -0 0 -1 
1 1.016 -1.27 0 -0.70710678118654757 0.70710678118654757 0 0.70710678118654757 0.70710678118654757 0 0 0 -1 
1 1.27 -1.016 0 -1 0 0 0 1 0 0 0 -1 
1 -0.32000000000000001 -4.7599999999999998 -3 0 1 0 0 -0 1 1 0 -0 
1 0.32000000000000001 -5.4000000000000004 -3 1 0 0 0 0 1 0 -1 0 
1 -0.32000000000000001 -5.4000000000000004 -3 0 1 0 0 -0 1 1 0 -0 
1 -0.32000000000000001 -5.4000000000000004 -3 1 0 0 0 0 1 0 -1 0 
1 0.32000000000000001 -7.9400000000000004 -3 1 0 0 0 0 1 0 -1 0 
1 -0.32000000000000001 -7.9400000000000004 -3 0 1 0 0 -0 1 1 0 -0 
1 -0.32000000000000001 -7.9400000000000004 -3 1 0 0 0 0 1 0 -1 0 
1 -0.32000000000000001 -7.2999999999999998 -3 0 1 0 0 -0 1 1 0 -0 
1 0.32000000000000001 -0.32000000000000001 -3 1 0 0 0 0 1 0 -1 0 
1 -0.32000000000000001 -0.32000000000000001 -3 0 1 0 0 -0 1 1 0 -0 
1 -0.32000000000000001 -0.32000000000000001 -3 1 0 0 0 0 1 0 -1 0 
1 -0.32000000000000001 0.32000000000000001 -3 0 1 0 0 -0 1 1 0 -0 
1 -0.32000000000000001 -2.2200000000000002 -3 0 1 0 0 -0 1 1 0 -0 
1 0.32000000000000001 -2.8599999999999999 -3 1 0 0 0 0 1 0 -1 0 
1 -0.32000000000000001 -2.8599999999999999 -3 0 1 0 0 -0 1 1 0 -0 
1 -0.32000000000000001 -2.8599999999999999 -3 1 0 0 0 0 1 0 -1 0 
1 -0.32000000000000001 -4.7599999999999998 -3 0 1 0 0 -0 1 1 0 -0 
1 0.32000000000000001 -5.4000000000000004 -3 1 0 0 0 0 1 0 -1 0 
1 -0.32000000000000001 -5.4000000000000004 -3 0 1 0 0 -0 1 1 0 -0 
1 -0.32000000000000001 -5.4000000000000004 -3 1 0 0 0 0 1 0 -1 0 
1 0.32000000000000001 -7.9400000000000004 -3 1 0 0 0 0 1 0 -1 0 
1 -0.32000000000000001 -7.9400000000000004 -3 0 1 0 0 -0 1 1 0 -0 
1 -0.32000000000000001 -7.9400000000000004 -3 1 0 0 0 0 1 0 -1 0 
1 -0.32000000000000001 -7.2999999999999998 -3 0 1 0 0 -0 1 1 0 -0 
1 0.32000000000000001 -0.32000000000000001 -3 1 0 0 0 0 1 0 -1 0 
1 -0.32000000000000001 -0.32000000000000001 -3 0 1 0 0 -0 1 1 0 -0 
1 -0.32000000000000001 -0.32000000000000001 -3 1 0 0 0 0 1 0 -1 0 
1 -0.32000000000000001 0.32000000000000001 -3 0 1 0 0 -0 1 1 0 -0 
1 -0.32000000000000001 -2.2200000000000002 -3 0 1 0 0 -0 1 1 0 -0 
1 0.32000000000000001 -2.8599999999999999 -3 1 0 0 0 0 1 0 -1 0 
1 -0.32000000000000001 -2.8599999999999999 -3 0 1 0 0 -0 1 1 0 -0 
1 -0.32000000000000001 -2.8599999999999999 -3 1 0 0 0 0 1 0 -1 0 
1 -0.32000000000000001 -4.8399999999999999 -2.9199999999999999 -1.73516750835689e-18 -0.70710678118654757 0.70710678118654757 -1 1.2269487116537222e-18 -1.2269487116537222e-18 0 -0.70710678118654757 -0.70710678118654757 
1 -0.23999999999999999 -5.4000000000000004 -2.9199999999999999 -0.70710678118654757 -1.73516750835689e-18 -0.70710678118654757 -1.2269487116537222e-18 1 -1.2269487116537222e-18 0.70710678118654757 0 -0.70710678118654757 
1 -0.32000000000000001 -5.3200000000000003 -2.9199999999999999 1.73516750835689e-18 -0.70710678118654757 -0.70710678118654757 -1 -1.2269487116537222e-18 -1.2269487116537222e-18 0 0.70710678118654757 -0.70710678118654757 
1 0.23999999999999999 -5.4000000000000004 -2.9199999999999999 -0.70710678118654757 1.73516750835689e-18 0.70710678118654757 1.2269487116537222e-18 1 -1.2269487116537222e-18 -0.70710678118654757 0 -0.70710678118654757 
1 0.23999999999999999 -7.9400000000000004 -2.9199999999999999 -0.70710678118654757 1.73516750835689e-18 0.70710678118654757 1.2269487116537222e-18 1 -1.2269487116537222e-18 -0.70710678118654757 0 -0.70710678118654757 
1 -0.32000000000000001 -7.3799999999999999 -2.9199999999999999 -1.73516750835689e-18 -0.70710678118654757 0.70710678118654757 -1 1.2269487116537222e-18 -1.2269487116537222e-18 0 -0.70710678118654757 -0.70710678118654757 
1 -0.23999999999999999 -7.9400000000000004 -2.9199999999999999 -0.70710678118654757 -1.73516750835689e-18 -0.70710678118654757 -1.2269487116537222e-18 1 -1.2269487116537222e-18 0.70710678118654757 0 -0.70710678118654757 
1 -0.32000000000000001 -7.8600000000000003 -2.9199999999999999 1.73516750835689e-18 -0.70710678118654757 -0.70710678118654757 -1 -1.2269487116537222e-18 -1.2269487116537222e-18 0 0.70710678118654757 -0.70710678118654757 
1 0.23999999999999999 -0.32000000000000001 -2.9199999999999999 -0.70710678118654757 1.73516750835689e-18 0.70710678118654757 1.2269487116537222e-18 1 -1.2269487116537222e-18 -0.70710678118654757 0 -0.70710678118654757 
1 -0.32000000000000001 0.23999999999999999 -2.9199999999999999 -1.73516750835689e-18 -0.70710678118654757 0.70710678118654757 -1 1.2269487116537222e-18 -1.2269487116537222e-18 0 -0.70710678118654757 -0.70710678118654757 
1 -0.23999999999999999 -0.32000000000000001 -2.9199999999999999 -0.70710678118654757 -1.73516750835689e-18 -0.70710678118654757 -1.2269487116537222e-18 1 -1.2269487116537222e-18 0.70710678118654757 0 -0.70710678118654757 
1 -0.32000000000000001 -0.23999999999999999 -2.9199999999999999 1.73516750835689e-18 -0.70710678118654757 -0.70710678118654757 -1 -1.2269487116537222e-18 -1.2269487116537222e-18 0 0.70710678118654757 -0.70710678118654757 
1 -0.32000000000000001 -2.2999999999999998 -2.9199999999999999 -1.73516750835689e-18 -0.70710678118654757 0.70710678118654757 -1 1.2269487116537222e-18 -1.2269487116537222e-18 0 -0.70710678118654757 -0.70710678118654757 
1 -0.23999999999999999 -2.8599999999999999 -2.9199999999999999 -0.70710678118654757 -1.73516750835689e-18 -0.70710678118654757 -1.2269487116537222e-18 1 -1.2269487116537222e-18 0.70710678118654757 0 -0.70710678118654757 
1 -0.32000000000000001 -2.7799999999999998 -2.9199999999999999 1.73516750835689e-18 -0.70710678118654757 -0.70710678118654757 -1 -1.2269487116537222e-18 -1.2269487116537222e-18 0 0.70710678118654757 -0.70710678118654757 
1 0.23999999999999999 -2.8599999999999999 -2.9199999999999999 -0.70710678118654757 1.73516750835689e-18 0.70710678118654757 1.2269487116537222e-18 1 -1.2269487116537222e-18 -0.70710678118654757 0 -0.70710678118654757 
1 -0.32000000000000001 -4.8399999999999999 8.4600000000000009 1.73516750835689e-18 0.70710678118654757 0.70710678118654757 -1 1.2269487116537222e-18 1.2269487116537222e-18 0 -0.70710678118654757 0.70710678118654757 
1 -0.23999999999999999 -5.4000000000000004 8.4600000000000009 0.70710678118654757 1.73516750835689e-18 -0.70710678118654757 -1.2269487116537222e-18 1 1.2269487116537222e-18 0.70710678118654757 0 0.70710678118654757 
1 -0.32000000000000001 -5.3200000000000003 8.4600000000000009 -1.73516750835689e-18 0.70710678118654757 -0.70710678118654757 -1 -1.2269487116537222e-18 1.2269487116537222e-18 0 0.70710678118654757 0.70710678118654757 
1 0.23999999999999999 -5.4000000000000004 8.4600000000000009 0.70710678118654757 -1.73516750835689e-18 0.70710678118654757 1.2269487116537222e-18 1 1.2269487116537222e-18 -0.70710678118654757 0 0.70710678118654757 
1 0.23999999999999999 -7.9400000000000004 8.4600000000000009 0.70710678118654757 -1.73516750835689e-18 0.70710678118654757 1.2269487116537222e-18 1 1.2269487116537222e-18 -0.70710678118654757 0 0.70710678118654757 
1 -0.32000000000000001 -7.3799999999999999 8.4600000000000009 1.73516750835689e-18 0.70710678118654757 0.70710678118654757 -1 1.2269487116537222e-18 1.2269487116537222e-18 0 -0.70710678118654757 0.70710678118654757 
1 -0.23999999999999999 -7.9400000000000004 8.4600000000000009 0.70710678118654757 1.73516750835689e-18 -0.70710678118654757 -1.2269487116537222e-18 1 1.2269487116537222e-18 0.70710678118654757 0 0.70710678118654757 
1 -0.32000000000000001 -7.8600000000000003 8.4600000000000009 -1.73516750835689e-18 0.70710678118654757 -0.70710678118654757 -1 -1.2269487116537222e-18 1.2269487116537222e-18 0 0.70710678118654757 0.70710678118654757 
1 0.23999999999999999 -0.32000000000000001 8.4600000000000009 0.70710678118654757 -1.73516750835689e-18 0.70710678118654757 1.2269487116537222e-18 1 1.2269487116537222e-18 -0.70710678118654757 0 0.70710678118654757 
1 -0.32000000000000001 0.23999999999999999 8.4600000000000009 1.73516750835689e-18 0.70710678118654757 0.70710678118654757 -1 1.2269487116537222e-18 1.2269487116537222e-18 0 -0.70710678118654757 0.70710678118654757 
1 -0.23999999999999999 -0.32000000000000001 8.4600000000000009 0.70710678118654757 1.73516750835689e-18 -0.70710678118654757 -1.2269487116537222e-18 1 1.2269487116537222e-18 0.70710678118654757 0 0.70710678118654757 
1 -0.32000000000000001 -0.23999999999999999 8.4600000000000009 -1.73516750835689e-18 0.70710678118654757 -0.70710678118654757 -1 -1.2269487116537222e-18 1.2269487116537222e-18 0 0.70710678118654757 0.70710678118654757 
1 -0.32000000000000001 -2.2999999999999998 8.4600000000000009 1.73516750835689e-18 0.70710678118654757 0.70710678118654757 -1 1.2269487116537222e-18 1.2269487116537222e-18 0 -0.70710678118654757 0.70710678118654757 
1 -0.23999999999999999 -2.8599999999999999 8.4600000000000009 0.70710678118654757 1.73516750835689e-18 -0.70710678118654757 -1.2269487116537222e-18 1 1.2269487116537222e-18 0.70710678118654757 0 0.70710678118654757 
1 -0.32000000000000001 -2.7799999999999998 8.4600000000000009 -1.73516750835689e-18 0.70710678118654757 -0.70710678118654757 -1 -1.2269487116537222e-18 1.2269487116537222e-18 0 0.70710678118654757 0.70710678118654757 
1 0.23999999999999999 -2.8599999999999999 8.4600000000000009 0.70710678118654757 -1.73516750835689e-18 0.70710678118654757 1.2269487116537222e-18 1 1.2269487116537222e-18 -0.70710678118654757 0 0.70710678118654757 
1 -0.32000000000000001 -5.4000000000000004 -3 0 0 1 1 0 -0 -0 1 0 
1 -0.32000000000000001 -7.9400000000000004 -3 0 0 1 1 0 -0 -0 1 0 
1 -0.32000000000000001 -0.32000000000000001 -3 0 0 1 1 0 -0 -0 1 0 
1 -0.32000000000000001 -2.8599999999999999 -3 0 0 1 1 0 -0 -0 1 0 
1 -0.32000000000000001 -5.4000000000000004 8.5399999999999991 0 0 1 1 0 -0 -0 1 0 
1 -0.32000000000000001 -7.9400000000000004 8.5399999999999991 0 0 1 1 0 -0 -0 1 0 
1 -0.32000000000000001 -0.32000000000000001 8.5399999999999991 0 0 1 1 0 -0 -0 1 0 
1 -0.32000000000000001 -2.8599999999999999 8.5399999999999991 0 0 1 1 0 -0 -0 1 0 
Triangulations 0

TShapes 596
Ve
1e-07
-1.016 5.08 0
0 0

0101101
*
Ve
1e-07
-1.016 5.08 2.54
0 0

0101101
*
Ed
 1e-07 1 1 0
1  1 0 0 2.54
2  1 1 0 0 2.54
2  2 2 0 0 2.54
0

0101000
+596 3 -595 3 *
Ve
1e-07
-1.27 4.826 2.54
0 0

0101101
*
Ed
 1e-07 1 1 0
1  2 0 0 0.359210244842766
2  3 1 0 0 0.359210244842766
2  4 3 0 0 0.359210244842766
0

0101000
+595 3 -593 3 *
Ve
1e-07
-1.27 4.826 0
0 0

0101101
*
Ed
 1e-07 1 1 0
1  3 0 0 2.54
2  5 1 0 0 2.54
2  6 4 0 0 2.54
0

0101000
+591 3 -593 3 *
Ed
 1e-07 1 1 0
1  4 0 0 0.359210244842766
2  7 1 0 0 0.359210244842766
2  8 5 0 0 0.359210244842766
0

0101000
+596 3 -591 3 *
Wi

0101100
+594 0 +592 0 -590 0 -589 0 *
Fa
0  1e-07 1 0

0101000
+588 0 *
Ve
1e-07
1.016 5.08 0
0 0

0101101
*
Ve
1e-07
1.016 5.08 2.54
0 0

0101101
*
Ed
 1e-07 1 1 0
1  5 0 0 2.54
2  9 2 0 0 2.54
2  10 6 0 0 2.54
0

0101000
+586 3 -585 3 *
Ed
 1e-07 1 1 0
1  6 0 0 2.032
2  11 2 0 0 2.032
2  12 3 0 0 2.032
0

0101000
+585 3 -595 3 *
Ed
 1e-07 1 1 0
1  7 0 0 2.032
2  13 2 0 0 2.032
2  14 5 0 0 2.032
0

0101000
+586 3 -596 3 *
Wi

0101100
+584 0 +583 0 -594 0 -582 0 *
Fa
0  1e-07 2 0

0101000
+581 0 *
Ve
1e-07
-1.27 2.794 2.54
0 0

0101101
*
Ed
 1e-07 1 1 0
1  8 0 0 2.032
2  15 4 0 0 2.032
2  16 3 0 0 2.032
0

0101000
+593 3 -579 3 *
Ve
1e-07
-1.27 2.794 0
0 0

0101101
*
Ed
 1e-07 1 1 0
1  9 0 0 2.54
2  17 4 0 0 2.54
2  18 7 0 0 2.54
0

0101000
+577 3 -579 3 *
Ed
 1e-07 1 1 0
1  10 0 0 2.032
2  19 4 0 0 2.032
2  20 5 0 0 2.032
0

0101000
+591 3 -577 3 *
Wi

0101100
+590 0 +578 0 -576 0 -575 0 *
Fa
0  1e-07 4 0

0101000
+574 0 *
Ve
1e-07
-1.016 2.54 0
0 0

0101101
*
Ed
 1e-07 1 1 0
1  11 0 0 0.359210244842766
2  21 5 0 0 0.359210244842766
2  22 7 0 0 0.359210244842766
0

0101000
+577 3 -572 3 *
Ve
1e-07
-1.27 2.286 0
0 0

0101101
*
Ed
 1e-07 1 1 0
1  12 0 0 0.359210244842766
2  23 5 0 0 0.359210244842766
2  24 8 0 0 0.359210244842766
0

0101000
+572 3 -570 3 *
Ve
1e-07
-1.27 0.254 0
0 0

0101101
*
Ed
 1e-07 1 1 0
1  13 0 0 2.032
2  25 5 0 0 2.032
2  26 9 0 0 2.032
0

0101000
+570 3 -568 3 *
Ve
1e-07
-1.016 4.44089209850063e-16 0
0 0

0101101
*
Ed
 1e-07 1 1 0
1  14 0 0 0.359210244842766
2  27 5 0 0 0.359210244842766
2  28 10 0 0 0.359210244842766
0

0101000
+568 3 -566 3 *
Ve
1e-07
-1.27 -0.254 0
0 0

0101101
*
Ed
 1e-07 1 1 0
1  15 0 0 0.359210244842766
2  29 5 0 0 0.359210244842766
2  30 11 0 0 0.359210244842766
0

0101000
+566 3 -564 3 *
Ve
1e-07
-1.27 -2.286 0
0 0

0101101
*
Ed
 1e-07 1 1 0
1  16 0 0 2.032
2  31 5 0 0 2.032
2  32 12 0 0 2.032
0

0101000
+564 3 -562 3 *
Ve
1e-07
-1.016 -2.54 0
0 0

0101101
*
Ed
 1e-07 1 1 0
1  17 0 0 0.359210244842766
2  33 5 0 0 0.359210244842766
2  34 13 0 0 0.359210244842766
0

0101000
+562 3 -560 3 *
Ve
1e-07
-1.27 -2.794 0
0 0

0101101
*
Ed
 1e-07 1 1 0
1  18 0 0 0.359210244842766
2  35 5 0 0 0.359210244842766
2  36 14 0 0 0.359210244842766
0

0101000
+560 3 -558 3 *
Ve
1e-07
-1.27 -4.826 0
0 0

0101101
*
Ed
 1e-07 1 1 0
1  19 0 0 2.032
2  37 5 0 0 2.032
2  38 15 0 0 2.032
0

0101000
+558 3 -556 3 *
Ve
1e-07
-1.016 -5.08 0
0 0

0101101
*
Ed
 1e-07 1 1 0
1  20 0 0 0.359210244842767
2  39 5 0 0 0.359210244842767
2  40 16 0 0 0.359210244842767
0

0101000
+556 3 -554 3 *
Ve
1e-07
1.016 -5.08 0
0 0

0101101
*
Ed
 1e-07 1 1 0
1  21 0 0 2.032
2  41 5 0 0 2.032
2  42 17 0 0 2.032
0

0101000
+554 3 -552 3 *
Ve
1e-07
1.27 -4.826 0
0 0

0101101
*
Ed
 1e-07 1 1 0
1  22 0 0 0.359210244842767
2  43 5 0 0 0.359210244842767
2  44 18 0 0 0.359210244842767
0

0101000
+552 3 -550 3 *
Ve
1e-07
1.27 -2.794 0
0 0

0101101
*
Ed
 1e-07 1 1 0
1  23 0 0 2.032
2  45 5 0 0 2.032
2  46 19 0 0 2.032
0

0101000
+550 3 -548 3 *
Ve
1e-07
1.016 -2.54 0
0 0

0101101
*
Ed
 1e-07 1 1 0
1  24 0 0 0.359210244842766
2  47 5 0 0 0.359210244842766
2  48 20 0 0 0.359210244842766
0

0101000
+548 3 -546 3 *
Ve
1e-07
1.27 -2.286 0
0 0

0101101
*
Ed
 1e-07 1 1 0
1  25 0 0 0.359210244842766
2  49 5 0 0 0.359210244842766
2  50 21 0 0 0.359210244842766
0

0101000
+546 3 -544 3 *
Ve
1e-07
1.27 -0.254 0
0 0

0101101
*
Ed
 1e-07 1 1 0
1  26 0 0 2.032
2  51 5 0 0 2.032
2  52 22 0 0 2.032
0

0101000
+544 3 -542 3 *
Ve
1e-07
1.016 4.44089209850063e-16 0
0 0

0101101
*
Ed
 1e-07 1 1 0
1  27 0 0 0.359210244842766
2  53 5 0 0 0.359210244842766
2  54 23 0 0 0.359210244842766
0

0101000
+542 3 -540 3 *
Ve
1e-07
1.27 0.254 0
0 0

0101101
*
Ed
 1e-07 1 1 0
1  28 0 0 0.359210244842766
2  55 5 0 0 0.359210244842766
2  56 24 0 0 0.359210244842766
0

0101000
+540 3 -538 3 *
Ve
1e-07
1.27 2.286 0
0 0

0101101
*
Ed
 1e-07 1 1 0
1  29 0 0 2.032
2  57 5 0 0 2.032
2  58 25 0 0 2.032
0

0101000
+538 3 -536 3 *
Ve
1e-07
1.016 2.54 0
0 0

0101101
*
Ed
 1e-07 1 1 0
1  30 0 0 0.359210244842766
2  59 5 0 0 0.359210244842766
2  60 26 0 0 0.359210244842766
0

0101000
+536 3 -534 3 *
Ve
1e-07
1.27 2.794 0
0 0

0101101
*
Ed
 1e-07 1 1 0
1  31 0 0 0.359210244842766
2  61 5 0 0 0.359210244842766
2  62 27 0 0 0.359210244842766
0

0101000
+534 3 -532 3 *
Ve
1e-07
1.27 4.826 0
0 0

0101101
*
Ed
 1e-07 1 1 0
1  32 0 0 2.032
2  63 5 0 0 2.032
2  64 28 0 0 2.032
0

0101000
+532 3 -530 3 *
Ed
 1e-07 1 1 0
1  33 0 0 0.359210244842766
2  65 5 0 0 0.359210244842766
2  66 6 0 0 0.359210244842766
0

0101000
+530 3 -586 3 *
Wi

0101100
+589 0 +575 0 +571 0 +569 0 +567 0 +565 0 +563 0 +561 0 +559 0 +557 0 
+555 0 +553 0 +551 0 +549 0 +547 0 +545 0 +543 0 +541 0 +539 0 +537 0 
+535 0 +533 0 +531 0 +529 0 +528 0 +582 0 *
Ve
1e-07
0.32 -0.949999999999999 0
0 0

0101101
*
Ve
1e-07
-0.32 -0.949999999999999 0
0 0

0101101
*
Ed
 1e-07 1 1 0
1  34 0 -0.48 0.16
2  67 5 0 -0.48 0.16
2  68 29 0 -0.48 0.16
0

0101000
+526 3 -525 3 *
Ve
1e-07
0.32 -1.59 0
0 0

0101101
*
Ed
 1e-07 1 1 0
1  35 0 -0.795 -0.154999999999999
2  69 5 0 -0.795 -0.154999999999999
2  70 30 0 -0.795 -0.154999999999999
0

0101000
+523 3 -526 3 *
Ve
1e-07
-0.32 -1.59 0
0 0

0101101
*
Ed
 1e-07 1 1 0
1  36 0 -0.48 0.16
2  71 5 0 -0.48 0.16
2  72 31 0 -0.48 0.16
0

0101000
+523 3 -521 3 *
Ed
 1e-07 1 1 0
1  37 0 -0.795 -0.154999999999999
2  73 5 0 -0.795 -0.154999999999999
2  74 32 0 -0.795 -0.154999999999999
0

0101000
+521 3 -525 3 *
Wi

0101100
-524 0 -522 0 +520 0 +519 0 *
Ve
1e-07
0.32 -4.13 0
0 0

0101101
*
Ve
1e-07
0.32 -3.49 0
0 0

0101101
*
Ed
 1e-07 1 1 0
1  38 0 -2.065 -1.425
2  75 5 0 -2.065 -1.425
2  76 33 0 -2.065 -1.425
0

0101000
+517 3 -516 3 *
Ve
1e-07
-0.32 -4.13 0
0 0

0101101
*
Ed
 1e-07 1 1 0
1  39 0 -0.48 0.16
2  77 5 0 -0.48 0.16
2  78 34 0 -0.48 0.16
0

0101000
+517 3 -514 3 *
Ve
1e-07
-0.32 -3.49 0
0 0

0101101
*
Ed
 1e-07 1 1 0
1  40 0 -2.065 -1.425
2  79 5 0 -2.065 -1.425
2  80 35 0 -2.065 -1.425
0

0101000
+514 3 -512 3 *
Ed
 1e-07 1 1 0
1  41 0 -0.48 0.16
2  81 5 0 -0.48 0.16
2  82 36 0 -0.48 0.16
0

0101000
+516 3 -512 3 *
Wi

0101100
-515 0 +513 0 +511 0 -510 0 *
Ve
1e-07
0.32 3.49 0
0 0

0101101
*
Ve
1e-07
0.32 4.13 0
0 0

0101101
*
Ed
 1e-07 1 1 0
1  42 0 1.745 2.385
2  83 5 0 1.745 2.385
2  84 37 0 1.745 2.385
0

0101000
+508 3 -507 3 *
Ve
1e-07
-0.32 3.49 0
0 0

0101101
*
Ed
 1e-07 1 1 0
1  43 0 -0.48 0.16
2  85 5 0 -0.48 0.16
2  86 38 0 -0.48 0.16
0

0101000
+508 3 -505 3 *
Ve
1e-07
-0.32 4.13 0
0 0

0101101
*
Ed
 1e-07 1 1 0
1  44 0 1.745 2.385
2  87 5 0 1.745 2.385
2  88 39 0 1.745 2.385
0

0101000
+505 3 -503 3 *
Ed
 1e-07 1 1 0
1  45 0 -0.48 0.16
2  89 5 0 -0.48 0.16
2  90 40 0 -0.48 0.16
0

0101000
+507 3 -503 3 *
Wi

0101100
-506 0 +504 0 +502 0 -501 0 *
Ve
1e-07
0.32 1.59 0
0 0

0101101
*
Ve
1e-07
-0.32 1.59 0
0 0

0101101
*
Ed
 1e-07 1 1 0
1  46 0 -0.48 0.16
2  91 5 0 -0.48 0.16
2  92 41 0 -0.48 0.16
0

0101000
+499 3 -498 3 *
Ve
1e-07
0.32 0.950000000000001 0
0 0

0101101
*
Ed
 1e-07 1 1 0
1  47 0 0.475 1.115
2  93 5 0 0.475 1.115
2  94 42 0 0.475 1.115
0

0101000
+496 3 -499 3 *
Ve
1e-07
-0.32 0.950000000000001 0
0 0

0101101
*
Ed
 1e-07 1 1 0
1  48 0 -0.48 0.16
2  95 5 0 -0.48 0.16
2  96 43 0 -0.48 0.16
0

0101000
+496 3 -494 3 *
Ed
 1e-07 1 1 0
1  49 0 0.475 1.115
2  97 5 0 0.475 1.115
2  98 44 0 0.475 1.115
0

0101000
+494 3 -498 3 *
Wi

0101100
-497 0 -495 0 +493 0 +492 0 *
Fa
0  1e-07 5 0

0101000
+527 0 +518 0 +509 0 +500 0 +491 0 *
Ve
1e-07
-1.016 2.54 2.54
0 0

0101101
*
Ed
 1e-07 1 1 0
1  50 0 0 0.359210244842766
2  99 3 0 0 0.359210244842766
2  100 7 0 0 0.359210244842766
0

0101000
+579 3 -489 3 *
Ve
1e-07
-1.27 2.286 2.54
0 0

0101101
*
Ed
 1e-07 1 1 0
1  51 0 0 0.359210244842766
2  101 3 0 0 0.359210244842766
2  102 8 0 0 0.359210244842766
0

0101000
+489 3 -487 3 *
Ve
1e-07
-1.27 0.254 2.54
0 0

0101101
*
Ed
 1e-07 1 1 0
1  52 0 0 2.032
2  103 3 0 0 2.032
2  104 9 0 0 2.032
0

0101000
+487 3 -485 3 *
Ve
1e-07
-1.016 4.44089209850063e-16 2.54
0 0

0101101
*
Ed
 1e-07 1 1 0
1  53 0 0 0.359210244842766
2  105 3 0 0 0.359210244842766
2  106 10 0 0 0.359210244842766
0

0101000
+485 3 -483 3 *
Ve
1e-07
-1.27 -0.254 2.54
0 0

0101101
*
Ed
 1e-07 1 1 0
1  54 0 0 0.359210244842766
2  107 3 0 0 0.359210244842766
2  108 11 0 0 0.359210244842766
0

0101000
+483 3 -481 3 *
Ve
1e-07
-1.27 -2.286 2.54
0 0

0101101
*
Ed
 1e-07 1 1 0
1  55 0 0 2.032
2  109 3 0 0 2.032
2  110 12 0 0 2.032
0

0101000
+481 3 -479 3 *
Ve
1e-07
-1.016 -2.54 2.54
0 0

0101101
*
Ed
 1e-07 1 1 0
1  56 0 0 0.359210244842766
2  111 3 0 0 0.359210244842766
2  112 13 0 0 0.359210244842766
0

0101000
+479 3 -477 3 *
Ve
1e-07
-1.27 -2.794 2.54
0 0

0101101
*
Ed
 1e-07 1 1 0
1  57 0 0 0.359210244842766
2  113 3 0 0 0.359210244842766
2  114 14 0 0 0.359210244842766
0

0101000
+477 3 -475 3 *
Ve
1e-07
-1.27 -4.826 2.54
0 0

0101101
*
Ed
 1e-07 1 1 0
1  58 0 0 2.032
2  115 3 0 0 2.032
2  116 15 0 0 2.032
0

0101000
+475 3 -473 3 *
Ve
1e-07
-1.016 -5.08 2.54
0 0

0101101
*
Ed
 1e-07 1 1 0
1  59 0 0 0.359210244842767
2  117 3 0 0 0.359210244842767
2  118 16 0 0 0.359210244842767
0

0101000
+473 3 -471 3 *
Ve
1e-07
1.016 -5.08 2.54
0 0

0101101
*
Ed
 1e-07 1 1 0
1  60 0 0 2.032
2  119 3 0 0 2.032
2  120 17 0 0 2.032
0

0101000
+471 3 -469 3 *
Ve
1e-07
1.27 -4.826 2.54
0 0

0101101
*
Ed
 1e-07 1 1 0
1  61 0 0 0.359210244842767
2  121 3 0 0 0.359210244842767
2  122 18 0 0 0.359210244842767
0

0101000
+469 3 -467 3 *
Ve
1e-07
1.27 -2.794 2.54
0 0

0101101
*
Ed
 1e-07 1 1 0
1  62 0 0 2.032
2  123 3 0 0 2.032
2  124 19 0 0 2.032
0

0101000
+467 3 -465 3 *
Ve
1e-07
1.016 -2.54 2.54
0 0

0101101
*
Ed
 1e-07 1 1 0
1  63 0 0 0.359210244842766
2  125 3 0 0 0.359210244842766
2  126 20 0 0 0.359210244842766
0

0101000
+465 3 -463 3 *
Ve
1e-07
1.27 -2.286 2.54
0 0

0101101
*
Ed
 1e-07 1 1 0
1  64 0 0 0.359210244842766
2  127 3 0 0 0.359210244842766
2  128 21 0 0 0.359210244842766
0

0101000
+463 3 -461 3 *
Ve
1e-07
1.27 -0.254 2.54
0 0

0101101
*
Ed
 1e-07 1 1 0
1  65 0 0 2.032
2  129 3 0 0 2.032
2  130 22 0 0 2.032
0

0101000
+461 3 -459 3 *
Ve
1e-07
1.016 4.44089209850063e-16 2.54
0 0

0101101
*
Ed
 1e-07 1 1 0
1  66 0 0 0.359210244842766
2  131 3 0 0 0.359210244842766
2  132 23 0 0 0.359210244842766
0

0101000
+459 3 -457 3 *
Ve
1e-07
1.27 0.254 2.54
0 0

0101101
*
Ed
 1e-07 1 1 0
1  67 0 0 0.359210244842766
2  133 3 0 0 0.359210244842766
2  134 24 0 0 0.359210244842766
0

0101000
+457 3 -455 3 *
Ve
1e-07
1.27 2.286 2.54
0 0

0101101
*
Ed
 1e-07 1 1 0
1  68 0 0 2.032
2  135 3 0 0 2.032
2  136 25 0 0 2.032
0

0101000
+455 3 -453 3 *
Ve
1e-07
1.016 2.54 2.54
0 0

0101101
*
Ed
 1e-07 1 1 0
1  69 0 0 0.359210244842766
2  137 3 0 0 0.359210244842766
2  138 26 0 0 0.359210244842766
0

0101000
+453 3 -451 3 *
Ve
1e-07
1.27 2.794 2.54
0 0

0101101
*
Ed
 1e-07 1 1 0
1  70 0 0 0.359210244842766
2  139 3 0 0 0.359210244842766
2  140 27 0 0 0.359210244842766
0

0101000
+451 3 -449 3 *
Ve
1e-07
1.27 4.826 2.54
0 0

0101101
*
Ed
 1e-07 1 1 0
1  71 0 0 2.032
2  141 3 0 0 2.032
2  142 28 0 0 2.032
0

0101000
+449 3 -447 3 *
Ed
 1e-07 1 1 0
1  72 0 0 0.359210244842766
2  143 3 0 0 0.359210244842766
2  144 6 0 0 0.359210244842766
0

0101000
+447 3 -585 3 *
Wi

0101100
+592 0 +578 0 +488 0 +486 0 +484 0 +482 0 +480 0 +478 0 +476 0 +474 0 
+472 0 +470 0 +468 0 +466 0 +464 0 +462 0 +460 0 +458 0 +456 0 +454 0 
+452 0 +450 0 +448 0 +446 0 +445 0 +583 0 *
Ve
1e-07
0.32 -0.949999999999999 2.54
0 0

0101101
*
Ve
1e-07
-0.32 -0.949999999999999 2.54
0 0

0101101
*
Ed
 1e-07 1 1 0
1  73 0 -0.48 0.16
2  145 3 0 -0.48 0.16
2  146 45 0 -0.48 0.16
0

0101000
+443 3 -442 3 *
Ve
1e-07
0.32 -1.59 2.54
0 0

0101101
*
Ed
 1e-07 1 1 0
1  74 0 -0.795 -0.154999999999999
2  147 3 0 -0.795 -0.154999999999999
2  148 46 0 -0.795 -0.154999999999999
0

0101000
+440 3 -443 3 *
Ve
1e-07
-0.32 -1.59 2.54
0 0

0101101
*
Ed
 1e-07 1 1 0
1  75 0 -0.48 0.16
2  149 3 0 -0.48 0.16
2  150 47 0 -0.48 0.16
0

0101000
+440 3 -438 3 *
Ed
 1e-07 1 1 0
1  76 0 -0.795 -0.154999999999999
2  151 3 0 -0.795 -0.154999999999999
2  152 48 0 -0.795 -0.154999999999999
0

0101000
+438 3 -442 3 *
Wi

0101100
-441 0 -439 0 +437 0 +436 0 *
Ve
1e-07
0.32 -4.13 2.54
0 0

0101101
*
Ve
1e-07
0.32 -3.49 2.54
0 0

0101101
*
Ed
 1e-07 1 1 0
1  77 0 -2.065 -1.425
2  153 3 0 -2.065 -1.425
2  154 49 0 -2.065 -1.425
0

0101000
+434 3 -433 3 *
Ve
1e-07
-0.32 -4.13 2.54
0 0

0101101
*
Ed
 1e-07 1 1 0
1  78 0 -0.48 0.16
2  155 3 0 -0.48 0.16
2  156 50 0 -0.48 0.16
0

0101000
+434 3 -431 3 *
Ve
1e-07
-0.32 -3.49 2.54
0 0

0101101
*
Ed
 1e-07 1 1 0
1  79 0 -2.065 -1.425
2  157 3 0 -2.065 -1.425
2  158 51 0 -2.065 -1.425
0

0101000
+431 3 -429 3 *
Ed
 1e-07 1 1 0
1  80 0 -0.48 0.16
2  159 3 0 -0.48 0.16
2  160 52 0 -0.48 0.16
0

0101000
+433 3 -429 3 *
Wi

0101100
-432 0 +430 0 +428 0 -427 0 *
Ve
1e-07
0.32 3.49 2.54
0 0

0101101
*
Ve
1e-07
0.32 4.13 2.54
0 0

0101101
*
Ed
 1e-07 1 1 0
1  81 0 1.745 2.385
2  161 3 0 1.745 2.385
2  162 53 0 1.745 2.385
0

0101000
+425 3 -424 3 *
Ve
1e-07
-0.32 3.49 2.54
0 0

0101101
*
Ed
 1e-07 1 1 0
1  82 0 -0.48 0.16
2  163 3 0 -0.48 0.16
2  164 54 0 -0.48 0.16
0

0101000
+425 3 -422 3 *
Ve
1e-07
-0.32 4.13 2.54
0 0

0101101
*
Ed
 1e-07 1 1 0
1  83 0 1.745 2.385
2  165 3 0 1.745 2.385
2  166 55 0 1.745 2.385
0

0101000
+422 3 -420 3 *
Ed
 1e-07 1 1 0
1  84 0 -0.48 0.16
2  167 3 0 -0.48 0.16
2  168 56 0 -0.48 0.16
0

0101000
+424 3 -420 3 *
Wi

0101100
-423 0 +421 0 +419 0 -418 0 *
Ve
1e-07
0.32 1.59 2.54
0 0

0101101
*
Ve
1e-07
-0.32 1.59 2.54
0 0

0101101
*
Ed
 1e-07 1 1 0
1  85 0 -0.48 0.16
2  169 3 0 -0.48 0.16
2  170 57 0 -0.48 0.16
0

0101000
+416 3 -415 3 *
Ve
1e-07
0.32 0.950000000000001 2.54
0 0

0101101
*
Ed
 1e-07 1 1 0
1  86 0 0.475 1.115
2  171 3 0 0.475 1.115
2  172 58 0 0.475 1.115
0

0101000
+413 3 -416 3 *
Ve
1e-07
-0.32 0.950000000000001 2.54
0 0

0101101
*
Ed
 1e-07 1 1 0
1  87 0 -0.48 0.16
2  173 3 0 -0.48 0.16
2  174 59 0 -0.48 0.16
0

0101000
+413 3 -411 3 *
Ed
 1e-07 1 1 0
1  88 0 0.475 1.115
2  175 3 0 0.475 1.115
2  176 60 0 0.475 1.115
0

0101000
+411 3 -415 3 *
Wi

0101100
-414 0 -412 0 +410 0 +409 0 *
Fa
0  1e-07 3 0

0101000
+444 0 +435 0 +426 0 +417 0 +408 0 *
Ed
 1e-07 1 1 0
1  89 0 0 2.54
2  177 6 0 0 2.54
2  178 28 0 0 2.54
0

0101000
+530 3 -447 3 *
Wi

0101100
+406 0 +445 0 -584 0 -528 0 *
Fa
0  1e-07 6 0

0101000
+405 0 *
Ed
 1e-07 1 1 0
1  90 0 0 2.54
2  179 7 0 0 2.54
2  180 8 0 0 2.54
0

0101000
+572 3 -489 3 *
Wi

0101100
+576 0 +488 0 -403 0 -571 0 *
Fa
0  1e-07 7 0

0101000
+402 0 *
Ed
 1e-07 1 1 0
1  91 0 0 2.54
2  181 28 0 0 2.54
2  182 27 0 0 2.54
0

0101000
+532 3 -449 3 *
Wi

0101100
+400 0 +446 0 -406 0 -529 0 *
Fa
0  1e-07 28 0

0101000
+399 0 *
Ed
 1e-07 1 1 0
1  92 0 0 2.54
2  183 8 0 0 2.54
2  184 9 0 0 2.54
0

0101000
+570 3 -487 3 *
Wi

0101100
+403 0 +486 0 -397 0 -569 0 *
Fa
0  1e-07 8 0

0101000
+396 0 *
Ed
 1e-07 1 1 0
1  93 0 0 2.54
2  185 27 0 0 2.54
2  186 26 0 0 2.54
0

0101000
+534 3 -451 3 *
Wi

0101100
+394 0 +448 0 -400 0 -531 0 *
Fa
0  1e-07 27 0

0101000
+393 0 *
Ed
 1e-07 1 1 0
1  94 0 0 2.54
2  187 9 0 0 2.54
2  188 10 0 0 2.54
0

0101000
+568 3 -485 3 *
Wi

0101100
+397 0 +484 0 -391 0 -567 0 *
Fa
0  1e-07 9 0

0101000
+390 0 *
Ed
 1e-07 1 1 0
1  95 0 0 2.54
2  189 26 0 0 2.54
2  190 25 0 0 2.54
0

0101000
+536 3 -453 3 *
Wi

0101100
+388 0 +450 0 -394 0 -533 0 *
Fa
0  1e-07 26 0

0101000
+387 0 *
Ed
 1e-07 1 1 0
1  96 0 0 2.54
2  191 10 0 0 2.54
2  192 11 0 0 2.54
0

0101000
+566 3 -483 3 *
Wi

0101100
+391 0 +482 0 -385 0 -565 0 *
Fa
0  1e-07 10 0

0101000
+384 0 *
Ed
 1e-07 1 1 0
1  97 0 0 2.54
2  193 25 0 0 2.54
2  194 24 0 0 2.54
0

0101000
+538 3 -455 3 *
Wi

0101100
+382 0 +452 0 -388 0 -535 0 *
Fa
0  1e-07 25 0

0101000
+381 0 *
Ed
 1e-07 1 1 0
1  98 0 0 2.54
2  195 11 0 0 2.54
2  196 12 0 0 2.54
0

0101000
+564 3 -481 3 *
Wi

0101100
+385 0 +480 0 -379 0 -563 0 *
Fa
0  1e-07 11 0

0101000
+378 0 *
Ed
 1e-07 1 1 0
1  99 0 0 2.54
2  197 24 0 0 2.54
2  198 23 0 0 2.54
0

0101000
+540 3 -457 3 *
Wi

0101100
+376 0 +454 0 -382 0 -537 0 *
Fa
0  1e-07 24 0

0101000
+375 0 *
Ed
 1e-07 1 1 0
1  100 0 0 2.54
2  199 12 0 0 2.54
2  200 13 0 0 2.54
0

0101000
+562 3 -479 3 *
Wi

0101100
+379 0 +478 0 -373 0 -561 0 *
Fa
0  1e-07 12 0

0101000
+372 0 *
Ed
 1e-07 1 1 0
1  101 0 0 2.54
2  201 23 0 0 2.54
2  202 22 0 0 2.54
0

0101000
+542 3 -459 3 *
Wi

0101100
+370 0 +456 0 -376 0 -539 0 *
Fa
0  1e-07 23 0

0101000
+369 0 *
Ed
 1e-07 1 1 0
1  102 0 0 2.54
2  203 13 0 0 2.54
2  204 14 0 0 2.54
0

0101000
+560 3 -477 3 *
Wi

0101100
+373 0 +476 0 -367 0 -559 0 *
Fa
0  1e-07 13 0

0101000
+366 0 *
Ed
 1e-07 1 1 0
1  103 0 0 2.54
2  205 22 0 0 2.54
2  206 21 0 0 2.54
0

0101000
+544 3 -461 3 *
Wi

0101100
+364 0 +458 0 -370 0 -541 0 *
Fa
0  1e-07 22 0

0101000
+363 0 *
Ed
 1e-07 1 1 0
1  104 0 0 2.54
2  207 14 0 0 2.54
2  208 15 0 0 2.54
0

0101000
+558 3 -475 3 *
Wi

0101100
+367 0 +474 0 -361 0 -557 0 *
Fa
0  1e-07 14 0

0101000
+360 0 *
Ed
 1e-07 1 1 0
1  105 0 0 2.54
2  209 21 0 0 2.54
2  210 20 0 0 2.54
0

0101000
+546 3 -463 3 *
Wi

0101100
+358 0 +460 0 -364 0 -543 0 *
Fa
0  1e-07 21 0

0101000
+357 0 *
Ed
 1e-07 1 1 0
1  106 0 0 2.54
2  211 15 0 0 2.54
2  212 16 0 0 2.54
0

0101000
+556 3 -473 3 *
Wi

0101100
+361 0 +472 0 -355 0 -555 0 *
Fa
0  1e-07 15 0

0101000
+354 0 *
Ed
 1e-07 1 1 0
1  107 0 0 2.54
2  213 20 0 0 2.54
2  214 19 0 0 2.54
0

0101000
+548 3 -465 3 *
Wi

0101100
+352 0 +462 0 -358 0 -545 0 *
Fa
0  1e-07 20 0

0101000
+351 0 *
Ed
 1e-07 1 1 0
1  108 0 0 2.54
2  215 16 0 0 2.54
2  216 17 0 0 2.54
0

0101000
+554 3 -471 3 *
Wi

0101100
+355 0 +470 0 -349 0 -553 0 *
Fa
0  1e-07 16 0

0101000
+348 0 *
Ed
 1e-07 1 1 0
1  109 0 0 2.54
2  217 19 0 0 2.54
2  218 18 0 0 2.54
0

0101000
+550 3 -467 3 *
Wi

0101100
+346 0 +464 0 -352 0 -547 0 *
Fa
0  1e-07 19 0

0101000
+345 0 *
Ed
 1e-07 1 1 0
1  110 0 0 2.54
2  219 17 0 0 2.54
2  220 18 0 0 2.54
0

0101000
+552 3 -469 3 *
Wi

0101100
+349 0 +468 0 -343 0 -551 0 *
Fa
0  1e-07 17 0

0101000
+342 0 *
Wi

0101100
+343 0 +466 0 -346 0 -549 0 *
Fa
0  1e-07 18 0

0101000
+340 0 *
Ve
1e-07
0.32 -0.949999999999999 -2.84
0 0

0101101
*
Ed
 1e-07 1 1 0
1  111 0 0.16 3
2  221 29 0 0.16 3
2  222 30 0 0.16 3
0

0101000
+338 3 -526 3 *
Ve
1e-07
-0.32 -0.949999999999999 -2.84
0 0

0101101
*
Ed
 1e-07 1 1 0
1  112 0 0 0.64
2  223 29 0 0 0.64
2  224 61 0 0 0.64
0

0101000
+336 3 -338 3 *
Ed
 1e-07 1 1 0
1  113 0 0.16 3
2  225 29 0 0.16 3
2  226 32 0 0.16 3
0

0101000
+336 3 -525 3 *
Wi

0101100
-337 0 -335 0 +334 0 -524 0 *
Fa
0  1e-07 29 0

0101000
+333 0 *
Ve
1e-07
-0.32 -1.59 -2.84
0 0

0101101
*
Ed
 1e-07 1 1 0
1  114 0 0.16 3
2  227 32 0 0.16 3
2  228 31 0 0.16 3
0

0101000
+331 3 -521 3 *
Ed
 1e-07 1 1 0
1  115 0 0 0.640000000000001
2  229 32 0 0 0.640000000000001
2  230 62 0 0 0.640000000000001
0

0101000
+331 3 -336 3 *
Wi

0101100
-330 0 +329 0 +334 0 -519 0 *
Fa
0  1e-07 32 0

0101000
+328 0 *
Ve
1e-07
0.32 -1.59 -2.84
0 0

0101101
*
Ed
 1e-07 1 1 0
1  116 0 0.16 3
2  231 31 0 0.16 3
2  232 30 0 0.16 3
0

0101000
+326 3 -523 3 *
Ed
 1e-07 1 1 0
1  117 0 0 0.64
2  233 31 0 0 0.64
2  234 63 0 0 0.64
0

0101000
+331 3 -326 3 *
Wi

0101100
-325 0 -324 0 +330 0 -520 0 *
Fa
0  1e-07 31 0

0101000
+323 0 *
Ed
 1e-07 1 1 0
1  118 0 0 0.640000000000001
2  235 30 0 0 0.640000000000001
2  236 64 0 0 0.640000000000001
0

0101000
+326 3 -338 3 *
Wi

0101100
-325 0 +321 0 +337 0 -522 0 *
Fa
0  1e-07 30 0

0101000
+320 0 *
Ve
1e-07
0.32 -4.13 -2.84
0 0

0101101
*
Ed
 1e-07 1 1 0
1  119 0 0.16 3
2  237 33 0 0.16 3
2  238 34 0 0.16 3
0

0101000
+318 3 -517 3 *
Ve
1e-07
0.32 -3.49 -2.84
0 0

0101101
*
Ed
 1e-07 1 1 0
1  120 0 0 0.640000000000001
2  239 33 0 0 0.640000000000001
2  240 65 0 0 0.640000000000001
0

0101000
+318 3 -316 3 *
Ed
 1e-07 1 1 0
1  121 0 0.16 3
2  241 33 0 0.16 3
2  242 36 0 0.16 3
0

0101000
+316 3 -516 3 *
Wi

0101100
-317 0 +315 0 +314 0 -515 0 *
Fa
0  1e-07 33 0

0101000
+313 0 *
Ve
1e-07
-0.32 -3.49 -2.84
0 0

0101101
*
Ed
 1e-07 1 1 0
1  122 0 0 0.64
2  243 36 0 0 0.64
2  244 66 0 0 0.64
0

0101000
+311 3 -316 3 *
Ed
 1e-07 1 1 0
1  123 0 0.16 3
2  245 36 0 0.16 3
2  246 35 0 0.16 3
0

0101000
+311 3 -512 3 *
Wi

0101100
-314 0 -310 0 +309 0 -510 0 *
Fa
0  1e-07 36 0

0101000
+308 0 *
Ve
1e-07
-0.32 -4.13 -2.84
0 0

0101101
*
Ed
 1e-07 1 1 0
1  124 0 0.16 3
2  247 35 0 0.16 3
2  248 34 0 0.16 3
0

0101000
+306 3 -514 3 *
Ed
 1e-07 1 1 0
1  125 0 0 0.640000000000001
2  249 35 0 0 0.640000000000001
2  250 67 0 0 0.640000000000001
0

0101000
+306 3 -311 3 *
Wi

0101100
-305 0 +304 0 +309 0 -511 0 *
Fa
0  1e-07 35 0

0101000
+303 0 *
Ed
 1e-07 1 1 0
1  126 0 0 0.64
2  251 34 0 0 0.64
2  252 68 0 0 0.64
0

0101000
+306 3 -318 3 *
Wi

0101100
-317 0 -301 0 +305 0 -513 0 *
Fa
0  1e-07 34 0

0101000
+300 0 *
Ve
1e-07
0.32 3.49 -2.84
0 0

0101101
*
Ed
 1e-07 1 1 0
1  127 0 0.16 3
2  253 37 0 0.16 3
2  254 38 0 0.16 3
0

0101000
+298 3 -508 3 *
Ve
1e-07
0.32 4.13 -2.84
0 0

0101101
*
Ed
 1e-07 1 1 0
1  128 0 0 0.64
2  255 37 0 0 0.64
2  256 69 0 0 0.64
0

0101000
+298 3 -296 3 *
Ed
 1e-07 1 1 0
1  129 0 0.16 3
2  257 37 0 0.16 3
2  258 40 0 0.16 3
0

0101000
+296 3 -507 3 *
Wi

0101100
-297 0 +295 0 +294 0 -506 0 *
Fa
0  1e-07 37 0

0101000
+293 0 *
Ve
1e-07
-0.32 4.13 -2.84
0 0

0101101
*
Ed
 1e-07 1 1 0
1  130 0 0 0.64
2  259 40 0 0 0.64
2  260 70 0 0 0.64
0

0101000
+291 3 -296 3 *
Ed
 1e-07 1 1 0
1  131 0 0.16 3
2  261 40 0 0.16 3
2  262 39 0 0.16 3
0

0101000
+291 3 -503 3 *
Wi

0101100
-294 0 -290 0 +289 0 -501 0 *
Fa
0  1e-07 40 0

0101000
+288 0 *
Ve
1e-07
-0.32 3.49 -2.84
0 0

0101101
*
Ed
 1e-07 1 1 0
1  132 0 0.16 3
2  263 39 0 0.16 3
2  264 38 0 0.16 3
0

0101000
+286 3 -505 3 *
Ed
 1e-07 1 1 0
1  133 0 0 0.64
2  265 39 0 0 0.64
2  266 71 0 0 0.64
0

0101000
+286 3 -291 3 *
Wi

0101100
-285 0 +284 0 +289 0 -502 0 *
Fa
0  1e-07 39 0

0101000
+283 0 *
Ed
 1e-07 1 1 0
1  134 0 0 0.64
2  267 38 0 0 0.64
2  268 72 0 0 0.64
0

0101000
+286 3 -298 3 *
Wi

0101100
-297 0 -281 0 +285 0 -504 0 *
Fa
0  1e-07 38 0

0101000
+280 0 *
Ve
1e-07
0.32 1.59 -2.84
0 0

0101101
*
Ed
 1e-07 1 1 0
1  135 0 0.16 3
2  269 41 0 0.16 3
2  270 42 0 0.16 3
0

0101000
+278 3 -499 3 *
Ve
1e-07
-0.32 1.59 -2.84
0 0

0101101
*
Ed
 1e-07 1 1 0
1  136 0 0 0.64
2  271 41 0 0 0.64
2  272 73 0 0 0.64
0

0101000
+276 3 -278 3 *
Ed
 1e-07 1 1 0
1  137 0 0.16 3
2  273 41 0 0.16 3
2  274 44 0 0.16 3
0

0101000
+276 3 -498 3 *
Wi

0101100
-277 0 -275 0 +274 0 -497 0 *
Fa
0  1e-07 41 0

0101000
+273 0 *
Ve
1e-07
-0.32 0.950000000000001 -2.84
0 0

0101101
*
Ed
 1e-07 1 1 0
1  138 0 0.16 3
2  275 44 0 0.16 3
2  276 43 0 0.16 3
0

0101000
+271 3 -494 3 *
Ed
 1e-07 1 1 0
1  139 0 0 0.64
2  277 44 0 0 0.64
2  278 74 0 0 0.64
0

0101000
+271 3 -276 3 *
Wi

0101100
-270 0 +269 0 +274 0 -492 0 *
Fa
0  1e-07 44 0

0101000
+268 0 *
Ve
1e-07
0.32 0.950000000000001 -2.84
0 0

0101101
*
Ed
 1e-07 1 1 0
1  140 0 0.16 3
2  279 43 0 0.16 3
2  280 42 0 0.16 3
0

0101000
+266 3 -496 3 *
Ed
 1e-07 1 1 0
1  141 0 0 0.64
2  281 43 0 0 0.64
2  282 75 0 0 0.64
0

0101000
+271 3 -266 3 *
Wi

0101100
-265 0 -264 0 +270 0 -493 0 *
Fa
0  1e-07 43 0

0101000
+263 0 *
Ed
 1e-07 1 1 0
1  142 0 0 0.64
2  283 42 0 0 0.64
2  284 76 0 0 0.64
0

0101000
+266 3 -278 3 *
Wi

0101100
-265 0 +261 0 +277 0 -495 0 *
Fa
0  1e-07 42 0

0101000
+260 0 *
Ve
1e-07
0.32 -0.949999999999999 8.38
0 0

0101101
*
Ed
 1e-07 1 1 0
1  143 0 5.54 11.38
2  285 45 0 5.54 11.38
2  286 46 0 5.54 11.38
0

0101000
+443 3 -258 3 *
Ve
1e-07
-0.32 -0.949999999999999 8.38
0 0

0101101
*
Ed
 1e-07 1 1 0
1  144 0 5.54 11.38
2  287 45 0 5.54 11.38
2  288 48 0 5.54 11.38
0

0101000
+442 3 -256 3 *
Ed
 1e-07 1 1 0
1  145 0 0 0.64
2  289 45 0 0 0.64
2  290 77 0 0 0.64
0

0101000
+256 3 -258 3 *
Wi

0101100
-257 0 +441 0 +255 0 +254 0 *
Fa
0  1e-07 45 0

0101000
+253 0 *
Ve
1e-07
-0.32 -1.59 8.38
0 0

0101101
*
Ed
 1e-07 1 1 0
1  146 0 5.54 11.38
2  291 48 0 5.54 11.38
2  292 47 0 5.54 11.38
0

0101000
+438 3 -251 3 *
Ed
 1e-07 1 1 0
1  147 0 0 0.640000000000001
2  293 48 0 0 0.640000000000001
2  294 78 0 0 0.640000000000001
0

0101000
+251 3 -256 3 *
Wi

0101100
-250 0 +436 0 +255 0 -249 0 *
Fa
0  1e-07 48 0

0101000
+248 0 *
Ve
1e-07
0.32 -1.59 8.38
0 0

0101101
*
Ed
 1e-07 1 1 0
1  148 0 5.54 11.38
2  295 47 0 5.54 11.38
2  296 46 0 5.54 11.38
0

0101000
+440 3 -246 3 *
Ed
 1e-07 1 1 0
1  149 0 0 0.64
2  297 47 0 0 0.64
2  298 79 0 0 0.64
0

0101000
+251 3 -246 3 *
Wi

0101100
-245 0 +437 0 +250 0 +244 0 *
Fa
0  1e-07 47 0

0101000
+243 0 *
Ed
 1e-07 1 1 0
1  150 0 0 0.640000000000001
2  299 46 0 0 0.640000000000001
2  300 80 0 0 0.640000000000001
0

0101000
+246 3 -258 3 *
Wi

0101100
-245 0 +439 0 +257 0 -241 0 *
Fa
0  1e-07 46 0

0101000
+240 0 *
Ve
1e-07
0.32 -4.13 8.38
0 0

0101101
*
Ed
 1e-07 1 1 0
1  151 0 5.54 11.38
2  301 49 0 5.54 11.38
2  302 50 0 5.54 11.38
0

0101000
+434 3 -238 3 *
Ve
1e-07
0.32 -3.49 8.38
0 0

0101101
*
Ed
 1e-07 1 1 0
1  152 0 5.54 11.38
2  303 49 0 5.54 11.38
2  304 52 0 5.54 11.38
0

0101000
+433 3 -236 3 *
Ed
 1e-07 1 1 0
1  153 0 0 0.640000000000001
2  305 49 0 0 0.640000000000001
2  306 81 0 0 0.640000000000001
0

0101000
+238 3 -236 3 *
Wi

0101100
-237 0 +432 0 +235 0 -234 0 *
Fa
0  1e-07 49 0

0101000
+233 0 *
Ve
1e-07
-0.32 -3.49 8.38
0 0

0101101
*
Ed
 1e-07 1 1 0
1  154 0 5.54 11.38
2  307 52 0 5.54 11.38
2  308 51 0 5.54 11.38
0

0101000
+429 3 -231 3 *
Ed
 1e-07 1 1 0
1  155 0 0 0.64
2  309 52 0 0 0.64
2  310 82 0 0 0.64
0

0101000
+231 3 -236 3 *
Wi

0101100
-235 0 +427 0 +230 0 +229 0 *
Fa
0  1e-07 52 0

0101000
+228 0 *
Ve
1e-07
-0.32 -4.13 8.38
0 0

0101101
*
Ed
 1e-07 1 1 0
1  156 0 5.54 11.38
2  311 51 0 5.54 11.38
2  312 50 0 5.54 11.38
0

0101000
+431 3 -226 3 *
Ed
 1e-07 1 1 0
1  157 0 0 0.640000000000001
2  313 51 0 0 0.640000000000001
2  314 83 0 0 0.640000000000001
0

0101000
+226 3 -231 3 *
Wi

0101100
-225 0 +428 0 +230 0 -224 0 *
Fa
0  1e-07 51 0

0101000
+223 0 *
Ed
 1e-07 1 1 0
1  158 0 0 0.64
2  315 50 0 0 0.64
2  316 84 0 0 0.64
0

0101000
+226 3 -238 3 *
Wi

0101100
-237 0 +430 0 +225 0 +221 0 *
Fa
0  1e-07 50 0

0101000
+220 0 *
Ve
1e-07
0.32 3.49 8.38
0 0

0101101
*
Ed
 1e-07 1 1 0
1  159 0 5.54 11.38
2  317 53 0 5.54 11.38
2  318 54 0 5.54 11.38
0

0101000
+425 3 -218 3 *
Ve
1e-07
0.32 4.13 8.38
0 0

0101101
*
Ed
 1e-07 1 1 0
1  160 0 5.54 11.38
2  319 53 0 5.54 11.38
2  320 56 0 5.54 11.38
0

0101000
+424 3 -216 3 *
Ed
 1e-07 1 1 0
1  161 0 0 0.64
2  321 53 0 0 0.64
2  322 85 0 0 0.64
0

0101000
+218 3 -216 3 *
Wi

0101100
-217 0 +423 0 +215 0 -214 0 *
Fa
0  1e-07 53 0

0101000
+213 0 *
Ve
1e-07
-0.32 4.13 8.38
0 0

0101101
*
Ed
 1e-07 1 1 0
1  162 0 5.54 11.38
2  323 56 0 5.54 11.38
2  324 55 0 5.54 11.38
0

0101000
+420 3 -211 3 *
Ed
 1e-07 1 1 0
1  163 0 0 0.64
2  325 56 0 0 0.64
2  326 86 0 0 0.64
0

0101000
+211 3 -216 3 *
Wi

0101100
-215 0 +418 0 +210 0 +209 0 *
Fa
0  1e-07 56 0

0101000
+208 0 *
Ve
1e-07
-0.32 3.49 8.38
0 0

0101101
*
Ed
 1e-07 1 1 0
1  164 0 5.54 11.38
2  327 55 0 5.54 11.38
2  328 54 0 5.54 11.38
0

0101000
+422 3 -206 3 *
Ed
 1e-07 1 1 0
1  165 0 0 0.64
2  329 55 0 0 0.64
2  330 87 0 0 0.64
0

0101000
+206 3 -211 3 *
Wi

0101100
-205 0 +419 0 +210 0 -204 0 *
Fa
0  1e-07 55 0

0101000
+203 0 *
Ed
 1e-07 1 1 0
1  166 0 0 0.64
2  331 54 0 0 0.64
2  332 88 0 0 0.64
0

0101000
+206 3 -218 3 *
Wi

0101100
-217 0 +421 0 +205 0 +201 0 *
Fa
0  1e-07 54 0

0101000
+200 0 *
Ve
1e-07
0.32 1.59 8.38
0 0

0101101
*
Ed
 1e-07 1 1 0
1  167 0 5.54 11.38
2  333 57 0 5.54 11.38
2  334 58 0 5.54 11.38
0

0101000
+416 3 -198 3 *
Ve
1e-07
-0.32 1.59 8.38
0 0

0101101
*
Ed
 1e-07 1 1 0
1  168 0 5.54 11.38
2  335 57 0 5.54 11.38
2  336 60 0 5.54 11.38
0

0101000
+415 3 -196 3 *
Ed
 1e-07 1 1 0
1  169 0 0 0.64
2  337 57 0 0 0.64
2  338 89 0 0 0.64
0

0101000
+196 3 -198 3 *
Wi

0101100
-197 0 +414 0 +195 0 +194 0 *
Fa
0  1e-07 57 0

0101000
+193 0 *
Ve
1e-07
-0.32 0.950000000000001 8.38
0 0

0101101
*
Ed
 1e-07 1 1 0
1  170 0 5.54 11.38
2  339 60 0 5.54 11.38
2  340 59 0 5.54 11.38
0

0101000
+411 3 -191 3 *
Ed
 1e-07 1 1 0
1  171 0 0 0.64
2  341 60 0 0 0.64
2  342 90 0 0 0.64
0

0101000
+191 3 -196 3 *
Wi

0101100
-190 0 +409 0 +195 0 -189 0 *
Fa
0  1e-07 60 0

0101000
+188 0 *
Ve
1e-07
0.32 0.950000000000001 8.38
0 0

0101101
*
Ed
 1e-07 1 1 0
1  172 0 5.54 11.38
2  343 59 0 5.54 11.38
2  344 58 0 5.54 11.38
0

0101000
+413 3 -186 3 *
Ed
 1e-07 1 1 0
1  173 0 0 0.64
2  345 59 0 0 0.64
2  346 91 0 0 0.64
0

0101000
+191 3 -186 3 *
Wi

0101100
-185 0 +410 0 +190 0 +184 0 *
Fa
0  1e-07 59 0

0101000
+183 0 *
Ed
 1e-07 1 1 0
1  174 0 0 0.64
2  347 58 0 0 0.64
2  348 92 0 0 0.64
0

0101000
+186 3 -198 3 *
Wi

0101100
-185 0 +412 0 +197 0 -181 0 *
Fa
0  1e-07 58 0

0101000
+180 0 *
Ve
1e-07
-0.16 -1.11 -3
0 0

0101101
*
Ed
 1e-07 1 1 0
1  175 0 -0.27712812921102 0
2  349 61 0 -0.27712812921102 0
2  350 62 0 -0.27712812921102 0
0

0101000
+336 3 -178 3 *
Ve
1e-07
0.16 -1.11 -3
0 0

0101101
*
Ed
 1e-07 1 1 0
1  176 0 -0.461880215352088 -0.184752086141067
2  351 61 0 -0.461880215352088 -0.184752086141067
2  352 64 0 -0.461880215352088 -0.184752086141067
0

0101000
+338 3 -176 3 *
Ed
 1e-07 1 1 0
1  177 0 0.16 0.48
2  353 61 0 0.16 0.48
2  354 93 0 0.16 0.48
0

0101000
+178 3 -176 3 *
Wi

0101100
-177 0 +335 0 +175 0 -174 0 *
Fa
0  1e-07 61 0

0101000
-173 0 *
Ve
1e-07
-0.16 -1.43 -3
0 0

0101101
*
Ed
 1e-07 1 1 0
1  178 0 -0.0923760430697632 0.184752086141257
2  355 62 0 -0.0923760430697632 0.184752086141257
2  356 63 0 -0.0923760430697632 0.184752086141257
0

0101000
+331 3 -171 3 *
Ed
 1e-07 1 1 0
1  179 0 0.16 0.48
2  357 62 0 0.16 0.48
2  358 93 0 0.16 0.48
0

0101000
+171 3 -178 3 *
Wi

0101100
-170 0 +329 0 +177 0 -169 0 *
Fa
0  1e-07 62 0

0101000
+168 0 *
Ve
1e-07
0.16 -1.43 -3
0 0

0101101
*
Ed
 1e-07 1 1 0
1  180 0 -0.27712812921102 0
2  359 63 0 -0.27712812921102 0
2  360 64 0 -0.27712812921102 0
0

0101000
+326 3 -166 3 *
Ed
 1e-07 1 1 0
1  181 0 0.16 0.48
2  361 63 0 0.16 0.48
2  362 93 0 0.16 0.48
0

0101000
+171 3 -166 3 *
Wi

0101100
-170 0 +324 0 +165 0 -164 0 *
Fa
0  1e-07 63 0

0101000
-163 0 *
Ed
 1e-07 1 1 0
1  182 0 0.16 0.48
2  363 64 0 0.16 0.48
2  364 93 0 0.16 0.48
0

0101000
+166 3 -176 3 *
Wi

0101100
-165 0 +321 0 +175 0 -161 0 *
Fa
0  1e-07 64 0

0101000
+160 0 *
Ve
1e-07
0.16 -3.97 -3
0 0

0101101
*
Ed
 1e-07 1 1 0
1  183 0 -0.27712812921102 0
2  365 65 0 -0.27712812921102 0
2  366 68 0 -0.27712812921102 0
0

0101000
+318 3 -158 3 *
Ve
1e-07
0.16 -3.65 -3
0 0

0101101
*
Ed
 1e-07 1 1 0
1  184 0 -0.461880215352088 -0.184752086141067
2  367 65 0 -0.461880215352088 -0.184752086141067
2  368 66 0 -0.461880215352088 -0.184752086141067
0

0101000
+316 3 -156 3 *
Ed
 1e-07 1 1 0
1  185 0 0.16 0.48
2  369 65 0 0.16 0.48
2  370 94 0 0.16 0.48
0

0101000
+158 3 -156 3 *
Wi

0101100
-157 0 +315 0 +155 0 -154 0 *
Fa
0  1e-07 65 0

0101000
+153 0 *
Ve
1e-07
-0.16 -3.65 -3
0 0

0101101
*
Ed
 1e-07 1 1 0
1  186 0 -0.27712812921102 0
2  371 66 0 -0.27712812921102 0
2  372 67 0 -0.27712812921102 0
0

0101000
+311 3 -151 3 *
Ed
 1e-07 1 1 0
1  187 0 0.16 0.48
2  373 66 0 0.16 0.48
2  374 94 0 0.16 0.48
0

0101000
+151 3 -156 3 *
Wi

0101100
-150 0 +310 0 +155 0 -149 0 *
Fa
0  1e-07 66 0

0101000
-148 0 *
Ve
1e-07
-0.16 -3.97 -3
0 0

0101101
*
Ed
 1e-07 1 1 0
1  188 0 -0.0923760430697632 0.184752086141257
2  375 67 0 -0.0923760430697632 0.184752086141257
2  376 68 0 -0.0923760430697632 0.184752086141257
0

0101000
+306 3 -146 3 *
Ed
 1e-07 1 1 0
1  189 0 0.16 0.48
2  377 67 0 0.16 0.48
2  378 94 0 0.16 0.48
0

0101000
+146 3 -151 3 *
Wi

0101100
-145 0 +304 0 +150 0 -144 0 *
Fa
0  1e-07 67 0

0101000
+143 0 *
Ed
 1e-07 1 1 0
1  190 0 0.16 0.48
2  379 68 0 0.16 0.48
2  380 94 0 0.16 0.48
0

0101000
+146 3 -158 3 *
Wi

0101100
-145 0 +301 0 +157 0 -141 0 *
Fa
0  1e-07 68 0

0101000
-140 0 *
Ve
1e-07
0.16 3.65 -3
0 0

0101101
*
Ed
 1e-07 1 1 0
1  191 0 -0.27712812921102 0
2  381 69 0 -0.27712812921102 0
2  382 72 0 -0.27712812921102 0
0

0101000
+298 3 -138 3 *
Ve
1e-07
0.16 3.97 -3
0 0

0101101
*
Ed
 1e-07 1 1 0
1  192 0 -0.461880215351897 -0.184752086140877
2  383 69 0 -0.461880215351897 -0.184752086140877
2  384 70 0 -0.461880215351897 -0.184752086140877
0

0101000
+296 3 -136 3 *
Ed
 1e-07 1 1 0
1  193 0 0.16 0.48
2  385 69 0 0.16 0.48
2  386 95 0 0.16 0.48
0

0101000
+138 3 -136 3 *
Wi

0101100
-137 0 +295 0 +135 0 -134 0 *
Fa
0  1e-07 69 0

0101000
+133 0 *
Ve
1e-07
-0.16 3.97 -3
0 0

0101101
*
Ed
 1e-07 1 1 0
1  194 0 -0.27712812921102 0
2  387 70 0 -0.27712812921102 0
2  388 71 0 -0.27712812921102 0
0

0101000
+291 3 -131 3 *
Ed
 1e-07 1 1 0
1  195 0 0.16 0.48
2  389 70 0 0.16 0.48
2  390 95 0 0.16 0.48
0

0101000
+131 3 -136 3 *
Wi

0101100
-130 0 +290 0 +135 0 -129 0 *
Fa
0  1e-07 70 0

0101000
-128 0 *
Ve
1e-07
-0.16 3.65 -3
0 0

0101101
*
Ed
 1e-07 1 1 0
1  196 0 -0.0923760430697629 0.184752086141258
2  391 71 0 -0.0923760430697629 0.184752086141258
2  392 72 0 -0.0923760430697629 0.184752086141258
0

0101000
+286 3 -126 3 *
Ed
 1e-07 1 1 0
1  197 0 0.16 0.48
2  393 71 0 0.16 0.48
2  394 95 0 0.16 0.48
0

0101000
+126 3 -131 3 *
Wi

0101100
-125 0 +284 0 +130 0 -124 0 *
Fa
0  1e-07 71 0

0101000
+123 0 *
Ed
 1e-07 1 1 0
1  198 0 0.16 0.48
2  395 72 0 0.16 0.48
2  396 95 0 0.16 0.48
0

0101000
+126 3 -138 3 *
Wi

0101100
-125 0 +281 0 +137 0 -121 0 *
Fa
0  1e-07 72 0

0101000
-120 0 *
Ve
1e-07
-0.16 1.43 -3
0 0

0101101
*
Ed
 1e-07 1 1 0
1  199 0 -0.27712812921102 0
2  397 73 0 -0.27712812921102 0
2  398 74 0 -0.27712812921102 0
0

0101000
+276 3 -118 3 *
Ve
1e-07
0.16 1.43 -3
0 0

0101101
*
Ed
 1e-07 1 1 0
1  200 0 -0.461880215352087 -0.184752086141067
2  399 73 0 -0.461880215352087 -0.184752086141067
2  400 76 0 -0.461880215352087 -0.184752086141067
0

0101000
+278 3 -116 3 *
Ed
 1e-07 1 1 0
1  201 0 0.16 0.48
2  401 73 0 0.16 0.48
2  402 96 0 0.16 0.48
0

0101000
+118 3 -116 3 *
Wi

0101100
-117 0 +275 0 +115 0 -114 0 *
Fa
0  1e-07 73 0

0101000
-113 0 *
Ve
1e-07
-0.16 1.11 -3
0 0

0101101
*
Ed
 1e-07 1 1 0
1  202 0 -0.0923760430697627 0.184752086141258
2  403 74 0 -0.0923760430697627 0.184752086141258
2  404 75 0 -0.0923760430697627 0.184752086141258
0

0101000
+271 3 -111 3 *
Ed
 1e-07 1 1 0
1  203 0 0.16 0.48
2  405 74 0 0.16 0.48
2  406 96 0 0.16 0.48
0

0101000
+111 3 -118 3 *
Wi

0101100
-110 0 +269 0 +117 0 -109 0 *
Fa
0  1e-07 74 0

0101000
+108 0 *
Ve
1e-07
0.16 1.11 -3
0 0

0101101
*
Ed
 1e-07 1 1 0
1  204 0 -0.27712812921102 0
2  407 75 0 -0.27712812921102 0
2  408 76 0 -0.27712812921102 0
0

0101000
+266 3 -106 3 *
Ed
 1e-07 1 1 0
1  205 0 0.16 0.48
2  409 75 0 0.16 0.48
2  410 96 0 0.16 0.48
0

0101000
+111 3 -106 3 *
Wi

0101100
-110 0 +264 0 +105 0 -104 0 *
Fa
0  1e-07 75 0

0101000
-103 0 *
Ed
 1e-07 1 1 0
1  206 0 0.16 0.48
2  411 76 0 0.16 0.48
2  412 96 0 0.16 0.48
0

0101000
+106 3 -116 3 *
Wi

0101100
-105 0 +261 0 +115 0 -101 0 *
Fa
0  1e-07 76 0

0101000
+100 0 *
Ve
1e-07
-0.16 -1.11 8.54
0 0

0101101
*
Ed
 1e-07 1 1 0
1  207 0 -0.277128129211019 0
2  413 77 0 -0.277128129211019 0
2  414 78 0 -0.277128129211019 0
0

0101000
+256 3 -98 3 *
Ve
1e-07
0.16 -1.11 8.54
0 0

0101101
*
Ed
 1e-07 1 1 0
1  208 0 -0.461880215352088 -0.184752086141068
2  415 77 0 -0.461880215352088 -0.184752086141068
2  416 80 0 -0.461880215352088 -0.184752086141068
0

0101000
+258 3 -96 3 *
Ed
 1e-07 1 1 0
1  209 0 0.16 0.48
2  417 77 0 0.16 0.48
2  418 97 0 0.16 0.48
0

0101000
+98 3 -96 3 *
Wi

0101100
-97 0 +254 0 +95 0 -94 0 *
Fa
0  1e-07 77 0

0101000
-93 0 *
Ve
1e-07
-0.16 -1.43 8.54
0 0

0101101
*
Ed
 1e-07 1 1 0
1  210 0 -0.0923760430697625 0.184752086141257
2  419 78 0 -0.0923760430697625 0.184752086141257
2  420 79 0 -0.0923760430697625 0.184752086141257
0

0101000
+251 3 -91 3 *
Ed
 1e-07 1 1 0
1  211 0 0.16 0.48
2  421 78 0 0.16 0.48
2  422 97 0 0.16 0.48
0

0101000
+91 3 -98 3 *
Wi

0101100
-90 0 +249 0 +97 0 -89 0 *
Fa
0  1e-07 78 0

0101000
+88 0 *
Ve
1e-07
0.16 -1.43 8.54
0 0

0101101
*
Ed
 1e-07 1 1 0
1  212 0 -0.277128129211019 0
2  423 79 0 -0.277128129211019 0
2  424 80 0 -0.277128129211019 0
0

0101000
+246 3 -86 3 *
Ed
 1e-07 1 1 0
1  213 0 0.16 0.48
2  425 79 0 0.16 0.48
2  426 97 0 0.16 0.48
0

0101000
+91 3 -86 3 *
Wi

0101100
-90 0 +244 0 +85 0 -84 0 *
Fa
0  1e-07 79 0

0101000
-83 0 *
Ed
 1e-07 1 1 0
1  214 0 0.16 0.48
2  427 80 0 0.16 0.48
2  428 97 0 0.16 0.48
0

0101000
+86 3 -96 3 *
Wi

0101100
-85 0 +241 0 +95 0 -81 0 *
Fa
0  1e-07 80 0

0101000
+80 0 *
Ve
1e-07
0.16 -3.97 8.54
0 0

0101101
*
Ed
 1e-07 1 1 0
1  215 0 -0.277128129211019 0
2  429 81 0 -0.277128129211019 0
2  430 84 0 -0.277128129211019 0
0

0101000
+238 3 -78 3 *
Ve
1e-07
0.16 -3.65 8.54
0 0

0101101
*
Ed
 1e-07 1 1 0
1  216 0 -0.461880215352088 -0.184752086141068
2  431 81 0 -0.461880215352088 -0.184752086141068
2  432 82 0 -0.461880215352088 -0.184752086141068
0

0101000
+236 3 -76 3 *
Ed
 1e-07 1 1 0
1  217 0 0.16 0.48
2  433 81 0 0.16 0.48
2  434 98 0 0.16 0.48
0

0101000
+78 3 -76 3 *
Wi

0101100
-77 0 +234 0 +75 0 -74 0 *
Fa
0  1e-07 81 0

0101000
+73 0 *
Ve
1e-07
-0.16 -3.65 8.54
0 0

0101101
*
Ed
 1e-07 1 1 0
1  218 0 -0.277128129211019 0
2  435 82 0 -0.277128129211019 0
2  436 83 0 -0.277128129211019 0
0

0101000
+231 3 -71 3 *
Ed
 1e-07 1 1 0
1  219 0 0.16 0.48
2  437 82 0 0.16 0.48
2  438 98 0 0.16 0.48
0

0101000
+71 3 -76 3 *
Wi

0101100
-70 0 +229 0 +75 0 -69 0 *
Fa
0  1e-07 82 0

0101000
-68 0 *
Ve
1e-07
-0.16 -3.97 8.54
0 0

0101101
*
Ed
 1e-07 1 1 0
1  220 0 -0.0923760430697625 0.184752086141257
2  439 83 0 -0.0923760430697625 0.184752086141257
2  440 84 0 -0.0923760430697625 0.184752086141257
0

0101000
+226 3 -66 3 *
Ed
 1e-07 1 1 0
1  221 0 0.16 0.48
2  441 83 0 0.16 0.48
2  442 98 0 0.16 0.48
0

0101000
+66 3 -71 3 *
Wi

0101100
-65 0 +224 0 +70 0 -64 0 *
Fa
0  1e-07 83 0

0101000
+63 0 *
Ed
 1e-07 1 1 0
1  222 0 0.16 0.48
2  443 84 0 0.16 0.48
2  444 98 0 0.16 0.48
0

0101000
+66 3 -78 3 *
Wi

0101100
-65 0 +221 0 +77 0 -61 0 *
Fa
0  1e-07 84 0

0101000
-60 0 *
Ve
1e-07
0.16 3.65 8.54
0 0

0101101
*
Ed
 1e-07 1 1 0
1  223 0 -0.277128129211019 0
2  445 85 0 -0.277128129211019 0
2  446 88 0 -0.277128129211019 0
0

0101000
+218 3 -58 3 *
Ve
1e-07
0.16 3.97 8.54
0 0

0101101
*
Ed
 1e-07 1 1 0
1  224 0 -0.461880215351897 -0.184752086140877
2  447 85 0 -0.461880215351897 -0.184752086140877
2  448 86 0 -0.461880215351897 -0.184752086140877
0

0101000
+216 3 -56 3 *
Ed
 1e-07 1 1 0
1  225 0 0.16 0.48
2  449 85 0 0.16 0.48
2  450 99 0 0.16 0.48
0

0101000
+58 3 -56 3 *
Wi

0101100
-57 0 +214 0 +55 0 -54 0 *
Fa
0  1e-07 85 0

0101000
+53 0 *
Ve
1e-07
-0.16 3.97 8.54
0 0

0101101
*
Ed
 1e-07 1 1 0
1  226 0 -0.277128129211019 0
2  451 86 0 -0.277128129211019 0
2  452 87 0 -0.277128129211019 0
0

0101000
+211 3 -51 3 *
Ed
 1e-07 1 1 0
1  227 0 0.16 0.48
2  453 86 0 0.16 0.48
2  454 99 0 0.16 0.48
0

0101000
+51 3 -56 3 *
Wi

0101100
-50 0 +209 0 +55 0 -49 0 *
Fa
0  1e-07 86 0

0101000
-48 0 *
Ve
1e-07
-0.16 3.65 8.54
0 0

0101101
*
Ed
 1e-07 1 1 0
1  228 0 -0.0923760430697621 0.184752086141257
2  455 87 0 -0.0923760430697621 0.184752086141257
2  456 88 0 -0.0923760430697621 0.184752086141257
0

0101000
+206 3 -46 3 *
Ed
 1e-07 1 1 0
1  229 0 0.16 0.48
2  457 87 0 0.16 0.48
2  458 99 0 0.16 0.48
0

0101000
+46 3 -51 3 *
Wi

0101100
-45 0 +204 0 +50 0 -44 0 *
Fa
0  1e-07 87 0

0101000
+43 0 *
Ed
 1e-07 1 1 0
1  230 0 0.16 0.48
2  459 88 0 0.16 0.48
2  460 99 0 0.16 0.48
0

0101000
+46 3 -58 3 *
Wi

0101100
-45 0 +201 0 +57 0 -41 0 *
Fa
0  1e-07 88 0

0101000
-40 0 *
Ve
1e-07
-0.16 1.43 8.54
0 0

0101101
*
Ed
 1e-07 1 1 0
1  231 0 -0.277128129211019 0
2  461 89 0 -0.277128129211019 0
2  462 90 0 -0.277128129211019 0
0

0101000
+196 3 -38 3 *
Ve
1e-07
0.16 1.43 8.54
0 0

0101101
*
Ed
 1e-07 1 1 0
1  232 0 -0.461880215352087 -0.184752086141068
2  463 89 0 -0.461880215352087 -0.184752086141068
2  464 92 0 -0.461880215352087 -0.184752086141068
0

0101000
+198 3 -36 3 *
Ed
 1e-07 1 1 0
1  233 0 0.16 0.48
2  465 89 0 0.16 0.48
2  466 100 0 0.16 0.48
0

0101000
+38 3 -36 3 *
Wi

0101100
-37 0 +194 0 +35 0 -34 0 *
Fa
0  1e-07 89 0

0101000
-33 0 *
Ve
1e-07
-0.16 1.11 8.54
0 0

0101101
*
Ed
 1e-07 1 1 0
1  234 0 -0.0923760430697619 0.184752086141257
2  467 90 0 -0.0923760430697619 0.184752086141257
2  468 91 0 -0.0923760430697619 0.184752086141257
0

0101000
+191 3 -31 3 *
Ed
 1e-07 1 1 0
1  235 0 0.16 0.48
2  469 90 0 0.16 0.48
2  470 100 0 0.16 0.48
0

0101000
+31 3 -38 3 *
Wi

0101100
-30 0 +189 0 +37 0 -29 0 *
Fa
0  1e-07 90 0

0101000
+28 0 *
Ve
1e-07
0.16 1.11 8.54
0 0

0101101
*
Ed
 1e-07 1 1 0
1  236 0 -0.277128129211019 0
2  471 91 0 -0.277128129211019 0
2  472 92 0 -0.277128129211019 0
0

0101000
+186 3 -26 3 *
Ed
 1e-07 1 1 0
1  237 0 0.16 0.48
2  473 91 0 0.16 0.48
2  474 100 0 0.16 0.48
0

0101000
+31 3 -26 3 *
Wi

0101100
-30 0 +184 0 +25 0 -24 0 *
Fa
0  1e-07 91 0

0101000
-23 0 *
Ed
 1e-07 1 1 0
1  238 0 0.16 0.48
2  475 92 0 0.16 0.48
2  476 100 0 0.16 0.48
0

0101000
+26 3 -36 3 *
Wi

0101100
-25 0 +181 0 +35 0 -21 0 *
Fa
0  1e-07 92 0

0101000
+20 0 *
Wi

0101100
+161 0 -174 0 -169 0 +164 0 *
Fa
0  1e-07 93 0

0101000
+18 0 *
Wi

0101100
+154 0 -149 0 -144 0 +141 0 *
Fa
0  1e-07 94 0

0101000
+16 0 *
Wi

0101100
+134 0 -129 0 -124 0 +121 0 *
Fa
0  1e-07 95 0

0101000
+14 0 *
Wi

0101100
+101 0 -114 0 -109 0 +104 0 *
Fa
0  1e-07 96 0

0101000
+12 0 *
Wi

0101100
+81 0 -94 0 -89 0 +84 0 *
Fa
0  1e-07 97 0

0101000
+10 0 *
Wi

0101100
+74 0 -69 0 -64 0 +61 0 *
Fa
0  1e-07 98 0

0101000
+8 0 *
Wi

0101100
+54 0 -49 0 -44 0 +41 0 *
Fa
0  1e-07 99 0

0101000
+6 0 *
Wi

0101100
+21 0 -34 0 -29 0 +24 0 *
Fa
0  1e-07 100 0

0101000
+4 0 *
Sh

0101100
-587 0 -580 0 -573 0 -490 0 +407 0 -404 0 -401 0 -398 0 -395 0 -392 0 
-389 0 -386 0 -383 0 -380 0 -377 0 -374 0 -371 0 -368 0 -365 0 -362 0 
-359 0 -356 0 -353 0 -350 0 -347 0 -344 0 -341 0 -339 0 +332 0 -327 0 
-322 0 +319 0 +312 0 +307 0 -302 0 -299 0 +292 0 +287 0 -282 0 -279 0 
+272 0 -267 0 -262 0 +259 0 +252 0 -247 0 -242 0 +239 0 +232 0 +227 0 
-222 0 -219 0 +212 0 +207 0 -202 0 -199 0 +192 0 -187 0 -182 0 +179 0 
-172 0 +167 0 +162 0 -159 0 -152 0 -147 0 +142 0 +139 0 -132 0 -127 0 
+122 0 +119 0 -112 0 +107 0 +102 0 -99 0 +92 0 -87 0 -82 0 +79 0 
+72 0 +67 0 -62 0 -59 0 +52 0 +47 0 -42 0 -39 0 +32 0 -27 0 
-22 0 +19 0 -17 0 -15 0 -13 0 -11 0 +9 0 +7 0 +5 0 +3 0 
*
So

0100000
+2 0 *

+1 1 