DBRep_DrawableShape

CASCADE Topology V1, (c) Matra-Datavision
Locations 0
Curve2ds 12
1 0 3 1 0 
2 0 0 1 0 -0 1 2.75
1 6.2831853071795862 -0 0 1 
1 0 -0 0 1 
1 0 0 1 0 
2 0 0 1 0 -0 1 2.75
1 0 0 1 0 
2 0 0 1 0 -0 1 1.5
1 0 12 1 0 
2 0 0 1 0 -0 1 1.5
1 6.2831853071795862 -0 0 1 
1 0 -0 0 1 
Curves 6
2 41.399999999999999 133.19999999999999 71.099999999999994 -0 -0 1 1 0 0 -0 1 0 2.75
1 44.149999999999999 133.19999999999999 68.099999999999994 0 0 1 
2 41.399999999999999 133.19999999999999 68.099999999999994 -0 -0 1 1 0 0 -0 1 0 2.75
2 41.399999999999999 133.19999999999999 68.099999999999994 0 0 -1 -1 0 -0 0 1 0 1.5
2 41.399999999999999 133.19999999999999 56.099999999999994 0 0 -1 -1 0 -0 0 1 0 1.5
1 39.899999999999999 133.19999999999999 68.099999999999994 0 0 -1 
Polygon3D 0
PolygonOnTriangulations 0
Surfaces 6
2 41.399999999999999 133.19999999999999 68.099999999999994 -0 -0 1 1 0 0 -0 1 0 2.75
1 41.399999999999999 133.19999999999999 71.099999999999994 -0 -0 1 1 0 0 -0 1 0 
1 41.399999999999999 133.19999999999999 68.099999999999994 -0 -0 1 1 0 0 -0 1 0 
2 41.399999999999999 133.19999999999999 68.099999999999994 0 0 -1 -1 0 -0 0 1 0 1.5
1 41.399999999999999 133.19999999999999 68.099999999999994 0 0 -1 -1 0 -0 0 1 0 
1 41.399999999999999 133.19999999999999 56.099999999999994 0 0 -1 -1 0 -0 0 1 0 
Triangulations 0

TShapes 24
Ve
1e-07
44.15 133.2 71.1
0 0

0101101
*
Ed
 1e-07 1 1 0
1  1 0 0 6.28318530717959
2  1 1 0 0 6.28318530717959
2  2 2 0 0 6.28318530717959
0

0101000
+24 0 -24 0 *
Ve
1e-07
44.15 133.2 68.1
0 0

0101101
*
Ed
 1e-07 1 1 0
1  2 0 0 3
3  3 4CN 1 0 0 3
0

0101000
-24 0 +22 0 *
Ed
 1e-07 1 1 0
1  3 0 0 6.28318530717959
2  5 1 0 0 6.28318530717959
2  6 3 0 0 6.28318530717959
0

0101000
+22 0 -22 0 *
Wi

0101100
-23 0 +21 0 +20 0 -21 0 *
Fa
0  1e-07 1 0

0101000
+19 0 *
Wi

0101100
+23 0 *
Fa
0  1e-07 2 0

0101000
+17 0 *
Wi

0101100
+20 0 *
Ve
1e-07
39.9 133.2 68.1
0 0

0101101
*
Ed
 1e-07 1 1 0
1  4 0 0 6.28318530717959
2  7 4 0 0 6.28318530717959
2  8 5 0 0 6.28318530717959
0

0101000
+14 0 -14 0 *
Wi

0101100
+13 0 *
Fa
0  1e-07 3 0

0101000
+15 0 +12 0 *
Ve
1e-07
39.9 133.2 56.1
0 0

0101101
*
Ed
 1e-07 1 1 0
1  5 0 0 6.28318530717959
2  9 4 0 0 6.28318530717959
2  10 6 0 0 6.28318530717959
0

0101000
+10 0 -10 0 *
Ed
 1e-07 1 1 0
1  6 0 0 12
3  11 12CN 4 0 0 12
0

0101000
+14 0 -10 0 *
Wi

0101100
-9 0 +8 0 +13 0 -8 0 *
Fa
0  1e-07 4 0

0101000
+7 0 *
Wi

0101100
+9 0 *
Fa
0  1e-07 6 0

0101000
+5 0 *
Sh

0101100
+18 0 +16 0 -11 0 +6 0 +4 0 *
So

0100000
+3 0 *
Co

0100000
+2 0 *

+1 0 