DBRep_DrawableShape

CASCADE Topology V1, (c) Matra-Datavision
Locations 0
Curve2ds 542
1 0 0 1 0 
1 0 0 1 0 
1 100 0 0 -1 
1 0 0 0 1 
1 0 -192.80000000000001 1 0 
1 0 0 1 0 
1 0 0 0 -1 
1 0 0 0 1 
1 0 0 0 1 
1 0 0 1 0 
1 0 0 1 0 
1 0 163 1 0 
1 100 0 0 1 
1 0 0 1 0 
2 61.549999999999997 40.5 1 0 -0 1 29.75
1 0 1 1 0 
2 61.549999999999997 122.5 1 0 -0 1 29.75
1 0 1 1 0 
1 100 0 0 1 
1 0 192.80000000000001 1 0 
1 100 0 0 -1 
1 163 0 0 1 
1 0 0 0 1 
1 0 192.80000000000001 1 0 
1 0 -192.80000000000001 1 0 
1 0 163 1 0 
1 0 -189.80000000000001 1 0 
1 0 0 1 0 
1 0 0 0 1 
1 0 189.80000000000001 1 0 
1 0 -101.2082488167681 1 0 
1 0 0 1 0 
1 54 0 0 1 
1 0 101.2082488167681 1 0 
1 0 -101.2082488167681 1 0 
1 0 122 1 0 
1 0 -189.80000000000001 1 0 
1 0 157 1 0 
1 94 0 0 1 
1 0 189.80000000000001 1 0 
1 0 -98.208248816768105 1 0 
1 0 116 1 0 
1 51 0 0 1 
1 0 98.208248816768105 1 0 
1 0 -98.208248816768105 1 0 
1 0 0 1 0 
1 0 0 0 -1 
1 163 0 0 1 
1 0 0 1 0 
2 0 0 1 0 -0 1 2.2999999999999998
1 0 0 1 0 
2 0 0 1 0 -0 1 2.2999999999999998
1 0 0 1 0 
2 0 0 1 0 -0 1 2.2999999999999998
2 81.5 141.69587559161596 1 0 -0 1 35
1 0 1 1 0 
1 0 0 1 0 
2 0 0 1 0 -0 1 2.2999999999999998
2 35 35 1 0 -0 1 29.75
1 0 12 1 0 
1 6.2831853071795862 -0 0 1 
1 0 -0 0 1 
2 35 35 1 0 -0 1 29.75
1 0 12 1 0 
1 6.2831853071795862 -0 0 1 
1 0 -0 0 1 
1 0 0 1 0 
1 0 0 1 0 
1 94 0 0 -1 
1 0 0 0 1 
1 0 0 0 -1 
1 0 0 0 1 
1 0 0 0 -1 
1 0 0 0 1 
2 60.255253392419853 -15.516133119958383 -1 0 0 1 4
1 0 0 1 0 
1 0 0 0 1 
1 0 0 1 0 
2 28.210253392419862 -33.421133119958355 -1 0 0 1 4
1 0 0 1 0 
2 28.210253392419862 -33.421133119958355 -1 0 0 1 4
1 0 0 1 0 
2 -35.589746607580153 -33.421133119958355 -1 0 0 1 4
1 0 0 1 0 
2 -35.589746607580153 -33.421133119958355 -1 0 0 1 4
1 0 0 1 0 
1 0 0 0 -1 
1 122 0 0 1 
1 0 0 0 -1 
1 157 0 0 1 
1 0 0 0 1 
1 0 0 1 0 
1 0 0 1 0 
2 0 0 1 0 -0 1 4
1 0 0 1 0 
2 0 0 1 0 -0 1 4
2 0 0 1 0 -0 1 4
1 0 0 1 0 
1 0 0 1 0 
2 0 0 1 0 -0 1 4
1 0 0 1 0 
2 0 0 1 0 -0 1 4
1 54 0 0 -1 
1 0 0 0 1 
8 -5.999999999062311e-07 58.5000006
1 0 -20.988198565194566 1 0 
8 -5.999999999062311e-07 58.5000006
1 1.6709637479564563 0 0 1 
2 0.39999999999999858 17.008248816768088 1 0 -0 1 4
1 0 54 1 0 
2 0.39999999999999858 17.008248816768088 1 0 -0 1 4
1 0 54 1 0 
1 54 0 0 -1 
1 122 0 0 1 
1 54 0 0 1 
1 0 0 1 0 
2 96.245000000000005 -0.89675118323188485 1 0 -0 1 4
1 0 54 1 0 
2 32.444999999999993 -0.89675118323188485 1 0 -0 1 4
1 0 54 1 0 
1 0 0 1 0 
2 0 0 1 0 -0 1 4
1 0 0 1 0 
2 0 0 1 0 -0 1 4
2 0 0 1 0 -0 1 4
1 6.2831853071795862 0 1 0 
2 0 0 1 0 -0 1 4
1 -6.2831853071795862 0 1 0 
1 0 0 1 0 
1 0 0 1 0 
1 0 0 1 0 
2 0 0 1 0 -0 1 4
1 0 0 1 0 
2 0 0 1 0 -0 1 4
1 0 0 1 0 
1 0 122 1 0 
1 0 0 1 0 
1 0 157 1 0 
1 94 0 0 -1 
1 157 0 0 1 
1 94 0 0 1 
1 0 0 1 0 
1 0 0 0 -1 
1 116 0 0 1 
1 0 0 0 1 
1 0 0 1 0 
1 0 0 1 0 
2 0 0 1 0 -0 1 4
1 0 0 1 0 
2 0 0 1 0 -0 1 4
1 0 0 0 -1 
1 0 0 0 1 
2 0 0 1 0 -0 1 4
1 -6.2831853071795862 0 1 0 
1 0 0 1 0 
1 0 0 1 0 
2 0 0 1 0 -0 1 43
1 0 0 1 0 
1 0 116 1 0 
1 51 0 0 -1 
1 116 0 0 1 
1 51 0 0 -1 
1 0 0 0 1 
2 -2.6000000000000014 14.008248816768088 1 0 -0 1 4
1 -6.2831853071795862 51 1 0 
1 0 51 1 0 
1 51 0 0 1 
1 0 0 1 0 
2 93.245000000000005 -3.8967511832318849 1 0 -0 1 4
1 0 51 1 0 
2 29.444999999999993 -3.8967511832318849 1 0 -0 1 4
1 0 51 1 0 
8 -5.999999999062311e-07 56.100000000000001
1 0 -17.047985647482221 1 0 
8 -5.999999999062311e-07 56.100000000000001
1 0.86321189006954091 0 0 1 
1 0 6.5 1 0 
2 0 0 1 0 -0 1 2.2999999999999998
1 6.2831853071795862 -0 0 1 
1 0 -0 0 1 
1 0 6.5 1 0 
2 0 0 1 0 -0 1 2.2999999999999998
1 6.2831853071795862 -0 0 1 
1 0 -0 0 1 
1 0 6.5 1 0 
2 0 0 1 0 -0 1 2.2999999999999998
1 6.2831853071795862 -0 0 1 
1 0 -0 0 1 
1 6.2831853071795862 -0 0 1 
1 0 -0 0 1 
1 0 8.5 1 0 
2 0 0 1 0 -0 1 35
1 0 6.5 1 0 
2 0 0 1 0 -0 1 2.2999999999999998
1 6.2831853071795862 -0 0 1 
1 0 -0 0 1 
1 0 0 0 1 
1 0 8 1 0 
1 0 -8 1 0 
1 0 70 1 0 
1 0 -8 1 0 
1 0 0 1 0 
1 70 0 0 1 
1 0 8 1 0 
1 0 0 1 0 
2 0 0 1 0 -0 1 2.2999999999999998
1 0 0 1 0 
2 0 0 1 0 -0 1 2.2999999999999998
1 0 0 1 0 
2 0 0 1 0 -0 1 2.2999999999999998
1 0 0 1 0 
2 0 0 1 0 -0 1 2.2999999999999998
1 0 0 0 1 
1 0 8 1 0 
1 0 -8 1 0 
1 0 70 1 0 
1 0 -8 1 0 
1 0 0 1 0 
1 70 0 0 1 
1 0 8 1 0 
1 0 0 1 0 
2 0 0 1 0 -0 1 2.2999999999999998
1 0 0 1 0 
2 0 0 1 0 -0 1 2.2999999999999998
1 0 0 1 0 
2 0 0 1 0 -0 1 2.2999999999999998
1 0 0 1 0 
2 0 0 1 0 -0 1 2.2999999999999998
1 0 0 1 0 
1 0 0 1 0 
1 70 0 0 1 
1 0 0 1 0 
1 0 0 1 0 
1 0 70 1 0 
1 0 0 0 1 
1 0 0 1 0 
1 0 0 1 0 
1 0 0 1 0 
1 70 0 0 1 
1 0 0 1 0 
1 0 0 1 0 
1 0 70 1 0 
1 0 0 0 1 
1 0 0 1 0 
1 6.2831853071795862 0 0 1 
1 0 0 0 1 
2 0 0 1 0 -0 1 4
1 0 58.5 1 0 
8 -5.999999999062311e-07 58.5000006
1 0 -13.02829906834161 1 0 
8 -5.999999999062311e-07 58.5000006
1 4.6122215592231299 0 0 1 
1 0 0 1 0 
1 0 0 1 0 
8 -5.999999999062311e-07 58.5000006
1 0 28.546816151671109 1 0 
8 -5.999999999062311e-07 58.5000006
1 2.9154831154620995 0 0 1 
1 6.2831853071795862 0 0 1 
1 0 0 0 1 
2 0 0 1 0 -0 1 4
1 0 58.5 1 0 
8 -5.999999999062311e-07 58.5000006
1 0 36.343183848328877 1 0 
8 -5.999999999062311e-07 58.5000006
1 0.22610953812769363 0 0 1 
8 -5.999999999062311e-07 58.5000006
1 0 92.346816151671121 1 0 
8 -5.999999999062311e-07 58.5000006
1 2.9154831154620999 0 0 1 
1 6.2831853071795862 0 0 1 
1 0 0 0 1 
2 0 0 1 0 -0 1 4
1 0 58.5 1 0 
8 -5.999999999062311e-07 58.5000006
1 0 100.14318384832889 1 0 
8 -5.999999999062311e-07 58.5000006
1 0.22610953812769363 0 0 1 
1 0 4.5 1 0 
2 0 0 1 0 -0 1 4
1 6.2831853071795862 -0 0 1 
1 0 -0 0 1 
1 0 4.5 1 0 
2 0 0 1 0 -0 1 4
1 6.2831853071795862 -0 0 1 
1 0 -0 0 1 
1 6.2831853071795862 0 0 1 
1 0 0 0 1 
2 0 0 1 0 -0 1 4
1 0 58.5 1 0 
1 0 4.5 1 0 
2 0 0 1 0 -0 1 4
1 6.2831853071795862 -0 0 1 
1 0 -0 0 1 
1 0 4.5 1 0 
2 0 0 1 0 -0 1 4
1 6.2831853071795862 -0 0 1 
1 0 -0 0 1 
1 0 4.5 1 0 
2 0 0 1 0 -0 1 4
1 6.2831853071795862 -0 0 1 
1 0 -0 0 1 
1 0 4.5 1 0 
2 0 0 1 0 -0 1 4
1 6.2831853071795862 -0 0 1 
1 0 -0 0 1 
1 0 4.5 1 0 
2 0 0 1 0 -0 1 4
8 -5.999999999062311e-07 4.5000005999999999
1 1.7948716120967252 0 0 1 
8 -5.999999999062311e-07 4.5000005999999999
1 4.4883136950828595 0 0 1 
8 -5.999999999062311e-07 4.5000005999999999
1 7.6299063486726544 0 0 1 
8 -5.999999999062311e-07 4.5000005999999999
1 -1.3467210414930664 0 0 1 
1 6.2831853071795862 4.5 1 0 
1 0 4.5 1 0 
2 0 0 1 0 -0 1 4
1 -6.2831853071795862 4.5 1 0 
1 0 4.5 1 0 
2 0 0 1 0 -0 1 4
1 6.2831853071795862 -0 0 1 
1 0 -0 0 1 
1 0 4.5 1 0 
2 0 0 1 0 -0 1 4
1 6.2831853071795862 -0 0 1 
1 0 -0 0 1 
8 -5.999999999062311e-07 56.100000000000001
1 0 94.147956375458364 1 0 
8 -5.999999999062311e-07 56.100000000000001
1 1.3430946802299657 0 0 1 
8 -5.999999999062311e-07 56.100000000000001
1 0 92.342043624541645 1 0 
8 -5.999999999062311e-07 56.100000000000001
1 1.7984979733598276 0 0 1 
8 -5.999999999062311e-07 56.100000000000001
1 0 30.347956375458356 1 0 
8 -5.999999999062311e-07 56.100000000000001
1 1.3430946802299666 0 0 1 
8 -5.999999999062311e-07 56.100000000000001
1 0 28.54204362454163 1 0 
8 -5.999999999062311e-07 56.100000000000001
1 1.7984979733598268 0 0 1 
1 0 0 1 0 
1 0 0 1 0 
8 -5.999999999062311e-07 56.100000000000001
1 0 -10.968511986053954 1 0 
8 -5.999999999062311e-07 56.100000000000001
1 -0.86321189006954135 0 0 1 
1 0 4.5 1 0 
2 0 0 1 0 -0 1 43
1 6.2831853071795862 -0 0 1 
1 0 -0 0 1 
1 0 0 1 0 
2 0 0 1 0 -0 1 2.2999999999999998
1 0 0 1 0 
2 0 0 1 0 -0 1 2.2999999999999998
1 0 0 1 0 
2 0 0 1 0 -0 1 2.2999999999999998
1 0 0 1 0 
2 0 0 1 0 -0 1 2.2999999999999998
1 0 0 0 -1 
1 0 0 0 1 
1 0 0 0 -1 
1 70 0 0 1 
1 70 0 0 -1 
1 70 0 0 1 
1 70 0 0 -1 
1 0 0 0 1 
1 0 10 1 0 
2 0 0 1 0 -0 1 2.2999999999999998
1 6.2831853071795862 -0 0 1 
1 0 -0 0 1 
1 0 10 1 0 
2 0 0 1 0 -0 1 2.2999999999999998
1 6.2831853071795862 -0 0 1 
1 0 -0 0 1 
1 0 10 1 0 
2 0 0 1 0 -0 1 2.2999999999999998
1 6.2831853071795862 -0 0 1 
1 0 -0 0 1 
1 0 10 1 0 
2 0 0 1 0 -0 1 2.2999999999999998
1 6.2831853071795862 -0 0 1 
1 0 -0 0 1 
1 0 0 0 -1 
1 0 0 0 1 
1 0 0 0 -1 
1 70 0 0 1 
1 70 0 0 -1 
1 70 0 0 1 
1 70 0 0 -1 
1 0 0 0 1 
1 0 10 1 0 
2 0 0 1 0 -0 1 2.2999999999999998
1 6.2831853071795862 -0 0 1 
1 0 -0 0 1 
1 0 10 1 0 
2 0 0 1 0 -0 1 2.2999999999999998
1 6.2831853071795862 -0 0 1 
1 0 -0 0 1 
1 0 10 1 0 
2 0 0 1 0 -0 1 2.2999999999999998
1 6.2831853071795862 -0 0 1 
1 0 -0 0 1 
1 0 10 1 0 
2 0 0 1 0 -0 1 2.2999999999999998
1 6.2831853071795862 -0 0 1 
1 0 -0 0 1 
1 0 0 1 0 
2 0 0 1 0 -0 1 2.2999999999999998
1 0 0 1 0 
2 0 0 1 0 -0 1 2.2999999999999998
1 0 0 1 0 
2 0 0 1 0 -0 1 2.2999999999999998
1 0 0 1 0 
2 0 0 1 0 -0 1 2.2999999999999998
1 0 0 1 0 
2 0 0 1 0 -0 1 2.2999999999999998
1 0 0 1 0 
2 0 0 1 0 -0 1 2.2999999999999998
1 0 0 1 0 
2 0 0 1 0 -0 1 2.2999999999999998
1 0 0 1 0 
2 0 0 1 0 -0 1 2.2999999999999998
1 0 0 1 0 
2 0 0 1 0 -0 1 2.2999999999999998
1 0 0 1 0 
2 0 0 1 0 -0 1 2.2999999999999998
1 0 6.5 1 0 
2 0 0 1 0 -0 1 2.2999999999999998
1 6.2831853071795862 -0 0 1 
1 0 -0 0 1 
1 0 6.5 1 0 
2 0 0 1 0 -0 1 2.2999999999999998
1 6.2831853071795862 -0 0 1 
1 0 -0 0 1 
1 0 6.5 1 0 
2 0 0 1 0 -0 1 2.2999999999999998
1 6.2831853071795862 -0 0 1 
1 0 -0 0 1 
1 0 6.5 1 0 
2 0 0 1 0 -0 1 2.2999999999999998
1 6.2831853071795862 -0 0 1 
1 0 -0 0 1 
1 0 6.5 1 0 
2 0 0 1 0 -0 1 2.2999999999999998
1 6.2831853071795862 -0 0 1 
1 0 -0 0 1 
1 0 6.5 1 0 
2 0 0 1 0 -0 1 2.2999999999999998
1 6.2831853071795862 -0 0 1 
1 0 -0 0 1 
1 0 6.5 1 0 
2 0 0 1 0 -0 1 2.2999999999999998
1 6.2831853071795862 -0 0 1 
1 0 -0 0 1 
1 0 6.5 1 0 
2 0 0 1 0 -0 1 2.2999999999999998
1 6.2831853071795862 -0 0 1 
1 0 -0 0 1 
1 0 6.5 1 0 
2 0 0 1 0 -0 1 2.2999999999999998
1 6.2831853071795862 -0 0 1 
1 0 -0 0 1 
1 0 6.5 1 0 
2 0 0 1 0 -0 1 2.2999999999999998
1 6.2831853071795862 -0 0 1 
1 0 -0 0 1 
1 0 6.5 1 0 
2 0 0 1 0 -0 1 2.2999999999999998
1 6.2831853071795862 -0 0 1 
1 0 -0 0 1 
1 0 6.5 1 0 
2 0 0 1 0 -0 1 2.2999999999999998
1 6.2831853071795862 -0 0 1 
1 0 -0 0 1 
1 0 6.5 1 0 
2 0 0 1 0 -0 1 2.2999999999999998
1 6.2831853071795862 -0 0 1 
1 0 -0 0 1 
1 0 6.5 1 0 
2 0 0 1 0 -0 1 2.2999999999999998
1 6.2831853071795862 -0 0 1 
1 0 -0 0 1 
1 0 10 1 0 
2 0 0 1 0 -0 1 4
1 6.2831853071795862 -0 0 1 
1 0 -0 0 1 
1 0 0 1 0 
2 0 0 1 0 -0 1 4
1 0 0 1 0 
2 0 0 1 0 -0 1 2.2999999999999998
1 0 8 1 0 
2 0 0 1 0 -0 1 2.2999999999999998
1 6.2831853071795862 -0 0 1 
1 0 -0 0 1 
1 0 10 1 0 
2 0 0 1 0 -0 1 4
1 6.2831853071795862 -0 0 1 
1 0 -0 0 1 
1 0 0 1 0 
2 0 0 1 0 -0 1 4
1 0 0 1 0 
2 0 0 1 0 -0 1 2.2999999999999998
1 0 8 1 0 
2 0 0 1 0 -0 1 2.2999999999999998
1 6.2831853071795862 -0 0 1 
1 0 -0 0 1 
1 0 10 1 0 
2 0 0 1 0 -0 1 4
1 6.2831853071795862 -0 0 1 
1 0 -0 0 1 
1 0 0 1 0 
2 0 0 1 0 -0 1 4
1 0 0 1 0 
2 0 0 1 0 -0 1 2.2999999999999998
1 0 8 1 0 
2 0 0 1 0 -0 1 2.2999999999999998
1 6.2831853071795862 -0 0 1 
1 0 -0 0 1 
1 0 10 1 0 
2 0 0 1 0 -0 1 4
1 6.2831853071795862 -0 0 1 
1 0 -0 0 1 
1 0 0 1 0 
2 0 0 1 0 -0 1 4
1 0 0 1 0 
2 0 0 1 0 -0 1 2.2999999999999998
1 0 8 1 0 
2 0 0 1 0 -0 1 2.2999999999999998
1 6.2831853071795862 -0 0 1 
1 0 -0 0 1 
1 0 10 1 0 
2 0 0 1 0 -0 1 4
1 6.2831853071795862 -0 0 1 
1 0 -0 0 1 
1 0 0 1 0 
2 0 0 1 0 -0 1 4
1 0 0 1 0 
2 0 0 1 0 -0 1 2.2999999999999998
1 0 8 1 0 
2 0 0 1 0 -0 1 2.2999999999999998
1 6.2831853071795862 -0 0 1 
1 0 -0 0 1 
1 0 10 1 0 
2 0 0 1 0 -0 1 4
1 6.2831853071795862 -0 0 1 
1 0 -0 0 1 
1 0 0 1 0 
2 0 0 1 0 -0 1 4
1 0 0 1 0 
2 0 0 1 0 -0 1 2.2999999999999998
1 0 8 1 0 
2 0 0 1 0 -0 1 2.2999999999999998
1 6.2831853071795862 -0 0 1 
1 0 -0 0 1 
1 0 10 1 0 
2 0 0 1 0 -0 1 4
1 6.2831853071795862 -0 0 1 
1 0 -0 0 1 
1 0 0 1 0 
2 0 0 1 0 -0 1 4
1 0 0 1 0 
2 0 0 1 0 -0 1 2.2999999999999998
1 0 8 1 0 
2 0 0 1 0 -0 1 2.2999999999999998
1 6.2831853071795862 -0 0 1 
1 0 -0 0 1 
Curves 262
1 -81.5 0 0 0 0 1 
1 -81.5 0 100 -0 1 0 
1 -81.5 192.80000000000001 0 0 0 1 
1 -81.5 0 0 -0 1 0 
1 -81.5 0 0 1 0 -0 
1 81.5 0 0 0 0 1 
1 -81.5 0 100 1 0 -0 
2 -41 0 61.549999999999997 0 1 0 0 -0 1 1 0 -0 29.75
2 41 0 61.549999999999997 0 1 0 0 -0 1 1 0 -0 29.75
1 -81.5 192.80000000000001 100 1 0 -0 
1 81.5 0 100 -0 1 0 
1 -81.5 192.80000000000001 0 1 0 -0 
1 81.5 192.80000000000001 0 0 0 1 
1 -78.5 192.80000000000001 3 0 0 1 
1 -78.5 192.80000000000001 3 1 0 -0 
1 -61 192.80000000000001 3 0 0 1 
1 -61 192.80000000000001 57 1 0 -0 
1 61 192.80000000000001 3 0 0 1 
1 78.5 192.80000000000001 3 0 0 1 
1 -78.5 192.80000000000001 97 1 0 -0 
1 58 192.80000000000001 3 0 0 1 
1 -58 192.80000000000001 54 1 0 -0 
1 -58 192.80000000000001 3 0 0 1 
1 81.5 0 0 -0 1 0 
2 -68 25 0 0 0 1 1 0 -0 -0 1 0 2.2999999999999998
2 68 25 0 0 0 1 1 0 -0 -0 1 0 2.2999999999999998
2 -68 135 0 0 0 1 1 0 -0 -0 1 0 2.2999999999999998
2 0 141.69587559161596 0 0 0 1 1 0 -0 -0 1 0 35
2 68 135 0 0 0 1 1 0 -0 -0 1 0 2.2999999999999998
2 -41 11 61.549999999999997 0 1 0 0 -0 1 1 0 -0 29.75
1 -41.000000000000007 -1 91.299999999999983 0 1 0 
2 41 11 61.549999999999997 0 1 0 0 -0 1 1 0 -0 29.75
1 40.999999999999993 -1 91.300000000000011 0 1 0 
1 -78.5 3 3 0 0 1 
1 -78.5 3 97 -0 1 0 
1 -78.5 3 3 -0 1 0 
1 -61 91.591751183231906 3 -0 1 0 
2 -60.600000000000001 108.59999999999999 3 0 0 1 1 0 -0 -0 1 0 4
1 -61 91.591751183231906 3 1 0 -0 
2 -28.555000000000007 90.695000000000022 3 0 0 1 1 0 -0 -0 1 0 4
2 35.245000000000005 90.695000000000022 3 0 0 1 1 0 -0 -0 1 0 4
1 61 91.591751183231906 3 -0 1 0 
1 78.5 3 3 -0 1 0 
1 -78.5 3 3 1 0 -0 
2 -68 25 3 0 0 1 1 0 -0 -0 1 0 4
2 68 25 3 0 0 1 1 0 -0 -0 1 0 4
2 11.300000000000006 81.900000000000006 3 0 0 1 1 0 -0 -0 1 0 4
2 -68 135 3 0 0 1 1 0 -0 -0 1 0 4
2 68 135 3 0 0 1 1 0 -0 -0 1 0 4
1 -61 91.591751183231906 57 -0 1 0 
1 -61 112.57994974842647 3 0 0 1 
2 -60.600000000000001 108.59999999999999 57 0 0 1 1 0 -0 -0 1 0 4
1 61 91.591751183231906 57 -0 1 0 
1 -61 91.591751183231906 57 1 0 -0 
2 35.245000000000005 90.695000000000022 57 0 0 1 1 0 -0 -0 1 0 4
2 -28.555000000000007 90.695000000000022 57 0 0 1 1 0 -0 -0 1 0 4
2 4.9000000000000004 106.19999999999999 57 0 0 1 1 0 -0 -0 1 0 4
2 4.300000000000006 136.19999999999999 57 0 0 1 1 0 -0 -0 1 0 4
2 41.399999999999999 125.40000000000001 57 0 0 1 1 0 -0 -0 1 0 4
2 41.399999999999999 133.19999999999999 57 0 0 1 1 0 -0 -0 1 0 4
2 -22.5 177.19999999999999 57 0 0 1 1 0 -0 -0 1 0 4
2 42.399999999999999 157.19999999999999 57 0 0 1 1 0 -0 -0 1 0 4
1 61 91.591751183231906 3 0 0 1 
1 78.5 3 3 0 0 1 
1 78.5 3 97 -0 1 0 
1 -78.5 3 97 1 0 -0 
1 58 94.591751183231906 3 -0 1 0 
1 -58 94.591751183231906 3 1 0 -0 
1 -58 94.591751183231906 3 -0 1 0 
2 0 141.69587559161596 3 0 0 1 1 0 -0 -0 1 0 43
1 58 94.591751183231906 3 0 0 1 
1 58 94.591751183231906 54 -0 1 0 
1 -58 94.591751183231906 54 -0 1 0 
2 -60.600000000000001 108.59999999999999 54 0 0 1 1 0 -0 -0 1 0 4
1 -58 94.591751183231906 54 1 0 -0 
2 35.245000000000005 90.695000000000022 54 0 0 1 1 0 -0 -0 1 0 4
2 -28.555000000000007 90.695000000000022 54 0 0 1 1 0 -0 -0 1 0 4
1 -58 111.63973683071413 3 0 0 1 
2 -68 25 6.5 0 0 1 1 0 -0 -0 1 0 2.2999999999999998
1 -65.700000000000003 25 0 0 0 1 
2 68 25 6.5 0 0 1 1 0 -0 -0 1 0 2.2999999999999998
1 70.299999999999997 25 0 0 0 1 
2 -68 135 6.5 0 0 1 1 0 -0 -0 1 0 2.2999999999999998
1 -65.700000000000003 135 0 0 0 1 
1 35 141.69587559161596 -1 0 0 1 
2 0 141.69587559161596 7.5 0 0 1 1 0 -0 -0 1 0 35
2 68 135 6.5 0 0 1 1 0 -0 -0 1 0 2.2999999999999998
1 70.299999999999997 135 0 0 0 1 
1 -76 11 26.549999999999997 1 0 -0 
1 -6 11 26.549999999999997 0 0 1 
1 -76 11 26.549999999999997 0 0 1 
1 -76 11 96.549999999999997 1 0 -0 
2 -64.400000000000006 11 38.149999999999999 0 -1 0 0 -0 -1 1 0 0 2.2999999999999998
2 -64.400000000000006 11 84.949999999999989 0 -1 0 0 -0 -1 1 0 0 2.2999999999999998
2 -17.600000000000001 11 38.149999999999999 0 -1 0 0 -0 -1 1 0 0 2.2999999999999998
2 -17.600000000000001 11 84.949999999999989 0 -1 0 0 -0 -1 1 0 0 2.2999999999999998
1 6 11 26.549999999999997 1 0 -0 
1 76 11 26.549999999999997 0 0 1 
1 6 11 26.549999999999997 0 0 1 
1 6 11 96.549999999999997 1 0 -0 
2 17.600000000000001 11 38.149999999999999 0 -1 0 0 -0 -1 1 0 0 2.2999999999999998
2 17.600000000000001 11 84.949999999999989 0 -1 0 0 -0 -1 1 0 0 2.2999999999999998
2 64.400000000000006 11 38.149999999999999 0 -1 0 0 -0 -1 1 0 0 2.2999999999999998
2 64.400000000000006 11 84.949999999999989 0 -1 0 0 -0 -1 1 0 0 2.2999999999999998
1 -76 3 26.549999999999997 0 0 1 
1 -76 3 96.549999999999997 1 0 -0 
1 -6 3 26.549999999999997 0 0 1 
1 -76 3 26.549999999999997 1 0 -0 
1 6 3 26.549999999999997 0 0 1 
1 6 3 96.549999999999997 1 0 -0 
1 76 3 26.549999999999997 0 0 1 
1 6 3 26.549999999999997 1 0 -0 
7 0 0  1 2 2  -56.600000000000001 108.59999999999999 57  -56.600000000000001 108.59999999999999 61.5 
 54 2 58.5 2
2 -60.600000000000001 108.59999999999999 61.5 0 0 1 1 0 -0 -0 1 0 4
1 -61 104.62005025157352 3 0 0 1 
1 -61 91.591751183231906 3 0 0 1 
1 -32.453183848328891 91.591751183231906 3 0 0 1 
7 0 0  1 2 2  -24.555000000000007 90.695000000000022 3  -24.555000000000007 90.695000000000022 61.5 
 0 2 58.5 2
2 -28.555000000000007 90.695000000000022 61.5 0 0 1 1 0 -0 -0 1 0 4
1 -24.656816151671119 91.591751183231906 3 0 0 1 
1 31.346816151671117 91.591751183231906 3 0 0 1 
7 0 0  1 2 2  39.245000000000005 90.695000000000022 3  39.245000000000005 90.695000000000022 61.5 
 0 2 58.5 2
2 35.245000000000005 90.695000000000022 61.5 0 0 1 1 0 -0 -0 1 0 4
1 39.143183848328889 91.591751183231906 3 0 0 1 
2 -68 25 7.5 0 0 1 1 0 -0 -0 1 0 4
1 -63.999999999999993 24.999999999999996 3 0 0 1 
2 68 25 7.5 0 0 1 1 0 -0 -0 1 0 4
1 72 25 3 0 0 1 
7 0 0  1 2 2  15.300000000000006 81.900000000000006 3  15.300000000000006 81.900000000000006 61.5 
 0 2 58.5 2
2 11.300000000000006 81.900000000000006 61.5 0 0 1 1 0 -0 -0 1 0 4
2 -68 135 7.5 0 0 1 1 0 -0 -0 1 0 4
1 -63.999999999999993 135 3 0 0 1 
2 68 135 7.5 0 0 1 1 0 -0 -0 1 0 4
1 72 135 3 0 0 1 
2 4.9000000000000004 106.19999999999999 61.5 0 0 1 1 0 -0 -0 1 0 4
1 8.9000000000000021 106.19999999999999 57 0 0 1 
2 4.300000000000006 136.19999999999999 61.5 0 0 1 1 0 -0 -0 1 0 4
1 8.300000000000006 136.19999999999999 57 0 0 1 
2 41.399999999999999 125.40000000000001 61.5 0 0 1 1 0 -0 -0 1 0 4
1 40.5111805582684 129.30000000000001 57 0 0 1 
1 42.288819441731597 129.30000000000001 57 0 0 1 
2 41.399999999999999 133.19999999999999 61.5 0 0 1 1 0 -0 -0 1 0 4
2 -22.5 177.19999999999999 61.5 0 0 1 1 0 -0 -0 1 0 4
1 -18.5 177.19999999999999 57 0 0 1 
2 42.399999999999999 157.19999999999999 61.5 0 0 1 1 0 -0 -0 1 0 4
1 46.399999999999999 157.19999999999999 57 0 0 1 
1 36.147956375458371 94.591751183231906 3 0 0 1 
1 34.342043624541638 94.591751183231906 3 0 0 1 
1 -27.652043624541644 94.591751183231906 3 0 0 1 
1 -29.45795637545837 94.591751183231906 3 0 0 1 
1 -58 94.591751183231906 3 0 0 1 
1 -58 105.56026316928586 3 0 0 1 
2 0 141.69587559161596 7.5 0 0 1 1 0 -0 -0 1 0 43
1 43 141.69587559161596 3 0 0 1 
2 -27.223611075682086 114.47226451593389 7.5 0 0 -1 -1 0 -0 0 1 0 2.2999999999999998
2 27.223611075682072 114.47226451593387 7.5 0 0 -1 -1 0 -0 0 1 0 2.2999999999999998
2 -27.223611075682076 168.91948666729803 7.5 0 0 -1 -1 0 -0 0 1 0 2.2999999999999998
2 27.223611075682083 168.91948666729803 7.5 0 0 -1 -1 0 -0 0 1 0 2.2999999999999998
1 -76 3 26.549999999999997 -0 1 0 
1 -6 3 26.549999999999997 -0 1 0 
1 -6 3 96.549999999999997 -0 1 0 
1 -76 3 96.549999999999997 -0 1 0 
2 -64.400000000000006 1 38.149999999999999 0 -1 0 0 -0 -1 1 0 0 2.2999999999999998
1 -64.400000000000006 11 35.850000000000001 0 -1 0 
2 -64.400000000000006 1 84.949999999999989 0 -1 0 0 -0 -1 1 0 0 2.2999999999999998
1 -64.400000000000006 11 82.649999999999991 0 -1 0 
2 -17.600000000000001 1 38.149999999999999 0 -1 0 0 -0 -1 1 0 0 2.2999999999999998
1 -17.600000000000005 11 35.850000000000001 0 -1 0 
2 -17.600000000000001 1 84.949999999999989 0 -1 0 0 -0 -1 1 0 0 2.2999999999999998
1 -17.600000000000001 11 82.649999999999991 0 -1 0 
1 6 3 26.549999999999997 -0 1 0 
1 76 3 26.549999999999997 -0 1 0 
1 76 3 96.549999999999997 -0 1 0 
1 6 3 96.549999999999997 -0 1 0 
2 17.600000000000001 1 38.149999999999999 0 -1 0 0 -0 -1 1 0 0 2.2999999999999998
1 17.599999999999998 11 35.850000000000001 0 -1 0 
2 17.600000000000001 1 84.949999999999989 0 -1 0 0 -0 -1 1 0 0 2.2999999999999998
1 17.600000000000001 11 82.649999999999991 0 -1 0 
2 64.400000000000006 1 38.149999999999999 0 -1 0 0 -0 -1 1 0 0 2.2999999999999998
1 64.400000000000006 11 35.850000000000001 0 -1 0 
2 64.400000000000006 1 84.949999999999989 0 -1 0 0 -0 -1 1 0 0 2.2999999999999998
1 64.400000000000006 11 82.649999999999991 0 -1 0 
2 -60.600000000000001 108.59999999999999 61.5 0 0 -1 -1 0 -0 0 1 0 2.2999999999999998
2 -28.555000000000007 90.695000000000022 61.5 0 0 -1 -1 0 -0 0 1 0 2.2999999999999998
2 35.245000000000005 90.695000000000022 61.5 0 0 -1 -1 0 -0 0 1 0 2.2999999999999998
2 11.300000000000006 81.900000000000006 61.5 0 0 -1 -1 0 -0 0 1 0 2.2999999999999998
2 4.9000000000000004 106.19999999999999 61.5 0 0 -1 -1 0 -0 0 1 0 2.2999999999999998
2 4.300000000000006 136.19999999999999 61.5 0 0 -1 -1 0 -0 0 1 0 2.2999999999999998
2 41.399999999999999 125.40000000000001 61.5 0 0 -1 -1 0 -0 0 1 0 2.2999999999999998
2 41.399999999999999 133.19999999999999 61.5 0 0 -1 -1 0 -0 0 1 0 2.2999999999999998
2 -22.5 177.19999999999999 61.5 0 0 -1 -1 0 -0 0 1 0 2.2999999999999998
2 42.399999999999999 157.19999999999999 61.5 0 0 -1 -1 0 -0 0 1 0 2.2999999999999998
2 -27.223611075682086 114.47226451593389 1 0 0 -1 -1 0 -0 0 1 0 2.2999999999999998
1 -29.523611075682087 114.47226451593387 7.5 0 0 -1 
2 27.223611075682072 114.47226451593387 1 0 0 -1 -1 0 -0 0 1 0 2.2999999999999998
1 24.923611075682071 114.47226451593387 7.5 0 0 -1 
2 -27.223611075682076 168.91948666729803 1 0 0 -1 -1 0 -0 0 1 0 2.2999999999999998
1 -29.523611075682076 168.91948666729803 7.5 0 0 -1 
2 27.223611075682083 168.91948666729803 1 0 0 -1 -1 0 -0 0 1 0 2.2999999999999998
1 24.923611075682082 168.91948666729803 7.5 0 0 -1 
2 -60.600000000000001 108.59999999999999 55 0 0 -1 -1 0 -0 0 1 0 2.2999999999999998
1 -62.899999999999999 108.59999999999999 61.5 0 0 -1 
2 -28.555000000000007 90.695000000000022 55 0 0 -1 -1 0 -0 0 1 0 2.2999999999999998
1 -30.855000000000008 90.695000000000007 61.5 0 0 -1 
2 35.245000000000005 90.695000000000022 55 0 0 -1 -1 0 -0 0 1 0 2.2999999999999998
1 32.945000000000007 90.695000000000022 61.5 0 0 -1 
2 11.300000000000006 81.900000000000006 55 0 0 -1 -1 0 -0 0 1 0 2.2999999999999998
1 9.0000000000000071 81.900000000000006 61.5 0 0 -1 
2 4.9000000000000004 106.19999999999999 55 0 0 -1 -1 0 -0 0 1 0 2.2999999999999998
1 2.6000000000000001 106.19999999999999 61.5 0 0 -1 
2 4.300000000000006 136.19999999999999 55 0 0 -1 -1 0 -0 0 1 0 2.2999999999999998
1 2.0000000000000067 136.19999999999999 61.5 0 0 -1 
2 41.399999999999999 125.40000000000001 55 0 0 -1 -1 0 -0 0 1 0 2.2999999999999998
1 39.100000000000001 125.40000000000001 61.5 0 0 -1 
2 41.399999999999999 133.19999999999999 55 0 0 -1 -1 0 -0 0 1 0 2.2999999999999998
1 39.100000000000001 133.19999999999999 61.5 0 0 -1 
2 -22.5 177.19999999999999 55 0 0 -1 -1 0 -0 0 1 0 2.2999999999999998
1 -24.800000000000001 177.19999999999999 61.5 0 0 -1 
2 42.399999999999999 157.19999999999999 55 0 0 -1 -1 0 -0 0 1 0 2.2999999999999998
1 40.100000000000001 157.19999999999999 61.5 0 0 -1 
2 -74 192.80000000000001 7.5 0 1 0 0 -0 1 1 0 -0 4
1 -74 182.80000000000001 11.5 0 1 0 
2 -74 182.80000000000001 7.5 0 1 0 0 -0 1 1 0 -0 4
2 -74 192.80000000000001 7.5 0 -1 0 0 -0 -1 1 0 0 2.2999999999999998
2 -74 184.80000000000001 7.5 0 -1 0 0 -0 -1 1 0 0 2.2999999999999998
1 -74 192.80000000000001 5.2000000000000002 0 -1 0 
2 74 192.80000000000001 7.5 0 1 0 0 -0 1 1 0 -0 4
1 74 182.80000000000001 11.5 0 1 0 
2 74 182.80000000000001 7.5 0 1 0 0 -0 1 1 0 -0 4
2 74 192.80000000000001 7.5 0 -1 0 0 -0 -1 1 0 0 2.2999999999999998
2 74 184.80000000000001 7.5 0 -1 0 0 -0 -1 1 0 0 2.2999999999999998
1 74 192.80000000000001 5.2000000000000002 0 -1 0 
2 -74 192.80000000000001 92.5 0 1 0 0 -0 1 1 0 -0 4
1 -74 182.80000000000001 96.5 0 1 0 
2 -74 182.80000000000001 92.5 0 1 0 0 -0 1 1 0 -0 4
2 -74 192.80000000000001 92.5 0 -1 0 0 -0 -1 1 0 0 2.2999999999999998
2 -74 184.80000000000001 92.5 0 -1 0 0 -0 -1 1 0 0 2.2999999999999998
1 -74 192.80000000000001 90.200000000000003 0 -1 0 
2 74 192.80000000000001 92.5 0 1 0 0 -0 1 1 0 -0 4
1 74 182.80000000000001 96.5 0 1 0 
2 74 182.80000000000001 92.5 0 1 0 0 -0 1 1 0 -0 4
2 74 192.80000000000001 92.5 0 -1 0 0 -0 -1 1 0 0 2.2999999999999998
2 74 184.80000000000001 92.5 0 -1 0 0 -0 -1 1 0 0 2.2999999999999998
1 74 192.80000000000001 90.200000000000003 0 -1 0 
2 0 192.80000000000001 92.5 0 1 0 0 -0 1 1 0 -0 4
1 -9.7971743931788434e-16 182.80000000000001 96.5 0 1 0 
2 0 182.80000000000001 92.5 0 1 0 0 -0 1 1 0 -0 4
2 0 192.80000000000001 92.5 0 -1 0 0 -0 -1 1 0 0 2.2999999999999998
2 0 184.80000000000001 92.5 0 -1 0 0 -0 -1 1 0 0 2.2999999999999998
1 -5.6333752760778231e-16 192.80000000000001 90.200000000000003 0 -1 0 
2 -50 192.80000000000001 7.5 0 1 0 0 -0 1 1 0 -0 4
1 -50 182.80000000000001 11.5 0 1 0 
2 -50 182.80000000000001 7.5 0 1 0 0 -0 1 1 0 -0 4
2 -50 192.80000000000001 7.5 0 -1 0 0 -0 -1 1 0 0 2.2999999999999998
2 -50 184.80000000000001 7.5 0 -1 0 0 -0 -1 1 0 0 2.2999999999999998
1 -50 192.80000000000001 5.2000000000000002 0 -1 0 
2 50 192.80000000000001 7.5 0 1 0 0 -0 1 1 0 -0 4
1 50 182.80000000000001 11.5 0 1 0 
2 50 182.80000000000001 7.5 0 1 0 0 -0 1 1 0 -0 4
2 50 192.80000000000001 7.5 0 -1 0 0 -0 -1 1 0 0 2.2999999999999998
2 50 184.80000000000001 7.5 0 -1 0 0 -0 -1 1 0 0 2.2999999999999998
1 50 192.80000000000001 5.2000000000000002 0 -1 0 
Polygon3D 0
PolygonOnTriangulations 0
Surfaces 210
1 -81.5 0 0 1 0 -0 0 0 1 0 -1 0 
1 -81.5 0 0 -0 1 0 0 0 1 1 0 -0 
1 -81.5 0 100 0 0 1 1 0 -0 -0 1 0 
1 -81.5 192.80000000000001 0 -0 1 0 0 0 1 1 0 -0 
1 -81.5 0 0 0 0 1 1 0 -0 -0 1 0 
1 81.5 0 0 1 0 -0 0 0 1 0 -1 0 
2 -41 -1 61.549999999999997 0 1 0 0 -0 1 1 0 -0 29.75
2 41 -1 61.549999999999997 0 1 0 0 -0 1 1 0 -0 29.75
1 -78.5 3 3 1 0 -0 0 0 1 0 -1 0 
1 -78.5 192.80000000000001 3 -0 1 0 0 0 1 1 0 -0 
1 -78.5 3 3 0 0 1 1 0 -0 -0 1 0 
1 -61 91.591751183231906 3 1 0 -0 0 0 1 0 -1 0 
1 -61 192.80000000000001 3 -0 1 0 0 0 1 1 0 -0 
1 -61 91.591751183231906 57 0 0 1 1 0 -0 -0 1 0 
1 61 91.591751183231906 3 1 0 -0 0 0 1 0 -1 0 
1 78.5 3 3 1 0 -0 0 0 1 0 -1 0 
1 -78.5 3 97 0 0 1 1 0 -0 -0 1 0 
1 58 94.591751183231906 3 1 0 -0 0 0 1 0 -1 0 
1 -58 192.80000000000001 3 -0 1 0 0 0 1 1 0 -0 
1 -58 94.591751183231906 54 0 0 1 1 0 -0 -0 1 0 
1 -58 94.591751183231906 3 1 0 -0 0 0 1 0 -1 0 
2 -68 25 0 0 0 1 1 0 -0 -0 1 0 2.2999999999999998
1 -68 25 0 0 0 1 1 0 -0 -0 1 0 
2 68 25 0 0 0 1 1 0 -0 -0 1 0 2.2999999999999998
1 68 25 0 0 0 1 1 0 -0 -0 1 0 
2 -68 135 0 0 0 1 1 0 -0 -0 1 0 2.2999999999999998
1 -68 135 0 0 0 1 1 0 -0 -0 1 0 
2 0 141.69587559161596 -1 0 0 1 1 0 -0 -0 1 0 35
2 68 135 0 0 0 1 1 0 -0 -0 1 0 2.2999999999999998
1 68 135 0 0 0 1 1 0 -0 -0 1 0 
1 -76 11 26.549999999999997 -0 1 0 0 0 1 1 0 -0 
1 6 11 26.549999999999997 -0 1 0 0 0 1 1 0 -0 
1 -78.5 3 3 -0 1 0 0 0 1 1 0 -0 
1 -61 91.591751183231906 3 0 0 1 1 0 -0 -0 1 0 
1 -0.3447466075801463 124.11613311995838 3.0000000000000022 -0 -0 -1 -1 0 0 0 1 -0 
10 0 6.2831853071795862 0 58.5
2 -60.600000000000001 108.59999999999999 3 0 0 1 1 0 -0 -0 1 0 4
1 -61 91.591751183231906 3 -0 1 0 0 0 1 1 0 -0 
10 0 6.2831853071795862 0 58.5
2 -28.555000000000007 90.695000000000022 3 0 0 1 1 0 -0 -0 1 0 4
10 0 6.2831853071795862 0 58.5
2 35.245000000000005 90.695000000000022 3 0 0 1 1 0 -0 -0 1 0 4
2 -68 25 3 0 0 1 1 0 -0 -0 1 0 4
1 -68 25 3 0 0 1 1 0 -0 -0 1 0 
2 68 25 3 0 0 1 1 0 -0 -0 1 0 4
1 68 25 3 0 0 1 1 0 -0 -0 1 0 
1 11.300000000000006 81.900000000000006 3 0 0 1 1 0 -0 -0 1 0 
10 0 6.2831853071795862 0 58.5
2 11.300000000000006 81.900000000000006 3 0 0 1 1 0 -0 -0 1 0 4
2 -68 135 3 0 0 1 1 0 -0 -0 1 0 4
1 -68 135 3 0 0 1 1 0 -0 -0 1 0 
2 68 135 3 0 0 1 1 0 -0 -0 1 0 4
1 68 135 3 0 0 1 1 0 -0 -0 1 0 
2 4.9000000000000004 106.19999999999999 57 0 0 1 1 0 -0 -0 1 0 4
1 4.9000000000000004 106.19999999999999 57 0 0 1 1 0 -0 -0 1 0 
2 4.300000000000006 136.19999999999999 57 0 0 1 1 0 -0 -0 1 0 4
1 4.300000000000006 136.19999999999999 57 0 0 1 1 0 -0 -0 1 0 
1 41.399999999999999 125.40000000000001 57 0 0 1 1 0 -0 -0 1 0 
2 41.399999999999999 125.40000000000001 57 0 0 1 1 0 -0 -0 1 0 4
1 41.399999999999999 133.19999999999999 57 0 0 1 1 0 -0 -0 1 0 
2 41.399999999999999 133.19999999999999 57 0 0 1 1 0 -0 -0 1 0 4
2 -22.5 177.19999999999999 57 0 0 1 1 0 -0 -0 1 0 4
1 -22.5 177.19999999999999 57 0 0 1 1 0 -0 -0 1 0 
2 42.399999999999999 157.19999999999999 57 0 0 1 1 0 -0 -0 1 0 4
1 42.399999999999999 157.19999999999999 57 0 0 1 1 0 -0 -0 1 0 
1 -58 94.591751183231906 3 0 0 1 1 0 -0 -0 1 0 
1 -58 94.591751183231906 3 -0 1 0 0 0 1 1 0 -0 
2 35.245000000000005 90.695000000000022 3 0 0 1 1 0 -0 -0 1 0 4
1 35.245000000000005 90.695000000000022 3 0 0 1 1 0 -0 -0 1 0 
2 -28.555000000000007 90.695000000000022 3 0 0 1 1 0 -0 -0 1 0 4
1 -28.555000000000007 90.695000000000022 3 0 0 1 1 0 -0 -0 1 0 
1 -60.600000000000001 108.59999999999999 3 0 0 1 1 0 -0 -0 1 0 
2 -60.600000000000001 108.59999999999999 3 0 0 1 1 0 -0 -0 1 0 4
2 0 141.69587559161596 3 0 0 1 1 0 -0 -0 1 0 43
1 0 141.69587559161596 3 0 0 1 1 0 -0 -0 1 0 
1 -68 25 6.5 0 0 1 1 0 -0 -0 1 0 
1 68 25 6.5 0 0 1 1 0 -0 -0 1 0 
1 -68 135 6.5 0 0 1 1 0 -0 -0 1 0 
1 0 141.69587559161596 7.5 0 0 1 1 0 -0 -0 1 0 
1 68 135 6.5 0 0 1 1 0 -0 -0 1 0 
1 -76 3 26.549999999999997 0 0 1 1 0 -0 -0 1 0 
1 -6 3 26.549999999999997 1 0 -0 0 0 1 0 -1 0 
1 -76 3 26.549999999999997 1 0 -0 0 0 1 0 -1 0 
1 -76 3 96.549999999999997 0 0 1 1 0 -0 -0 1 0 
2 -64.400000000000006 11 38.149999999999999 0 -1 0 0 -0 -1 1 0 0 2.2999999999999998
1 -64.400000000000006 11 38.149999999999999 0 -1 0 0 -0 -1 1 0 0 
2 -64.400000000000006 11 84.949999999999989 0 -1 0 0 -0 -1 1 0 0 2.2999999999999998
1 -64.400000000000006 11 84.949999999999989 0 -1 0 0 -0 -1 1 0 0 
2 -17.600000000000001 11 38.149999999999999 0 -1 0 0 -0 -1 1 0 0 2.2999999999999998
1 -17.600000000000001 11 38.149999999999999 0 -1 0 0 -0 -1 1 0 0 
2 -17.600000000000001 11 84.949999999999989 0 -1 0 0 -0 -1 1 0 0 2.2999999999999998
1 -17.600000000000001 11 84.949999999999989 0 -1 0 0 -0 -1 1 0 0 
1 6 3 26.549999999999997 0 0 1 1 0 -0 -0 1 0 
1 76 3 26.549999999999997 1 0 -0 0 0 1 0 -1 0 
1 6 3 26.549999999999997 1 0 -0 0 0 1 0 -1 0 
1 6 3 96.549999999999997 0 0 1 1 0 -0 -0 1 0 
2 17.600000000000001 11 38.149999999999999 0 -1 0 0 -0 -1 1 0 0 2.2999999999999998
1 17.600000000000001 11 38.149999999999999 0 -1 0 0 -0 -1 1 0 0 
2 17.600000000000001 11 84.949999999999989 0 -1 0 0 -0 -1 1 0 0 2.2999999999999998
1 17.600000000000001 11 84.949999999999989 0 -1 0 0 -0 -1 1 0 0 
2 64.400000000000006 11 38.149999999999999 0 -1 0 0 -0 -1 1 0 0 2.2999999999999998
1 64.400000000000006 11 38.149999999999999 0 -1 0 0 -0 -1 1 0 0 
2 64.400000000000006 11 84.949999999999989 0 -1 0 0 -0 -1 1 0 0 2.2999999999999998
1 64.400000000000006 11 84.949999999999989 0 -1 0 0 -0 -1 1 0 0 
1 -76 3 26.549999999999997 -0 1 0 0 0 1 1 0 -0 
1 6 3 26.549999999999997 -0 1 0 0 0 1 1 0 -0 
1 -60.600000000000001 108.59999999999999 61.5 0 0 1 1 0 -0 -0 1 0 
1 -28.555000000000007 90.695000000000022 61.5 0 0 1 1 0 -0 -0 1 0 
1 35.245000000000005 90.695000000000022 61.5 0 0 1 1 0 -0 -0 1 0 
1 -68 25 7.5 0 0 1 1 0 -0 -0 1 0 
1 68 25 7.5 0 0 1 1 0 -0 -0 1 0 
1 11.300000000000006 81.900000000000006 61.5 0 0 1 1 0 -0 -0 1 0 
1 -68 135 7.5 0 0 1 1 0 -0 -0 1 0 
1 68 135 7.5 0 0 1 1 0 -0 -0 1 0 
1 4.9000000000000004 106.19999999999999 61.5 0 0 1 1 0 -0 -0 1 0 
1 4.300000000000006 136.19999999999999 61.5 0 0 1 1 0 -0 -0 1 0 
1 41.399999999999999 125.40000000000001 61.5 0 0 1 1 0 -0 -0 1 0 
1 41.399999999999999 133.19999999999999 61.5 0 0 1 1 0 -0 -0 1 0 
1 -22.5 177.19999999999999 61.5 0 0 1 1 0 -0 -0 1 0 
1 42.399999999999999 157.19999999999999 61.5 0 0 1 1 0 -0 -0 1 0 
1 0 141.69587559161596 7.5 0 0 1 1 0 -0 -0 1 0 
2 -27.223611075682086 114.47226451593389 7.5 0 0 -1 -1 0 -0 0 1 0 2.2999999999999998
1 -27.223611075682086 114.47226451593389 7.5 0 0 -1 -1 0 -0 0 1 0 
2 27.223611075682072 114.47226451593387 7.5 0 0 -1 -1 0 -0 0 1 0 2.2999999999999998
1 27.223611075682072 114.47226451593387 7.5 0 0 -1 -1 0 -0 0 1 0 
2 -27.223611075682076 168.91948666729803 7.5 0 0 -1 -1 0 -0 0 1 0 2.2999999999999998
1 -27.223611075682076 168.91948666729803 7.5 0 0 -1 -1 0 -0 0 1 0 
2 27.223611075682083 168.91948666729803 7.5 0 0 -1 -1 0 -0 0 1 0 2.2999999999999998
1 27.223611075682083 168.91948666729803 7.5 0 0 -1 -1 0 -0 0 1 0 
1 -64.400000000000006 1 38.149999999999999 0 -1 0 0 -0 -1 1 0 0 
1 -64.400000000000006 1 84.949999999999989 0 -1 0 0 -0 -1 1 0 0 
1 -17.600000000000001 1 38.149999999999999 0 -1 0 0 -0 -1 1 0 0 
1 -17.600000000000001 1 84.949999999999989 0 -1 0 0 -0 -1 1 0 0 
1 17.600000000000001 1 38.149999999999999 0 -1 0 0 -0 -1 1 0 0 
1 17.600000000000001 1 84.949999999999989 0 -1 0 0 -0 -1 1 0 0 
1 64.400000000000006 1 38.149999999999999 0 -1 0 0 -0 -1 1 0 0 
1 64.400000000000006 1 84.949999999999989 0 -1 0 0 -0 -1 1 0 0 
2 -60.600000000000001 108.59999999999999 61.5 0 0 -1 -1 0 -0 0 1 0 2.2999999999999998
1 -60.600000000000001 108.59999999999999 61.5 0 0 -1 -1 0 -0 0 1 0 
2 -28.555000000000007 90.695000000000022 61.5 0 0 -1 -1 0 -0 0 1 0 2.2999999999999998
1 -28.555000000000007 90.695000000000022 61.5 0 0 -1 -1 0 -0 0 1 0 
2 35.245000000000005 90.695000000000022 61.5 0 0 -1 -1 0 -0 0 1 0 2.2999999999999998
1 35.245000000000005 90.695000000000022 61.5 0 0 -1 -1 0 -0 0 1 0 
2 11.300000000000006 81.900000000000006 61.5 0 0 -1 -1 0 -0 0 1 0 2.2999999999999998
1 11.300000000000006 81.900000000000006 61.5 0 0 -1 -1 0 -0 0 1 0 
2 4.9000000000000004 106.19999999999999 61.5 0 0 -1 -1 0 -0 0 1 0 2.2999999999999998
1 4.9000000000000004 106.19999999999999 61.5 0 0 -1 -1 0 -0 0 1 0 
2 4.300000000000006 136.19999999999999 61.5 0 0 -1 -1 0 -0 0 1 0 2.2999999999999998
1 4.300000000000006 136.19999999999999 61.5 0 0 -1 -1 0 -0 0 1 0 
1 41.574166975080225 129.29999999999998 61.500000000000007 0 0 1 1 0 -0 -0 1 0 
2 41.399999999999999 125.40000000000001 61.5 0 0 -1 -1 0 -0 0 1 0 2.2999999999999998
1 41.399999999999999 125.40000000000001 61.5 0 0 -1 -1 0 -0 0 1 0 
2 41.399999999999999 133.19999999999999 61.5 0 0 -1 -1 0 -0 0 1 0 2.2999999999999998
1 41.399999999999999 133.19999999999999 61.5 0 0 -1 -1 0 -0 0 1 0 
2 -22.5 177.19999999999999 61.5 0 0 -1 -1 0 -0 0 1 0 2.2999999999999998
1 -22.5 177.19999999999999 61.5 0 0 -1 -1 0 -0 0 1 0 
2 42.399999999999999 157.19999999999999 61.5 0 0 -1 -1 0 -0 0 1 0 2.2999999999999998
1 42.399999999999999 157.19999999999999 61.5 0 0 -1 -1 0 -0 0 1 0 
1 -27.223611075682086 114.47226451593389 1 0 0 -1 -1 0 -0 0 1 0 
1 27.223611075682072 114.47226451593387 1 0 0 -1 -1 0 -0 0 1 0 
1 -27.223611075682076 168.91948666729803 1 0 0 -1 -1 0 -0 0 1 0 
1 27.223611075682083 168.91948666729803 1 0 0 -1 -1 0 -0 0 1 0 
1 -60.600000000000001 108.59999999999999 55 0 0 -1 -1 0 -0 0 1 0 
1 -28.555000000000007 90.695000000000022 55 0 0 -1 -1 0 -0 0 1 0 
1 35.245000000000005 90.695000000000022 55 0 0 -1 -1 0 -0 0 1 0 
1 11.300000000000006 81.900000000000006 55 0 0 -1 -1 0 -0 0 1 0 
1 4.9000000000000004 106.19999999999999 55 0 0 -1 -1 0 -0 0 1 0 
1 4.300000000000006 136.19999999999999 55 0 0 -1 -1 0 -0 0 1 0 
1 41.399999999999999 125.40000000000001 55 0 0 -1 -1 0 -0 0 1 0 
1 41.399999999999999 133.19999999999999 55 0 0 -1 -1 0 -0 0 1 0 
1 -22.5 177.19999999999999 55 0 0 -1 -1 0 -0 0 1 0 
1 42.399999999999999 157.19999999999999 55 0 0 -1 -1 0 -0 0 1 0 
2 -74 182.80000000000001 7.5 0 1 0 0 -0 1 1 0 -0 4
1 -74 192.80000000000001 7.5 0 1 0 0 -0 1 1 0 -0 
1 -74 182.80000000000001 7.5 0 1 0 0 -0 1 1 0 -0 
2 -74 192.80000000000001 7.5 0 -1 0 0 -0 -1 1 0 0 2.2999999999999998
1 -74 192.80000000000001 7.5 0 -1 0 0 -0 -1 1 0 0 
1 -74 184.80000000000001 7.5 0 -1 0 0 -0 -1 1 0 0 
2 74 182.80000000000001 7.5 0 1 0 0 -0 1 1 0 -0 4
1 74 192.80000000000001 7.5 0 1 0 0 -0 1 1 0 -0 
1 74 182.80000000000001 7.5 0 1 0 0 -0 1 1 0 -0 
2 74 192.80000000000001 7.5 0 -1 0 0 -0 -1 1 0 0 2.2999999999999998
1 74 192.80000000000001 7.5 0 -1 0 0 -0 -1 1 0 0 
1 74 184.80000000000001 7.5 0 -1 0 0 -0 -1 1 0 0 
2 -74 182.80000000000001 92.5 0 1 0 0 -0 1 1 0 -0 4
1 -74 192.80000000000001 92.5 0 1 0 0 -0 1 1 0 -0 
1 -74 182.80000000000001 92.5 0 1 0 0 -0 1 1 0 -0 
2 -74 192.80000000000001 92.5 0 -1 0 0 -0 -1 1 0 0 2.2999999999999998
1 -74 192.80000000000001 92.5 0 -1 0 0 -0 -1 1 0 0 
1 -74 184.80000000000001 92.5 0 -1 0 0 -0 -1 1 0 0 
2 74 182.80000000000001 92.5 0 1 0 0 -0 1 1 0 -0 4
1 74 192.80000000000001 92.5 0 1 0 0 -0 1 1 0 -0 
1 74 182.80000000000001 92.5 0 1 0 0 -0 1 1 0 -0 
2 74 192.80000000000001 92.5 0 -1 0 0 -0 -1 1 0 0 2.2999999999999998
1 74 192.80000000000001 92.5 0 -1 0 0 -0 -1 1 0 0 
1 74 184.80000000000001 92.5 0 -1 0 0 -0 -1 1 0 0 
2 0 182.80000000000001 92.5 0 1 0 0 -0 1 1 0 -0 4
1 0 192.80000000000001 92.5 0 1 0 0 -0 1 1 0 -0 
1 0 182.80000000000001 92.5 0 1 0 0 -0 1 1 0 -0 
2 0 192.80000000000001 92.5 0 -1 0 0 -0 -1 1 0 0 2.2999999999999998
1 0 192.80000000000001 92.5 0 -1 0 0 -0 -1 1 0 0 
1 0 184.80000000000001 92.5 0 -1 0 0 -0 -1 1 0 0 
2 -50 182.80000000000001 7.5 0 1 0 0 -0 1 1 0 -0 4
1 -50 192.80000000000001 7.5 0 1 0 0 -0 1 1 0 -0 
1 -50 182.80000000000001 7.5 0 1 0 0 -0 1 1 0 -0 
2 -50 192.80000000000001 7.5 0 -1 0 0 -0 -1 1 0 0 2.2999999999999998
1 -50 192.80000000000001 7.5 0 -1 0 0 -0 -1 1 0 0 
1 -50 184.80000000000001 7.5 0 -1 0 0 -0 -1 1 0 0 
2 50 182.80000000000001 7.5 0 1 0 0 -0 1 1 0 -0 4
1 50 192.80000000000001 7.5 0 1 0 0 -0 1 1 0 -0 
1 50 182.80000000000001 7.5 0 1 0 0 -0 1 1 0 -0 
2 50 192.80000000000001 7.5 0 -1 0 0 -0 -1 1 0 0 2.2999999999999998
1 50 192.80000000000001 7.5 0 -1 0 0 -0 -1 1 0 0 
1 50 184.80000000000001 7.5 0 -1 0 0 -0 -1 1 0 0 
Triangulations 0

TShapes 869
Ve
1e-07
-81.5 0 100
0 0

0101101
*
Ve
1e-07
-81.5 0 0
0 0

0101101
*
Ed
 1e-07 1 1 0
1  1 0 0 100
2  1 1 0 0 100
2  2 2 0 0 100
0

0101000
-869 0 +868 0 *
Ve
1e-07
-81.5 192.8 100
0 0

0101101
*
Ed
 1e-07 1 1 0
1  2 0 0 192.8
2  3 1 0 0 192.8
2  4 3 0 0 192.8
0

0101000
-866 0 +869 0 *
Ve
1e-07
-81.5 192.8 0
0 0

0101101
*
Ed
 1e-07 1 1 0
1  3 0 0 100
2  5 1 0 0 100
2  6 4 0 0 100
0

0101000
-866 0 +864 0 *
Ed
 1e-07 1 1 0
1  4 0 0 192.8
2  7 1 0 0 192.8
2  8 5 0 0 192.8
0

0101000
-864 0 +868 0 *
Wi

0101100
-867 0 -865 0 +863 0 +862 0 *
Fa
0  1e-07 1 0

0101000
+861 0 *
Ve
1e-07
81.5 0 0
0 0

0101101
*
Ed
 1e-07 1 1 0
1  5 0 0 163
2  9 2 0 0 163
2  10 5 0 0 163
0

0101000
-859 0 +868 0 *
Ve
1e-07
81.5 0 100
0 0

0101101
*
Ed
 1e-07 1 1 0
1  6 0 0 100
2  11 6 0 0 100
2  12 2 0 0 100
0

0101000
-857 0 +859 0 *
Ed
 1e-07 1 1 0
1  7 0 0 163
2  13 2 0 0 163
2  14 3 0 0 163
0

0101000
-857 0 +869 0 *
Wi

0101100
-858 0 -856 0 +867 0 +855 0 *
Ve
1.00000015888219e-07
-41 0 91.3
0 0

0101101
*
Ed
 1e-07 1 1 0
1  8 0 0 6.28318530717959
2  15 2 0 0 6.28318530717959
2  16 7 0 0 6.28318530717959
0

0101000
+853 0 -853 0 *
Wi

0101100
-852 0 *
Ve
1.00000015888219e-07
41 0 91.3
0 0

0101101
*
Ed
 1e-07 1 1 0
1  9 0 0 6.28318530717959
2  17 2 0 0 6.28318530717959
2  18 8 0 0 6.28318530717959
0

0101000
+850 0 -850 0 *
Wi

0101100
-849 0 *
Fa
0  1e-07 2 0

0101000
+854 0 +851 0 +848 0 *
Ve
1e-07
81.5 192.8 100
0 0

0101101
*
Ed
 1e-07 1 1 0
1  10 0 0 163
2  19 4 0 0 163
2  20 3 0 0 163
0

0101000
-846 0 +866 0 *
Ed
 1e-07 1 1 0
1  11 0 0 192.8
2  21 6 0 0 192.8
2  22 3 0 0 192.8
0

0101000
-846 0 +857 0 *
Wi

0101100
-865 0 -845 0 +844 0 +855 0 *
Fa
0  1e-07 3 0

0101000
+843 0 *
Ve
1e-07
81.5 192.8 0
0 0

0101101
*
Ed
 1e-07 1 1 0
1  12 0 0 163
2  23 4 0 0 163
2  24 5 0 0 163
0

0101000
-841 0 +864 0 *
Ed
 1e-07 1 1 0
1  13 0 0 100
2  25 6 0 0 100
2  26 4 0 0 100
0

0101000
-846 0 +841 0 *
Wi

0101100
-840 0 +863 0 +845 0 -839 0 *
Ve
1e-07
-78.5 192.8 3
0 0

0101101
*
Ve
1e-07
-78.5 192.8 97
0 0

0101101
*
Ed
 1e-07 1 1 0
1  14 0 0 94
2  27 9 0 0 94
2  28 10 0 0 94
0

0101000
+837 0 -836 0 *
Ve
1e-07
-61 192.8 3
0 0

0101101
*
Ed
 1e-07 1 1 0
1  15 0 0 17.5
2  29 10 0 0 17.5
2  30 11 0 0 17.5
0

0101000
+837 0 -834 0 *
Ve
1e-07
-61 192.8 57
0 0

0101101
*
Ed
 1e-07 1 1 0
1  16 0 0 54
2  31 12 0 0 54
2  32 13 0 0 54
0

0101000
+834 0 -832 0 *
Ve
1e-07
61 192.8 57
0 0

0101101
*
Ed
 1e-07 1 1 0
1  17 0 0 122
2  33 13 0 0 122
2  34 14 0 0 122
0

0101000
-830 0 +832 0 *
Ve
1e-07
61 192.8 3
0 0

0101101
*
Ed
 1e-07 1 1 0
1  18 0 0 54
2  35 15 0 0 54
2  36 13 0 0 54
0

0101000
+828 0 -830 0 *
Ve
1e-07
78.5 192.8 3
0 0

0101101
*
Ed
 1e-07 1 1 0
1  15 0 139.5 157
2  29 10 0 139.5 157
2  30 11 0 139.5 157
0

0101000
+828 0 -826 0 *
Ve
1e-07
78.5 192.8 97
0 0

0101101
*
Ed
 1e-07 1 1 0
1  19 0 0 94
2  37 16 0 0 94
2  38 10 0 0 94
0

0101000
+826 0 -824 0 *
Ed
 1e-07 1 1 0
1  20 0 0 157
2  39 10 0 0 157
2  40 17 0 0 157
0

0101000
+836 0 -824 0 *
Wi

0101100
-835 0 +833 0 +831 0 +829 0 -827 0 +825 0 +823 0 -822 0 *
Ve
1e-07
-58 192.8 3
0 0

0101101
*
Ve
1e-07
58 192.8 3
0 0

0101101
*
Ed
 1e-07 1 1 0
1  15 0 20.5 136.5
2  29 10 0 20.5 136.5
2  30 11 0 20.5 136.5
0

0101000
+820 0 -819 0 *
Ve
1e-07
58 192.8 54
0 0

0101101
*
Ed
 1e-07 1 1 0
1  21 0 0 51
2  41 18 0 0 51
2  42 19 0 0 51
0

0101000
+819 0 -817 0 *
Ve
1e-07
-58 192.8 54
0 0

0101101
*
Ed
 1e-07 1 1 0
1  22 0 0 116
2  43 19 0 0 116
2  44 20 0 0 116
0

0101000
+815 0 -817 0 *
Ed
 1e-07 1 1 0
1  23 0 0 51
2  45 21 0 0 51
2  46 19 0 0 51
0

0101000
+820 0 -815 0 *
Wi

0101100
+818 0 +816 0 -814 0 -813 0 *
Fa
0  1e-07 4 0

0101000
+838 0 +821 0 +812 0 *
Ed
 1e-07 1 1 0
1  24 0 0 192.8
2  47 6 0 0 192.8
2  48 5 0 0 192.8
0

0101000
-841 0 +859 0 *
Wi

0101100
-862 0 -840 0 +858 0 +810 0 *
Ve
1e-07
-65.7 25 0
0 0

0101101
*
Ed
 1e-07 1 1 0
1  25 0 0 6.28318530717959
2  49 22 0 0 6.28318530717959
2  50 23 0 0 6.28318530717959
0

0101000
+808 0 -808 0 *
Wi

0101100
-807 0 *
Ve
1e-07
70.3 25 0
0 0

0101101
*
Ed
 1e-07 1 1 0
1  26 0 0 6.28318530717959
2  51 24 0 0 6.28318530717959
2  52 25 0 0 6.28318530717959
0

0101000
+805 0 -805 0 *
Wi

0101100
-804 0 *
Ve
1e-07
-65.7 135 0
0 0

0101101
*
Ed
 1e-07 1 1 0
1  27 0 0 6.28318530717959
2  53 26 0 0 6.28318530717959
2  54 27 0 0 6.28318530717959
0

0101000
+802 0 -802 0 *
Wi

0101100
-801 0 *
Ve
1e-07
35 141.695875591616 0
0 0

0101101
*
Ed
 1e-07 1 1 0
1  28 0 0 6.28318530717959
2  55 5 0 0 6.28318530717959
2  56 28 0 0 6.28318530717959
0

0101000
+799 0 -799 0 *
Wi

0101100
-798 0 *
Ve
1e-07
70.3 135 0
0 0

0101101
*
Ed
 1e-07 1 1 0
1  29 0 0 6.28318530717959
2  57 29 0 0 6.28318530717959
2  58 30 0 0 6.28318530717959
0

0101000
+796 0 -796 0 *
Wi

0101100
-795 0 *
Fa
0  1e-07 5 0

0101000
+809 0 +806 0 +803 0 +800 0 +797 0 +794 0 *
Wi

0101100
-856 0 -844 0 +839 0 +810 0 *
Fa
0  1e-07 6 0

0101000
+792 0 *
Ve
1.00000015888219e-07
-41 11 91.3
0 0

0101101
*
Ed
 1e-07 1 1 0
1  30 0 0 6.28318530717959
2  59 31 0 0 6.28318530717959
2  60 7 0 0 6.28318530717959
0

0101000
+790 0 -790 0 *
Ed
 1e-07 1 1 0
1  31 0 1 12
3  61 62CN 7 0 1 12
0

0101000
+853 0 -790 0 *
Wi

0101100
-789 0 +788 0 +852 0 -788 0 *
Fa
0  1e-07 7 0

0101000
+787 0 *
Ve
1.00000015888219e-07
41 11 91.3
0 0

0101101
*
Ed
 1e-07 1 1 0
1  32 0 0 6.28318530717959
2  63 32 0 0 6.28318530717959
2  64 8 0 0 6.28318530717959
0

0101000
+785 0 -785 0 *
Ed
 1e-07 1 1 0
1  33 0 1 12
3  65 66CN 8 0 1 12
0

0101000
+850 0 -785 0 *
Wi

0101100
-784 0 +783 0 +849 0 -783 0 *
Fa
0  1e-07 8 0

0101000
+782 0 *
Ve
1e-07
-78.5 3 97
0 0

0101101
*
Ve
1e-07
-78.5 3 3
0 0

0101101
*
Ed
 1e-07 1 1 0
1  34 0 0 94
2  67 9 0 0 94
2  68 33 0 0 94
0

0101000
-780 0 +779 0 *
Ed
 1e-07 1 1 0
1  35 0 0 189.8
2  69 9 0 0 189.8
2  70 17 0 0 189.8
0

0101000
+780 0 -836 0 *
Ed
 1e-07 1 1 0
1  36 0 0 189.8
2  71 9 0 0 189.8
2  72 11 0 0 189.8
0

0101000
+779 0 -837 0 *
Wi

0101100
-778 0 -777 0 +835 0 +776 0 *
Fa
0  1e-07 9 0

0101000
+775 0 *
Ve
1.00000058592855e-07
-60.9999999999999 112.579949748426 3
0 0

0101101
*
Ed
 1e-07 1 1 0
1  37 0 20.9881985651946 101.208248816768
2  73 12 0 20.9881985651946 101.208248816768
2  74 34 0 20.9881985651946 101.208248816768
0

0101000
+773 0 -834 0 *
Ve
1.00000058592855e-07
-60.9999999999999 104.620050251574 3
0 0

0101101
*
Ed
 1e-07 1 1 0
1  38 0 1.67096374795644 4.61222155922314
2  75 35 0 1.67096374795644 4.61222155922314
2  76 36 0 1.67096374795644 4.61222155922314
4 C0 35 0 36 0
0

0101000
+773 0 -771 0 *
Ve
1e-07
-61 91.5917511832319 3
0 0

0101101
*
Ed
 1e-07 1 1 0
1  37 0 0 13.0282990683416
2  73 12 0 0 13.0282990683416
2  74 34 0 0 13.0282990683416
0

0101000
+769 0 -771 0 *
Ve
1.00000060708798e-07
-32.4531838483289 91.591751183232 3
0 0

0101101
*
Ed
 1e-07 1 1 0
1  39 0 0 28.5468161516711
2  77 37 0 0 28.5468161516711
2  78 34 0 0 28.5468161516711
0

0101000
+769 0 -767 0 *
Ve
1e-05
-24.555 90.695 3
0 0

0101101
*
Ed
 1e-07 1 1 0
1  40 0 2.91548311546208 6.28318530717959
2  79 35 0 2.91548311546208 6.28318530717959
2  80 38 0 2.91548311546208 6.28318530717959
4 C0 35 0 38 0
0

0101000
+767 0 -765 0 *
Ve
1.00000093794333e-07
-24.6568161516711 91.5917511832318 3
0 0

0101101
*
Ed
 1e-07 1 1 0
1  40 0 0 0.226109538127671
2  81 35 0 0 0.226109538127671
2  82 38 0 0 0.226109538127671
4 C0 35 0 38 0
0

0101000
+765 0 -763 0 *
Ve
1.00000060708798e-07
31.3468161516711 91.591751183232 3
0 0

0101101
*
Ed
 1e-07 1 1 0
1  39 0 36.3431838483289 92.3468161516711
2  77 37 0 36.3431838483289 92.3468161516711
2  78 34 0 36.3431838483289 92.3468161516711
0

0101000
+763 0 -761 0 *
Ve
1e-05
39.245 90.695 3
0 0

0101101
*
Ed
 1e-07 1 1 0
1  41 0 2.91548311546208 6.28318530717959
2  83 35 0 2.91548311546208 6.28318530717959
2  84 39 0 2.91548311546208 6.28318530717959
4 C0 35 0 39 0
0

0101000
+761 0 -759 0 *
Ve
1.00000095329311e-07
39.1431838483289 91.5917511832318 3
0 0

0101101
*
Ed
 1e-07 1 1 0
1  41 0 0 0.226109538127671
2  85 35 0 0 0.226109538127671
2  86 39 0 0 0.226109538127671
4 C0 35 0 39 0
0

0101000
+759 0 -757 0 *
Ve
1e-07
61 91.5917511832319 3
0 0

0101101
*
Ed
 1e-07 1 1 0
1  39 0 100.143183848329 122
2  77 37 0 100.143183848329 122
2  78 34 0 100.143183848329 122
0

0101000
+757 0 -755 0 *
Ed
 1e-07 1 1 0
1  42 0 0 101.208248816768
2  87 15 0 0 101.208248816768
2  88 34 0 0 101.208248816768
0

0101000
+755 0 -828 0 *
Ve
1e-07
78.5 3 3
0 0

0101101
*
Ed
 1e-07 1 1 0
1  43 0 0 189.8
2  89 16 0 0 189.8
2  90 11 0 0 189.8
0

0101000
+752 0 -826 0 *
Ed
 1e-07 1 1 0
1  44 0 0 157
2  91 33 0 0 157
2  92 11 0 0 157
0

0101000
-752 0 +779 0 *
Wi

0101100
-776 0 -833 0 +772 0 -770 0 +768 0 -766 0 -764 0 -762 0 -760 0 -758 0 
-756 0 -754 0 -753 0 -825 0 +751 0 +750 0 *
Ve
1e-07
-64 25 3
0 0

0101101
*
Ed
 1e-07 1 1 0
1  45 0 0 6.28318530717959
2  93 40 0 0 6.28318530717959
2  94 41 0 0 6.28318530717959
0

0101000
+748 0 -748 0 *
Wi

0101100
-747 0 *
Ve
1e-07
72 25 3
0 0

0101101
*
Ed
 1e-07 1 1 0
1  46 0 0 6.28318530717959
2  95 42 0 0 6.28318530717959
2  96 43 0 0 6.28318530717959
0

0101000
+745 0 -745 0 *
Wi

0101100
-744 0 *
Ve
1e-05
15.3 81.9 3
0 0

0101101
*
Ed
 1e-07 1 1 0
1  47 0 0 6.28318530717959
2  97 44 0 0 6.28318530717959
2  98 45 0 0 6.28318530717959
4 C0 45 0 44 0
0

0101000
+742 0 -742 0 *
Wi

0101100
-741 0 *
Ve
1e-07
-64 135 3
0 0

0101101
*
Ed
 1e-07 1 1 0
1  48 0 0 6.28318530717959
2  99 46 0 0 6.28318530717959
2  100 47 0 0 6.28318530717959
0

0101000
+739 0 -739 0 *
Wi

0101100
-738 0 *
Ve
1e-07
72 135 3
0 0

0101101
*
Ed
 1e-07 1 1 0
1  49 0 0 6.28318530717959
2  101 48 0 0 6.28318530717959
2  102 49 0 0 6.28318530717959
0

0101000
+736 0 -736 0 *
Wi

0101100
-735 0 *
Fa
0  1e-07 11 0

0101000
+749 0 +746 0 +743 0 +740 0 +737 0 +734 0 *
Ve
1.00000058592855e-07
-60.9999999999999 112.579949748426 57
0 0

0101101
*
Ed
 1e-07 1 1 0
1  50 0 20.9881985651946 101.208248816768
2  103 12 0 20.9881985651946 101.208248816768
2  104 14 0 20.9881985651946 101.208248816768
0

0101000
+732 0 -832 0 *
Ed
 1e-07 1 1 0
1  51 0 0 54
2  105 12 0 0 54
2  106 36 0 0 54
4 C0 12 0 36 0
0

0101000
+773 0 -732 0 *
Wi

0101100
-731 0 +831 0 +772 0 -730 0 *
Fa
0  1e-07 12 0

0101000
+729 0 *
Ve
1e-07
-61 91.5917511832319 57
0 0

0101101
*
Ve
1.00000058592855e-07
-60.9999999999999 104.620050251574 57
0 0

0101101
*
Ed
 1e-07 1 1 0
1  50 0 0 13.0282990683416
2  103 12 0 0 13.0282990683416
2  104 14 0 0 13.0282990683416
0

0101000
+727 0 -726 0 *
Ve
1e-05
-56.6 108.6 57
0 0

0101101
*
Ed
 1e-07 1 1 0
1  52 0 4.61222155922314 6.28318530717959
2  107 14 0 4.61222155922314 6.28318530717959
2  108 36 0 4.61222155922314 6.28318530717959
4 C0 14 0 36 0
0

0101000
+726 0 -724 0 *
Ed
 1e-07 1 1 0
1  52 0 0 1.67096374795644
2  109 14 0 0 1.67096374795644
2  110 36 0 0 1.67096374795644
4 C0 14 0 36 0
0

0101000
+724 0 -732 0 *
Ve
1e-07
61 91.5917511832319 57
0 0

0101101
*
Ed
 1e-07 1 1 0
1  53 0 0 101.208248816768
2  111 15 0 0 101.208248816768
2  112 14 0 0 101.208248816768
0

0101000
-830 0 +721 0 *
Ve
1.00000095329311e-07
39.1431838483289 91.5917511832318 57
0 0

0101101
*
Ed
 1e-07 1 1 0
1  54 0 100.143183848329 122
2  113 37 0 100.143183848329 122
2  114 14 0 100.143183848329 122
0

0101000
+719 0 -721 0 *
Ve
1.00000060708798e-07
31.3468161516711 91.591751183232 57
0 0

0101101
*
Ed
 1e-07 1 1 0
1  55 0 0.226109538127671 2.91548311546208
2  115 14 0 0.226109538127671 2.91548311546208
2  116 39 0 0.226109538127671 2.91548311546208
4 C0 14 0 39 0
0

0101000
+719 0 -717 0 *
Ve
1.00000093794333e-07
-24.6568161516711 91.5917511832318 57
0 0

0101101
*
Ed
 1e-07 1 1 0
1  54 0 36.3431838483289 92.3468161516711
2  113 37 0 36.3431838483289 92.3468161516711
2  114 14 0 36.3431838483289 92.3468161516711
0

0101000
+715 0 -717 0 *
Ve
1.00000060708798e-07
-32.4531838483289 91.591751183232 57
0 0

0101101
*
Ed
 1e-07 1 1 0
1  56 0 0.226109538127671 2.91548311546208
2  117 14 0 0.226109538127671 2.91548311546208
2  118 38 0 0.226109538127671 2.91548311546208
4 C0 14 0 38 0
0

0101000
+715 0 -713 0 *
Ed
 1e-07 1 1 0
1  54 0 0 28.5468161516711
2  113 37 0 0 28.5468161516711
2  114 14 0 0 28.5468161516711
0

0101000
+727 0 -713 0 *
Wi

0101100
-725 0 -723 0 -722 0 -731 0 -829 0 +720 0 +718 0 -716 0 +714 0 -712 0 
+711 0 *
Ve
1e-07
8.9 106.2 57
0 0

0101101
*
Ed
 1e-07 1 1 0
1  57 0 0 6.28318530717959
2  119 50 0 0 6.28318530717959
2  120 51 0 0 6.28318530717959
0

0101000
+709 0 -709 0 *
Wi

0101100
-708 0 *
Ve
1e-07
8.30000000000001 136.2 57
0 0

0101101
*
Ed
 1e-07 1 1 0
1  58 0 0 6.28318530717959
2  121 52 0 0 6.28318530717959
2  122 53 0 0 6.28318530717959
0

0101000
+706 0 -706 0 *
Wi

0101100
-705 0 *
Ve
1e-07
45.4 125.4 57
0 0

0101101
*
Ve
1.00000063948846e-07
42.2888194417315 129.3 57
0 0

0101101
*
Ed
 1e-07 1 1 0
1  59 0 0 1.34672104149308
2  123 54 0 0 1.34672104149308
2  124 55 0 0 1.34672104149308
0

0101000
+703 0 -702 0 *
Ve
1e-07
45.4 133.2 57
0 0

0101101
*
Ed
 1e-07 1 1 0
1  60 0 4.9364642656865 6.28318530717959
2  125 56 0 4.9364642656865 6.28318530717959
2  126 57 0 4.9364642656865 6.28318530717959
0

0101000
+702 0 -700 0 *
Ve
1.00000063948846e-07
40.5111805582685 129.3 57
0 0

0101101
*
Ed
 1e-07 1 1 0
1  60 0 0 4.48831369508287
2  127 57 0 0 4.48831369508287
2  125 56 0 0 4.48831369508287
0

0101000
+700 0 -698 0 *
Ed
 1e-07 1 1 0
1  59 0 1.79487161209671 6.28318530717959
2  128 55 0 1.79487161209671 6.28318530717959
2  123 54 0 1.79487161209671 6.28318530717959
0

0101000
+698 0 -703 0 *
Wi

0101100
-701 0 -699 0 -697 0 -696 0 *
Ve
1e-07
-18.5 177.2 57
0 0

0101101
*
Ed
 1e-07 1 1 0
1  61 0 0 6.28318530717959
2  129 58 0 0 6.28318530717959
2  130 59 0 0 6.28318530717959
0

0101000
+694 0 -694 0 *
Wi

0101100
-693 0 *
Ve
1e-07
46.4 157.2 57
0 0

0101101
*
Ed
 1e-07 1 1 0
1  62 0 0 6.28318530717959
2  131 60 0 0 6.28318530717959
2  132 61 0 0 6.28318530717959
0

0101000
+691 0 -691 0 *
Wi

0101100
-690 0 *
Fa
0  1e-07 14 0

0101000
+710 0 +707 0 +704 0 +695 0 +692 0 +689 0 *
Ed
 1e-07 1 1 0
1  63 0 0 54
2  133 15 0 0 54
2  134 37 0 0 54
0

0101000
+755 0 -721 0 *
Wi

0101100
-687 0 -720 0 +827 0 +753 0 *
Fa
0  1e-07 15 0

0101000
+686 0 *
Ve
1e-07
78.5 3 97
0 0

0101101
*
Ed
 1e-07 1 1 0
1  64 0 0 94
2  135 16 0 0 94
2  136 33 0 0 94
0

0101000
-684 0 +752 0 *
Ed
 1e-07 1 1 0
1  65 0 0 189.8
2  137 16 0 0 189.8
2  138 17 0 0 189.8
0

0101000
+684 0 -824 0 *
Wi

0101100
-683 0 -682 0 +823 0 +751 0 *
Fa
0  1e-07 16 0

0101000
+681 0 *
Ed
 1e-07 1 1 0
1  66 0 0 157
2  139 33 0 0 157
2  140 17 0 0 157
0

0101000
-684 0 +780 0 *
Wi

0101100
-777 0 -822 0 +682 0 +679 0 *
Fa
0  1e-07 17 0

0101000
+678 0 *
Ve
1e-07
58 94.5917511832319 3
0 0

0101101
*
Ed
 1e-07 1 1 0
1  67 0 0 98.2082488167681
2  141 18 0 0 98.2082488167681
2  142 62 0 0 98.2082488167681
0

0101000
+676 0 -819 0 *
Ve
1.00000149889154e-07
36.1479563754585 94.5917511832319 3
0 0

0101101
*
Ed
 1e-07 1 1 0
1  68 0 94.1479563754585 116
2  143 63 0 94.1479563754585 116
2  144 62 0 94.1479563754585 116
0

0101000
+674 0 -676 0 *
Ve
1.00000035527137e-07
34.3420436245417 94.5917511832319 3
0 0

0101101
*
Ed
 1e-07 1 1 0
1  41 0 1.34309468022993 1.79849797335982
2  145 64 0 1.34309468022993 1.79849797335982
2  146 65 0 1.34309468022993 1.79849797335982
0

0101000
+674 0 -672 0 *
Ve
1.00000139282689e-07
-27.6520436245418 94.5917511832319 3
0 0

0101101
*
Ed
 1e-07 1 1 0
1  68 0 30.3479563754582 92.3420436245417
2  143 63 0 30.3479563754582 92.3420436245417
2  144 62 0 30.3479563754582 92.3420436245417
0

0101000
+670 0 -672 0 *
Ve
1.00000042632564e-07
-29.4579563754583 94.5917511832319 3
0 0

0101101
*
Ed
 1e-07 1 1 0
1  40 0 1.34309468023 1.79849797335982
2  147 66 0 1.34309468023 1.79849797335982
2  148 67 0 1.34309468023 1.79849797335982
0

0101000
+670 0 -668 0 *
Ve
1e-07
-58 94.5917511832319 3
0 0

0101101
*
Ed
 1e-07 1 1 0
1  68 0 0 28.5420436245417
2  143 63 0 0 28.5420436245417
2  144 62 0 0 28.5420436245417
0

0101000
+666 0 -668 0 *
Ve
1.00000031776437e-07
-58 105.560263169286 3
0 0

0101101
*
Ed
 1e-07 1 1 0
1  69 0 0 10.968511986054
2  149 21 0 0 10.968511986054
2  150 62 0 0 10.968511986054
0

0101000
+666 0 -664 0 *
Ve
1e-07
-56.6 108.6 3
0 0

0101101
*
Ed
 1e-07 1 1 0
1  38 0 5.41997341711005 6.28318530717959
2  151 68 0 5.41997341711005 6.28318530717959
2  152 69 0 5.41997341711005 6.28318530717959
0

0101000
+664 0 -662 0 *
Ve
1.00000031776437e-07
-58 111.639736830714 3
0 0

0101101
*
Ed
 1e-07 1 1 0
1  38 0 0 0.863211890069534
2  153 69 0 0 0.863211890069534
2  151 68 0 0 0.863211890069534
0

0101000
+662 0 -660 0 *
Ed
 1e-07 1 1 0
1  69 0 17.0479856474822 98.2082488167681
2  149 21 0 17.0479856474822 98.2082488167681
2  150 62 0 17.0479856474822 98.2082488167681
0

0101000
+660 0 -820 0 *
Wi

0101100
-818 0 +675 0 +673 0 -671 0 +669 0 -667 0 +665 0 -663 0 -661 0 -659 0 
-658 0 *
Ve
1e-07
43 141.695875591616 3
0 0

0101101
*
Ed
 1e-07 1 1 0
1  70 0 0 6.28318530717959
2  154 70 0 0 6.28318530717959
2  155 71 0 0 6.28318530717959
0

0101000
+656 0 -656 0 *
Wi

0101100
-655 0 *
Fa
0  1e-07 11 0

0101000
+657 0 +654 0 *
Ve
1e-07
58 94.5917511832319 54
0 0

0101101
*
Ed
 1e-07 1 1 0
1  71 0 0 51
2  156 18 0 0 51
2  157 63 0 0 51
0

0101000
+676 0 -652 0 *
Ed
 1e-07 1 1 0
1  72 0 0 98.2082488167681
2  158 18 0 0 98.2082488167681
2  159 20 0 0 98.2082488167681
0

0101000
+652 0 -817 0 *
Wi

0101100
-651 0 -650 0 +816 0 +675 0 *
Fa
0  1e-07 18 0

0101000
+649 0 *
Ve
1e-07
-58 94.5917511832319 54
0 0

0101101
*
Ve
1.0000048316906e-07
-58 105.560263169286 54
0 0

0101101
*
Ed
 1e-07 1 1 0
1  73 0 0 10.9685119860544
2  160 21 0 0 10.9685119860544
2  161 20 0 0 10.9685119860544
0

0101000
+647 0 -646 0 *
Ve
1e-07
-56.6 108.6 54
0 0

0101101
*
Ed
 1e-07 1 1 0
1  74 0 5.41997341711012 6.28318530717959
2  162 20 0 5.41997341711012 6.28318530717959
2  163 69 0 5.41997341711012 6.28318530717959
0

0101000
+646 0 -644 0 *
Ve
1.0000048316906e-07
-58 111.639736830714 54
0 0

0101101
*
Ed
 1e-07 1 1 0
1  74 0 0 0.863211890069462
2  162 20 0 0 0.863211890069462
2  164 69 0 0 0.863211890069462
0

0101000
+644 0 -642 0 *
Ed
 1e-07 1 1 0
1  73 0 17.0479856474817 98.2082488167681
2  160 21 0 17.0479856474817 98.2082488167681
2  161 20 0 17.0479856474817 98.2082488167681
0

0101000
+642 0 -815 0 *
Ve
1.00000063948846e-07
36.1479563754583 94.5917511832319 54
0 0

0101101
*
Ed
 1e-07 1 1 0
1  75 0 94.1479563754583 116
2  165 63 0 94.1479563754583 116
2  166 20 0 94.1479563754583 116
0

0101000
+639 0 -652 0 *
Ve
1.00000063948846e-07
34.3420436245417 94.5917511832319 54
0 0

0101101
*
Ed
 1e-07 1 1 0
1  76 0 1.34309468022998 1.79849797335981
2  167 20 0 1.34309468022998 1.79849797335981
2  168 64 0 1.34309468022998 1.79849797335981
0

0101000
+639 0 -637 0 *
Ve
1.00000191846539e-07
-27.6520436245415 94.5917511832319 54
0 0

0101101
*
Ed
 1e-07 1 1 0
1  75 0 30.3479563754585 92.3420436245417
2  165 63 0 30.3479563754585 92.3420436245417
2  166 20 0 30.3479563754585 92.3420436245417
0

0101000
+635 0 -637 0 *
Ve
1.00000191846539e-07
-29.4579563754586 94.5917511832319 54
0 0

0101101
*
Ed
 1e-07 1 1 0
1  77 0 1.34309468022992 1.79849797335987
2  169 20 0 1.34309468022992 1.79849797335987
2  170 66 0 1.34309468022992 1.79849797335987
0

0101000
+635 0 -633 0 *
Ed
 1e-07 1 1 0
1  75 0 0 28.5420436245414
2  165 63 0 0 28.5420436245414
2  166 20 0 0 28.5420436245414
0

0101000
+647 0 -633 0 *
Wi

0101100
-645 0 -643 0 -641 0 -640 0 -814 0 +650 0 +638 0 -636 0 +634 0 -632 0 
+631 0 *
Fa
0  1e-07 20 0

0101000
+630 0 *
Ed
 1e-07 1 1 0
1  78 0 0 51
2  171 21 0 0 51
2  172 69 0 0 51
0

0101000
+660 0 -642 0 *
Wi

0101100
-628 0 -640 0 +813 0 +658 0 *
Fa
0  1e-07 21 0

0101000
+627 0 *
Ve
1e-07
-65.7 25 6.5
0 0

0101101
*
Ed
 1e-07 1 1 0
1  79 0 0 6.28318530717959
2  173 22 0 0 6.28318530717959
2  174 72 0 0 6.28318530717959
0

0101000
+625 0 -625 0 *
Ed
 1e-07 1 1 0
1  80 0 0 6.5
3  175 176CN 22 0 0 6.5
0

0101000
+808 0 -625 0 *
Wi

0101100
-624 0 +623 0 +807 0 -623 0 *
Fa
0  1e-07 22 0

0101000
+622 0 *
Ve
1e-07
70.3 25 6.5
0 0

0101101
*
Ed
 1e-07 1 1 0
1  81 0 0 6.28318530717959
2  177 24 0 0 6.28318530717959
2  178 73 0 0 6.28318530717959
0

0101000
+620 0 -620 0 *
Ed
 1e-07 1 1 0
1  82 0 0 6.5
3  179 180CN 24 0 0 6.5
0

0101000
+805 0 -620 0 *
Wi

0101100
-619 0 +618 0 +804 0 -618 0 *
Fa
0  1e-07 24 0

0101000
+617 0 *
Ve
1e-07
-65.7 135 6.5
0 0

0101101
*
Ed
 1e-07 1 1 0
1  83 0 0 6.28318530717959
2  181 26 0 0 6.28318530717959
2  182 74 0 0 6.28318530717959
0

0101000
+615 0 -615 0 *
Ed
 1e-07 1 1 0
1  84 0 0 6.5
3  183 184CN 26 0 0 6.5
0

0101000
+802 0 -615 0 *
Wi

0101100
-614 0 +613 0 +801 0 -613 0 *
Fa
0  1e-07 26 0

0101000
+612 0 *
Ve
1e-07
35 141.695875591616 7.5
0 0

0101101
*
Ed
 1e-07 1 1 0
1  85 0 1 8.5
3  185 186CN 28 0 1 8.5
0

0101000
+799 0 -610 0 *
Ed
 1e-07 1 1 0
1  86 0 0 6.28318530717959
2  187 28 0 0 6.28318530717959
2  188 75 0 0 6.28318530717959
0

0101000
+610 0 -610 0 *
Wi

0101100
+609 0 +798 0 -609 0 -608 0 *
Fa
0  1e-07 28 0

0101000
+607 0 *
Ve
1e-07
70.3 135 6.5
0 0

0101101
*
Ed
 1e-07 1 1 0
1  87 0 0 6.28318530717959
2  189 29 0 0 6.28318530717959
2  190 76 0 0 6.28318530717959
0

0101000
+605 0 -605 0 *
Ed
 1e-07 1 1 0
1  88 0 0 6.5
3  191 192CN 29 0 0 6.5
0

0101000
+796 0 -605 0 *
Wi

0101100
-604 0 +603 0 +795 0 -603 0 *
Fa
0  1e-07 29 0

0101000
+602 0 *
Ve
1e-07
-6 11 26.55
0 0

0101101
*
Ve
1e-07
-76 11 26.55
0 0

0101101
*
Ed
 1e-07 1 1 0
1  89 0 0 70
2  193 31 0 0 70
2  194 77 0 0 70
0

0101000
-600 0 +599 0 *
Ve
1e-07
-6 11 96.55
0 0

0101101
*
Ed
 1e-07 1 1 0
1  90 0 0 70
2  195 78 0 0 70
2  196 31 0 0 70
0

0101000
-597 0 +600 0 *
Ve
1e-07
-76 11 96.55
0 0

0101101
*
Ed
 1e-07 1 1 0
1  91 0 0 70
2  197 79 0 0 70
2  198 31 0 0 70
0

0101000
-595 0 +599 0 *
Ed
 1e-07 1 1 0
1  92 0 0 70
2  199 31 0 0 70
2  200 80 0 0 70
0

0101000
-597 0 +595 0 *
Wi

0101100
-598 0 -596 0 +594 0 +593 0 *
Ve
1e-07
-64.4 11 35.85
0 0

0101101
*
Ed
 1e-07 1 1 0
1  93 0 0 6.28318530717959
2  201 81 0 0 6.28318530717959
2  202 82 0 0 6.28318530717959
0

0101000
+591 0 -591 0 *
Wi

0101100
+590 0 *
Ve
1e-07
-64.4 11 82.65
0 0

0101101
*
Ed
 1e-07 1 1 0
1  94 0 0 6.28318530717959
2  203 83 0 0 6.28318530717959
2  204 84 0 0 6.28318530717959
0

0101000
+588 0 -588 0 *
Wi

0101100
+587 0 *
Ve
1e-07
-17.6 11 35.85
0 0

0101101
*
Ed
 1e-07 1 1 0
1  95 0 0 6.28318530717959
2  205 85 0 0 6.28318530717959
2  206 86 0 0 6.28318530717959
0

0101000
+585 0 -585 0 *
Wi

0101100
+584 0 *
Wi

0101100
-789 0 *
Ve
1e-07
-17.6 11 82.65
0 0

0101101
*
Ed
 1e-07 1 1 0
1  96 0 0 6.28318530717959
2  207 87 0 0 6.28318530717959
2  208 88 0 0 6.28318530717959
0

0101000
+581 0 -581 0 *
Wi

0101100
+580 0 *
Fa
0  1e-07 31 0

0101000
+592 0 +589 0 +586 0 +583 0 +582 0 +579 0 *
Ve
1e-07
76 11 26.55
0 0

0101101
*
Ve
1e-07
6 11 26.55
0 0

0101101
*
Ed
 1e-07 1 1 0
1  97 0 0 70
2  209 32 0 0 70
2  210 89 0 0 70
0

0101000
-577 0 +576 0 *
Ve
1e-07
76 11 96.55
0 0

0101101
*
Ed
 1e-07 1 1 0
1  98 0 0 70
2  211 90 0 0 70
2  212 32 0 0 70
0

0101000
-574 0 +577 0 *
Ve
1e-07
6 11 96.55
0 0

0101101
*
Ed
 1e-07 1 1 0
1  99 0 0 70
2  213 91 0 0 70
2  214 32 0 0 70
0

0101000
-572 0 +576 0 *
Ed
 1e-07 1 1 0
1  100 0 0 70
2  215 32 0 0 70
2  216 92 0 0 70
0

0101000
-574 0 +572 0 *
Wi

0101100
-575 0 -573 0 +571 0 +570 0 *
Ve
1e-07
17.6 11 35.85
0 0

0101101
*
Ed
 1e-07 1 1 0
1  101 0 0 6.28318530717959
2  217 93 0 0 6.28318530717959
2  218 94 0 0 6.28318530717959
0

0101000
+568 0 -568 0 *
Wi

0101100
+567 0 *
Ve
1e-07
17.6 11 82.65
0 0

0101101
*
Ed
 1e-07 1 1 0
1  102 0 0 6.28318530717959
2  219 95 0 0 6.28318530717959
2  220 96 0 0 6.28318530717959
0

0101000
+565 0 -565 0 *
Wi

0101100
+564 0 *
Ve
1e-07
64.4 11 35.85
0 0

0101101
*
Ed
 1e-07 1 1 0
1  103 0 0 6.28318530717959
2  221 97 0 0 6.28318530717959
2  222 98 0 0 6.28318530717959
0

0101000
+562 0 -562 0 *
Wi

0101100
+561 0 *
Wi

0101100
-784 0 *
Ve
1e-07
64.4 11 82.65
0 0

0101101
*
Ed
 1e-07 1 1 0
1  104 0 0 6.28318530717959
2  223 99 0 0 6.28318530717959
2  224 100 0 0 6.28318530717959
0

0101000
+558 0 -558 0 *
Wi

0101100
+557 0 *
Fa
0  1e-07 32 0

0101000
+569 0 +566 0 +563 0 +560 0 +559 0 +556 0 *
Wi

0101100
-750 0 -683 0 +778 0 +679 0 *
Ve
1e-07
-76 3 26.55
0 0

0101101
*
Ve
1e-07
-76 3 96.55
0 0

0101101
*
Ed
 1e-07 1 1 0
1  105 0 0 70
2  225 79 0 0 70
2  226 101 0 0 70
0

0101000
+553 0 -552 0 *
Ve
1e-07
-6 3 96.55
0 0

0101101
*
Ed
 1e-07 1 1 0
1  106 0 0 70
2  227 101 0 0 70
2  228 80 0 0 70
0

0101000
+552 0 -550 0 *
Ve
1e-07
-6 3 26.55
0 0

0101101
*
Ed
 1e-07 1 1 0
1  107 0 0 70
2  229 78 0 0 70
2  230 101 0 0 70
0

0101000
+548 0 -550 0 *
Ed
 1e-07 1 1 0
1  108 0 0 70
2  231 101 0 0 70
2  232 77 0 0 70
0

0101000
+553 0 -548 0 *
Wi

0101100
-551 0 -549 0 +547 0 +546 0 *
Ve
1e-07
6 3 26.55
0 0

0101101
*
Ve
1e-07
6 3 96.55
0 0

0101101
*
Ed
 1e-07 1 1 0
1  109 0 0 70
2  233 91 0 0 70
2  234 102 0 0 70
0

0101000
+544 0 -543 0 *
Ve
1e-07
76 3 96.55
0 0

0101101
*
Ed
 1e-07 1 1 0
1  110 0 0 70
2  235 102 0 0 70
2  236 92 0 0 70
0

0101000
+543 0 -541 0 *
Ve
1e-07
76 3 26.55
0 0

0101101
*
Ed
 1e-07 1 1 0
1  111 0 0 70
2  237 90 0 0 70
2  238 102 0 0 70
0

0101000
+539 0 -541 0 *
Ed
 1e-07 1 1 0
1  112 0 0 70
2  239 102 0 0 70
2  240 89 0 0 70
0

0101000
+544 0 -539 0 *
Wi

0101100
-542 0 -540 0 +538 0 +537 0 *
Fa
0  1e-07 33 0

0101000
+554 0 +545 0 +536 0 *
Ve
1e-05
-56.6 108.6 61.5
0 0

0101101
*
Ed
 1e-05 1 1 0
1  113 0 54 58.5
3  241 242C0 36 0 54 58.5
0

0101000
+724 0 -534 0 *
Ed
 1e-07 1 1 0
1  114 0 0 6.28318530717959
2  243 103 0 0 6.28318530717959
2  244 36 0 0 6.28318530717959
4 C0 36 0 103 0
0

0101000
+534 0 -534 0 *
Ed
 1e-07 1 1 0
1  115 0 0 54
2  245 12 0 0 54
2  246 36 0 0 54
4 C0 12 0 36 0
0

0101000
+771 0 -726 0 *
Wi

0101100
-533 0 -532 0 +533 0 +723 0 +531 0 +770 0 -730 0 +722 0 *
Fa
0  1e-07 36 0

0101000
+530 0 *
Ed
 1e-07 1 1 0
1  116 0 0 54
2  247 12 0 0 54
2  248 37 0 0 54
0

0101000
+769 0 -727 0 *
Wi

0101100
-725 0 +531 0 +768 0 -528 0 *
Fa
0  1e-07 12 0

0101000
+527 0 *
Ed
 1e-07 1 1 0
1  117 0 0 54
2  249 37 0 0 54
2  250 38 0 0 54
4 C0 37 0 38 0
0

0101000
+767 0 -713 0 *
Wi

0101100
-766 0 -525 0 +711 0 +528 0 *
Fa
0  1e-07 37 0

0101000
+524 0 *
Ve
1e-05
-24.555 90.695 61.5
0 0

0101101
*
Ed
 1e-05 1 1 0
1  118 0 0 58.5
3  251 252C0 38 0 0 58.5
0

0101000
+765 0 -522 0 *
Ed
 1e-07 1 1 0
1  119 0 0 6.28318530717959
2  253 104 0 0 6.28318530717959
2  254 38 0 0 6.28318530717959
4 C0 38 0 104 0
0

0101000
+522 0 -522 0 *
Ed
 1e-07 1 1 0
1  120 0 0 54
2  255 37 0 0 54
2  256 38 0 0 54
4 C0 37 0 38 0
0

0101000
+763 0 -715 0 *
Wi

0101100
-521 0 -520 0 +521 0 +764 0 -525 0 +712 0 +519 0 +762 0 *
Fa
0  1e-07 38 0

0101000
+518 0 *
Ed
 1e-07 1 1 0
1  121 0 0 54
2  257 37 0 0 54
2  258 39 0 0 54
4 C0 37 0 39 0
0

0101000
+761 0 -717 0 *
Wi

0101100
-760 0 -516 0 +714 0 +519 0 *
Fa
0  1e-07 37 0

0101000
+515 0 *
Ve
1e-05
39.245 90.695 61.5
0 0

0101101
*
Ed
 1e-05 1 1 0
1  122 0 0 58.5
3  259 260C0 39 0 0 58.5
0

0101000
+759 0 -513 0 *
Ed
 1e-07 1 1 0
1  123 0 0 6.28318530717959
2  261 105 0 0 6.28318530717959
2  262 39 0 0 6.28318530717959
4 C0 39 0 105 0
0

0101000
+513 0 -513 0 *
Ed
 1e-07 1 1 0
1  124 0 0 54
2  263 37 0 0 54
2  264 39 0 0 54
4 C0 37 0 39 0
0

0101000
+757 0 -719 0 *
Wi

0101100
-512 0 -511 0 +512 0 +758 0 -516 0 +716 0 +510 0 +756 0 *
Fa
0  1e-07 39 0

0101000
+509 0 *
Wi

0101100
-754 0 -687 0 +718 0 +510 0 *
Fa
0  1e-07 37 0

0101000
+507 0 *
Ve
1e-07
-64 25 7.5
0 0

0101101
*
Ed
 1e-07 1 1 0
1  125 0 0 6.28318530717959
2  265 40 0 0 6.28318530717959
2  266 106 0 0 6.28318530717959
0

0101000
+505 0 -505 0 *
Ed
 1e-07 1 1 0
1  126 0 0 4.5
3  267 268CN 40 0 0 4.5
0

0101000
+748 0 -505 0 *
Wi

0101100
-504 0 +503 0 +747 0 -503 0 *
Fa
0  1e-07 40 0

0101000
+502 0 *
Ve
1e-07
72 25 7.5
0 0

0101101
*
Ed
 1e-07 1 1 0
1  127 0 0 6.28318530717959
2  269 42 0 0 6.28318530717959
2  270 107 0 0 6.28318530717959
0

0101000
+500 0 -500 0 *
Ed
 1e-07 1 1 0
1  128 0 0 4.5
3  271 272CN 42 0 0 4.5
0

0101000
+745 0 -500 0 *
Wi

0101100
-499 0 +498 0 +744 0 -498 0 *
Fa
0  1e-07 42 0

0101000
+497 0 *
Ve
1e-05
15.3 81.9 61.5
0 0

0101101
*
Ed
 1e-05 1 1 0
1  129 0 0 58.5
3  273 274C0 45 0 0 58.5
0

0101000
+742 0 -495 0 *
Ed
 1e-07 1 1 0
1  130 0 0 6.28318530717959
2  275 108 0 0 6.28318530717959
2  276 45 0 0 6.28318530717959
4 C0 108 0 45 0
0

0101000
+495 0 -495 0 *
Wi

0101100
+494 0 +741 0 -494 0 -493 0 *
Fa
0  1e-07 45 0

0101000
+492 0 *
Ve
1e-07
-64 135 7.5
0 0

0101101
*
Ed
 1e-07 1 1 0
1  131 0 0 6.28318530717959
2  277 46 0 0 6.28318530717959
2  278 109 0 0 6.28318530717959
0

0101000
+490 0 -490 0 *
Ed
 1e-07 1 1 0
1  132 0 0 4.5
3  279 280CN 46 0 0 4.5
0

0101000
+739 0 -490 0 *
Wi

0101100
-489 0 +488 0 +738 0 -488 0 *
Fa
0  1e-07 46 0

0101000
+487 0 *
Ve
1e-07
72 135 7.5
0 0

0101101
*
Ed
 1e-07 1 1 0
1  133 0 0 6.28318530717959
2  281 48 0 0 6.28318530717959
2  282 110 0 0 6.28318530717959
0

0101000
+485 0 -485 0 *
Ed
 1e-07 1 1 0
1  134 0 0 4.5
3  283 284CN 48 0 0 4.5
0

0101000
+736 0 -485 0 *
Wi

0101100
-484 0 +483 0 +735 0 -483 0 *
Fa
0  1e-07 48 0

0101000
+482 0 *
Ve
1e-07
8.9 106.2 61.5
0 0

0101101
*
Ed
 1e-07 1 1 0
1  135 0 0 6.28318530717959
2  285 50 0 0 6.28318530717959
2  286 111 0 0 6.28318530717959
0

0101000
+480 0 -480 0 *
Ed
 1e-07 1 1 0
1  136 0 0 4.5
3  287 288CN 50 0 0 4.5
0

0101000
+709 0 -480 0 *
Wi

0101100
-479 0 +478 0 +708 0 -478 0 *
Fa
0  1e-07 50 0

0101000
+477 0 *
Ve
1e-07
8.30000000000001 136.2 61.5
0 0

0101101
*
Ed
 1e-07 1 1 0
1  137 0 0 6.28318530717959
2  289 52 0 0 6.28318530717959
2  290 112 0 0 6.28318530717959
0

0101000
+475 0 -475 0 *
Ed
 1e-07 1 1 0
1  138 0 0 4.5
3  291 292CN 52 0 0 4.5
0

0101000
+706 0 -475 0 *
Wi

0101100
-474 0 +473 0 +705 0 -473 0 *
Fa
0  1e-07 52 0

0101000
+472 0 *
Ve
1.00000063948846e-07
40.5111805582685 129.3 61.5
0 0

0101101
*
Ve
1e-07
45.4 125.4 61.5
0 0

0101101
*
Ed
 1e-07 1 1 0
1  139 0 1.79487161209671 6.28318530717959
2  293 55 0 1.79487161209671 6.28318530717959
2  294 113 0 1.79487161209671 6.28318530717959
0

0101000
+470 0 -469 0 *
Ed
 1e-07 1 1 0
1  140 0 0 4.5
2  295 55 0 0 4.5
2  296 57 0 0 4.5
0

0101000
+698 0 -470 0 *
Ve
1.00000063948846e-07
42.2888194417315 129.3 61.5
0 0

0101101
*
Ed
 1e-07 1 1 0
1  141 0 0 4.5
2  297 55 0 0 4.5
2  298 57 0 0 4.5
0

0101000
+702 0 -466 0 *
Ed
 1e-07 1 1 0
1  139 0 0 1.34672104149308
2  294 113 0 0 1.34672104149308
2  299 55 0 0 1.34672104149308
0

0101000
+469 0 -466 0 *
Wi

0101100
-468 0 -467 0 +696 0 +701 0 +465 0 -464 0 *
Fa
0  1e-07 55 0

0101000
+463 0 *
Ve
1e-07
45.4 133.2 61.5
0 0

0101101
*
Ed
 1e-07 1 1 0
1  142 0 0 4.48831369508287
2  300 57 0 0 4.48831369508287
2  301 114 0 0 4.48831369508287
0

0101000
+461 0 -470 0 *
Ed
 1e-07 1 1 0
1  142 0 4.9364642656865 6.28318530717959
2  301 114 0 4.9364642656865 6.28318530717959
2  302 57 0 4.9364642656865 6.28318530717959
0

0101000
+466 0 -461 0 *
Wi

0101100
+697 0 +467 0 -460 0 -459 0 -465 0 +699 0 *
Fa
0  1e-07 57 0

0101000
+458 0 *
Ve
1e-07
-18.5 177.2 61.5
0 0

0101101
*
Ed
 1e-07 1 1 0
1  143 0 0 6.28318530717959
2  303 58 0 0 6.28318530717959
2  304 115 0 0 6.28318530717959
0

0101000
+456 0 -456 0 *
Ed
 1e-07 1 1 0
1  144 0 0 4.5
3  305 306CN 58 0 0 4.5
0

0101000
+694 0 -456 0 *
Wi

0101100
-455 0 +454 0 +693 0 -454 0 *
Fa
0  1e-07 58 0

0101000
+453 0 *
Ve
1e-07
46.4 157.2 61.5
0 0

0101101
*
Ed
 1e-07 1 1 0
1  145 0 0 6.28318530717959
2  307 60 0 0 6.28318530717959
2  308 116 0 0 6.28318530717959
0

0101000
+451 0 -451 0 *
Ed
 1e-07 1 1 0
1  146 0 0 4.5
3  309 310CN 60 0 0 4.5
0

0101000
+691 0 -451 0 *
Wi

0101100
-450 0 +449 0 +690 0 -449 0 *
Fa
0  1e-07 60 0

0101000
+448 0 *
Ed
 1e-07 1 1 0
1  147 0 0 51
2  311 63 0 0 51
2  312 64 0 0 51
0

0101000
+674 0 -639 0 *
Wi

0101100
-673 0 -651 0 +638 0 +446 0 *
Fa
0  1e-07 63 0

0101000
+445 0 *
Ed
 1e-07 1 1 0
1  148 0 0 51
2  313 63 0 0 51
2  314 64 0 0 51
0

0101000
+672 0 -637 0 *
Wi

0101100
-446 0 -636 0 +443 0 +671 0 *
Fa
0  1e-07 64 0

0101000
+442 0 *
Ed
 1e-07 1 1 0
1  149 0 0 51
2  315 63 0 0 51
2  316 66 0 0 51
0

0101000
+670 0 -635 0 *
Wi

0101100
-669 0 -443 0 +634 0 +440 0 *
Fa
0  1e-07 63 0

0101000
+439 0 *
Ed
 1e-07 1 1 0
1  150 0 0 51
2  317 63 0 0 51
2  318 66 0 0 51
0

0101000
+668 0 -633 0 *
Wi

0101100
-440 0 -632 0 +437 0 +667 0 *
Fa
0  1e-07 66 0

0101000
+436 0 *
Ed
 1e-07 1 1 0
1  151 0 0 51
2  319 21 0 0 51
2  320 63 0 0 51
0

0101000
+666 0 -647 0 *
Wi

0101100
-665 0 -437 0 +631 0 +434 0 *
Fa
0  1e-07 63 0

0101000
+433 0 *
Ed
 1e-07 1 1 0
1  152 0 0 51
2  321 21 0 0 51
2  322 69 0 0 51
0

0101000
+664 0 -646 0 *
Wi

0101100
-434 0 -645 0 +431 0 +663 0 *
Fa
0  1e-07 21 0

0101000
+430 0 *
Wi

0101100
+659 0 +628 0 -641 0 -643 0 -431 0 +661 0 *
Fa
0  1e-07 69 0

0101000
+428 0 *
Ve
1e-07
43 141.695875591616 7.5
0 0

0101101
*
Ed
 1e-07 1 1 0
1  153 0 0 6.28318530717959
2  323 70 0 0 6.28318530717959
2  324 117 0 0 6.28318530717959
0

0101000
+426 0 -426 0 *
Ed
 1e-07 1 1 0
1  154 0 0 4.5
3  325 326CN 70 0 0 4.5
0

0101000
+656 0 -426 0 *
Wi

0101100
-425 0 +424 0 +655 0 -424 0 *
Fa
0  1e-07 70 0

0101000
+423 0 *
Wi

0101100
+624 0 *
Fa
0  1e-07 72 0

0101000
+421 0 *
Wi

0101100
+619 0 *
Fa
0  1e-07 73 0

0101000
+419 0 *
Wi

0101100
+614 0 *
Fa
0  1e-07 74 0

0101000
+417 0 *
Wi

0101100
+425 0 *
Ve
1e-07
-29.5236110756821 114.472264515934 7.5
0 0

0101101
*
Ed
 1e-07 1 1 0
1  155 0 0 6.28318530717959
2  327 118 0 0 6.28318530717959
2  328 119 0 0 6.28318530717959
0

0101000
+414 0 -414 0 *
Wi

0101100
+413 0 *
Ve
1e-07
24.9236110756821 114.472264515934 7.5
0 0

0101101
*
Ed
 1e-07 1 1 0
1  156 0 0 6.28318530717959
2  329 120 0 0 6.28318530717959
2  330 121 0 0 6.28318530717959
0

0101000
+411 0 -411 0 *
Wi

0101100
+410 0 *
Ve
1e-07
-29.5236110756821 168.919486667298 7.5
0 0

0101101
*
Ed
 1e-07 1 1 0
1  157 0 0 6.28318530717959
2  331 122 0 0 6.28318530717959
2  332 123 0 0 6.28318530717959
0

0101000
+408 0 -408 0 *
Wi

0101100
+407 0 *
Wi

0101100
-608 0 *
Ve
1e-07
24.9236110756821 168.919486667298 7.5
0 0

0101101
*
Ed
 1e-07 1 1 0
1  158 0 0 6.28318530717959
2  333 124 0 0 6.28318530717959
2  334 125 0 0 6.28318530717959
0

0101000
+404 0 -404 0 *
Wi

0101100
+403 0 *
Fa
0  1e-07 117 0

0101000
+415 0 +412 0 +409 0 +406 0 +405 0 +402 0 *
Wi

0101100
+604 0 *
Fa
0  1e-07 76 0

0101000
+400 0 *
Ed
 1e-07 1 1 0
1  159 0 0 8
2  335 79 0 0 8
2  336 77 0 0 8
0

0101000
+553 0 -599 0 *
Ed
 1e-07 1 1 0
1  160 0 0 8
2  337 78 0 0 8
2  338 77 0 0 8
0

0101000
+548 0 -600 0 *
Wi

0101100
-398 0 -598 0 +397 0 +546 0 *
Fa
0  1e-07 77 0

0101000
+396 0 *
Ed
 1e-07 1 1 0
1  161 0 0 8
2  339 78 0 0 8
2  340 80 0 0 8
0

0101000
+550 0 -597 0 *
Wi

0101100
-547 0 -394 0 +596 0 +397 0 *
Fa
0  1e-07 78 0

0101000
+393 0 *
Ed
 1e-07 1 1 0
1  162 0 0 8
2  341 79 0 0 8
2  342 80 0 0 8
0

0101000
+552 0 -595 0 *
Wi

0101100
-551 0 -391 0 +594 0 +398 0 *
Fa
0  1e-07 79 0

0101000
+390 0 *
Wi

0101100
-391 0 -593 0 +394 0 +549 0 *
Fa
0  1e-07 80 0

0101000
+388 0 *
Ve
1e-07
-64.4 1 35.85
0 0

0101101
*
Ed
 1e-07 1 1 0
1  163 0 0 6.28318530717959
2  343 81 0 0 6.28318530717959
2  344 126 0 0 6.28318530717959
0

0101000
+386 0 -386 0 *
Ed
 1e-07 1 1 0
1  164 0 0 10
3  345 346CN 81 0 0 10
0

0101000
+591 0 -386 0 *
Wi

0101100
-385 0 +384 0 +590 0 -384 0 *
Fa
0  1e-07 81 0

0101000
+383 0 *
Ve
1e-07
-64.4 1 82.65
0 0

0101101
*
Ed
 1e-07 1 1 0
1  165 0 0 6.28318530717959
2  347 83 0 0 6.28318530717959
2  348 127 0 0 6.28318530717959
0

0101000
+381 0 -381 0 *
Ed
 1e-07 1 1 0
1  166 0 0 10
3  349 350CN 83 0 0 10
0

0101000
+588 0 -381 0 *
Wi

0101100
-380 0 +379 0 +587 0 -379 0 *
Fa
0  1e-07 83 0

0101000
+378 0 *
Ve
1e-07
-17.6 1 35.85
0 0

0101101
*
Ed
 1e-07 1 1 0
1  167 0 0 6.28318530717959
2  351 85 0 0 6.28318530717959
2  352 128 0 0 6.28318530717959
0

0101000
+376 0 -376 0 *
Ed
 1e-07 1 1 0
1  168 0 0 10
3  353 354CN 85 0 0 10
0

0101000
+585 0 -376 0 *
Wi

0101100
-375 0 +374 0 +584 0 -374 0 *
Fa
0  1e-07 85 0

0101000
+373 0 *
Ve
1e-07
-17.6 1 82.65
0 0

0101101
*
Ed
 1e-07 1 1 0
1  169 0 0 6.28318530717959
2  355 87 0 0 6.28318530717959
2  356 129 0 0 6.28318530717959
0

0101000
+371 0 -371 0 *
Ed
 1e-07 1 1 0
1  170 0 0 10
3  357 358CN 87 0 0 10
0

0101000
+581 0 -371 0 *
Wi

0101100
-370 0 +369 0 +580 0 -369 0 *
Fa
0  1e-07 87 0

0101000
+368 0 *
Ed
 1e-07 1 1 0
1  171 0 0 8
2  359 91 0 0 8
2  360 89 0 0 8
0

0101000
+544 0 -576 0 *
Ed
 1e-07 1 1 0
1  172 0 0 8
2  361 90 0 0 8
2  362 89 0 0 8
0

0101000
+539 0 -577 0 *
Wi

0101100
-366 0 -575 0 +365 0 +537 0 *
Fa
0  1e-07 89 0

0101000
+364 0 *
Ed
 1e-07 1 1 0
1  173 0 0 8
2  363 90 0 0 8
2  364 92 0 0 8
0

0101000
+541 0 -574 0 *
Wi

0101100
-538 0 -362 0 +573 0 +365 0 *
Fa
0  1e-07 90 0

0101000
+361 0 *
Ed
 1e-07 1 1 0
1  174 0 0 8
2  365 91 0 0 8
2  366 92 0 0 8
0

0101000
+543 0 -572 0 *
Wi

0101100
-542 0 -359 0 +571 0 +366 0 *
Fa
0  1e-07 91 0

0101000
+358 0 *
Wi

0101100
-359 0 -570 0 +362 0 +540 0 *
Fa
0  1e-07 92 0

0101000
+356 0 *
Ve
1e-07
17.6 1 35.85
0 0

0101101
*
Ed
 1e-07 1 1 0
1  175 0 0 6.28318530717959
2  367 93 0 0 6.28318530717959
2  368 130 0 0 6.28318530717959
0

0101000
+354 0 -354 0 *
Ed
 1e-07 1 1 0
1  176 0 0 10
3  369 370CN 93 0 0 10
0

0101000
+568 0 -354 0 *
Wi

0101100
-353 0 +352 0 +567 0 -352 0 *
Fa
0  1e-07 93 0

0101000
+351 0 *
Ve
1e-07
17.6 1 82.65
0 0

0101101
*
Ed
 1e-07 1 1 0
1  177 0 0 6.28318530717959
2  371 95 0 0 6.28318530717959
2  372 131 0 0 6.28318530717959
0

0101000
+349 0 -349 0 *
Ed
 1e-07 1 1 0
1  178 0 0 10
3  373 374CN 95 0 0 10
0

0101000
+565 0 -349 0 *
Wi

0101100
-348 0 +347 0 +564 0 -347 0 *
Fa
0  1e-07 95 0

0101000
+346 0 *
Ve
1e-07
64.4 1 35.85
0 0

0101101
*
Ed
 1e-07 1 1 0
1  179 0 0 6.28318530717959
2  375 97 0 0 6.28318530717959
2  376 132 0 0 6.28318530717959
0

0101000
+344 0 -344 0 *
Ed
 1e-07 1 1 0
1  180 0 0 10
3  377 378CN 97 0 0 10
0

0101000
+562 0 -344 0 *
Wi

0101100
-343 0 +342 0 +561 0 -342 0 *
Fa
0  1e-07 97 0

0101000
+341 0 *
Ve
1e-07
64.4 1 82.65
0 0

0101101
*
Ed
 1e-07 1 1 0
1  181 0 0 6.28318530717959
2  379 99 0 0 6.28318530717959
2  380 133 0 0 6.28318530717959
0

0101000
+339 0 -339 0 *
Ed
 1e-07 1 1 0
1  182 0 0 10
3  381 382CN 99 0 0 10
0

0101000
+558 0 -339 0 *
Wi

0101100
-338 0 +337 0 +557 0 -337 0 *
Fa
0  1e-07 99 0

0101000
+336 0 *
Wi

0101100
+532 0 *
Ve
1e-07
-62.9 108.6 61.5
0 0

0101101
*
Ed
 1e-07 1 1 0
1  183 0 0 6.28318530717959
2  383 134 0 0 6.28318530717959
2  384 135 0 0 6.28318530717959
0

0101000
+333 0 -333 0 *
Wi

0101100
+332 0 *
Fa
0  1e-07 103 0

0101000
+334 0 +331 0 *
Wi

0101100
+520 0 *
Ve
1e-07
-30.855 90.695 61.5
0 0

0101101
*
Ed
 1e-07 1 1 0
1  184 0 0 6.28318530717959
2  385 136 0 0 6.28318530717959
2  386 137 0 0 6.28318530717959
0

0101000
+328 0 -328 0 *
Wi

0101100
+327 0 *
Fa
0  1e-07 104 0

0101000
+329 0 +326 0 *
Wi

0101100
+511 0 *
Ve
1e-07
32.945 90.695 61.5
0 0

0101101
*
Ed
 1e-07 1 1 0
1  185 0 0 6.28318530717959
2  387 138 0 0 6.28318530717959
2  388 139 0 0 6.28318530717959
0

0101000
+323 0 -323 0 *
Wi

0101100
+322 0 *
Fa
0  1e-07 105 0

0101000
+324 0 +321 0 *
Wi

0101100
+504 0 *
Fa
0  1e-07 106 0

0101000
+319 0 *
Wi

0101100
+499 0 *
Fa
0  1e-07 107 0

0101000
+317 0 *
Wi

0101100
+493 0 *
Ve
1e-07
9.00000000000001 81.9 61.5
0 0

0101101
*
Ed
 1e-07 1 1 0
1  186 0 0 6.28318530717959
2  389 140 0 0 6.28318530717959
2  390 141 0 0 6.28318530717959
0

0101000
+314 0 -314 0 *
Wi

0101100
+313 0 *
Fa
0  1e-07 108 0

0101000
+315 0 +312 0 *
Wi

0101100
+489 0 *
Fa
0  1e-07 109 0

0101000
+310 0 *
Wi

0101100
+484 0 *
Fa
0  1e-07 110 0

0101000
+308 0 *
Wi

0101100
+479 0 *
Ve
1e-07
2.6 106.2 61.5
0 0

0101101
*
Ed
 1e-07 1 1 0
1  187 0 0 6.28318530717959
2  391 142 0 0 6.28318530717959
2  392 143 0 0 6.28318530717959
0

0101000
+305 0 -305 0 *
Wi

0101100
+304 0 *
Fa
0  1e-07 111 0

0101000
+306 0 +303 0 *
Wi

0101100
+474 0 *
Ve
1e-07
2.00000000000001 136.2 61.5
0 0

0101101
*
Ed
 1e-07 1 1 0
1  188 0 0 6.28318530717959
2  393 144 0 0 6.28318530717959
2  394 145 0 0 6.28318530717959
0

0101000
+300 0 -300 0 *
Wi

0101100
+299 0 *
Fa
0  1e-07 112 0

0101000
+301 0 +298 0 *
Wi

0101100
+468 0 +460 0 +464 0 +459 0 *
Ve
1.00000007105427e-07
39.1 125.4 61.5
0 0

0101101
*
Ed
 1.00000007105427e-07 1 1 0
1  189 0 0 6.28318530717959
2  395 147 0 0 6.28318530717959
2  396 148 0 0 6.28318530717959
0

0101000
+295 0 -295 0 *
Wi

0101100
+294 0 *
Ve
1.00000007105427e-07
39.1 133.2 61.5
0 0

0101101
*
Ed
 1.00000007105427e-07 1 1 0
1  190 0 0 6.28318530717959
2  397 149 0 0 6.28318530717959
2  398 150 0 0 6.28318530717959
0

0101000
+292 0 -292 0 *
Wi

0101100
+291 0 *
Fa
0  1e-07 146 0

0101000
+296 0 +293 0 +290 0 *
Wi

0101100
+455 0 *
Ve
1e-07
-24.8 177.2 61.5
0 0

0101101
*
Ed
 1e-07 1 1 0
1  191 0 0 6.28318530717959
2  399 151 0 0 6.28318530717959
2  400 152 0 0 6.28318530717959
0

0101000
+287 0 -287 0 *
Wi

0101100
+286 0 *
Fa
0  1e-07 115 0

0101000
+288 0 +285 0 *
Wi

0101100
+450 0 *
Ve
1e-07
40.1 157.2 61.5
0 0

0101101
*
Ed
 1e-07 1 1 0
1  192 0 0 6.28318530717959
2  401 153 0 0 6.28318530717959
2  402 154 0 0 6.28318530717959
0

0101000
+282 0 -282 0 *
Wi

0101100
+281 0 *
Fa
0  1e-07 116 0

0101000
+283 0 +280 0 *
Ve
1e-07
-29.5236110756821 114.472264515934 1
0 0

0101101
*
Ed
 1e-07 1 1 0
1  193 0 0 6.28318530717959
2  403 118 0 0 6.28318530717959
2  404 155 0 0 6.28318530717959
0

0101000
+278 0 -278 0 *
Ed
 1e-07 1 1 0
1  194 0 0 6.5
3  405 406CN 118 0 0 6.5
0

0101000
+414 0 -278 0 *
Wi

0101100
-277 0 +276 0 +413 0 -276 0 *
Fa
0  1e-07 118 0

0101000
+275 0 *
Ve
1e-07
24.9236110756821 114.472264515934 1
0 0

0101101
*
Ed
 1e-07 1 1 0
1  195 0 0 6.28318530717959
2  407 120 0 0 6.28318530717959
2  408 156 0 0 6.28318530717959
0

0101000
+273 0 -273 0 *
Ed
 1e-07 1 1 0
1  196 0 0 6.5
3  409 410CN 120 0 0 6.5
0

0101000
+411 0 -273 0 *
Wi

0101100
-272 0 +271 0 +410 0 -271 0 *
Fa
0  1e-07 120 0

0101000
+270 0 *
Ve
1e-07
-29.5236110756821 168.919486667298 1
0 0

0101101
*
Ed
 1e-07 1 1 0
1  197 0 0 6.28318530717959
2  411 122 0 0 6.28318530717959
2  412 157 0 0 6.28318530717959
0

0101000
+268 0 -268 0 *
Ed
 1e-07 1 1 0
1  198 0 0 6.5
3  413 414CN 122 0 0 6.5
0

0101000
+408 0 -268 0 *
Wi

0101100
-267 0 +266 0 +407 0 -266 0 *
Fa
0  1e-07 122 0

0101000
+265 0 *
Ve
1e-07
24.9236110756821 168.919486667298 1
0 0

0101101
*
Ed
 1e-07 1 1 0
1  199 0 0 6.28318530717959
2  415 124 0 0 6.28318530717959
2  416 158 0 0 6.28318530717959
0

0101000
+263 0 -263 0 *
Ed
 1e-07 1 1 0
1  200 0 0 6.5
3  417 418CN 124 0 0 6.5
0

0101000
+404 0 -263 0 *
Wi

0101100
-262 0 +261 0 +403 0 -261 0 *
Fa
0  1e-07 124 0

0101000
+260 0 *
Wi

0101100
+385 0 *
Fa
0  1e-07 126 0

0101000
+258 0 *
Wi

0101100
+380 0 *
Fa
0  1e-07 127 0

0101000
+256 0 *
Wi

0101100
+375 0 *
Fa
0  1e-07 128 0

0101000
+254 0 *
Wi

0101100
+370 0 *
Fa
0  1e-07 129 0

0101000
+252 0 *
Wi

0101100
+353 0 *
Fa
0  1e-07 130 0

0101000
+250 0 *
Wi

0101100
+348 0 *
Fa
0  1e-07 131 0

0101000
+248 0 *
Wi

0101100
+343 0 *
Fa
0  1e-07 132 0

0101000
+246 0 *
Wi

0101100
+338 0 *
Fa
0  1e-07 133 0

0101000
+244 0 *
Ve
1e-07
-62.9 108.6 55
0 0

0101101
*
Ed
 1e-07 1 1 0
1  201 0 0 6.28318530717959
2  419 134 0 0 6.28318530717959
2  420 159 0 0 6.28318530717959
0

0101000
+242 0 -242 0 *
Ed
 1e-07 1 1 0
1  202 0 0 6.5
3  421 422CN 134 0 0 6.5
0

0101000
+333 0 -242 0 *
Wi

0101100
-241 0 +240 0 +332 0 -240 0 *
Fa
0  1e-07 134 0

0101000
+239 0 *
Ve
1e-07
-30.855 90.695 55
0 0

0101101
*
Ed
 1e-07 1 1 0
1  203 0 0 6.28318530717959
2  423 136 0 0 6.28318530717959
2  424 160 0 0 6.28318530717959
0

0101000
+237 0 -237 0 *
Ed
 1e-07 1 1 0
1  204 0 0 6.5
3  425 426CN 136 0 0 6.5
0

0101000
+328 0 -237 0 *
Wi

0101100
-236 0 +235 0 +327 0 -235 0 *
Fa
0  1e-07 136 0

0101000
+234 0 *
Ve
1e-07
32.945 90.695 55
0 0

0101101
*
Ed
 1e-07 1 1 0
1  205 0 0 6.28318530717959
2  427 138 0 0 6.28318530717959
2  428 161 0 0 6.28318530717959
0

0101000
+232 0 -232 0 *
Ed
 1e-07 1 1 0
1  206 0 0 6.5
3  429 430CN 138 0 0 6.5
0

0101000
+323 0 -232 0 *
Wi

0101100
-231 0 +230 0 +322 0 -230 0 *
Fa
0  1e-07 138 0

0101000
+229 0 *
Ve
1e-07
9.00000000000001 81.9 55
0 0

0101101
*
Ed
 1e-07 1 1 0
1  207 0 0 6.28318530717959
2  431 140 0 0 6.28318530717959
2  432 162 0 0 6.28318530717959
0

0101000
+227 0 -227 0 *
Ed
 1e-07 1 1 0
1  208 0 0 6.5
3  433 434CN 140 0 0 6.5
0

0101000
+314 0 -227 0 *
Wi

0101100
-226 0 +225 0 +313 0 -225 0 *
Fa
0  1e-07 140 0

0101000
+224 0 *
Ve
1e-07
2.6 106.2 55
0 0

0101101
*
Ed
 1e-07 1 1 0
1  209 0 0 6.28318530717959
2  435 142 0 0 6.28318530717959
2  436 163 0 0 6.28318530717959
0

0101000
+222 0 -222 0 *
Ed
 1e-07 1 1 0
1  210 0 0 6.5
3  437 438CN 142 0 0 6.5
0

0101000
+305 0 -222 0 *
Wi

0101100
-221 0 +220 0 +304 0 -220 0 *
Fa
0  1e-07 142 0

0101000
+219 0 *
Ve
1e-07
2.00000000000001 136.2 55
0 0

0101101
*
Ed
 1e-07 1 1 0
1  211 0 0 6.28318530717959
2  439 144 0 0 6.28318530717959
2  440 164 0 0 6.28318530717959
0

0101000
+217 0 -217 0 *
Ed
 1e-07 1 1 0
1  212 0 0 6.5
3  441 442CN 144 0 0 6.5
0

0101000
+300 0 -217 0 *
Wi

0101100
-216 0 +215 0 +299 0 -215 0 *
Fa
0  1e-07 144 0

0101000
+214 0 *
Ve
1e-07
39.1 125.4 55
0 0

0101101
*
Ed
 1e-07 1 1 0
1  213 0 0 6.28318530717959
2  443 147 0 0 6.28318530717959
2  444 165 0 0 6.28318530717959
0

0101000
+212 0 -212 0 *
Ed
 1e-07 1 1 0
1  214 0 0 6.5
3  445 446CN 147 0 0 6.5
0

0101000
+295 0 -212 0 *
Wi

0101100
-211 0 +210 0 +294 0 -210 0 *
Fa
0  1e-07 147 0

0101000
+209 0 *
Ve
1e-07
39.1 133.2 55
0 0

0101101
*
Ed
 1e-07 1 1 0
1  215 0 0 6.28318530717959
2  447 149 0 0 6.28318530717959
2  448 166 0 0 6.28318530717959
0

0101000
+207 0 -207 0 *
Ed
 1e-07 1 1 0
1  216 0 0 6.5
3  449 450CN 149 0 0 6.5
0

0101000
+292 0 -207 0 *
Wi

0101100
-206 0 +205 0 +291 0 -205 0 *
Fa
0  1e-07 149 0

0101000
+204 0 *
Ve
1e-07
-24.8 177.2 55
0 0

0101101
*
Ed
 1e-07 1 1 0
1  217 0 0 6.28318530717959
2  451 151 0 0 6.28318530717959
2  452 167 0 0 6.28318530717959
0

0101000
+202 0 -202 0 *
Ed
 1e-07 1 1 0
1  218 0 0 6.5
3  453 454CN 151 0 0 6.5
0

0101000
+287 0 -202 0 *
Wi

0101100
-201 0 +200 0 +286 0 -200 0 *
Fa
0  1e-07 151 0

0101000
+199 0 *
Ve
1e-07
40.1 157.2 55
0 0

0101101
*
Ed
 1e-07 1 1 0
1  219 0 0 6.28318530717959
2  455 153 0 0 6.28318530717959
2  456 168 0 0 6.28318530717959
0

0101000
+197 0 -197 0 *
Ed
 1e-07 1 1 0
1  220 0 0 6.5
3  457 458CN 153 0 0 6.5
0

0101000
+282 0 -197 0 *
Wi

0101100
-196 0 +195 0 +281 0 -195 0 *
Fa
0  1e-07 153 0

0101000
+194 0 *
Wi

0101100
+277 0 *
Fa
0  1e-07 155 0

0101000
+192 0 *
Wi

0101100
+272 0 *
Fa
0  1e-07 156 0

0101000
+190 0 *
Wi

0101100
+267 0 *
Fa
0  1e-07 157 0

0101000
+188 0 *
Wi

0101100
+262 0 *
Fa
0  1e-07 158 0

0101000
+186 0 *
Wi

0101100
+241 0 *
Fa
0  1e-07 159 0

0101000
+184 0 *
Wi

0101100
+236 0 *
Fa
0  1e-07 160 0

0101000
+182 0 *
Wi

0101100
+231 0 *
Fa
0  1e-07 161 0

0101000
+180 0 *
Wi

0101100
+226 0 *
Fa
0  1e-07 162 0

0101000
+178 0 *
Wi

0101100
+221 0 *
Fa
0  1e-07 163 0

0101000
+176 0 *
Wi

0101100
+216 0 *
Fa
0  1e-07 164 0

0101000
+174 0 *
Wi

0101100
+211 0 *
Fa
0  1e-07 165 0

0101000
+172 0 *
Wi

0101100
+206 0 *
Fa
0  1e-07 166 0

0101000
+170 0 *
Wi

0101100
+201 0 *
Fa
0  1e-07 167 0

0101000
+168 0 *
Wi

0101100
+196 0 *
Fa
0  1e-07 168 0

0101000
+166 0 *
Sh

0101100
-860 0 -847 0 +842 0 +811 0 -793 0 +791 0 -786 0 -781 0 +774 0 +733 0 
-728 0 +688 0 +685 0 -680 0 -677 0 +653 0 -648 0 -629 0 +626 0 -621 0 
-616 0 -611 0 -606 0 -601 0 +578 0 +555 0 +535 0 +529 0 -526 0 -523 0 
+517 0 -514 0 +508 0 -506 0 +501 0 +496 0 +491 0 +486 0 +481 0 +476 0 
+471 0 +462 0 +457 0 +452 0 +447 0 +444 0 +441 0 +438 0 +435 0 +432 0 
+429 0 +427 0 +422 0 -420 0 -418 0 -416 0 +401 0 -399 0 -395 0 +392 0 
-389 0 +387 0 -382 0 -377 0 -372 0 -367 0 -363 0 +360 0 -357 0 +355 0 
-350 0 -345 0 -340 0 -335 0 +330 0 +325 0 +320 0 +318 0 +316 0 +311 0 
+309 0 +307 0 +302 0 +297 0 +289 0 +284 0 +279 0 -274 0 -269 0 -264 0 
-259 0 -257 0 -255 0 -253 0 -251 0 -249 0 -247 0 -245 0 -243 0 -238 0 
-233 0 -228 0 -223 0 -218 0 -213 0 -208 0 -203 0 -198 0 -193 0 -191 0 
-189 0 -187 0 -185 0 -183 0 -181 0 -179 0 -177 0 -175 0 -173 0 -171 0 
-169 0 -167 0 -165 0 *
So

0100000
+164 0 *
Ve
1e-07
-74 192.8 11.5
0 0

0101101
*
Ed
 1e-07 1 1 0
1  221 0 0 6.28318530717959
2  459 169 0 0 6.28318530717959
2  460 170 0 0 6.28318530717959
0

0101000
+162 0 -162 0 *
Ve
1e-07
-74 182.8 11.5
0 0

0101101
*
Ed
 1e-07 1 1 0
1  222 0 0 10
3  461 462CN 169 0 0 10
0

0101000
-162 0 +160 0 *
Ed
 1e-07 1 1 0
1  223 0 0 6.28318530717959
2  463 169 0 0 6.28318530717959
2  464 171 0 0 6.28318530717959
0

0101000
+160 0 -160 0 *
Wi

0101100
-161 0 +159 0 +158 0 -159 0 *
Fa
0  1e-07 169 0

0101000
+157 0 *
Wi

0101100
+161 0 *
Ve
1e-07
-74 192.8 5.2
0 0

0101101
*
Ed
 1e-07 1 1 0
1  224 0 0 6.28318530717959
2  465 172 0 0 6.28318530717959
2  466 173 0 0 6.28318530717959
0

0101000
+154 0 -154 0 *
Wi

0101100
+153 0 *
Fa
0  1e-07 170 0

0101000
+155 0 +152 0 *
Wi

0101100
-158 0 *
Fa
0  1e-07 171 0

0101000
-150 0 *
Ve
1e-07
-74 184.8 5.2
0 0

0101101
*
Ed
 1e-07 1 1 0
1  225 0 0 6.28318530717959
2  467 172 0 0 6.28318530717959
2  468 174 0 0 6.28318530717959
0

0101000
+148 0 -148 0 *
Ed
 1e-07 1 1 0
1  226 0 0 8
3  469 470CN 172 0 0 8
0

0101000
+154 0 -148 0 *
Wi

0101100
-147 0 +146 0 +153 0 -146 0 *
Fa
0  1e-07 172 0

0101000
+145 0 *
Wi

0101100
+147 0 *
Fa
0  1e-07 174 0

0101000
+143 0 *
Sh

0101100
+156 0 +151 0 -149 0 -144 0 -142 0 *
So

0100000
+141 0 *
Ve
1e-07
74 192.8 11.5
0 0

0101101
*
Ed
 1e-07 1 1 0
1  227 0 0 6.28318530717959
2  471 175 0 0 6.28318530717959
2  472 176 0 0 6.28318530717959
0

0101000
+139 0 -139 0 *
Ve
1e-07
74 182.8 11.5
0 0

0101101
*
Ed
 1e-07 1 1 0
1  228 0 0 10
3  473 474CN 175 0 0 10
0

0101000
-139 0 +137 0 *
Ed
 1e-07 1 1 0
1  229 0 0 6.28318530717959
2  475 175 0 0 6.28318530717959
2  476 177 0 0 6.28318530717959
0

0101000
+137 0 -137 0 *
Wi

0101100
-138 0 +136 0 +135 0 -136 0 *
Fa
0  1e-07 175 0

0101000
+134 0 *
Wi

0101100
+138 0 *
Ve
1e-07
74 192.8 5.2
0 0

0101101
*
Ed
 1e-07 1 1 0
1  230 0 0 6.28318530717959
2  477 178 0 0 6.28318530717959
2  478 179 0 0 6.28318530717959
0

0101000
+131 0 -131 0 *
Wi

0101100
+130 0 *
Fa
0  1e-07 176 0

0101000
+132 0 +129 0 *
Wi

0101100
-135 0 *
Fa
0  1e-07 177 0

0101000
-127 0 *
Ve
1e-07
74 184.8 5.2
0 0

0101101
*
Ed
 1e-07 1 1 0
1  231 0 0 6.28318530717959
2  479 178 0 0 6.28318530717959
2  480 180 0 0 6.28318530717959
0

0101000
+125 0 -125 0 *
Ed
 1e-07 1 1 0
1  232 0 0 8
3  481 482CN 178 0 0 8
0

0101000
+131 0 -125 0 *
Wi

0101100
-124 0 +123 0 +130 0 -123 0 *
Fa
0  1e-07 178 0

0101000
+122 0 *
Wi

0101100
+124 0 *
Fa
0  1e-07 180 0

0101000
+120 0 *
Sh

0101100
+133 0 +128 0 -126 0 -121 0 -119 0 *
So

0100000
+118 0 *
Ve
1e-07
-74 192.8 96.5
0 0

0101101
*
Ed
 1e-07 1 1 0
1  233 0 0 6.28318530717959
2  483 181 0 0 6.28318530717959
2  484 182 0 0 6.28318530717959
0

0101000
+116 0 -116 0 *
Ve
1e-07
-74 182.8 96.5
0 0

0101101
*
Ed
 1e-07 1 1 0
1  234 0 0 10
3  485 486CN 181 0 0 10
0

0101000
-116 0 +114 0 *
Ed
 1e-07 1 1 0
1  235 0 0 6.28318530717959
2  487 181 0 0 6.28318530717959
2  488 183 0 0 6.28318530717959
0

0101000
+114 0 -114 0 *
Wi

0101100
-115 0 +113 0 +112 0 -113 0 *
Fa
0  1e-07 181 0

0101000
+111 0 *
Wi

0101100
+115 0 *
Ve
1e-07
-74 192.8 90.2
0 0

0101101
*
Ed
 1e-07 1 1 0
1  236 0 0 6.28318530717959
2  489 184 0 0 6.28318530717959
2  490 185 0 0 6.28318530717959
0

0101000
+108 0 -108 0 *
Wi

0101100
+107 0 *
Fa
0  1e-07 182 0

0101000
+109 0 +106 0 *
Wi

0101100
-112 0 *
Fa
0  1e-07 183 0

0101000
-104 0 *
Ve
1e-07
-74 184.8 90.2
0 0

0101101
*
Ed
 1e-07 1 1 0
1  237 0 0 6.28318530717959
2  491 184 0 0 6.28318530717959
2  492 186 0 0 6.28318530717959
0

0101000
+102 0 -102 0 *
Ed
 1e-07 1 1 0
1  238 0 0 8
3  493 494CN 184 0 0 8
0

0101000
+108 0 -102 0 *
Wi

0101100
-101 0 +100 0 +107 0 -100 0 *
Fa
0  1e-07 184 0

0101000
+99 0 *
Wi

0101100
+101 0 *
Fa
0  1e-07 186 0

0101000
+97 0 *
Sh

0101100
+110 0 +105 0 -103 0 -98 0 -96 0 *
So

0100000
+95 0 *
Ve
1e-07
74 192.8 96.5
0 0

0101101
*
Ed
 1e-07 1 1 0
1  239 0 0 6.28318530717959
2  495 187 0 0 6.28318530717959
2  496 188 0 0 6.28318530717959
0

0101000
+93 0 -93 0 *
Ve
1e-07
74 182.8 96.5
0 0

0101101
*
Ed
 1e-07 1 1 0
1  240 0 0 10
3  497 498CN 187 0 0 10
0

0101000
-93 0 +91 0 *
Ed
 1e-07 1 1 0
1  241 0 0 6.28318530717959
2  499 187 0 0 6.28318530717959
2  500 189 0 0 6.28318530717959
0

0101000
+91 0 -91 0 *
Wi

0101100
-92 0 +90 0 +89 0 -90 0 *
Fa
0  1e-07 187 0

0101000
+88 0 *
Wi

0101100
+92 0 *
Ve
1e-07
74 192.8 90.2
0 0

0101101
*
Ed
 1e-07 1 1 0
1  242 0 0 6.28318530717959
2  501 190 0 0 6.28318530717959
2  502 191 0 0 6.28318530717959
0

0101000
+85 0 -85 0 *
Wi

0101100
+84 0 *
Fa
0  1e-07 188 0

0101000
+86 0 +83 0 *
Wi

0101100
-89 0 *
Fa
0  1e-07 189 0

0101000
-81 0 *
Ve
1e-07
74 184.8 90.2
0 0

0101101
*
Ed
 1e-07 1 1 0
1  243 0 0 6.28318530717959
2  503 190 0 0 6.28318530717959
2  504 192 0 0 6.28318530717959
0

0101000
+79 0 -79 0 *
Ed
 1e-07 1 1 0
1  244 0 0 8
3  505 506CN 190 0 0 8
0

0101000
+85 0 -79 0 *
Wi

0101100
-78 0 +77 0 +84 0 -77 0 *
Fa
0  1e-07 190 0

0101000
+76 0 *
Wi

0101100
+78 0 *
Fa
0  1e-07 192 0

0101000
+74 0 *
Sh

0101100
+87 0 +82 0 -80 0 -75 0 -73 0 *
So

0100000
+72 0 *
Ve
1e-07
-9.79717439317884e-16 192.8 96.5
0 0

0101101
*
Ed
 1e-07 1 1 0
1  245 0 0 6.28318530717959
2  507 193 0 0 6.28318530717959
2  508 194 0 0 6.28318530717959
0

0101000
+70 0 -70 0 *
Ve
1e-07
-9.79717439317884e-16 182.8 96.5
0 0

0101101
*
Ed
 1e-07 1 1 0
1  246 0 0 10
3  509 510CN 193 0 0 10
0

0101000
-70 0 +68 0 *
Ed
 1e-07 1 1 0
1  247 0 0 6.28318530717959
2  511 193 0 0 6.28318530717959
2  512 195 0 0 6.28318530717959
0

0101000
+68 0 -68 0 *
Wi

0101100
-69 0 +67 0 +66 0 -67 0 *
Fa
0  1e-07 193 0

0101000
+65 0 *
Wi

0101100
+69 0 *
Ve
1e-07
-5.63337527607782e-16 192.8 90.2
0 0

0101101
*
Ed
 1e-07 1 1 0
1  248 0 0 6.28318530717959
2  513 196 0 0 6.28318530717959
2  514 197 0 0 6.28318530717959
0

0101000
+62 0 -62 0 *
Wi

0101100
+61 0 *
Fa
0  1e-07 194 0

0101000
+63 0 +60 0 *
Wi

0101100
-66 0 *
Fa
0  1e-07 195 0

0101000
-58 0 *
Ve
1e-07
-5.63337527607782e-16 184.8 90.2
0 0

0101101
*
Ed
 1e-07 1 1 0
1  249 0 0 6.28318530717959
2  515 196 0 0 6.28318530717959
2  516 198 0 0 6.28318530717959
0

0101000
+56 0 -56 0 *
Ed
 1e-07 1 1 0
1  250 0 0 8
3  517 518CN 196 0 0 8
0

0101000
+62 0 -56 0 *
Wi

0101100
-55 0 +54 0 +61 0 -54 0 *
Fa
0  1e-07 196 0

0101000
+53 0 *
Wi

0101100
+55 0 *
Fa
0  1e-07 198 0

0101000
+51 0 *
Sh

0101100
+64 0 +59 0 -57 0 -52 0 -50 0 *
So

0100000
+49 0 *
Ve
1e-07
-50 192.8 11.5
0 0

0101101
*
Ed
 1e-07 1 1 0
1  251 0 0 6.28318530717959
2  519 199 0 0 6.28318530717959
2  520 200 0 0 6.28318530717959
0

0101000
+47 0 -47 0 *
Ve
1e-07
-50 182.8 11.5
0 0

0101101
*
Ed
 1e-07 1 1 0
1  252 0 0 10
3  521 522CN 199 0 0 10
0

0101000
-47 0 +45 0 *
Ed
 1e-07 1 1 0
1  253 0 0 6.28318530717959
2  523 199 0 0 6.28318530717959
2  524 201 0 0 6.28318530717959
0

0101000
+45 0 -45 0 *
Wi

0101100
-46 0 +44 0 +43 0 -44 0 *
Fa
0  1e-07 199 0

0101000
+42 0 *
Wi

0101100
+46 0 *
Ve
1e-07
-50 192.8 5.2
0 0

0101101
*
Ed
 1e-07 1 1 0
1  254 0 0 6.28318530717959
2  525 202 0 0 6.28318530717959
2  526 203 0 0 6.28318530717959
0

0101000
+39 0 -39 0 *
Wi

0101100
+38 0 *
Fa
0  1e-07 200 0

0101000
+40 0 +37 0 *
Wi

0101100
-43 0 *
Fa
0  1e-07 201 0

0101000
-35 0 *
Ve
1e-07
-50 184.8 5.2
0 0

0101101
*
Ed
 1e-07 1 1 0
1  255 0 0 6.28318530717959
2  527 202 0 0 6.28318530717959
2  528 204 0 0 6.28318530717959
0

0101000
+33 0 -33 0 *
Ed
 1e-07 1 1 0
1  256 0 0 8
3  529 530CN 202 0 0 8
0

0101000
+39 0 -33 0 *
Wi

0101100
-32 0 +31 0 +38 0 -31 0 *
Fa
0  1e-07 202 0

0101000
+30 0 *
Wi

0101100
+32 0 *
Fa
0  1e-07 204 0

0101000
+28 0 *
Sh

0101100
+41 0 +36 0 -34 0 -29 0 -27 0 *
So

0100000
+26 0 *
Ve
1e-07
50 192.8 11.5
0 0

0101101
*
Ed
 1e-07 1 1 0
1  257 0 0 6.28318530717959
2  531 205 0 0 6.28318530717959
2  532 206 0 0 6.28318530717959
0

0101000
+24 0 -24 0 *
Ve
1e-07
50 182.8 11.5
0 0

0101101
*
Ed
 1e-07 1 1 0
1  258 0 0 10
3  533 534CN 205 0 0 10
0

0101000
-24 0 +22 0 *
Ed
 1e-07 1 1 0
1  259 0 0 6.28318530717959
2  535 205 0 0 6.28318530717959
2  536 207 0 0 6.28318530717959
0

0101000
+22 0 -22 0 *
Wi

0101100
-23 0 +21 0 +20 0 -21 0 *
Fa
0  1e-07 205 0

0101000
+19 0 *
Wi

0101100
+23 0 *
Ve
1e-07
50 192.8 5.2
0 0

0101101
*
Ed
 1e-07 1 1 0
1  260 0 0 6.28318530717959
2  537 208 0 0 6.28318530717959
2  538 209 0 0 6.28318530717959
0

0101000
+16 0 -16 0 *
Wi

0101100
+15 0 *
Fa
0  1e-07 206 0

0101000
+17 0 +14 0 *
Wi

0101100
-20 0 *
Fa
0  1e-07 207 0

0101000
-12 0 *
Ve
1e-07
50 184.8 5.2
0 0

0101101
*
Ed
 1e-07 1 1 0
1  261 0 0 6.28318530717959
2  539 208 0 0 6.28318530717959
2  540 210 0 0 6.28318530717959
0

0101000
+10 0 -10 0 *
Ed
 1e-07 1 1 0
1  262 0 0 8
3  541 542CN 208 0 0 8
0

0101000
+16 0 -10 0 *
Wi

0101100
-9 0 +8 0 +15 0 -8 0 *
Fa
0  1e-07 208 0

0101000
+7 0 *
Wi

0101100
+9 0 *
Fa
0  1e-07 210 0

0101000
+5 0 *
Sh

0101100
+18 0 +13 0 -11 0 -6 0 -4 0 *
So

0100000
+3 0 *
Co

0100000
+163 0 +140 0 +117 0 +94 0 +71 0 +48 0 +25 0 +2 0 *

+1 0 