DBRep_DrawableShape

CASCADE Topology V1, (c) Matra-Datavision
Locations 1
1
              1               0               0               0 
              0               1               0               0 
              0               0               1               5 
Curve2ds 6
2 -1.7763568394002505e-15 -1.4210854715202004e-14 1 0 -0 1 1.5
1 0 1 1 0 
2 -1.7763568394002505e-15 -1.4210854715202004e-14 1 0 -0 1 1.5
1 0 6 1 0 
1 6.2831853071795862 -0 0 1 
1 0 -0 0 1 
Curves 15
1 11.575426480542943 121.19999999999999 61.5 0 0 1 
1 9.9877132402714714 123.94999999999999 61.5 0 0 1 
1 11.575426480542943 121.19999999999999 61.5 -0.50000000000000011 0.8660254037844386 0 
1 9.9877132402714714 118.44999999999999 61.5 0 0 1 
1 9.9877132402714714 118.44999999999999 61.5 0.50000000000000011 0.8660254037844386 0 
1 6.8122867597285301 123.94999999999999 61.5 0 0 1 
1 9.9877132402714714 123.94999999999999 61.5 -1 0 0 
1 6.8122867597285284 118.44999999999999 61.5 1 0 0 
1 6.8122867597285301 123.94999999999999 61.5 -0.50000000000000033 -0.86602540378443849 0 
1 5.2245735194570582 121.19999999999999 61.5 0.49999999999999983 -0.86602540378443871 0 
2 8.4000000000000004 121.19999999999999 61.5 0 0 1 1 0 -0 -0 1 0 1.5
2 8.4000000000000004 121.19999999999999 66.5 0 0 1 1 0 -0 -0 1 0 1.5
1 6.8122867597285284 118.44999999999999 61.5 0 0 1 
1 5.2245735194570582 121.19999999999999 61.5 0 0 1 
1 9.9000000000000004 121.19999999999999 60.5 0 0 1 
Polygon3D 0
PolygonOnTriangulations 0
Surfaces 8
1 11.575426480542943 121.19999999999999 61.5 -0.8660254037844386 -0.50000000000000011 0 -0.50000000000000011 0.8660254037844386 0 -0 0 -1 
1 9.9877132402714714 118.44999999999999 61.5 -0.8660254037844386 0.50000000000000011 0 0.50000000000000011 0.8660254037844386 0 0 0 -1 
1 9.9877132402714714 123.94999999999999 61.5 0 -1 0 -1 0 0 -0 -0 -1 
1 8.4000000000000021 121.2 61.5 0 0 1 1 0 -0 -0 1 0 
2 8.4000000000000004 121.19999999999999 60.5 0 0 1 1 0 -0 -0 1 0 1.5
1 6.8122867597285284 118.44999999999999 61.5 0 1 0 1 0 0 0 0 -1 
1 6.8122867597285301 123.94999999999999 61.5 0.86602540378443849 -0.50000000000000033 0 -0.50000000000000033 -0.86602540378443849 0 0 -0 -1 
1 5.2245735194570582 121.19999999999999 61.5 0.86602540378443871 0.49999999999999983 -0 0.49999999999999983 -0.86602540378443871 0 0 -0 -1 
Triangulations 0

TShapes 46
Ve
1e-07
11.5754264805429 121.2 61.5
0 0

0101101
*
Ed
 1e-07 1 1 0
1  1 0 0 5
0

0101000
+46 0 -46 1 *
Ve
1e-07
9.98771324027147 123.95 61.5
0 0

0101101
*
Ed
 1e-07 1 1 0
1  2 0 0 5
0

0101000
+44 0 -44 1 *
Ed
 1e-07 1 1 0
1  3 0 0 3.17542648054294
0

0101000
+46 0 -44 0 *
Wi

0101100
+45 0 -43 0 -42 0 +42 1 *
Fa
0  1e-07 1 0

0101000
+41 0 *
Ve
1e-07
9.98771324027147 118.45 61.5
0 0

0101101
*
Ed
 1e-07 1 1 0
1  4 0 0 5
0

0101000
+39 0 -39 1 *
Ed
 1e-07 1 1 0
1  5 0 0 3.17542648054294
0

0101000
+39 0 -46 0 *
Wi

0101100
+38 0 -45 0 -37 0 +37 1 *
Fa
0  1e-07 2 0

0101000
+36 0 *
Ve
1e-07
6.81228675972853 123.95 61.5
0 0

0101101
*
Ed
 1e-07 1 1 0
1  6 0 0 5
0

0101000
+34 0 -34 1 *
Ed
 1e-07 1 1 0
1  7 0 0 3.17542648054294
0

0101000
+44 0 -34 0 *
Wi

0101100
+43 0 -33 0 -32 0 +32 1 *
Fa
0  1e-07 3 0

0101000
+31 0 *
Ve
1e-07
6.81228675972853 118.45 61.5
0 0

0101101
*
Ed
 1e-07 1 1 0
1  8 0 0 3.17542648054294
0

0101000
+29 0 -39 0 *
Ve
1e-07
5.22457351945706 121.2 61.5
0 0

0101101
*
Ed
 1e-07 1 1 0
1  9 0 0 3.17542648054294
0

0101000
+34 0 -27 0 *
Ed
 1e-07 1 1 0
1  10 0 0 3.17542648054294
0

0101000
+27 0 -29 0 *
Wi

0101100
+42 0 +37 0 +32 0 +28 0 +26 0 +25 0 *
Ve
1e-07
9.9 121.2 61.5
0 0

0101101
*
Ed
 1e-07 1 1 0
1  11 0 0 6.28318530717959
2  1 4 0 0 6.28318530717959
2  2 5 0 0 6.28318530717959
0

0101000
+23 0 -23 0 *
Wi

0101100
-22 0 *
Fa
0  1e-07 4 0

0101000
+24 0 +21 0 *
Wi

0101100
+42 1 +37 1 +32 1 +28 1 +26 1 +25 1 *
Ve
1e-07
9.9 121.2 66.5
0 0

0101101
*
Ed
 1e-07 1 1 0
1  12 0 0 6.28318530717959
2  3 4 1 0 6.28318530717959
2  4 5 0 0 6.28318530717959
0

0101000
+18 0 -18 0 *
Wi

0101100
-17 0 *
Fa
0  1e-07 4 1

0101000
+19 0 +16 0 *
Ed
 1e-07 1 1 0
1  13 0 0 5
0

0101000
+29 0 -29 1 *
Wi

0101100
+14 0 -38 0 -28 0 +28 1 *
Fa
0  1e-07 6 0

0101000
+13 0 *
Ed
 1e-07 1 1 0
1  14 0 0 5
0

0101000
+27 0 -27 1 *
Wi

0101100
+33 0 -11 0 -26 0 +26 1 *
Fa
0  1e-07 7 0

0101000
+10 0 *
Wi

0101100
+11 0 -14 0 -25 0 +25 1 *
Fa
0  1e-07 8 0

0101000
+8 0 *
Ed
 1e-07 1 1 0
1  15 0 1 6
3  5 6CN 5 0 1 6
0

0101000
+23 0 -18 0 *
Wi

0101100
-17 0 +6 0 +22 0 -6 0 *
Fa
0  1e-07 5 0

0101000
+5 0 *
Sh

0101100
-40 0 -35 0 -30 0 -20 0 +15 0 -12 0 -9 0 -7 0 -4 0 *
So

0100000
+3 0 *
Co

0100000
+2 0 *

+1 0 