DBRep_DrawableShape

CASCADE Topology V1, (c) Matra-Datavision
Locations 0
Curve2ds 12
1 0 22 1 0 
2 0 0 1 0 -0 1 9.8000000000000007
1 6.2831853071795862 -0 0 1 
1 0 -0 0 1 
1 0 0 1 0 
2 0 0 1 0 -0 1 9.8000000000000007
1 0 0 1 0 
2 0 0 1 0 -0 1 11.5
1 0 1.5 1 0 
2 0 0 1 0 -0 1 11.5
1 6.2831853071795862 -0 0 1 
1 0 -0 0 1 
Curves 6
2 66 195.80000000000001 78 0 1 0 0 -0 1 1 0 -0 9.8000000000000007
1 65.999999999999986 173.80000000000001 87.799999999999997 0 1 0 
2 66 173.80000000000001 78 0 1 0 0 -0 1 1 0 -0 9.8000000000000007
2 66 195.80000000000001 78 0 1 0 0 -0 1 1 0 -0 11.5
2 66 197.30000000000001 78 0 1 0 0 -0 1 1 0 -0 11.5
1 65.999999999999986 195.80000000000001 89.5 0 1 0 
Polygon3D 0
PolygonOnTriangulations 0
Surfaces 6
2 66 173.80000000000001 78 0 1 0 0 -0 1 1 0 -0 9.8000000000000007
1 66 195.80000000000001 78 0 1 0 0 -0 1 1 0 -0 
1 66 173.80000000000001 78 0 1 0 0 -0 1 1 0 -0 
1 66 195.80000000000001 78 0 1 0 0 -0 1 1 0 -0 
2 66 195.80000000000001 78 0 1 0 0 -0 1 1 0 -0 11.5
1 66 197.30000000000001 78 0 1 0 0 -0 1 1 0 -0 
Triangulations 0

TShapes 24
Ve
1e-07
66 195.8 87.8
0 0

0101101
*
Ed
 1e-07 1 1 0
1  1 0 0 6.28318530717959
2  1 1 0 0 6.28318530717959
2  2 2 0 0 6.28318530717959
0

0101000
+24 0 -24 0 *
Ve
1e-07
66 173.8 87.8
0 0

0101101
*
Ed
 1e-07 1 1 0
1  2 0 0 22
3  3 4CN 1 0 0 22
0

0101000
+22 0 -24 0 *
Ed
 1e-07 1 1 0
1  3 0 0 6.28318530717959
2  5 1 0 0 6.28318530717959
2  6 3 0 0 6.28318530717959
0

0101000
+22 0 -22 0 *
Wi

0101100
-23 0 +21 0 +20 0 -21 0 *
Fa
0  1e-07 1 0

0101000
+19 0 *
Ve
1e-07
66 195.8 89.5
0 0

0101101
*
Ed
 1e-07 1 1 0
1  4 0 0 6.28318530717959
2  7 5 0 0 6.28318530717959
2  8 4 0 0 6.28318530717959
0

0101000
+17 0 -17 0 *
Wi

0101100
+16 0 *
Wi

0101100
-23 0 *
Fa
0  1e-07 4 0

0101000
+15 0 +14 0 *
Wi

0101100
-20 0 *
Fa
0  1e-07 3 0

0101000
-12 0 *
Ve
1e-07
66 197.3 89.5
0 0

0101101
*
Ed
 1e-07 1 1 0
1  5 0 0 6.28318530717959
2  9 5 0 0 6.28318530717959
2  10 6 0 0 6.28318530717959
0

0101000
+10 0 -10 0 *
Ed
 1e-07 1 1 0
1  6 0 0 1.5
3  11 12CN 5 0 0 1.5
0

0101000
-10 0 +17 0 *
Wi

0101100
-9 0 +8 0 +16 0 -8 0 *
Fa
0  1e-07 5 0

0101000
+7 0 *
Wi

0101100
+9 0 *
Fa
0  1e-07 6 0

0101000
+5 0 *
Sh

0101100
+18 0 -13 0 -11 0 +6 0 +4 0 *
So

0100000
+3 0 *
Co

0100000
+2 0 *

+1 0 