DBRep_DrawableShape

CASCADE Topology V1, (c) Matra-Datavision
Locations 0
Curve2ds 52
1 0 4 1 0 
2 0 0 1 0 -0 1 41.299999999999997
1 6.2831853071795862 -0 0 1 
1 0 -0 0 1 
1 0 0 1 0 
2 0 0 1 0 -0 1 41.299999999999997
2 -27.223611075682086 -27.223611075682072 1 0 -0 1 1.8
1 0 5 1 0 
2 27.223611075682072 -27.223611075682086 1 0 -0 1 1.8
1 0 5 1 0 
2 -27.223611075682076 27.223611075682072 1 0 -0 1 1.8
1 0 5 1 0 
2 0 0 1 0 -0 1 31
1 0 4.5 1 0 
2 27.223611075682083 27.223611075682072 1 0 -0 1 1.8
1 0 5 1 0 
2 -27.223611075682086 -27.223611075682072 1 0 -0 1 1.8
1 0 1 1 0 
2 27.223611075682072 -27.223611075682086 1 0 -0 1 1.8
1 0 1 1 0 
2 -27.223611075682076 27.223611075682072 1 0 -0 1 1.8
1 0 1 1 0 
2 0 0 1 0 -0 1 31
1 0 0.5 1 0 
8 0 6.2831853071795862
1 0 0 1 0 
2 27.223611075682083 27.223611075682072 1 0 -0 1 1.8
1 0 1 1 0 
1 6.2831853071795862 -0 0 1 
1 0 -0 0 1 
1 6.2831853071795862 -0 0 1 
1 0 -0 0 1 
1 6.2831853071795862 -0 0 1 
1 0 -0 0 1 
1 6.2831853071795862 -0 0 1 
1 0 -0 0 1 
1 6.2831853071795862 -0 0 1 
1 0 -0 0 1 
1 0 26.856098003991569 1 0 
2 0 0 1 0 -0 1 20
8 0 6.2831853071795862
1 0 0 1 0 
1 6.2831853071795862 -0 0 1 
1 0 -0 0 1 
1 0 20 1 0 
2 0 0 1 0 -0 1 20
1 6.2831853071795862 -0 0 1 
1 0 -0 0 1 
1 0 0 1 0 
2 0 0 1 0 -0 1 28
1 0 26.856098003991569 1 0 
2 0 0 1 0 -0 1 17
1 6.2831853071795862 -0 0 1 
1 0 -0 0 1 
Curves 25
2 0 151.89587559161595 11.5 0 0 1 1 0 -0 -0 1 0 41.299999999999997
1 41.299999999999997 151.89587559161595 7.5 0 0 1 
2 0 151.89587559161595 7.5 0 0 1 1 0 -0 -0 1 0 41.299999999999997
2 -27.223611075682086 124.67226451593388 11.5 0 0 1 1 0 -0 -0 1 0 1.8
2 27.223611075682072 124.67226451593386 11.5 0 0 1 1 0 -0 -0 1 0 1.8
2 -27.223611075682076 179.11948666729802 11.5 0 0 1 1 0 -0 -0 1 0 1.8
2 0 151.89587559161595 11.5 0 0 1 1 0 -0 -0 1 0 31
2 27.223611075682083 179.11948666729802 11.5 0 0 1 1 0 -0 -0 1 0 1.8
2 -27.223611075682086 124.67226451593388 7.5 0 0 1 1 0 -0 -0 1 0 1.8
2 27.223611075682072 124.67226451593386 7.5 0 0 1 1 0 -0 -0 1 0 1.8
2 -27.223611075682076 179.11948666729802 7.5 0 0 1 1 0 -0 -0 1 0 1.8
2 0 151.89587559161595 7.5 0 0 1 1 0 -0 -0 1 0 31
2 27.223611075682083 179.11948666729802 7.5 0 0 1 1 0 -0 -0 1 0 1.8
1 -25.423611075682086 124.67226451593388 6.5 0 0 1 
1 29.023611075682073 124.67226451593385 6.5 0 0 1 
1 -25.423611075682075 179.11948666729802 6.5 0 0 1 
1 31 151.89587559161595 7 0 0 1 
1 29.023611075682084 179.11948666729802 6.5 0 0 1 
2 0 151.89587559161595 32 0 0 1 1 0 -0 -0 1 0 20
1 31 151.89587559161595 7.5 -0.40959040283384024 1.0032071515838748e-16 0.91226953358446239 
2 0 151.89587559161595 52 0 0 1 1 0 -0 -0 1 0 20
1 20 151.89587559161595 32 0 0 1 
2 0 151.89587559161595 7.5 0 0 1 1 0 -0 -0 1 0 28
2 0 151.89587559161595 32 0 0 1 1 0 -0 -0 1 0 17
1 28 151.89587559161595 7.5 -0.40959040283384024 1.0032071515838748e-16 0.91226953358446239 
Polygon3D 0
PolygonOnTriangulations 0
Surfaces 17
2 0 151.89587559161595 7.5 0 0 1 1 0 -0 -0 1 0 41.299999999999997
1 0 151.89587559161595 11.5 0 0 1 1 0 -0 -0 1 0 
1 0 151.89587559161595 7.5 0 0 1 1 0 -0 -0 1 0 
2 -27.223611075682086 124.67226451593388 6.5 0 0 1 1 0 -0 -0 1 0 1.8
2 27.223611075682072 124.67226451593386 6.5 0 0 1 1 0 -0 -0 1 0 1.8
2 -27.223611075682076 179.11948666729802 6.5 0 0 1 1 0 -0 -0 1 0 1.8
2 0 151.89587559161595 7 0 0 1 1 0 -0 -0 1 0 31
2 27.223611075682083 179.11948666729802 6.5 0 0 1 1 0 -0 -0 1 0 1.8
3 0 151.89587559161595 7.5 0 0 1 1 0 -0 -0 1 0 31
-0.42200502990221767
1 0 151.89587559161595 32 0 0 1 1 0 -0 -0 1 0 
2 0 151.89587559161595 32 0 0 1 1 0 -0 -0 1 0 20
1 0 151.89587559161595 52 0 0 1 1 0 -0 -0 1 0 
1 0 151.89587559161595 7.5 0 0 1 1 0 -0 -0 1 0 
3 0 151.89587559161595 7.5 0 0 1 1 0 -0 -0 1 0 28
-0.42200502990221767
1 0 151.89587559161595 7.5 0 0 1 1 0 -0 -0 1 0 
1 0 151.89587559161595 32 0 0 1 1 0 -0 -0 1 0 
1 0 151.89587559161595 32 0 0 1 1 0 -0 -0 1 0 
Triangulations 0

TShapes 85
Ve
1e-07
41.3 151.895875591616 11.5
0 0

0101101
*
Ed
 1e-07 1 1 0
1  1 0 0 6.28318530717959
2  1 1 0 0 6.28318530717959
2  2 2 0 0 6.28318530717959
0

0101000
+85 0 -85 0 *
Ve
1e-07
41.3 151.895875591616 7.5
0 0

0101101
*
Ed
 1e-07 1 1 0
1  2 0 0 4
3  3 4CN 1 0 0 4
0

0101000
-85 0 +83 0 *
Ed
 1e-07 1 1 0
1  3 0 0 6.28318530717959
2  5 1 0 0 6.28318530717959
2  6 3 0 0 6.28318530717959
0

0101000
+83 0 -83 0 *
Wi

0101100
-84 0 +82 0 +81 0 -82 0 *
Fa
0  1e-07 1 0

0101000
+80 0 *
Wi

0101100
+84 0 *
Ve
1e-07
-25.4236110756821 124.672264515934 11.5
0 0

0101101
*
Ed
 1e-07 1 1 0
1  4 0 0 6.28318530717959
2  7 2 0 0 6.28318530717959
2  8 4 0 0 6.28318530717959
0

0101000
+77 0 -77 0 *
Wi

0101100
-76 0 *
Ve
1.00000014210855e-07
29.0236110756821 124.672264515934 11.5
0 0

0101101
*
Ed
 1e-07 1 1 0
1  5 0 0 6.28318530717959
2  9 2 0 0 6.28318530717959
2  10 5 0 0 6.28318530717959
0

0101000
+74 0 -74 0 *
Wi

0101100
-73 0 *
Ve
1e-07
-25.4236110756821 179.119486667298 11.5
0 0

0101101
*
Ed
 1e-07 1 1 0
1  6 0 0 6.28318530717959
2  11 2 0 0 6.28318530717959
2  12 6 0 0 6.28318530717959
0

0101000
+71 0 -71 0 *
Wi

0101100
-70 0 *
Ve
1e-07
31 151.895875591616 11.5
0 0

0101101
*
Ed
 1e-07 1 1 0
1  7 0 0 6.28318530717959
2  13 2 0 0 6.28318530717959
2  14 7 0 0 6.28318530717959
0

0101000
+68 0 -68 0 *
Wi

0101100
-67 0 *
Ve
1e-07
29.0236110756821 179.119486667298 11.5
0 0

0101101
*
Ed
 1e-07 1 1 0
1  8 0 0 6.28318530717959
2  15 2 0 0 6.28318530717959
2  16 8 0 0 6.28318530717959
0

0101000
+65 0 -65 0 *
Wi

0101100
-64 0 *
Fa
0  1e-07 2 0

0101000
+78 0 +75 0 +72 0 +69 0 +66 0 +63 0 *
Wi

0101100
+81 0 *
Ve
1e-07
-25.4236110756821 124.672264515934 7.5
0 0

0101101
*
Ed
 1e-07 1 1 0
1  9 0 0 6.28318530717959
2  17 3 0 0 6.28318530717959
2  18 4 0 0 6.28318530717959
0

0101000
+60 0 -60 0 *
Wi

0101100
-59 0 *
Ve
1.00000014210855e-07
29.0236110756821 124.672264515934 7.5
0 0

0101101
*
Ed
 1e-07 1 1 0
1  10 0 0 6.28318530717959
2  19 3 0 0 6.28318530717959
2  20 5 0 0 6.28318530717959
0

0101000
+57 0 -57 0 *
Wi

0101100
-56 0 *
Ve
1e-07
-25.4236110756821 179.119486667298 7.5
0 0

0101101
*
Ed
 1e-07 1 1 0
1  11 0 0 6.28318530717959
2  21 3 0 0 6.28318530717959
2  22 6 0 0 6.28318530717959
0

0101000
+54 0 -54 0 *
Wi

0101100
-53 0 *
Ve
1.00000028421709e-07
31 151.895875591616 7.5
0 0

0101101
*
Ed
 1.00000028421709e-07 1 1 0
1  12 0 0 6.28318530717959
2  23 3 0 0 6.28318530717959
2  24 7 0 0 6.28318530717959
2  25 9 0 0 6.28318530717959
0

0101000
+51 0 -51 0 *
Wi

0101100
-50 0 *
Ve
1e-07
29.0236110756821 179.119486667298 7.5
0 0

0101101
*
Ed
 1e-07 1 1 0
1  13 0 0 6.28318530717959
2  26 3 0 0 6.28318530717959
2  27 8 0 0 6.28318530717959
0

0101000
+48 0 -48 0 *
Wi

0101100
-47 0 *
Fa
0  1e-07 3 0

0101000
+61 0 +58 0 +55 0 +52 0 +49 0 +46 0 *
Ed
 1e-07 1 1 0
1  14 0 1 5
3  28 29CN 4 0 1 5
0

0101000
+60 0 -77 0 *
Wi

0101100
-76 0 +44 0 +59 0 -44 0 *
Fa
0  1e-07 4 0

0101000
+43 0 *
Ed
 1e-07 1 1 0
1  15 0 1 5
3  30 31CN 5 0 1 5
0

0101000
+57 0 -74 0 *
Wi

0101100
-73 0 +41 0 +56 0 -41 0 *
Fa
0  1e-07 5 0

0101000
+40 0 *
Ed
 1e-07 1 1 0
1  16 0 1 5
3  32 33CN 6 0 1 5
0

0101000
+54 0 -71 0 *
Wi

0101100
-70 0 +38 0 +53 0 -38 0 *
Fa
0  1e-07 6 0

0101000
+37 0 *
Ed
 1e-07 1 1 0
1  17 0 0.5 4.5
3  34 35CN 7 0 0.5 4.5
0

0101000
+51 0 -68 0 *
Wi

0101100
-67 0 +35 0 +50 0 -35 0 *
Fa
0  1e-07 7 0

0101000
+34 0 *
Ed
 1e-07 1 1 0
1  18 0 1 5
3  36 37CN 8 0 1 5
0

0101000
+48 0 -65 0 *
Wi

0101100
-64 0 +32 0 +47 0 -32 0 *
Fa
0  1e-07 8 0

0101000
+31 0 *
Sh

0101100
+79 0 +62 0 -45 0 -42 0 -39 0 -36 0 -33 0 -30 0 *
So

0100000
+29 0 *
Ve
1.00000015987212e-07
20 151.895875591616 32
0 0

0101101
*
Ed
 1.00000015987212e-07 1 1 0
1  19 0 0 6.28318530717959
2  38 9 0 0 6.28318530717959
2  39 10 0 0 6.28318530717959
2  40 11 0 0 6.28318530717959
0

0101000
+27 0 -27 0 *
Ed
 1e-07 1 1 0
1  20 0 0 26.8560980039916
3  41 42CN 9 0 0 26.8560980039916
0

0101000
+51 0 -27 0 *
Wi

0101100
-26 0 +25 0 +50 0 -25 0 *
Fa
0  1e-07 9 0

0101000
+24 0 *
Ve
1e-07
20 151.895875591616 52
0 0

0101101
*
Ed
 1e-07 1 1 0
1  21 0 0 6.28318530717959
2  43 11 0 0 6.28318530717959
2  44 12 0 0 6.28318530717959
0

0101000
+22 0 -22 0 *
Ed
 1e-07 1 1 0
1  22 0 0 20
3  45 46CN 11 0 0 20
0

0101000
+27 0 -22 0 *
Wi

0101100
-21 0 +20 0 +26 0 -20 0 *
Fa
0  1e-07 11 0

0101000
+19 0 *
Wi

0101100
+50 0 *
Ve
1e-07
28 151.895875591616 7.5
0 0

0101101
*
Ed
 1e-07 1 1 0
1  23 0 0 6.28318530717959
2  47 14 0 0 6.28318530717959
2  48 15 0 0 6.28318530717959
0

0101000
+16 0 -16 0 *
Wi

0101100
-15 0 *
Fa
0  1e-07 13 0

0101000
+17 0 +14 0 *
Wi

0101100
+21 0 *
Fa
0  1e-07 12 0

0101000
+12 0 *
Ve
1e-07
17 151.895875591616 32
0 0

0101101
*
Ed
 1e-07 1 1 0
1  24 0 0 6.28318530717959
2  49 14 0 0 6.28318530717959
2  50 16 0 0 6.28318530717959
0

0101000
+10 0 -10 0 *
Ed
 1e-07 1 1 0
1  25 0 0 26.8560980039916
3  51 52CN 14 0 0 26.8560980039916
0

0101000
+16 0 -10 0 *
Wi

0101100
-9 0 +8 0 +15 0 -8 0 *
Fa
0  1e-07 14 0

0101000
+7 0 *
Wi

0101100
+9 0 *
Fa
0  1e-07 17 0

0101000
+5 0 *
Sh

0101100
+23 0 +18 0 -13 0 +11 0 -6 0 -4 0 *
So

0100000
+3 0 *
Co

0100000
+28 0 +2 0 *

+1 0 