<?xml version="1.0" standalone="no"?>
 <!DOCTYPE svg PUBLIC "-//W3C//DTD SVG 1.1//EN" 
 "http://www.w3.org/Graphics/SVG/1.1/DTD/svg11.dtd"> 
<svg
  xmlns:svg="http://www.w3.org/2000/svg"
  xmlns="http://www.w3.org/2000/svg"
  xmlns:xlink="http://www.w3.org/1999/xlink"
  xmlns:inkscape="http://www.inkscape.org/namespaces/inkscape"
  version="1.1"
  width="29.3116mm" height="16.2306mm" viewBox="0.0000 0.0000 29.3116 16.2306">
<title>SVG Image created as BSC014N06NS_unit1.svg date 2026-10-05T12:13:34 </title>
  <desc>Image generated by Eeschema-SVG </desc>
<g style="fill:#000000; fill-opacity:1.0000;stroke:#000000; stroke-opacity:1.0000;
stroke-linecap:round; stroke-linejoin:round;"
 transform="translate(0 0) scale(1 1)">
<path style="fill:none; 
stroke:#840000; stroke-width:0.2540; stroke-opacity:1; 
stroke-linecap:round; stroke-linejoin:round;fill:none"
d="M 8.1554,6.2103
8.1554,10.0203
" /> 
<path style="fill:none; 
stroke:#840000; stroke-width:0.1524; stroke-opacity:1; 
stroke-linecap:round; stroke-linejoin:round;fill:none"
d="M 8.1554,8.1153
5.3614,8.1153
" /> 
<path style="fill:none; 
stroke:#840000; stroke-width:0.2540; stroke-opacity:1; 
stroke-linecap:round; stroke-linejoin:round;fill:none"
d="M 8.6634,5.8293
8.6634,6.8453
" /> 
<path style="fill:none; 
stroke:#840000; stroke-width:0.2540; stroke-opacity:1; 
stroke-linecap:round; stroke-linejoin:round;fill:none"
d="M 8.6634,7.6073
8.6634,8.6233
" /> 
<path style="fill:none; 
stroke:#840000; stroke-width:0.2540; stroke-opacity:1; 
stroke-linecap:round; stroke-linejoin:round;fill:none"
d="M 8.6634,9.3853
8.6634,10.4013
" /> 
<path style="fill:none; 
stroke:#840000; stroke-width:0.1524; stroke-opacity:1; 
stroke-linecap:round; stroke-linejoin:round;fill:none"
d="M 8.6634,9.8933
11.2034,9.8933
11.2034,6.3373
8.6634,6.3373
" /> 
<path style="fill:#840000; fill-opacity:1.0000; 
stroke:#840000; stroke-width:0.1524; stroke-opacity:1; 
stroke-linecap:round; stroke-linejoin:round;fill-rule:evenodd;"
d="M 8.9174,8.1153
9.9334,7.7343
9.9334,8.4963
Z" /> 
</g>
<g style="fill:none; 
stroke:#840000; stroke-width:0.2540; stroke-opacity:1; 
stroke-linecap:round; stroke-linejoin:round;">
<circle cx="9.5524" cy="8.1153" r="2.7940" /> 
<path style="fill:none; 
stroke:#840000; stroke-width:0.1524; stroke-opacity:1; 
stroke-linecap:round; stroke-linejoin:round;fill:none"
d="M 10.4414,5.5753
10.4414,6.3373
" /> 
</g>
<g style="fill:#840000; fill-opacity:1.0000; 
stroke:#840000; stroke-width:0.1524; stroke-opacity:1; 
stroke-linecap:round; stroke-linejoin:round;">
<circle cx="10.4414" cy="6.3373" r="0.2540" /> 
<circle cx="10.4414" cy="9.8933" r="0.2540" /> 
<path style="fill:none; 
stroke:#840000; stroke-width:0.1524; stroke-opacity:1; 
stroke-linecap:round; stroke-linejoin:round;fill:none"
d="M 10.4414,10.6553
10.4414,8.1153
8.6634,8.1153
" /> 
<path style="fill:none; 
stroke:#840000; stroke-width:0.1524; stroke-opacity:1; 
stroke-linecap:round; stroke-linejoin:round;fill:none"
d="M 10.8224,7.7343
11.5844,7.7343
" /> 
<path style="fill:none; 
stroke:#840000; stroke-width:0.1524; stroke-opacity:1; 
stroke-linecap:round; stroke-linejoin:round;fill:none"
d="M 11.2034,7.7343
10.8224,8.3693
11.5844,8.3693
Z" /> 
</g>
<g style="fill:none; 
stroke:#840000; stroke-width:0.1524; stroke-opacity:1; 
stroke-linecap:round; stroke-linejoin:round;">
<path d="M5.3614 8.1153
L2.8214 8.1153
" />
</g>
<g style="fill:none; 
stroke:#A90000; stroke-width:0.1524; stroke-opacity:1; 
stroke-linecap:round; stroke-linejoin:round;">
<text x="4.0914" y="7.7597"
textLength="1.4127" font-size="1.6933" lengthAdjust="spacingAndGlyphs"
text-anchor="middle" opacity="0" stroke-opacity="0">4</text>
<g class="stroked-text"><desc>4</desc>
<path d="M4.3333 6.7496
L4.3333 7.5962
" />
<path d="M4.0309 6.2658
L3.7286 7.1729
" />
<path d="M3.7286 7.1729
L4.5147 7.1729
" />
</g></g>
<g style="fill:none; 
stroke:#840000; stroke-width:0.1524; stroke-opacity:1; 
stroke-linecap:round; stroke-linejoin:round;">
<path d="M10.4414 10.6553
L10.4414 13.1953
" />
</g>
<g style="fill:none; 
stroke:#A90000; stroke-width:0.1524; stroke-opacity:1; 
stroke-linecap:round; stroke-linejoin:round;">
<g transform="rotate(-90.000000 10.0858 11.9253)">
<text x="10.0858" y="11.9253"
textLength="5.8880" font-size="1.6933" lengthAdjust="spacingAndGlyphs"
text-anchor="middle" opacity="0" stroke-opacity="0">[1-3]</text>
</g>
<g class="stroked-text"><desc>[1-3]</desc>
<path d="M10.3457 14.1024
L10.3457 14.4048
" />
<path d="M10.3457 14.4048
L8.5314 14.4048
" />
<path d="M8.5314 14.4048
L8.5314 14.1024
" />
<path d="M9.9223 12.9533
L9.9223 13.6790
" />
<path d="M9.9223 13.3162
L8.6523 13.3162
" />
<path d="M8.6523 13.3162
L8.8338 13.4371
" />
<path d="M8.8338 13.4371
L8.9547 13.5581
" />
<path d="M8.9547 13.5581
L9.0152 13.6790
" />
<path d="M9.4385 12.4091
L9.4385 11.4415
" />
<path d="M8.6523 10.9576
L8.6523 10.1714
" />
<path d="M8.6523 10.1714
L9.1361 10.5948
" />
<path d="M9.1361 10.5948
L9.1361 10.4133
" />
<path d="M9.1361 10.4133
L9.1966 10.2924
" />
<path d="M9.1966 10.2924
L9.2571 10.2319
" />
<path d="M9.2571 10.2319
L9.3780 10.1714
" />
<path d="M9.3780 10.1714
L9.6804 10.1714
" />
<path d="M9.6804 10.1714
L9.8014 10.2319
" />
<path d="M9.8014 10.2319
L9.8619 10.2924
" />
<path d="M9.8619 10.2924
L9.9223 10.4133
" />
<path d="M9.9223 10.4133
L9.9223 10.7762
" />
<path d="M9.9223 10.7762
L9.8619 10.8971
" />
<path d="M9.8619 10.8971
L9.8014 10.9576
" />
<path d="M10.3457 9.7481
L10.3457 9.4457
" />
<path d="M10.3457 9.4457
L8.5314 9.4457
" />
<path d="M8.5314 9.4457
L8.5314 9.7481
" />
</g></g>
<g style="fill:none; 
stroke:#840000; stroke-width:0.1524; stroke-opacity:1; 
stroke-linecap:round; stroke-linejoin:round;">
<path d="M10.4414 5.5753
L10.4414 3.0353
" />
</g>
<g style="fill:none; 
stroke:#A90000; stroke-width:0.1524; stroke-opacity:1; 
stroke-linecap:round; stroke-linejoin:round;">
<g transform="rotate(-90.000000 10.0858 4.3053)">
<text x="10.0858" y="4.3053"
textLength="5.8880" font-size="1.6933" lengthAdjust="spacingAndGlyphs"
text-anchor="middle" opacity="0" stroke-opacity="0">[5-8]</text>
</g>
<g class="stroked-text"><desc>[5-8]</desc>
<path d="M10.3457 6.4824
L10.3457 6.7848
" />
<path d="M10.3457 6.7848
L8.5314 6.7848
" />
<path d="M8.5314 6.7848
L8.5314 6.4824
" />
<path d="M8.6523 5.3938
L8.6523 5.9986
" />
<path d="M8.6523 5.9986
L9.2571 6.0590
" />
<path d="M9.2571 6.0590
L9.1966 5.9986
" />
<path d="M9.1966 5.9986
L9.1361 5.8776
" />
<path d="M9.1361 5.8776
L9.1361 5.5752
" />
<path d="M9.1361 5.5752
L9.1966 5.4543
" />
<path d="M9.1966 5.4543
L9.2571 5.3938
" />
<path d="M9.2571 5.3938
L9.3780 5.3333
" />
<path d="M9.3780 5.3333
L9.6804 5.3333
" />
<path d="M9.6804 5.3333
L9.8014 5.3938
" />
<path d="M9.8014 5.3938
L9.8619 5.4543
" />
<path d="M9.8619 5.4543
L9.9223 5.5752
" />
<path d="M9.9223 5.5752
L9.9223 5.8776
" />
<path d="M9.9223 5.8776
L9.8619 5.9986
" />
<path d="M9.8619 5.9986
L9.8014 6.0590
" />
<path d="M9.4385 4.7891
L9.4385 3.8215
" />
<path d="M9.1966 3.0352
L9.1361 3.1562
" />
<path d="M9.1361 3.1562
L9.0757 3.2167
" />
<path d="M9.0757 3.2167
L8.9547 3.2771
" />
<path d="M8.9547 3.2771
L8.8942 3.2771
" />
<path d="M8.8942 3.2771
L8.7733 3.2167
" />
<path d="M8.7733 3.2167
L8.7128 3.1562
" />
<path d="M8.7128 3.1562
L8.6523 3.0352
" />
<path d="M8.6523 3.0352
L8.6523 2.7933
" />
<path d="M8.6523 2.7933
L8.7128 2.6724
" />
<path d="M8.7128 2.6724
L8.7733 2.6119
" />
<path d="M8.7733 2.6119
L8.8942 2.5514
" />
<path d="M8.8942 2.5514
L8.9547 2.5514
" />
<path d="M8.9547 2.5514
L9.0757 2.6119
" />
<path d="M9.0757 2.6119
L9.1361 2.6724
" />
<path d="M9.1361 2.6724
L9.1966 2.7933
" />
<path d="M9.1966 2.7933
L9.1966 3.0352
" />
<path d="M9.1966 3.0352
L9.2571 3.1562
" />
<path d="M9.2571 3.1562
L9.3176 3.2167
" />
<path d="M9.3176 3.2167
L9.4385 3.2771
" />
<path d="M9.4385 3.2771
L9.6804 3.2771
" />
<path d="M9.6804 3.2771
L9.8014 3.2167
" />
<path d="M9.8014 3.2167
L9.8619 3.1562
" />
<path d="M9.8619 3.1562
L9.9223 3.0352
" />
<path d="M9.9223 3.0352
L9.9223 2.7933
" />
<path d="M9.9223 2.7933
L9.8619 2.6724
" />
<path d="M9.8619 2.6724
L9.8014 2.6119
" />
<path d="M9.8014 2.6119
L9.6804 2.5514
" />
<path d="M9.6804 2.5514
L9.4385 2.5514
" />
<path d="M9.4385 2.5514
L9.3176 2.6119
" />
<path d="M9.3176 2.6119
L9.2571 2.6724
" />
<path d="M9.2571 2.6724
L9.1966 2.7933
" />
<path d="M10.3457 2.1281
L10.3457 1.8257
" />
<path d="M10.3457 1.8257
L8.5314 1.8257
" />
<path d="M8.5314 1.8257
L8.5314 2.1281
" />
</g></g>
<g style="fill:none; 
stroke:#006464; stroke-width:0.1524; stroke-opacity:1; 
stroke-linecap:round; stroke-linejoin:round;">
<text x="12.9814" y="6.8453"
textLength="2.6223" font-size="1.6933" lengthAdjust="spacingAndGlyphs"
text-anchor="start" opacity="0" stroke-opacity="0">Q?</text>
<g class="stroked-text"><desc>Q?</desc>
<path d="M14.2306 6.9108
L14.1096 6.8503
" />
<path d="M14.1096 6.8503
L13.9887 6.7294
" />
<path d="M13.9887 6.7294
L13.8073 6.5479
" />
<path d="M13.8073 6.5479
L13.6863 6.4874
" />
<path d="M13.6863 6.4874
L13.5654 6.4874
" />
<path d="M13.6258 6.7898
L13.5049 6.7294
" />
<path d="M13.5049 6.7294
L13.3839 6.6084
" />
<path d="M13.3839 6.6084
L13.3235 6.3665
" />
<path d="M13.3235 6.3665
L13.3235 5.9432
" />
<path d="M13.3235 5.9432
L13.3839 5.7013
" />
<path d="M13.3839 5.7013
L13.5049 5.5803
" />
<path d="M13.5049 5.5803
L13.6258 5.5198
" />
<path d="M13.6258 5.5198
L13.8677 5.5198
" />
<path d="M13.8677 5.5198
L13.9887 5.5803
" />
<path d="M13.9887 5.5803
L14.1096 5.7013
" />
<path d="M14.1096 5.7013
L14.1701 5.9432
" />
<path d="M14.1701 5.9432
L14.1701 6.3665
" />
<path d="M14.1701 6.3665
L14.1096 6.6084
" />
<path d="M14.1096 6.6084
L13.9887 6.7294
" />
<path d="M13.9887 6.7294
L13.8677 6.7898
" />
<path d="M13.8677 6.7898
L13.6258 6.7898
" />
<path d="M14.8959 6.6689
L14.9563 6.7294
" />
<path d="M14.9563 6.7294
L14.8959 6.7898
" />
<path d="M14.8959 6.7898
L14.8354 6.7294
" />
<path d="M14.8354 6.7294
L14.8959 6.6689
" />
<path d="M14.8959 6.6689
L14.8959 6.7898
" />
<path d="M14.6540 5.5803
L14.7749 5.5198
" />
<path d="M14.7749 5.5198
L15.0773 5.5198
" />
<path d="M15.0773 5.5198
L15.1982 5.5803
" />
<path d="M15.1982 5.5803
L15.2587 5.7013
" />
<path d="M15.2587 5.7013
L15.2587 5.8222
" />
<path d="M15.2587 5.8222
L15.1982 5.9432
" />
<path d="M15.1982 5.9432
L15.1378 6.0036
" />
<path d="M15.1378 6.0036
L15.0168 6.0641
" />
<path d="M15.0168 6.0641
L14.9563 6.1246
" />
<path d="M14.9563 6.1246
L14.8959 6.2455
" />
<path d="M14.8959 6.2455
L14.8959 6.3060
" />
</g><text x="12.9814" y="8.7503"
textLength="13.8707" font-size="1.6933" lengthAdjust="spacingAndGlyphs"
text-anchor="start" opacity="0" stroke-opacity="0">BSC014N06NS</text>
<g class="stroked-text"><desc>BSC014N06NS</desc>
<path d="M13.8073 8.0296
L13.9887 8.0901
" />
<path d="M13.9887 8.0901
L14.0492 8.1505
" />
<path d="M14.0492 8.1505
L14.1096 8.2715
" />
<path d="M14.1096 8.2715
L14.1096 8.4529
" />
<path d="M14.1096 8.4529
L14.0492 8.5739
" />
<path d="M14.0492 8.5739
L13.9887 8.6344
" />
<path d="M13.9887 8.6344
L13.8677 8.6948
" />
<path d="M13.8677 8.6948
L13.3839 8.6948
" />
<path d="M13.3839 8.6948
L13.3839 7.4248
" />
<path d="M13.3839 7.4248
L13.8073 7.4248
" />
<path d="M13.8073 7.4248
L13.9282 7.4853
" />
<path d="M13.9282 7.4853
L13.9887 7.5458
" />
<path d="M13.9887 7.5458
L14.0492 7.6667
" />
<path d="M14.0492 7.6667
L14.0492 7.7877
" />
<path d="M14.0492 7.7877
L13.9887 7.9086
" />
<path d="M13.9887 7.9086
L13.9282 7.9691
" />
<path d="M13.9282 7.9691
L13.8073 8.0296
" />
<path d="M13.8073 8.0296
L13.3839 8.0296
" />
<path d="M14.5935 8.6344
L14.7749 8.6948
" />
<path d="M14.7749 8.6948
L15.0773 8.6948
" />
<path d="M15.0773 8.6948
L15.1982 8.6344
" />
<path d="M15.1982 8.6344
L15.2587 8.5739
" />
<path d="M15.2587 8.5739
L15.3192 8.4529
" />
<path d="M15.3192 8.4529
L15.3192 8.3320
" />
<path d="M15.3192 8.3320
L15.2587 8.2110
" />
<path d="M15.2587 8.2110
L15.1982 8.1505
" />
<path d="M15.1982 8.1505
L15.0773 8.0901
" />
<path d="M15.0773 8.0901
L14.8354 8.0296
" />
<path d="M14.8354 8.0296
L14.7144 7.9691
" />
<path d="M14.7144 7.9691
L14.6539 7.9086
" />
<path d="M14.6539 7.9086
L14.5935 7.7877
" />
<path d="M14.5935 7.7877
L14.5935 7.6667
" />
<path d="M14.5935 7.6667
L14.6539 7.5458
" />
<path d="M14.6539 7.5458
L14.7144 7.4853
" />
<path d="M14.7144 7.4853
L14.8354 7.4248
" />
<path d="M14.8354 7.4248
L15.1377 7.4248
" />
<path d="M15.1377 7.4248
L15.3192 7.4853
" />
<path d="M16.5891 8.5739
L16.5287 8.6344
" />
<path d="M16.5287 8.6344
L16.3472 8.6948
" />
<path d="M16.3472 8.6948
L16.2263 8.6948
" />
<path d="M16.2263 8.6948
L16.0449 8.6344
" />
<path d="M16.0449 8.6344
L15.9239 8.5134
" />
<path d="M15.9239 8.5134
L15.8634 8.3924
" />
<path d="M15.8634 8.3924
L15.8030 8.1505
" />
<path d="M15.8030 8.1505
L15.8030 7.9691
" />
<path d="M15.8030 7.9691
L15.8634 7.7272
" />
<path d="M15.8634 7.7272
L15.9239 7.6063
" />
<path d="M15.9239 7.6063
L16.0449 7.4853
" />
<path d="M16.0449 7.4853
L16.2263 7.4248
" />
<path d="M16.2263 7.4248
L16.3472 7.4248
" />
<path d="M16.3472 7.4248
L16.5287 7.4853
" />
<path d="M16.5287 7.4853
L16.5891 7.5458
" />
<path d="M17.3753 7.4248
L17.4963 7.4248
" />
<path d="M17.4963 7.4248
L17.6172 7.4853
" />
<path d="M17.6172 7.4853
L17.6777 7.5458
" />
<path d="M17.6777 7.5458
L17.7382 7.6667
" />
<path d="M17.7382 7.6667
L17.7987 7.9086
" />
<path d="M17.7987 7.9086
L17.7987 8.2110
" />
<path d="M17.7987 8.2110
L17.7382 8.4529
" />
<path d="M17.7382 8.4529
L17.6777 8.5739
" />
<path d="M17.6777 8.5739
L17.6172 8.6344
" />
<path d="M17.6172 8.6344
L17.4963 8.6948
" />
<path d="M17.4963 8.6948
L17.3753 8.6948
" />
<path d="M17.3753 8.6948
L17.2544 8.6344
" />
<path d="M17.2544 8.6344
L17.1939 8.5739
" />
<path d="M17.1939 8.5739
L17.1334 8.4529
" />
<path d="M17.1334 8.4529
L17.0730 8.2110
" />
<path d="M17.0730 8.2110
L17.0730 7.9086
" />
<path d="M17.0730 7.9086
L17.1334 7.6667
" />
<path d="M17.1334 7.6667
L17.1939 7.5458
" />
<path d="M17.1939 7.5458
L17.2544 7.4853
" />
<path d="M17.2544 7.4853
L17.3753 7.4248
" />
<path d="M19.0082 8.6948
L18.2825 8.6948
" />
<path d="M18.6453 8.6948
L18.6453 7.4248
" />
<path d="M18.6453 7.4248
L18.5244 7.6063
" />
<path d="M18.5244 7.6063
L18.4034 7.7272
" />
<path d="M18.4034 7.7272
L18.2825 7.7877
" />
<path d="M20.0967 7.8482
L20.0967 8.6948
" />
<path d="M19.7943 7.3644
L19.4920 8.2715
" />
<path d="M19.4920 8.2715
L20.2781 8.2715
" />
<path d="M20.7619 8.6948
L20.7619 7.4248
" />
<path d="M20.7619 7.4248
L21.4876 8.6948
" />
<path d="M21.4876 8.6948
L21.4876 7.4248
" />
<path d="M22.3343 7.4248
L22.4553 7.4248
" />
<path d="M22.4553 7.4248
L22.5762 7.4853
" />
<path d="M22.5762 7.4853
L22.6367 7.5458
" />
<path d="M22.6367 7.5458
L22.6972 7.6667
" />
<path d="M22.6972 7.6667
L22.7577 7.9086
" />
<path d="M22.7577 7.9086
L22.7577 8.2110
" />
<path d="M22.7577 8.2110
L22.6972 8.4529
" />
<path d="M22.6972 8.4529
L22.6367 8.5739
" />
<path d="M22.6367 8.5739
L22.5762 8.6344
" />
<path d="M22.5762 8.6344
L22.4553 8.6948
" />
<path d="M22.4553 8.6948
L22.3343 8.6948
" />
<path d="M22.3343 8.6948
L22.2134 8.6344
" />
<path d="M22.2134 8.6344
L22.1529 8.5739
" />
<path d="M22.1529 8.5739
L22.0924 8.4529
" />
<path d="M22.0924 8.4529
L22.0320 8.2110
" />
<path d="M22.0320 8.2110
L22.0320 7.9086
" />
<path d="M22.0320 7.9086
L22.0924 7.6667
" />
<path d="M22.0924 7.6667
L22.1529 7.5458
" />
<path d="M22.1529 7.5458
L22.2134 7.4853
" />
<path d="M22.2134 7.4853
L22.3343 7.4248
" />
<path d="M23.8462 7.4248
L23.6043 7.4248
" />
<path d="M23.6043 7.4248
L23.4834 7.4853
" />
<path d="M23.4834 7.4853
L23.4229 7.5458
" />
<path d="M23.4229 7.5458
L23.3019 7.7272
" />
<path d="M23.3019 7.7272
L23.2415 7.9691
" />
<path d="M23.2415 7.9691
L23.2415 8.4529
" />
<path d="M23.2415 8.4529
L23.3019 8.5739
" />
<path d="M23.3019 8.5739
L23.3624 8.6344
" />
<path d="M23.3624 8.6344
L23.4834 8.6948
" />
<path d="M23.4834 8.6948
L23.7253 8.6948
" />
<path d="M23.7253 8.6948
L23.8462 8.6344
" />
<path d="M23.8462 8.6344
L23.9067 8.5739
" />
<path d="M23.9067 8.5739
L23.9672 8.4529
" />
<path d="M23.9672 8.4529
L23.9672 8.1505
" />
<path d="M23.9672 8.1505
L23.9067 8.0296
" />
<path d="M23.9067 8.0296
L23.8462 7.9691
" />
<path d="M23.8462 7.9691
L23.7253 7.9086
" />
<path d="M23.7253 7.9086
L23.4834 7.9086
" />
<path d="M23.4834 7.9086
L23.3624 7.9691
" />
<path d="M23.3624 7.9691
L23.3019 8.0296
" />
<path d="M23.3019 8.0296
L23.2415 8.1505
" />
<path d="M24.5114 8.6948
L24.5114 7.4248
" />
<path d="M24.5114 7.4248
L25.2371 8.6948
" />
<path d="M25.2371 8.6948
L25.2371 7.4248
" />
<path d="M25.7815 8.6344
L25.9629 8.6948
" />
<path d="M25.9629 8.6948
L26.2653 8.6948
" />
<path d="M26.2653 8.6948
L26.3862 8.6344
" />
<path d="M26.3862 8.6344
L26.4467 8.5739
" />
<path d="M26.4467 8.5739
L26.5072 8.4529
" />
<path d="M26.5072 8.4529
L26.5072 8.3320
" />
<path d="M26.5072 8.3320
L26.4467 8.2110
" />
<path d="M26.4467 8.2110
L26.3862 8.1505
" />
<path d="M26.3862 8.1505
L26.2653 8.0901
" />
<path d="M26.2653 8.0901
L26.0234 8.0296
" />
<path d="M26.0234 8.0296
L25.9024 7.9691
" />
<path d="M25.9024 7.9691
L25.8419 7.9086
" />
<path d="M25.8419 7.9086
L25.7815 7.7877
" />
<path d="M25.7815 7.7877
L25.7815 7.6667
" />
<path d="M25.7815 7.6667
L25.8419 7.5458
" />
<path d="M25.8419 7.5458
L25.9024 7.4853
" />
<path d="M25.9024 7.4853
L26.0234 7.4248
" />
<path d="M26.0234 7.4248
L26.3257 7.4248
" />
<path d="M26.3257 7.4248
L26.5072 7.4853
" />
</g></g> 
</svg>
